<svg width="68" height="25" viewBox="0 0 68 25" fill="none" xmlns="http://www.w3.org/2000/svg">
<path d="M3.15298 18.8501V11.3778C3.15298 11.1649 3.26364 11.0504 3.48496 11.0344H4.06607C4.17563 11.0325 4.28498 11.0443 4.39159 11.0696C4.48247 11.0939 4.54769 11.1807 4.58725 11.3302L4.65835 11.7118C4.83834 11.4746 5.06163 11.2737 5.31643 11.1195C5.55734 10.9774 5.85563 10.9064 6.21131 10.9064C6.58972 10.9021 6.96432 10.9823 7.30772 11.1412C7.63755 11.295 7.93368 11.5125 8.17909 11.781C8.42974 12.0582 8.62677 12.3795 8.76021 12.7284C8.9046 13.1028 8.97696 13.5011 8.97349 13.9024C8.97692 14.3031 8.90661 14.701 8.76608 15.0763C8.63452 15.4282 8.43733 15.7518 8.18497 16.0302C7.9325 16.3081 7.62389 16.5293 7.27952 16.6793C6.93515 16.8292 6.56285 16.9045 6.18722 16.9001C5.91026 16.9056 5.63596 16.8452 5.38694 16.724C5.16813 16.6163 4.9694 16.472 4.79937 16.2973V18.8553C4.80229 18.9038 4.79469 18.9522 4.7771 18.9974C4.75951 19.0426 4.73234 19.0835 4.69746 19.1172C4.66258 19.151 4.62081 19.1768 4.57501 19.1929C4.52921 19.209 4.48047 19.215 4.43213 19.2105H3.53255C3.43505 19.2127 3.34014 19.179 3.2658 19.116C3.22762 19.0834 3.19755 19.0425 3.17797 18.9963C3.15838 18.9502 3.14983 18.9001 3.15298 18.8501V18.8501ZM4.63484 13.8648C4.63266 14.067 4.66895 14.2678 4.74178 14.4565C4.80815 14.6311 4.90659 14.7917 5.03205 14.9302C5.15409 15.0643 5.30146 15.173 5.46567 15.2501C5.62849 15.3281 5.80687 15.3682 5.98744 15.3675C6.16414 15.3691 6.33871 15.3288 6.49687 15.2501C6.65485 15.1715 6.79596 15.0628 6.91228 14.9302C7.0335 14.7912 7.12972 14.6324 7.19667 14.4606C7.33849 14.0908 7.33849 13.6817 7.19667 13.3119C7.12963 13.1402 7.03342 12.9813 6.91228 12.8423C6.7967 12.7104 6.65533 12.6035 6.49687 12.5283C6.33771 12.4529 6.16358 12.4143 5.98744 12.4156C5.80847 12.4162 5.63188 12.4565 5.47038 12.5335C5.30958 12.6075 5.1647 12.7119 5.0438 12.8411C4.91896 12.9763 4.81945 13.1327 4.75001 13.3031C4.67411 13.4806 4.63494 13.6717 4.63484 13.8648V13.8648Z" fill="white"/>
<path d="M11.4948 11.3653C11.5025 11.4046 11.5225 11.4826 11.5536 11.5959C11.5847 11.7092 11.6047 11.7873 11.6124 11.8266C11.6913 11.7237 11.7764 11.6257 11.8674 11.5331C11.969 11.4278 12.0824 11.3345 12.2052 11.2549C12.3343 11.1709 12.4722 11.1014 12.6165 11.0477C12.7702 10.9912 12.9328 10.9631 13.0966 10.9649H13.2088C13.2467 10.9652 13.2845 10.9692 13.3216 10.9767C13.4512 10.9891 13.5784 11.0189 13.7 11.0653C13.8382 11.1147 13.9729 11.1736 14.1031 11.2414C14.2173 11.3002 14.3245 11.3717 14.4227 11.4545C14.5097 11.5296 14.5532 11.5989 14.5532 11.6617C14.5492 11.7212 14.5288 11.7785 14.4944 11.8272L14.0202 12.5973C13.9493 12.7077 13.8665 12.7629 13.7717 12.7629C13.7221 12.7582 13.6739 12.7442 13.6295 12.7218C13.5607 12.6915 13.4934 12.6578 13.428 12.6208C13.3381 12.554 13.2404 12.4984 13.1371 12.4553C13.0441 12.4219 12.9457 12.4058 12.8469 12.4077C12.6845 12.4047 12.5236 12.4392 12.3768 12.5087C12.2431 12.5722 12.124 12.6627 12.0272 12.7746C11.9327 12.8852 11.8585 13.0115 11.808 13.1479C11.7576 13.2791 11.7315 13.4183 11.731 13.5588V16.5524C11.731 16.75 11.6243 16.8479 11.4108 16.8459H10.4278C10.2222 16.8459 10.1199 16.7473 10.1199 16.5524V11.3653C10.1167 11.322 10.1235 11.2786 10.14 11.2385C10.1564 11.1984 10.1819 11.1626 10.2145 11.134C10.2744 11.0841 10.3499 11.0569 10.4278 11.0571H11.1864C11.2262 11.0539 11.2662 11.0608 11.3026 11.0774C11.339 11.0939 11.3706 11.1195 11.3944 11.1516C11.4387 11.2172 11.4726 11.2893 11.4948 11.3653Z" fill="white"/>
<path d="M26.9065 18.8495V11.3772C26.9065 11.1643 27.0172 11.0498 27.2385 11.0338H27.819C27.9288 11.0319 28.0383 11.0438 28.1451 11.069C28.2364 11.0933 28.3016 11.1801 28.3408 11.3296L28.4119 11.7088C28.5917 11.4715 28.815 11.2705 29.07 11.1166C29.3109 10.9745 29.6092 10.9035 29.9649 10.9035C30.3433 10.8993 30.7178 10.9795 31.0613 11.1383C31.3911 11.2921 31.6872 11.5095 31.9326 11.7781C32.1833 12.0553 32.3803 12.3765 32.5138 12.7255C32.6581 13.0999 32.7305 13.4982 32.727 13.8994C32.7305 14.3002 32.6602 14.6981 32.5196 15.0734C32.3881 15.4252 32.1909 15.7489 31.9385 16.0273C31.6861 16.3052 31.3774 16.5264 31.0331 16.6763C30.6887 16.8263 30.3164 16.9016 29.9408 16.8972C29.6638 16.9028 29.3895 16.8424 29.1405 16.7211C28.9222 16.6117 28.7242 16.4658 28.5553 16.2896V18.8477C28.5582 18.8961 28.5506 18.9446 28.533 18.9898C28.5154 19.035 28.4882 19.0759 28.4534 19.1096C28.4185 19.1433 28.3767 19.1691 28.3309 19.1852C28.2851 19.2013 28.2364 19.2073 28.188 19.2028H27.2855C27.188 19.2049 27.0932 19.1713 27.0188 19.1083C26.9817 19.0764 26.9524 19.0366 26.933 18.9917C26.9135 18.9469 26.9045 18.8983 26.9065 18.8495V18.8495ZM28.3884 13.8642C28.3869 14.0665 28.4235 14.2672 28.4965 14.4559C28.5631 14.6305 28.6617 14.7912 28.7874 14.9296C28.9091 15.0636 29.056 15.1723 29.2198 15.2495C29.3826 15.3276 29.561 15.3677 29.7416 15.3669C29.9183 15.3685 30.0928 15.3282 30.251 15.2495C30.4089 15.171 30.5498 15.0623 30.6658 14.9296C30.7872 14.7907 30.8836 14.6318 30.9508 14.46C31.0926 14.0902 31.0926 13.6811 30.9508 13.3113C30.8836 13.1395 30.7872 12.9807 30.6658 12.8417C30.5506 12.7097 30.4094 12.6028 30.251 12.5277C30.0918 12.4523 29.9177 12.4138 29.7416 12.415C29.5634 12.4141 29.3873 12.4526 29.2257 12.5277C29.0649 12.6016 28.92 12.7061 28.7991 12.8352C28.6734 12.9703 28.573 13.1268 28.5024 13.2972C28.4262 13.4765 28.3874 13.6694 28.3884 13.8642V13.8642Z" fill="white"/>
<path d="M34.927 11.2565L36.1021 14.5248L37.2638 11.2447C37.2952 11.1646 37.351 11.0963 37.4233 11.0496C37.4956 11.0028 37.5808 10.9799 37.6669 10.9841H38.7245C38.9378 10.9841 39.0447 11.0745 39.0447 11.2565C39.0447 11.2888 39.0385 11.3209 39.0265 11.351C39.0183 11.3698 39.0124 11.3895 39.0089 11.4097L36.9582 16.4307C36.9195 16.5239 36.8655 16.61 36.7984 16.6855C36.7668 16.7218 36.7276 16.7507 36.6835 16.7702C36.6394 16.7897 36.5916 16.7992 36.5434 16.7982H35.662C35.6014 16.8028 35.5407 16.7909 35.4864 16.7637C35.432 16.7365 35.3861 16.6951 35.3536 16.6438C35.2886 16.5384 35.2331 16.4274 35.1879 16.3122L34.2149 13.9208C34.0492 13.5181 33.8813 13.1037 33.7113 12.6776C33.5413 12.2514 33.3734 11.8448 33.2077 11.4578C33.1995 11.4337 33.1895 11.3991 33.1778 11.3568C33.1671 11.3204 33.1612 11.2827 33.1602 11.2447C33.1602 11.071 33.2628 10.9841 33.468 10.9841H34.5468C34.6319 10.9788 34.7162 11.0031 34.7854 11.0527C34.8547 11.1023 34.9047 11.1743 34.927 11.2565Z" fill="#F15A29"/>
<path d="M39.9006 9.30453C39.9016 9.12384 39.9561 8.9475 40.0571 8.79762C40.1582 8.64773 40.3012 8.53099 40.4684 8.46203C40.6356 8.39306 40.8194 8.37495 40.9969 8.40997C41.1743 8.44498 41.3375 8.53157 41.4659 8.65885C41.5504 8.74348 41.6171 8.84427 41.6618 8.95521C41.7065 9.06615 41.7284 9.18496 41.7261 9.30453C41.7287 9.42327 41.7069 9.54128 41.6622 9.65131C41.6174 9.76134 41.5506 9.86106 41.4659 9.94434C41.291 10.1112 41.0584 10.2043 40.8166 10.2043C40.5747 10.2043 40.3422 10.1112 40.1673 9.94434C40.0809 9.86198 40.0126 9.76257 39.9667 9.65243C39.9207 9.54229 39.8982 9.42382 39.9006 9.30453ZM41.6551 11.3179V16.5761C41.6551 16.7577 41.5571 16.8484 41.3613 16.8484H40.3277C40.1456 16.8484 40.0551 16.7575 40.0551 16.5761V11.3179C40.0511 11.2422 40.0766 11.168 40.1262 11.1107C40.1524 11.0843 40.1839 11.0638 40.2186 11.0505C40.2534 11.0372 40.2906 11.0315 40.3277 11.0338H41.3589C41.433 11.035 41.5044 11.0622 41.5605 11.1107C41.5913 11.1355 41.6159 11.1671 41.6323 11.2031C41.6488 11.2391 41.6565 11.2784 41.6551 11.3179V11.3179Z" fill="#F15A29"/>
<path d="M46.1254 15.581C46.2984 15.5888 46.4713 15.5647 46.6355 15.51C46.8035 15.4538 46.9662 15.3825 47.1214 15.2969C47.1828 15.2659 47.2417 15.2301 47.2976 15.1901C47.3416 15.155 47.3954 15.1344 47.4516 15.1314C47.4877 15.1324 47.523 15.1428 47.5539 15.1615C47.5848 15.1803 47.6103 15.2067 47.6279 15.2382L48.0668 15.9367C48.0995 15.982 48.1197 16.035 48.1255 16.0905C48.1272 16.1495 48.1062 16.2068 48.0668 16.2508C48.0262 16.2952 47.9826 16.3368 47.9363 16.3752C47.685 16.5635 47.408 16.715 47.1137 16.8248C46.8083 16.9372 46.485 16.9935 46.1595 16.991C45.7582 16.9935 45.3605 16.9136 44.9914 16.7562C44.633 16.6042 44.3071 16.385 44.0313 16.1105C43.7549 15.8327 43.5337 15.5051 43.3797 15.1449C43.2204 14.7741 43.1377 14.375 43.1367 13.9715C43.1357 13.568 43.2164 13.1685 43.3738 12.797C43.5266 12.4372 43.7434 12.1081 44.0137 11.8255C44.2801 11.545 44.5981 11.3184 44.9503 11.1581C45.3076 10.9957 45.6959 10.9128 46.0884 10.9151C46.4587 10.9134 46.8255 10.9858 47.1672 11.1282C47.4997 11.2654 47.804 11.4631 48.0644 11.711C48.3204 11.9546 48.5259 12.2462 48.669 12.5692C48.8147 12.8986 48.889 13.2551 48.887 13.6152C48.887 13.9228 48.8612 14.1464 48.8101 14.2844C48.7589 14.4223 48.6461 14.4916 48.4722 14.4916H44.784C44.7968 14.6559 44.8499 14.8145 44.9385 14.9535C45.0239 15.086 45.1321 15.2023 45.2582 15.2969C45.3852 15.3918 45.5277 15.4639 45.6795 15.51C45.8237 15.556 45.974 15.5799 46.1254 15.581V15.581ZM44.7858 13.3428H47.3347C47.3272 13.1959 47.289 13.052 47.2226 12.9206C47.1563 12.7892 47.0631 12.6731 46.9492 12.5798C46.701 12.3663 46.3817 12.2534 46.0543 12.2634C45.9083 12.2642 45.7637 12.2921 45.6278 12.3456C45.4857 12.3999 45.3535 12.477 45.2364 12.5739C45.1191 12.6709 45.0197 12.7878 44.9426 12.919C44.8631 13.0489 44.8093 13.1927 44.784 13.3428H44.7858Z" fill="#F15A29"/>
<path d="M59.5404 11.4005C59.5378 11.3524 59.5455 11.3042 59.5629 11.2593C59.5803 11.2144 59.6071 11.1737 59.6415 11.1398C59.7146 11.0746 59.8104 11.0407 59.9082 11.0453H64.1164C64.209 11.0446 64.2989 11.0759 64.3709 11.134C64.4094 11.1664 64.4397 11.2074 64.4593 11.2537C64.4789 11.3 64.4873 11.3503 64.4837 11.4005V12.1941C64.4834 12.2237 64.4814 12.2533 64.4778 12.2827C64.471 12.3246 64.4525 12.3636 64.4243 12.3954L61.6862 15.3796H64.1617C64.4069 15.3796 64.5295 15.5019 64.5295 15.7465V16.4573C64.5281 16.5552 64.4923 16.6496 64.4284 16.7238C64.3968 16.764 64.3562 16.7962 64.3099 16.8178C64.2636 16.8394 64.2128 16.8498 64.1617 16.8483H59.776C59.7266 16.849 59.6776 16.8389 59.6325 16.8186C59.5874 16.7983 59.5473 16.7684 59.5151 16.7309C59.4459 16.6571 59.4076 16.5596 59.4082 16.4585V15.8298C59.4082 15.7899 59.4082 15.7488 59.4141 15.7054C59.4204 15.6575 59.4435 15.6134 59.4793 15.581C59.685 15.352 59.9122 15.1073 60.1609 14.8467C60.4096 14.586 60.6605 14.3215 60.9136 14.053L61.6663 13.2542C61.9154 12.9896 62.1428 12.7429 62.3484 12.514H59.9065C59.6609 12.514 59.5383 12.3876 59.5387 12.1348L59.5404 11.4005Z" fill="#F15A29"/>
<path d="M20.3614 9.1582C19.5102 9.15855 18.6782 9.41101 17.9706 9.88366C17.263 10.3563 16.7115 11.0279 16.3859 11.8136C16.0603 12.5993 15.9752 13.4638 16.1414 14.2978C16.3075 15.1318 16.7175 15.8979 17.3194 16.4992C17.9213 17.1005 18.6881 17.51 19.523 17.676C20.3578 17.842 21.2232 17.7569 22.0096 17.4317C22.7961 17.1064 23.4684 16.5555 23.9416 15.8486C24.4147 15.1417 24.6674 14.3106 24.6677 13.4602C24.6682 12.8951 24.5571 12.3355 24.3409 11.8134C24.1246 11.2912 23.8074 10.8168 23.4075 10.4172C23.0075 10.0176 22.5326 9.70076 22.0099 9.48473C21.4872 9.2687 20.927 9.15774 20.3614 9.1582V9.1582ZM20.3614 15.362C19.9843 15.362 19.6157 15.2503 19.3022 15.041C18.9887 14.8316 18.7444 14.5341 18.6002 14.186C18.456 13.8379 18.4184 13.4549 18.4921 13.0855C18.5658 12.7161 18.7476 12.3768 19.0144 12.1106C19.2812 11.8444 19.6211 11.6632 19.991 11.59C20.3609 11.5168 20.7442 11.5548 21.0925 11.6993C21.4407 11.8438 21.7382 12.0882 21.9474 12.4017C22.1566 12.7151 22.268 13.0835 22.2675 13.4602C22.2677 13.7102 22.2184 13.9578 22.1227 14.1887C22.0269 14.4197 21.8865 14.6295 21.7094 14.8062C21.5324 14.9828 21.3222 15.1229 21.0908 15.2183C20.8595 15.3136 20.6116 15.3625 20.3614 15.362Z" fill="#F15A29"/>
<path d="M21.0148 14.5821C21.8481 14.5821 22.5236 13.9073 22.5236 13.0748C22.5236 12.2423 21.8481 11.5674 21.0148 11.5674C20.1814 11.5674 19.5059 12.2423 19.5059 13.0748C19.5059 13.9073 20.1814 14.5821 21.0148 14.5821Z" fill="white"/>
<path d="M29.8349 9.44868L29.8314 9.44515L29.8831 9.48507L29.8437 9.44339L29.8831 9.47274C29.8831 9.47274 29.6998 9.29078 29.3954 8.99259L29.3907 8.98731L29.1727 8.75251L24.149 3.64928C24.0826 3.59058 24.0174 3.53188 23.9504 3.47318C23.7089 3.26421 23.3845 3.01475 23.0573 2.9449C22.8275 2.89676 22.5984 2.99949 22.3951 3.09105L16.1627 5.88568L12.2688 7.41184C11.9832 7.5627 11.757 7.97945 11.6748 8.39387L11.3398 9.48507L12.21 9.47274H14.6068C14.9208 9.47096 15.2297 9.39301 15.5069 9.24558L22.1612 6.57304L23.1707 6.2097L24.5121 7.54978L25.8529 8.88811C26.1273 9.16281 26.3676 9.40054 26.7496 9.47509L29.8725 9.48742H29.8849C29.8672 9.47274 29.8514 9.46041 29.8349 9.44868Z" fill="white"/>
<path d="M58.2013 11.0343H57.1225C57.0388 11.0338 56.9569 11.0586 56.8875 11.1053C56.8083 11.1636 56.7502 11.246 56.7218 11.3401C56.5871 11.7193 56.4566 12.0944 56.3305 12.4654C56.2044 12.8363 56.0739 13.2081 55.9392 13.5806L55.6072 14.4928C55.5484 14.3496 55.4309 13.8225 55.3063 13.242C55.2964 13.1921 55.2858 13.1422 55.2752 13.0923L54.8557 11.2726C54.838 11.1141 54.7293 11.0343 54.5272 11.0343H53.5765C53.4803 11.027 53.3849 11.0566 53.3098 11.1171C53.2434 11.1833 53.1928 11.2635 53.1617 11.3519L52.4161 14.4805C52.3056 14.1882 52.1989 13.8947 52.0958 13.6C51.9928 13.3053 51.8822 12.9923 51.7639 12.6608L51.302 11.3225C51.2674 11.2424 51.2145 11.1714 51.1475 11.1153C51.0805 11.0631 50.9974 11.0359 50.9125 11.0384H49.8319C49.6263 11.0384 49.5234 11.1253 49.5234 11.299C49.5238 11.3474 49.5319 11.3953 49.5475 11.4411C49.5596 11.4587 49.5676 11.4787 49.571 11.4998C49.5787 11.5309 49.6045 11.6019 49.648 11.7129C49.6915 11.8238 49.7526 11.9835 49.8319 12.1924C49.9112 12.4014 50.0235 12.6896 50.1698 13.0571L50.715 14.4247C50.9324 14.9694 51.1992 15.6286 51.5153 16.4023C51.5557 16.507 51.6053 16.6079 51.6634 16.704C51.7225 16.803 51.8273 16.8525 51.9777 16.8525H52.855C52.902 16.8559 52.949 16.8479 52.9923 16.8294C53.0356 16.8108 53.0737 16.7821 53.1035 16.7457C53.1535 16.6829 53.1971 16.6155 53.234 16.5443L53.2457 16.5091C53.2457 16.4933 53.2498 16.485 53.2581 16.485L53.5184 15.8341C53.5575 15.7229 53.601 15.6124 53.6488 15.5024C53.6966 15.3925 53.7401 15.2819 53.7792 15.1708L54.0143 14.602C54.0534 14.7049 54.0869 14.7918 54.1147 14.8626C54.1424 14.9336 54.1735 15.0129 54.2158 15.0974L54.7252 16.3641C54.7335 16.3882 54.7452 16.4275 54.7611 16.4815C54.778 16.5395 54.8019 16.5953 54.8322 16.6476C54.8645 16.7041 54.909 16.7527 54.9626 16.7897C55.0297 16.8322 55.1084 16.8527 55.1877 16.8484H56.0414C56.0975 16.853 56.1538 16.8428 56.2047 16.819C56.2556 16.7951 56.2994 16.7583 56.3317 16.7122C56.3904 16.6212 56.4321 16.552 56.4562 16.505L58.4834 11.4481C58.5078 11.3962 58.5199 11.3394 58.5186 11.282C58.5202 11.1169 58.4144 11.0343 58.2013 11.0343Z" fill="#F15A29"/>
</svg>
