<svg width="118" height="42" viewBox="0 0 118 42" fill="none" xmlns="http://www.w3.org/2000/svg">
<path d="M5.46986 32.1116V19.0351C5.46986 18.6626 5.66188 18.4623 6.04594 18.4342H7.05434C7.24444 18.4309 7.43421 18.4516 7.6192 18.4958C7.77691 18.5383 7.89008 18.6903 7.95874 18.9519L8.08211 19.6196C8.39445 19.2046 8.78192 18.8529 9.22408 18.5831C9.64212 18.3345 10.1597 18.2102 10.777 18.2102C11.4336 18.2027 12.0837 18.3431 12.6796 18.6211C13.2519 18.8903 13.7658 19.2708 14.1916 19.7408C14.6266 20.2259 14.9685 20.7881 15.2 21.3987C15.4506 22.054 15.5762 22.751 15.5702 23.4532C15.5761 24.1544 15.4541 24.8508 15.2102 25.5076C14.9819 26.1233 14.6398 26.6897 14.2018 27.1769C13.7637 27.6632 13.2282 28.0503 12.6306 28.3128C12.033 28.5752 11.387 28.7069 10.7351 28.6992C10.2545 28.7088 9.77855 28.6032 9.34643 28.391C8.96674 28.2026 8.62188 27.95 8.32682 27.6442V32.1209C8.33188 32.2056 8.3187 32.2904 8.28818 32.3695C8.25766 32.4486 8.21051 32.5202 8.14998 32.5792C8.08945 32.6382 8.01697 32.6834 7.93749 32.7115C7.85802 32.7397 7.77344 32.7502 7.68956 32.7424H6.12853C5.95933 32.7462 5.79463 32.6873 5.66562 32.577C5.59937 32.52 5.54719 32.4484 5.51321 32.3676C5.47923 32.2868 5.46439 32.1992 5.46986 32.1116ZM8.04133 23.3874C8.03753 23.7413 8.10051 24.0927 8.22689 24.4229C8.34205 24.7284 8.51288 25.0096 8.73058 25.2519C8.94238 25.4866 9.19809 25.6768 9.48306 25.8117C9.76559 25.9482 10.0751 26.0184 10.3885 26.0171C10.6951 26.0199 10.998 25.9495 11.2725 25.8117C11.5466 25.6741 11.7915 25.4839 11.9934 25.2519C12.2037 25.0087 12.3707 24.7306 12.4868 24.4301C12.733 23.7829 12.733 23.067 12.4868 22.4198C12.3705 22.1193 12.2036 21.8413 11.9934 21.598C11.7928 21.3672 11.5475 21.1802 11.2725 21.0485C10.9963 20.9165 10.6941 20.8491 10.3885 20.8512C10.0779 20.8524 9.77147 20.9229 9.49122 21.0577C9.21219 21.1871 8.96078 21.3699 8.75098 21.596C8.53434 21.8325 8.36166 22.1063 8.24117 22.4044C8.10946 22.7152 8.04148 23.0495 8.04133 23.3874Z" fill="black"/>
<path d="M19.9478 19.0152C19.9611 19.084 19.9957 19.2206 20.0498 19.4189C20.1038 19.6171 20.1385 19.7537 20.1517 19.8226C20.2887 19.6424 20.4365 19.4709 20.5942 19.3089C20.7706 19.1247 20.9673 18.9613 21.1805 18.822C21.4044 18.675 21.6438 18.5534 21.8942 18.4594C22.1609 18.3605 22.4432 18.3114 22.7273 18.3146H22.922C22.9878 18.3151 23.0533 18.322 23.1178 18.3351C23.3426 18.3568 23.5635 18.409 23.7744 18.4903C24.0143 18.5768 24.248 18.6797 24.4739 18.7984C24.672 18.9014 24.8581 19.0265 25.0285 19.1713C25.1794 19.3028 25.2549 19.424 25.2549 19.5339C25.2479 19.6381 25.2126 19.7383 25.1529 19.8236L24.3301 21.1713C24.2071 21.3644 24.0633 21.461 23.8988 21.461C23.8128 21.4528 23.7291 21.4284 23.6521 21.3891C23.5326 21.3362 23.4159 21.2772 23.3023 21.2124C23.1464 21.0955 22.9769 20.9983 22.7976 20.9227C22.6362 20.8643 22.4655 20.8361 22.2939 20.8395C22.0121 20.8342 21.7329 20.8946 21.4782 21.0162C21.2462 21.1272 21.0396 21.2857 20.8716 21.4815C20.7075 21.675 20.5788 21.8962 20.4912 22.1348C20.4038 22.3644 20.3585 22.608 20.3577 22.8539V28.0927C20.3577 28.4386 20.1725 28.6098 19.802 28.6063H18.0962C17.7393 28.6063 17.5619 28.4338 17.5619 28.0927V19.0152C17.5563 18.9395 17.5682 18.8636 17.5967 18.7933C17.6252 18.7231 17.6695 18.6605 17.7261 18.6104C17.8299 18.5232 17.9609 18.4756 18.0962 18.4759H19.4125C19.4817 18.4702 19.5511 18.4825 19.6143 18.5114C19.6774 18.5403 19.7322 18.585 19.7734 18.6413C19.8503 18.7561 19.9091 18.8822 19.9478 19.0152Z" fill="black"/>
<path d="M46.6919 32.1118V19.0353C46.6919 18.6628 46.8839 18.4624 47.268 18.4344H48.2754C48.4658 18.4311 48.6559 18.4518 48.8412 18.496C48.9996 18.5385 49.1128 18.6905 49.1808 18.9521L49.3041 19.6157C49.6162 19.2004 50.0037 18.8487 50.4461 18.5792C50.8642 18.3306 51.3818 18.2063 51.999 18.2063C52.6556 18.199 53.3056 18.3394 53.9016 18.6172C54.4739 18.8864 54.9878 19.2669 55.4137 19.7369C55.8486 20.222 56.1905 20.7841 56.4221 21.3948C56.6726 22.0501 56.7982 22.7471 56.7922 23.4493C56.7981 24.1505 56.6761 24.8469 56.4323 25.5037C56.204 26.1194 55.8618 26.6858 55.4239 27.1729C54.9858 27.6593 54.4502 28.0464 53.8527 28.3088C53.2551 28.5713 52.609 28.703 51.9572 28.6953C51.4766 28.7051 51.0005 28.5995 50.5685 28.3871C50.1896 28.1958 49.8461 27.9404 49.5529 27.6321V32.1087C49.558 32.1935 49.5448 32.2783 49.5143 32.3574C49.4838 32.4365 49.4366 32.508 49.3761 32.5671C49.3156 32.6261 49.2431 32.6712 49.1636 32.6994C49.0841 32.7275 48.9996 32.7381 48.9157 32.7302H47.3495C47.1804 32.7338 47.0157 32.675 46.8866 32.5648C46.8224 32.509 46.7715 32.4392 46.7378 32.3608C46.704 32.2824 46.6884 32.1972 46.6919 32.1118ZM49.2634 23.3876C49.2607 23.7416 49.3244 24.0929 49.451 24.4231C49.5665 24.7287 49.7377 25.0098 49.9557 25.252C50.1669 25.4865 50.4219 25.6768 50.7061 25.8119C50.9886 25.9485 51.2982 26.0187 51.6115 26.0173C51.9182 26.0201 52.2211 25.9497 52.4955 25.8119C52.7695 25.6745 53.0141 25.4843 53.2154 25.252C53.426 25.0089 53.5934 24.7309 53.7099 24.4303C53.956 23.7831 53.956 23.0671 53.7099 22.42C53.5932 22.1194 53.4259 21.8414 53.2154 21.5982C53.0154 21.3672 52.7704 21.1801 52.4955 21.0486C52.2194 20.9167 51.9172 20.8493 51.6115 20.8514C51.3024 20.85 50.9967 20.9173 50.7163 21.0486C50.4373 21.1781 50.1859 21.3609 49.9761 21.5869C49.758 21.8233 49.5836 22.0971 49.4612 22.3953C49.3289 22.7091 49.2616 23.0468 49.2634 23.3876Z" fill="black"/>
<path d="M60.609 18.8236L62.6482 24.5431L64.664 18.803C64.7185 18.6628 64.8153 18.5433 64.9408 18.4615C65.0663 18.3797 65.2141 18.3396 65.3634 18.3469H67.1987C67.5688 18.3469 67.7544 18.5051 67.7544 18.8236C67.7544 18.8802 67.7437 18.9364 67.7228 18.989C67.7086 19.0219 67.6984 19.0563 67.6922 19.0917L64.1338 27.8785C64.0666 28.0416 63.9729 28.1923 63.8564 28.3243C63.8015 28.3879 63.7334 28.4385 63.657 28.4726C63.5805 28.5067 63.4975 28.5234 63.4139 28.5216H61.8845C61.7793 28.5297 61.6739 28.5089 61.5797 28.4613C61.4854 28.4137 61.4057 28.3411 61.3492 28.2514C61.2364 28.0669 61.1402 27.8727 61.0617 27.671L59.3732 23.4861C59.0856 22.7815 58.7944 22.0562 58.4994 21.3105C58.2044 20.5647 57.9131 19.8532 57.6256 19.1759C57.6113 19.1338 57.5939 19.0732 57.5736 18.9992C57.555 18.9354 57.5447 18.8695 57.543 18.803C57.543 18.499 57.7211 18.3469 58.0772 18.3469H59.9493C60.0969 18.3377 60.2431 18.3801 60.3633 18.467C60.4835 18.5538 60.5703 18.6798 60.609 18.8236Z" fill="#F15A29"/>
<path d="M69.2386 15.4084C69.2404 15.0922 69.335 14.7836 69.5103 14.5213C69.6856 14.259 69.9339 14.0547 70.224 13.934C70.5141 13.8134 70.8331 13.7817 71.141 13.8429C71.4489 13.9042 71.732 14.0557 71.9548 14.2785C72.1016 14.4266 72.2173 14.603 72.2949 14.7971C72.3725 14.9913 72.4105 15.1992 72.4065 15.4084C72.411 15.6162 72.3732 15.8227 72.2955 16.0153C72.2178 16.2078 72.1019 16.3823 71.9548 16.5281C71.6513 16.8201 71.2478 16.983 70.8281 16.983C70.4085 16.983 70.005 16.8201 69.7015 16.5281C69.5515 16.384 69.433 16.21 69.3533 16.0172C69.2736 15.8245 69.2345 15.6172 69.2386 15.4084ZM72.2831 18.9318V28.1336C72.2831 28.4514 72.1132 28.6103 71.7733 28.6103H69.9798C69.6637 28.6103 69.5067 28.451 69.5067 28.1336V18.9318C69.4999 18.7994 69.5441 18.6695 69.6301 18.5692C69.6755 18.523 69.7302 18.4871 69.7905 18.4639C69.8509 18.4407 69.9154 18.4307 69.9798 18.4346H71.7693C71.8979 18.4368 72.0217 18.4844 72.119 18.5692C72.1725 18.6125 72.2152 18.6679 72.2437 18.7309C72.2722 18.7938 72.2857 18.8626 72.2831 18.9318Z" fill="#F15A29"/>
<path d="M80.0398 26.392C80.3399 26.4057 80.6399 26.3635 80.9248 26.2677C81.2165 26.1694 81.4988 26.0446 81.7681 25.8948C81.8746 25.8405 81.9769 25.778 82.074 25.7079C82.1502 25.6464 82.2436 25.6105 82.3411 25.6052C82.4038 25.607 82.4649 25.6251 82.5186 25.6579C82.5722 25.6907 82.6164 25.7369 82.647 25.7921L83.4086 27.0145C83.4654 27.0937 83.5005 27.1865 83.5106 27.2837C83.5135 27.3868 83.477 27.4872 83.4086 27.5641C83.3382 27.6418 83.2626 27.7146 83.1823 27.7819C82.7462 28.1114 82.2655 28.3764 81.7548 28.5687C81.2248 28.7654 80.6638 28.8639 80.099 28.8594C79.4025 28.864 78.7125 28.7241 78.072 28.4485C77.45 28.1826 76.8845 27.7991 76.4059 27.3186C75.9262 26.8325 75.5425 26.2591 75.2752 25.6288C74.9987 24.98 74.8553 24.2815 74.8535 23.5754C74.8518 22.8693 74.9917 22.1701 75.265 21.5199C75.5301 20.8903 75.9063 20.3143 76.3753 19.8199C76.8376 19.329 77.3894 18.9324 78.0006 18.6519C78.6206 18.3678 79.2945 18.2227 79.9756 18.2266C80.6181 18.2236 81.2546 18.3504 81.8476 18.5995C82.4247 18.8397 82.9525 19.1856 83.4045 19.6196C83.8488 20.0459 84.2053 20.5562 84.4537 21.1214C84.7064 21.6979 84.8353 22.3217 84.832 22.9519C84.832 23.4901 84.7871 23.8815 84.6984 24.1229C84.6097 24.3643 84.414 24.4855 84.1122 24.4855H77.712C77.7343 24.7731 77.8264 25.0507 77.9802 25.2939C78.1283 25.5258 78.3161 25.7292 78.5349 25.8948C78.7553 26.0608 79.0027 26.187 79.2659 26.2677C79.5162 26.3482 79.7771 26.3901 80.0398 26.392ZM77.7151 22.4752H82.1382C82.1252 22.218 82.059 21.9663 81.9438 21.7364C81.8286 21.5064 81.667 21.3032 81.4693 21.1398C81.0386 20.7662 80.4846 20.5687 79.9164 20.5862C79.663 20.5876 79.412 20.6364 79.1762 20.73C78.9297 20.825 78.7004 20.96 78.4971 21.1296C78.2935 21.2994 78.121 21.5038 77.9873 21.7336C77.8493 21.9608 77.7559 22.2126 77.712 22.4752H77.7151Z" fill="#F15A29"/>
<path d="M103.319 19.0763C103.315 18.9921 103.328 18.9079 103.358 18.8293C103.389 18.7506 103.435 18.6794 103.495 18.6202C103.621 18.5061 103.788 18.4467 103.958 18.4548H111.26C111.421 18.4535 111.577 18.5083 111.702 18.61C111.768 18.6666 111.821 18.7384 111.855 18.8195C111.889 18.9005 111.903 18.9885 111.897 19.0763V20.4651C111.897 20.517 111.893 20.5688 111.887 20.6202C111.875 20.6935 111.843 20.7619 111.794 20.8175L107.043 26.0398H111.339C111.764 26.0398 111.977 26.2538 111.977 26.6819V27.9258C111.974 28.0972 111.912 28.2622 111.801 28.3922C111.747 28.4624 111.676 28.5188 111.596 28.5566C111.515 28.5944 111.427 28.6127 111.339 28.61H103.728C103.642 28.6113 103.557 28.5936 103.479 28.5581C103.401 28.5226 103.331 28.4701 103.275 28.4045C103.155 28.2754 103.089 28.1048 103.09 27.9279V26.8277C103.09 26.7579 103.09 26.686 103.1 26.61C103.111 26.5262 103.151 26.449 103.213 26.3922C103.57 25.9916 103.964 25.5632 104.396 25.1071C104.828 24.651 105.263 24.1881 105.702 23.7183L107.008 22.3203C107.441 21.8573 107.835 21.4256 108.192 21.0249H103.954C103.528 21.0249 103.316 20.8038 103.316 20.3614L103.319 19.0763Z" fill="#F15A29"/>
<path d="M35.3338 15.1523C33.8567 15.153 32.413 15.5948 31.185 16.4219C29.9571 17.249 29.0002 18.4244 28.4352 19.7993C27.8702 21.1743 27.7226 22.6872 28.0109 24.1467C28.2992 25.6062 29.0105 26.9468 30.055 27.999C31.0995 29.0513 32.4302 29.768 33.8789 30.0584C35.3276 30.3489 36.8292 30.2001 38.194 29.6309C39.5588 29.0617 40.7254 28.0977 41.5464 26.8606C42.3675 25.6235 42.806 24.169 42.8066 22.6809C42.8074 21.692 42.6146 20.7126 42.2394 19.7989C41.8641 18.8851 41.3137 18.0548 40.6197 17.3556C39.9256 16.6563 39.1015 16.1018 38.1945 15.7238C37.2875 15.3457 36.3154 15.1515 35.3338 15.1523ZM35.3338 26.009C34.6795 26.009 34.0398 25.8135 33.4958 25.4472C32.9518 25.0808 32.5278 24.5601 32.2776 23.951C32.0274 23.3419 31.9621 22.6716 32.0901 22.0251C32.218 21.3786 32.5334 20.7849 32.9964 20.319C33.4594 19.8531 34.0492 19.5361 34.691 19.408C35.3329 19.2799 35.9981 19.3464 36.6024 19.5993C37.2067 19.8521 37.7231 20.2799 38.086 20.8284C38.449 21.3769 38.6423 22.0216 38.6415 22.6809C38.6417 23.1183 38.5563 23.5516 38.3901 23.9558C38.224 24.36 37.9803 24.7271 37.673 25.0363C37.3658 25.3455 37.001 25.5905 36.5996 25.7574C36.1982 25.9244 35.7681 26.0099 35.3338 26.009Z" fill="#F15A29"/>
<path d="M36.466 24.643C37.9121 24.643 39.0844 23.462 39.0844 22.0051C39.0844 20.5482 37.9121 19.3672 36.466 19.3672C35.0199 19.3672 33.8477 20.5482 33.8477 22.0051C33.8477 23.462 35.0199 24.643 36.466 24.643Z" fill="black"/>
<path d="M51.7721 15.6609L51.766 15.6547L51.8557 15.7246L51.7874 15.6517L51.8557 15.703C51.8557 15.703 51.5376 15.3846 51.0095 14.8628L51.0013 14.8535L50.623 14.4426L41.9053 5.51197C41.7901 5.40924 41.6769 5.30652 41.5607 5.2038C41.1416 4.83811 40.5788 4.40154 40.0109 4.2793C39.6122 4.19507 39.2146 4.37483 38.8618 4.53508L28.0467 9.42568L21.2897 12.0965C20.7942 12.3604 20.4017 13.0898 20.2589 13.815L19.6777 15.7246L21.1878 15.703H25.3468C25.8917 15.6999 26.4278 15.5635 26.9088 15.3055L38.456 10.6286L40.2077 9.9927L42.5355 12.3379L44.8622 14.6799C45.3384 15.1607 45.7554 15.5767 46.4181 15.7071L51.8374 15.7287H51.8588C51.8282 15.703 51.8007 15.6815 51.7721 15.6609Z" fill="black"/>
<path d="M100.998 18.4345H99.1261C98.9809 18.4337 98.8387 18.477 98.7183 18.5588C98.5808 18.6609 98.48 18.805 98.4308 18.9697C98.1969 19.6333 97.9706 20.2897 97.7517 20.9389C97.5328 21.5881 97.3065 22.2387 97.0726 22.8906L96.4965 24.4869C96.3946 24.2363 96.1907 23.3138 95.9745 22.2979C95.9572 22.2106 95.9388 22.1233 95.9205 22.036L95.1925 18.8516C95.1619 18.5742 94.9732 18.4345 94.6225 18.4345H92.9728C92.8058 18.4217 92.6402 18.4735 92.5098 18.5794C92.3947 18.6952 92.3069 18.8356 92.2529 18.9903L90.959 24.4654C90.7673 23.9538 90.5821 23.4402 90.4033 22.9245C90.2246 22.4089 90.0325 21.861 89.8272 21.281L89.0258 18.9389C88.9657 18.7986 88.8739 18.6745 88.7577 18.5763C88.6415 18.4849 88.4972 18.4373 88.3498 18.4417H86.4748C86.1179 18.4417 85.9395 18.5938 85.9395 18.8978C85.94 18.9824 85.9541 19.0664 85.9813 19.1464C86.0022 19.1772 86.0161 19.2123 86.022 19.2491C86.0353 19.3036 86.0802 19.4279 86.1556 19.622C86.2311 19.8162 86.3371 20.0956 86.4748 20.4613C86.6124 20.8269 86.8071 21.3313 87.061 21.9743L88.0072 24.3678C88.3845 25.321 88.8474 26.4746 89.3959 27.8285C89.466 28.0117 89.552 28.1884 89.6529 28.3565C89.7555 28.5297 89.9374 28.6164 90.1984 28.6164H91.7207C91.8022 28.6223 91.8839 28.6084 91.959 28.5759C92.034 28.5433 92.1002 28.4931 92.152 28.4294C92.2386 28.3197 92.3144 28.2017 92.3783 28.0771L92.3987 28.0154C92.3987 27.9877 92.4058 27.9733 92.4201 27.9733L92.8718 26.8341C92.9398 26.6396 93.0152 26.4462 93.0982 26.2538C93.1811 26.0613 93.2565 25.8679 93.3245 25.6734L93.7324 24.678C93.8003 24.8581 93.8585 25.0101 93.9067 25.1341C93.9546 25.2584 94.0087 25.3971 94.0821 25.545L94.9661 27.7617C94.9804 27.8038 95.0008 27.8727 95.0283 27.9672C95.0576 28.0687 95.0991 28.1663 95.1517 28.2579C95.2077 28.3568 95.285 28.4417 95.378 28.5065C95.4944 28.5808 95.6309 28.6167 95.7685 28.6092H97.25C97.3473 28.6172 97.445 28.5995 97.5334 28.5577C97.6218 28.5159 97.6978 28.4515 97.7537 28.3709C97.8557 28.2116 97.9281 28.0904 97.9699 28.0082L101.488 19.1587C101.53 19.0679 101.551 18.9684 101.549 18.868C101.551 18.579 101.368 18.4345 100.998 18.4345Z" fill="#F15A29"/>
</svg>
