<svg width="115" height="120" viewBox="0 0 115 120" fill="none" xmlns="http://www.w3.org/2000/svg">
<path d="M57.9519 120C89.1049 120 114.359 105.419 114.359 87.4331C114.359 69.4468 89.1049 54.866 57.9519 54.866C26.7989 54.866 1.54443 69.4468 1.54443 87.4331C1.54443 105.419 26.7989 120 57.9519 120Z" fill="#F5F5F5"/>
<path d="M74.5992 73.035L27.2653 100.418C25.8857 101.216 23.4757 101.116 21.8815 100.196L15.6046 96.5859C14.0129 95.6678 13.8383 94.2757 15.2179 93.4774L62.5643 66.0845C63.9439 65.2886 66.3539 65.3884 67.9481 66.309L74.2125 69.9265C75.8067 70.8446 75.9788 72.2367 74.5992 73.035Z" fill="#E0E0E0"/>
<path d="M91.4616 106.987C99.2712 106.987 105.602 103.331 105.602 98.8215C105.602 94.3118 99.2712 90.656 91.4616 90.656C83.652 90.656 77.321 94.3118 77.321 98.8215C77.321 103.331 83.652 106.987 91.4616 106.987Z" fill="#E0E0E0"/>
<path d="M11.7972 87.6995C13.5586 88.7149 13.5586 90.3615 11.7972 91.3769C10.0359 92.3922 7.18685 92.3922 5.42801 91.3769C3.66918 90.3615 3.66918 88.7149 5.42801 87.6995C7.18685 86.6841 10.0509 86.6841 11.7972 87.6995Z" fill="#E0E0E0"/>
<path d="M58.6175 97.1053L33.42 111.518C32.2899 112.169 30.3165 112.087 29.0117 111.336L26.0479 109.622C24.7431 108.873 24.6009 107.731 25.731 107.077L50.941 92.6671C52.0712 92.0134 54.0445 92.0958 55.3493 92.8492L58.3132 94.5606C59.6055 95.3141 59.7477 96.4542 58.6175 97.1053Z" fill="#E0E0E0"/>
<path d="M57.1801 103.073L47.0687 108.936C45.9386 109.587 43.9652 109.504 42.6604 108.751L39.6966 107.04C38.3918 106.291 38.2496 105.148 39.3797 104.495L49.4912 98.632C50.6213 97.9809 52.5947 98.0632 53.8995 98.8166L56.8658 100.528C58.1706 101.289 58.3103 102.427 57.1801 103.073Z" fill="#E0E0E0"/>
<path d="M8.32946 81.408C8.32946 81.408 11.7249 78.0899 9.79141 72.534C8.70867 69.4205 5.11865 67.1477 3.06543 66.9182C3.74137 67.723 4.28076 68.6332 4.6621 69.6126L7.23674 71.324L4.86917 70.5756L5.36813 72.6014C5.36813 72.6014 7.57104 73.9336 7.89537 74.223L5.52281 73.6018C5.52281 73.6018 5.7199 79.3448 8.32946 81.408Z" fill="#F1592A"/>
<path opacity="0.4" d="M8.32946 81.408C8.32946 81.408 11.7249 78.0899 9.79141 72.534C8.70867 69.4205 5.11865 67.1477 3.06543 66.9182C3.74137 67.723 4.28076 68.6332 4.6621 69.6126L7.23674 71.324L4.86917 70.5756L5.36813 72.6014C5.36813 72.6014 7.57104 73.9336 7.89537 74.223L5.52281 73.6018C5.52281 73.6018 5.7199 79.3448 8.32946 81.408Z" fill="#DDDDDD"/>
<path d="M8.33055 81.4081C8.33055 81.4081 10.0769 74.4675 7.4873 70.4185C7.4873 70.4185 10.536 73.991 8.33055 81.4081Z" fill="white"/>
<path d="M4.44351 82.3458L8.59736 82.2959H8.63977L12.7961 82.3458C12.7961 82.3458 12.8435 87.4676 11.2668 89.5508C10.8302 90.1046 9.80983 90.4913 8.61981 90.4913C7.42979 90.4913 6.40443 90.1021 5.97033 89.5458C4.39611 87.4626 4.44351 82.3458 4.44351 82.3458Z" fill="#37474F"/>
<path d="M4.44092 82.3459C4.44092 83.5933 6.31202 84.5912 8.61971 84.5912C10.9274 84.5912 12.796 83.5933 12.796 82.3459C12.796 81.0985 10.9249 80.1006 8.61971 80.1006C6.31451 80.1006 4.44092 81.1185 4.44092 82.3459Z" fill="#455A64"/>
<path d="M8.61987 81.7519C7.18286 81.7519 5.9654 82.2134 5.53629 82.8521C5.43228 82.7061 5.37409 82.5324 5.36914 82.3531C5.36914 81.4675 6.82361 80.7515 8.61238 80.7515C10.4012 80.7515 11.8556 81.4675 11.8556 82.3531C11.8505 82.5319 11.7933 82.7054 11.691 82.8521C11.2743 82.2134 10.0519 81.7519 8.61987 81.7519Z" fill="#425B67"/>
<path d="M8.61971 83.9529C10.3227 83.9529 11.7033 83.4603 11.7033 82.8526C11.7033 82.245 10.3227 81.7524 8.61971 81.7524C6.9167 81.7524 5.53613 82.245 5.53613 82.8526C5.53613 83.4603 6.9167 83.9529 8.61971 83.9529Z" fill="#E0E0E0"/>
<path d="M8.56772 83.1289C8.56772 83.1289 10.1794 83.0666 11.5615 80.9285C12.1303 80.0454 12.4047 79.5838 12.4047 79.5838L10.1594 79.4167L12.6742 78.788L13.8592 76.9718L11.7735 76.8171C11.7735 76.8171 13.3278 76.2707 14.438 76.2657C14.438 76.2657 16.3615 72.8653 16.9328 72.3813C15.4776 72.4712 14.0553 72.8517 12.7496 73.5005C11.444 74.1492 10.2816 75.053 9.33113 76.1585C6.16023 79.8982 8.09869 83.2237 8.56772 83.1289Z" fill="#F1592A"/>
<path d="M8.5669 83.1293C8.5669 83.1293 7.56898 77.0644 13.9856 73.417C13.9856 73.417 7.30702 76.6278 8.5669 83.1293Z" fill="white"/>
<path d="M8.56715 83.1293C8.56715 83.1293 7.11019 83.2241 5.6632 81.4254C5.06694 80.6769 4.77505 80.2902 4.77505 80.2902L6.77089 79.9285L4.44324 79.5992L3.19584 78.0723L5.06445 77.7355C5.06445 77.7355 3.60998 77.3913 2.60956 77.4861C2.60956 77.4861 0.553846 74.5996 0 74.2154C1.32106 74.1595 2.63993 74.369 3.8787 74.8313C5.11748 75.2936 6.25105 75.9995 7.21247 76.9073C10.4383 79.9884 9.00124 83.1717 8.56715 83.1293Z" fill="#F1592A"/>
<path opacity="0.2" d="M8.56715 83.1293C8.56715 83.1293 7.11019 83.2241 5.6632 81.4254C5.06694 80.6769 4.77505 80.2902 4.77505 80.2902L6.77089 79.9285L4.44324 79.5992L3.19584 78.0723L5.06445 77.7355C5.06445 77.7355 3.60998 77.3913 2.60956 77.4861C2.60956 77.4861 0.553846 74.5996 0 74.2154C1.32106 74.1595 2.63993 74.369 3.8787 74.8313C5.11748 75.2936 6.25105 75.9995 7.21247 76.9073C10.4383 79.9884 9.00124 83.1717 8.56715 83.1293Z" fill="#DDDDDD"/>
<path d="M8.56756 83.1294C8.56756 83.1294 8.90685 77.5635 2.76465 74.8816C2.76465 74.8816 9.08398 77.1394 8.56756 83.1294Z" fill="white"/>
<path d="M55.9555 87.4028C55.8605 87.4027 55.7681 87.3712 55.6928 87.3133C55.6175 87.2553 55.5634 87.1741 55.5389 87.0823C55.5145 86.9904 55.521 86.8931 55.5576 86.8053C55.5941 86.7176 55.6586 86.6443 55.741 86.597L73.6237 76.3483C73.8992 76.1914 74.129 75.9653 74.2902 75.6923C74.4515 75.4193 74.5387 75.109 74.5433 74.7919C74.5478 74.4749 74.4695 74.1622 74.3161 73.8847C74.1627 73.6073 73.9395 73.3746 73.6686 73.2099L72.2516 72.3592C71.4957 71.906 70.6323 71.6633 69.751 71.6563C68.8697 71.6493 68.0026 71.8782 67.2395 72.3192L65.6853 73.2074C65.1155 73.5025 64.4832 73.6565 63.8416 73.6565C63.2 73.6565 62.5677 73.5025 61.9979 73.2074C61.4341 72.8831 61.1098 72.4041 61.1098 71.8951C61.1098 71.3862 61.4341 70.8972 61.9979 70.5804L64.6 69.0835C65.044 68.826 65.4128 68.4568 65.6697 68.0125C65.9266 67.5683 66.0627 67.0645 66.0645 66.5513V57.7222C66.0645 57.6077 66.1099 57.4979 66.1909 57.417C66.2718 57.336 66.3816 57.2906 66.4961 57.2906C66.5528 57.2899 66.609 57.3004 66.6616 57.3215C66.7142 57.3426 66.7622 57.3738 66.8027 57.4134C66.8433 57.453 66.8756 57.5003 66.8979 57.5524C66.9202 57.6045 66.932 57.6605 66.9327 57.7172V66.5463C66.9306 67.2107 66.7545 67.863 66.4218 68.4382C66.0891 69.0134 65.6115 69.4913 65.0366 69.8244L62.4345 71.3213C62.1451 71.4885 61.978 71.6955 61.978 71.8876C61.978 72.0797 62.1451 72.2868 62.4345 72.454C62.8734 72.6718 63.3567 72.7851 63.8466 72.7851C64.3365 72.7851 64.8198 72.6718 65.2587 72.454L66.8004 71.5633C67.6971 71.0459 68.7159 70.7777 69.7511 70.7865C70.7863 70.7952 71.8004 71.0807 72.6882 71.6132L74.1052 72.4614C74.5056 72.7024 74.8362 73.0436 75.0644 73.4514C75.2927 73.8592 75.4106 74.3195 75.4065 74.7868C75.4025 75.2541 75.2767 75.7122 75.0415 76.116C74.8062 76.5198 74.4698 76.8553 74.0653 77.0893L56.1801 87.3554C56.1109 87.3912 56.0333 87.4076 55.9555 87.4028Z" fill="#F1592A"/>
<path opacity="0.2" d="M55.9555 87.4028C55.8605 87.4027 55.7681 87.3712 55.6928 87.3133C55.6175 87.2553 55.5634 87.1741 55.5389 87.0823C55.5145 86.9904 55.521 86.8931 55.5576 86.8053C55.5941 86.7176 55.6586 86.6443 55.741 86.597L73.6237 76.3483C73.8992 76.1914 74.129 75.9653 74.2902 75.6923C74.4515 75.4193 74.5387 75.109 74.5433 74.7919C74.5478 74.4749 74.4695 74.1622 74.3161 73.8847C74.1627 73.6073 73.9395 73.3746 73.6686 73.2099L72.2516 72.3592C71.4957 71.906 70.6323 71.6633 69.751 71.6563C68.8697 71.6493 68.0026 71.8782 67.2395 72.3192L65.6853 73.2074C65.1155 73.5025 64.4832 73.6565 63.8416 73.6565C63.2 73.6565 62.5677 73.5025 61.9979 73.2074C61.4341 72.8831 61.1098 72.4041 61.1098 71.8951C61.1098 71.3862 61.4341 70.8972 61.9979 70.5804L64.6 69.0835C65.044 68.826 65.4128 68.4568 65.6697 68.0125C65.9266 67.5683 66.0627 67.0645 66.0645 66.5513V57.7222C66.0645 57.6077 66.1099 57.4979 66.1909 57.417C66.2718 57.336 66.3816 57.2906 66.4961 57.2906C66.5528 57.2899 66.609 57.3004 66.6616 57.3215C66.7142 57.3426 66.7622 57.3738 66.8027 57.4134C66.8433 57.453 66.8756 57.5003 66.8979 57.5524C66.9202 57.6045 66.932 57.6605 66.9327 57.7172V66.5463C66.9306 67.2107 66.7545 67.863 66.4218 68.4382C66.0891 69.0134 65.6115 69.4913 65.0366 69.8244L62.4345 71.3213C62.1451 71.4885 61.978 71.6955 61.978 71.8876C61.978 72.0797 62.1451 72.2868 62.4345 72.454C62.8734 72.6718 63.3567 72.7851 63.8466 72.7851C64.3365 72.7851 64.8198 72.6718 65.2587 72.454L66.8004 71.5633C67.6971 71.0459 68.7159 70.7777 69.7511 70.7865C70.7863 70.7952 71.8004 71.0807 72.6882 71.6132L74.1052 72.4614C74.5056 72.7024 74.8362 73.0436 75.0644 73.4514C75.2927 73.8592 75.4106 74.3195 75.4065 74.7868C75.4025 75.2541 75.2767 75.7122 75.0415 76.116C74.8062 76.5198 74.4698 76.8553 74.0653 77.0893L56.1801 87.3554C56.1109 87.3912 56.0333 87.4076 55.9555 87.4028Z" fill="#DDDDDD"/>
<path d="M66.4838 61.2048C66.2004 61.2048 65.9286 61.0924 65.7279 60.8923C65.5273 60.6921 65.4142 60.4205 65.4136 60.1371V57.1433H67.5541V60.1371C67.5534 60.4205 67.4404 60.6921 67.2398 60.8923C67.0391 61.0924 66.7673 61.2048 66.4838 61.2048Z" fill="#F1592A"/>
<path opacity="0.4" d="M66.4838 61.2048C66.2004 61.2048 65.9286 61.0924 65.7279 60.8923C65.5273 60.6921 65.4142 60.4205 65.4136 60.1371V57.1433H67.5541V60.1371C67.5534 60.4205 67.4404 60.6921 67.2398 60.8923C67.0391 61.0924 66.7673 61.2048 66.4838 61.2048Z" fill="#DDDDDD"/>
<path d="M60.4593 76.1114L53.0223 80.3525C52.4441 80.6829 51.7897 80.8567 51.1237 80.8567C50.4578 80.8567 49.8034 80.6829 49.2252 80.3525L44.4601 77.6083L43.9162 77.2939C43.3513 76.9671 42.8821 76.4976 42.5559 75.9323C42.2297 75.3669 42.0578 74.7258 42.0576 74.0731V60.3517L53.2119 53.9675V67.9833C53.2121 68.5472 53.3606 69.1011 53.6427 69.5894C53.9247 70.0776 54.3302 70.4831 54.8185 70.765L60.4618 74.0232C60.6451 74.1291 60.7972 74.2815 60.9029 74.4649C61.0086 74.6483 61.0642 74.8563 61.0639 75.068C61.0637 75.2797 61.0076 75.4876 60.9015 75.6708C60.7954 75.8539 60.6428 76.0059 60.4593 76.1114Z" fill="#425B67"/>
<path d="M51.4326 80.8315C51.9926 80.7842 52.5353 80.6139 53.0218 80.3325L60.4588 76.0913C60.6422 75.9857 60.7946 75.8335 60.9005 75.6502C61.0064 75.4669 61.0622 75.259 61.0622 75.0473C61.0622 74.8356 61.0064 74.6276 60.9005 74.4443C60.7946 74.261 60.6422 74.1089 60.4588 74.0032L56.6043 71.7778H51.4326V80.8315Z" fill="#37474F"/>
<path d="M60.3269 73.1028L60.5339 73.2674C60.7 73.4004 60.8339 73.569 60.9259 73.7607C61.0179 73.9525 61.0656 74.1625 61.0653 74.3751V75.0687H60.3169L60.3269 73.1028Z" fill="#37474F"/>
<path d="M54.0755 55.0278V67.6465C54.0755 68.1922 54.2192 68.7282 54.492 69.2007C54.7648 69.6732 55.1572 70.0656 55.6298 70.3384L60.3275 73.1101C60.5052 73.2122 60.6529 73.3594 60.7557 73.5368C60.8584 73.7142 60.9125 73.9156 60.9125 74.1205C60.9125 74.3255 60.8584 74.5269 60.7557 74.7043C60.6529 74.8817 60.5052 75.0289 60.3275 75.1309L59.7936 75.4353L53.12 79.2224C52.5609 79.5423 51.9279 79.7106 51.2838 79.7106C50.6397 79.7106 50.0067 79.5423 49.4476 79.2224L44.8248 76.4931C44.3522 76.2203 43.9598 75.8279 43.687 75.3554C43.4142 74.8829 43.2705 74.3468 43.2705 73.8012V61.1775L54.0755 55.0278Z" fill="#455A64"/>
<path d="M54.0755 67.6465V55.0278L43.2705 61.1775V73.7887C43.2705 74.3344 43.4142 74.8704 43.687 75.3429C43.9598 75.8154 44.3522 76.2078 44.8248 76.4806L55.4701 70.2311C55.0425 69.9488 54.6913 69.565 54.448 69.1141C54.2047 68.6631 54.0767 68.159 54.0755 67.6465Z" fill="#425B67"/>
<path d="M19.8835 83.179L18.6561 83.8901V86.1354C17.8657 86.1365 17.0898 85.9236 16.4107 85.5192L16.3159 85.4618C16.0345 85.2944 15.7899 85.0717 15.5969 84.8071C15.404 84.5426 15.2667 84.2416 15.1933 83.9225C15.151 83.7851 15.1291 83.6422 15.1284 83.4984V80.4373L19.8835 83.179Z" fill="#425B67"/>
<path d="M73.2519 0.676129L73.1546 0.616254C72.4751 0.212994 71.6995 0.00013899 70.9093 3.77042e-05C70.6572 -0.00180113 70.4092 0.0636511 70.1908 0.189643L17.286 30.6237C16.6351 30.9993 16.0946 31.5396 15.7188 32.1904C15.343 32.8412 15.1453 33.5795 15.1455 34.331V80.4374L19.8856 83.1817L70.1584 54.2769C70.8091 53.9012 71.3496 53.3608 71.7253 52.7101C72.101 52.0593 72.2989 51.3211 72.2989 50.5697V2.76178H74.437C74.4368 2.34132 74.3275 1.92811 74.1197 1.56253C73.912 1.19696 73.613 0.89154 73.2519 0.676129Z" fill="#37474F"/>
<path d="M15.5878 32.4102C15.29 33.0068 15.1345 33.6643 15.1338 34.3312V80.4376L19.8739 83.1819L21.6527 82.154V36.1723L15.5878 32.4102Z" fill="#425B67"/>
<path d="M17.2715 81.67V84.7311C17.2718 84.9771 17.3368 85.2186 17.46 85.4315C17.5832 85.6444 17.7602 85.8212 17.9733 85.944C18.1864 86.0669 18.428 86.1315 18.674 86.1314C18.92 86.1313 19.1616 86.0666 19.3746 85.9436L72.2968 55.507C72.9476 55.1313 73.488 54.5909 73.8638 53.9401C74.2395 53.2894 74.4373 52.5512 74.4374 51.7997V48.6663L17.2715 81.67Z" fill="#37474F"/>
<path d="M74.4374 2.63938C74.4375 2.39321 74.3728 2.15133 74.2498 1.93809C74.1268 1.72484 73.9498 1.54774 73.7366 1.4246C73.5235 1.30145 73.2816 1.2366 73.0355 1.23657C72.7893 1.23654 72.5474 1.30133 72.3342 1.42442L19.412 31.861C18.7611 32.2365 18.2205 32.7769 17.8448 33.4277C17.469 34.0785 17.2713 34.8168 17.2715 35.5683V81.6722L74.4374 48.666" fill="#455A64"/>
<path d="M71.3707 4.76251H71.3582C71.1166 4.76045 70.878 4.81604 70.6622 4.92467L20.9233 33.5176C20.3483 33.8496 19.8709 34.327 19.5389 34.9021C19.207 35.4771 19.0322 36.1293 19.0323 36.7933V76.0764C19.0309 76.2481 19.0657 76.4181 19.1346 76.5754C19.2051 76.7335 19.3078 76.8751 19.4361 76.9914C19.5644 77.1076 19.7155 77.1959 19.8797 77.2506C20.044 77.3053 20.2178 77.3251 20.3902 77.309C20.5626 77.2928 20.7297 77.2409 20.8809 77.1566L70.6298 48.5538C71.2044 48.222 71.6816 47.7449 72.0135 47.1704C72.3455 46.5958 72.5204 45.9441 72.5208 45.2806V5.99743C72.5186 5.68494 72.3993 5.38465 72.1863 5.15597C71.9733 4.92729 71.6823 4.78687 71.3707 4.76251Z" fill="#F1592A"/>
<path opacity="0.5" d="M71.3707 4.76251H71.3582C71.1166 4.76045 70.878 4.81604 70.6622 4.92467L20.9233 33.5176C20.3483 33.8496 19.8709 34.327 19.5389 34.9021C19.207 35.4771 19.0322 36.1293 19.0323 36.7933V76.0764C19.0309 76.2481 19.0657 76.4181 19.1346 76.5754C19.2051 76.7335 19.3078 76.8751 19.4361 76.9914C19.5644 77.1076 19.7155 77.1959 19.8797 77.2506C20.044 77.3053 20.2178 77.3251 20.3902 77.309C20.5626 77.2928 20.7297 77.2409 20.8809 77.1566L70.6298 48.5538C71.2044 48.222 71.6816 47.7449 72.0135 47.1704C72.3455 46.5958 72.5204 45.9441 72.5208 45.2806V5.99743C72.5186 5.68494 72.3993 5.38465 72.1863 5.15597C71.9733 4.92729 71.6823 4.78687 71.3707 4.76251Z" fill="white"/>
<path d="M24.3419 34.5454L71.9228 7.07261C72.4692 6.75577 72.9581 6.78072 73.3074 7.07261L74.954 8.21024L73.8313 9.59984V47.9699C73.8313 49.377 72.9756 51.0086 71.9228 51.6173L24.811 78.8106L24.7237 80.3075L22.9773 79.1175C22.6305 78.8555 22.4185 78.3441 22.4185 77.6406V38.1928C22.4334 36.7857 23.2866 35.1541 24.3419 34.5454Z" fill="#F1592A"/>
<path opacity="0.2" d="M24.3419 34.5454L71.9228 7.07261C72.4692 6.75577 72.9581 6.78072 73.3074 7.07261L74.954 8.21024L73.8313 9.59984V47.9699C73.8313 49.377 72.9756 51.0086 71.9228 51.6173L24.811 78.8106L24.7237 80.3075L22.9773 79.1175C22.6305 78.8555 22.4185 78.3441 22.4185 77.6406V38.1928C22.4334 36.7857 23.2866 35.1541 24.3419 34.5454Z" fill="white"/>
<path d="M24.0552 78.7635V39.3082C24.0748 38.5107 24.2944 37.7309 24.6939 37.0404L22.9949 36.0649C22.6427 36.7202 22.4504 37.4493 22.4336 38.193V77.6483C22.4336 78.3518 22.6457 78.8633 22.9924 79.1252L24.5916 80.2204C24.2723 79.956 24.0552 79.452 24.0552 78.7635Z" fill="#F1592A"/>
<path opacity="0.3" d="M24.7012 80.2979L24.7292 80.3157C24.7192 80.3108 24.7098 80.3048 24.7012 80.2979Z" fill="#F1592A"/>
<path d="M25.9632 80.208L73.5466 52.7328C74.6019 52.124 75.4576 50.4874 75.4576 49.0879V9.6301C75.4576 8.22552 74.6019 7.57937 73.5466 8.1881L25.9632 35.6608C24.9079 36.2696 24.0547 37.9062 24.0547 39.3082V78.7635C24.0547 80.1706 24.9079 80.8167 25.9632 80.208Z" fill="#F1592A"/>
<path d="M25.9632 80.208L73.5466 52.7328C74.6019 52.124 75.4576 50.4874 75.4576 49.0879V9.6301C75.4576 8.22552 74.6019 7.57937 73.5466 8.1881L25.9632 35.6608C24.9079 36.2696 24.0547 37.9062 24.0547 39.3082V78.7635C24.0547 80.1706 24.9079 80.8167 25.9632 80.208Z" fill="#F1592A"/>
<path opacity="0.7" d="M25.9632 80.208L73.5466 52.7328C74.6019 52.124 75.4576 50.4874 75.4576 49.0879V9.6301C75.4576 8.22552 74.6019 7.57937 73.5466 8.1881L25.9632 35.6608C24.9079 36.2696 24.0547 37.9062 24.0547 39.3082V78.7635C24.0547 80.1706 24.9079 80.8167 25.9632 80.208Z" fill="white"/>
<path d="M25.9631 35.6608L73.5464 8.1881C74.6017 7.57937 75.4575 8.22552 75.4575 9.6301V11.5586L24.0645 41.2467V39.3182C24.0546 37.9012 24.9078 36.2696 25.9631 35.6608Z" fill="#F1592A"/>
<path opacity="0.5" d="M25.9631 35.6608L73.5464 8.1881C74.6017 7.57937 75.4575 8.22552 75.4575 9.6301V11.5586L24.0645 41.2467V39.3182C24.0546 37.9012 24.9078 36.2696 25.9631 35.6608Z" fill="white"/>
<path d="M74.305 8.13064C74.9013 8.13064 75.2855 8.71941 75.2855 9.62752V49.0878C75.2855 50.435 74.4672 52.0042 73.4618 52.5805L25.8759 80.0583C25.6744 80.1852 25.4429 80.2566 25.2048 80.2653C24.6086 80.2653 24.2244 79.6766 24.2244 78.7684V39.3082C24.2244 37.9585 25.0427 36.3893 26.0481 35.8155L73.6339 8.33521C73.8356 8.20894 74.0672 8.13836 74.305 8.13064ZM74.305 7.9585C74.0398 7.9682 73.7817 8.04734 73.5566 8.18802L25.9633 35.6608C24.908 36.2695 24.0522 37.9061 24.0522 39.3082V78.7635C24.0522 79.8113 24.5263 80.4375 25.2048 80.4375C25.4699 80.4266 25.7277 80.3476 25.9533 80.208L73.5466 52.7327C74.6019 52.124 75.4576 50.4874 75.4576 49.0878V9.63001C75.4576 8.58469 74.9836 7.9585 74.305 7.9585Z" fill="#F1592A"/>
<path d="M28.1038 36.8608C28.0922 37.1104 28.0215 37.3536 27.8975 37.5705C27.7734 37.7874 27.5996 37.9717 27.3903 38.1082C26.9961 38.3352 26.6743 38.1506 26.6743 37.6966C26.6864 37.4468 26.7576 37.2035 26.8821 36.9866C27.0065 36.7697 27.1807 36.5855 27.3903 36.4492C27.7845 36.2122 28.1038 36.4067 28.1038 36.8608Z" fill="white"/>
<path d="M30.6239 35.4065C30.6123 35.656 30.5415 35.8993 30.4175 36.1162C30.2934 36.3331 30.1196 36.5174 29.9103 36.6539C29.5162 36.8809 29.1943 36.6963 29.1943 36.2422C29.2064 35.9925 29.2776 35.7491 29.4021 35.5323C29.5266 35.3154 29.7008 35.1312 29.9103 34.9948C30.3045 34.7678 30.6239 34.9649 30.6239 35.4065Z" fill="white"/>
<path d="M33.1434 33.9516C33.1318 34.2012 33.0611 34.4445 32.937 34.6614C32.813 34.8782 32.6391 35.0625 32.4299 35.199C32.0332 35.4261 31.7139 35.2414 31.7139 34.7874C31.7253 34.5375 31.7963 34.2939 31.9208 34.077C32.0453 33.86 32.2199 33.6759 32.4299 33.54C32.8241 33.313 33.1434 33.4976 33.1434 33.9516Z" fill="white"/>
<path d="M33.9568 66.8008C33.9231 66.8016 33.89 66.8093 33.8595 66.8232L26.9339 70.8149C26.8534 70.8608 26.7865 70.9273 26.74 71.0075C26.6935 71.0877 26.6692 71.1788 26.6694 71.2715V76.7426C26.6694 76.7659 26.6745 76.7889 26.6844 76.8099C26.694 76.8329 26.7085 76.8535 26.7269 76.8703C26.7452 76.8872 26.767 76.8998 26.7907 76.9074C26.8144 76.915 26.8395 76.9173 26.8642 76.9143C26.889 76.9113 26.9127 76.9029 26.9339 76.8898L33.8595 72.8981C33.9394 72.8522 34.006 72.7861 34.0524 72.7064C34.0988 72.6267 34.1235 72.5362 34.1239 72.444V66.9729C34.1239 66.9281 34.1065 66.8851 34.0753 66.8529C34.0441 66.8208 34.0015 66.8021 33.9568 66.8008Z" fill="white"/>
<path d="M33.2505 72.2673L28.0264 75.2835L29.5682 71.2669L30.6384 72.5367L31.7311 70.98L33.2505 72.2673Z" fill="#F1592A"/>
<path opacity="0.4" d="M33.2505 72.2673L28.0264 75.2835L29.5682 71.2669L30.6384 72.5367L31.7311 70.98L33.2505 72.2673Z" fill="white"/>
<path d="M31.4369 69.7622C31.4282 69.9277 31.3806 70.0888 31.2977 70.2323C31.2149 70.3758 31.0993 70.4977 30.9604 70.588C30.6984 70.7402 30.4839 70.6154 30.4839 70.3111C30.4931 70.1461 30.5411 69.9856 30.6239 69.8425C30.7066 69.6995 30.8219 69.578 30.9604 69.4878C31.2248 69.3356 31.4369 69.4578 31.4369 69.7622Z" fill="#F1592A"/>
<path d="M43.2497 61.4222C43.2159 61.4214 43.1825 61.4291 43.1524 61.4446L36.2269 65.4363C36.1463 65.4822 36.0794 65.5487 36.033 65.6289C35.9865 65.7091 35.9622 65.8002 35.9624 65.8929V71.3615C35.9621 71.3856 35.9672 71.4095 35.9774 71.4313C35.987 71.4543 36.0015 71.4749 36.0198 71.4917C36.0382 71.5086 36.06 71.5212 36.0837 71.5288C36.1074 71.5364 36.1325 71.5387 36.1572 71.5357C36.1819 71.5326 36.2057 71.5243 36.2269 71.5111L43.1524 67.5195C43.2324 67.4736 43.299 67.4075 43.3454 67.3278C43.3918 67.2481 43.4164 67.1576 43.4169 67.0654V61.5943C43.4169 61.5495 43.3995 61.5065 43.3682 61.4743C43.337 61.4422 43.2945 61.4235 43.2497 61.4222Z" fill="white"/>
<path d="M42.5464 66.8884L37.3223 69.9046L38.8641 65.888L39.9343 67.1578L41.027 65.6011L42.5464 66.8884Z" fill="#F1592A"/>
<path opacity="0.4" d="M42.5464 66.8884L37.3223 69.9046L38.8641 65.888L39.9343 67.1578L41.027 65.6011L42.5464 66.8884Z" fill="white"/>
<path d="M40.5919 64.8503C40.778 64.5281 40.7778 64.1798 40.5917 64.0723C40.4056 63.9649 40.1039 64.1389 39.9179 64.4611C39.7318 64.7833 39.732 65.1316 39.9181 65.239C40.1042 65.3465 40.4059 65.1724 40.5919 64.8503Z" fill="#F1592A"/>
<path d="M71.0241 45.3482C70.9903 45.3474 70.9568 45.3551 70.9268 45.3707L64.0012 49.3623C63.9213 49.4088 63.8551 49.4754 63.8091 49.5555C63.7631 49.6357 63.739 49.7265 63.7393 49.8189V55.2875C63.7393 55.3113 63.7435 55.335 63.7517 55.3573C63.7613 55.3803 63.7758 55.4009 63.7942 55.4178C63.8125 55.4346 63.8343 55.4472 63.8581 55.4548C63.8818 55.4624 63.9069 55.4648 63.9316 55.4617C63.9563 55.4587 63.98 55.4503 64.0012 55.4372L70.9293 51.4455C71.0092 51.3991 71.0754 51.3325 71.1214 51.2523C71.1674 51.1722 71.1915 51.0813 71.1912 50.9889V45.5203C71.1916 45.4981 71.1875 45.4759 71.1793 45.4552C71.1711 45.4345 71.1588 45.4156 71.1433 45.3996C71.1278 45.3837 71.1093 45.3709 71.0888 45.3621C71.0684 45.3532 71.0464 45.3485 71.0241 45.3482Z" fill="white"/>
<path d="M70.3184 50.8142L65.0942 53.8304L66.6385 49.8138L67.7063 51.0836L68.799 49.5269L70.3184 50.8142Z" fill="#F1592A"/>
<path opacity="0.4" d="M70.3184 50.8142L65.0942 53.8304L66.6385 49.8138L67.7063 51.0836L68.799 49.5269L70.3184 50.8142Z" fill="white"/>
<path d="M68.5067 48.3096C68.4975 48.4746 68.4495 48.6351 68.3668 48.7781C68.284 48.9212 68.1687 49.0427 68.0302 49.1329C67.7658 49.2851 67.5537 49.1628 67.5537 48.8585C67.5624 48.693 67.6101 48.5319 67.6929 48.3884C67.7757 48.2449 67.8913 48.123 68.0302 48.0327C68.2922 47.8805 68.5067 48.0052 68.5067 48.3096Z" fill="#F1592A"/>
<path d="M52.5456 56.0433C52.5118 56.0425 52.4784 56.0502 52.4483 56.0657L45.5228 60.0574C45.4422 60.1033 45.3753 60.1697 45.3289 60.25C45.2824 60.3302 45.2581 60.4213 45.2583 60.5139V65.9825C45.258 66.0067 45.2631 66.0305 45.2733 66.0524C45.2829 66.0754 45.2974 66.096 45.3157 66.1128C45.3341 66.1296 45.3559 66.1423 45.3796 66.1499C45.4033 66.1575 45.4284 66.1598 45.4531 66.1568C45.4778 66.1537 45.5016 66.1454 45.5228 66.1322L52.4483 62.1406C52.5287 62.0945 52.5955 62.028 52.6419 61.9478C52.6883 61.8676 52.7128 61.7767 52.7128 61.684V56.2154C52.7131 56.1931 52.7091 56.171 52.7008 56.1503C52.6926 56.1296 52.6804 56.1107 52.6649 56.0947C52.6493 56.0787 52.6308 56.066 52.6104 56.0571C52.5899 56.0483 52.5679 56.0436 52.5456 56.0433Z" fill="white"/>
<path d="M51.8423 61.5095L46.6182 64.5257L48.1599 60.5091L49.2302 61.7789L50.3229 60.2222L51.8423 61.5095Z" fill="#F1592A"/>
<path opacity="0.4" d="M51.8423 61.5095L46.6182 64.5257L48.1599 60.5091L49.2302 61.7789L50.3229 60.2222L51.8423 61.5095Z" fill="white"/>
<path d="M50.0282 59.0047C50.0196 59.1701 49.9719 59.3312 49.8891 59.4747C49.8062 59.6183 49.6906 59.7401 49.5517 59.8304C49.2897 59.9801 49.0752 59.8579 49.0752 59.5535C49.0844 59.3882 49.1324 59.2273 49.2151 59.0839C49.2979 58.9405 49.4132 58.8185 49.5517 58.7277C49.8162 58.5756 50.0282 58.7003 50.0282 59.0047Z" fill="#F1592A"/>
<path d="M61.841 50.6819C61.8074 50.6822 61.7742 50.6899 61.7437 50.7043L54.8182 54.696C54.7378 54.7421 54.6711 54.8086 54.6246 54.8888C54.5782 54.9689 54.5537 55.0599 54.5537 55.1526V60.6237C54.5534 60.647 54.5585 60.67 54.5687 60.691C54.5784 60.7139 54.5929 60.7345 54.6112 60.7514C54.6295 60.7682 54.6511 60.781 54.6748 60.7887C54.6984 60.7965 54.7234 60.7992 54.7481 60.7965C54.7729 60.7939 54.7967 60.786 54.8182 60.7734L61.7437 56.7817C61.8238 56.7352 61.8903 56.6686 61.9366 56.5885C61.983 56.5085 62.0077 56.4177 62.0082 56.3251V50.844C62.0052 50.8012 61.9864 50.761 61.9556 50.731C61.9248 50.7011 61.884 50.6836 61.841 50.6819Z" fill="white"/>
<path d="M61.1377 56.1378L55.9136 59.1541L57.4554 55.1399L58.5256 56.4073L59.6184 54.853L61.1377 56.1378Z" fill="#F1592A"/>
<path opacity="0.4" d="M61.1377 56.1378L55.9136 59.1541L57.4554 55.1399L58.5256 56.4073L59.6184 54.853L61.1377 56.1378Z" fill="white"/>
<path d="M59.3241 53.6333C59.3155 53.7988 59.2678 53.9599 59.1849 54.1034C59.1021 54.2469 58.9865 54.3688 58.8476 54.4591C58.5856 54.6113 58.3711 54.4865 58.3711 54.1846C58.3803 54.0193 58.4283 53.8585 58.511 53.715C58.5938 53.5716 58.7091 53.4496 58.8476 53.3589C59.1121 53.2067 59.3241 53.3289 59.3241 53.6333Z" fill="#F1592A"/>
<path d="M63.4401 22.7129C63.3103 22.7121 63.182 22.742 63.0659 22.8002L36.4713 38.0834C36.1647 38.2604 35.9099 38.5149 35.7326 38.8214C35.5553 39.1279 35.4616 39.4756 35.4609 39.8297V60.826C35.4608 60.917 35.4795 61.007 35.5158 61.0904C35.5535 61.1759 35.6087 61.2524 35.6778 61.3151C35.747 61.3779 35.8285 61.4253 35.9172 61.4545C36.0059 61.4837 36.0997 61.4939 36.1926 61.4845C36.2855 61.475 36.3753 61.4462 36.4564 61.3998L63.041 46.1141C63.348 45.9375 63.603 45.6831 63.7804 45.3765C63.9578 45.0699 64.0512 44.722 64.0514 44.3678V23.374C64.0518 23.207 63.9891 23.046 63.8757 22.9233C63.7623 22.8007 63.6067 22.7255 63.4401 22.7129Z" fill="white"/>
<path d="M60.728 43.6943L40.6748 55.2727L46.6 39.8573L50.7014 44.7296L54.8952 38.7571L60.728 43.6943Z" fill="#F1592A"/>
<path opacity="0.4" d="M60.728 43.6943L40.6748 55.2727L46.6 39.8573L50.7014 44.7296L54.8952 38.7571L60.728 43.6943Z" fill="white"/>
<path d="M53.7732 34.0792C53.7381 34.714 53.5541 35.3316 53.2359 35.882C52.9178 36.4325 52.4745 36.9003 51.942 37.2476C50.9441 37.8289 50.1133 37.3573 50.1133 36.1898C50.1479 35.5551 50.3314 34.9376 50.6491 34.3871C50.9669 33.8367 51.4098 33.3688 51.942 33.0214C52.9623 32.4376 53.7732 32.9116 53.7732 34.0792Z" fill="#F1592A"/>
<path d="M70.5488 32.7465C71.3968 31.2776 71.3966 29.6897 70.5482 29.1999C69.6998 28.7101 68.3245 29.5038 67.4765 30.9727C66.6284 32.4416 66.6287 34.0294 67.4771 34.5192C68.3255 35.009 69.7007 34.2154 70.5488 32.7465Z" fill="white"/>
<path d="M68.133 32.47C68.0885 32.4707 68.045 32.4565 68.0094 32.4296C67.9739 32.4028 67.9484 32.3648 67.9369 32.3218C67.9254 32.2788 67.9287 32.2332 67.9461 32.1922C67.9636 32.1512 67.9942 32.1173 68.0332 32.0957L69.7795 31.0779C69.8024 31.0645 69.8277 31.0559 69.854 31.0525C69.8802 31.049 69.9069 31.0508 69.9324 31.0578C69.958 31.0648 69.9819 31.0768 70.0027 31.093C70.0236 31.1093 70.041 31.1296 70.054 31.1527C70.0804 31.1988 70.0876 31.2534 70.0741 31.3048C70.0605 31.3561 70.0273 31.4001 69.9816 31.4271L68.2203 32.4425C68.1935 32.4578 68.1637 32.4672 68.133 32.47Z" fill="#F1592A"/>
<path d="M68.8191 33.3007C68.7843 33.3007 68.75 33.2922 68.7193 33.2758C68.6736 33.2487 68.6404 33.2048 68.6268 33.1534C68.6133 33.102 68.6205 33.0474 68.6469 33.0013L69.6199 31.3149L68.7193 30.7959C68.6965 30.7827 68.6766 30.7651 68.6606 30.7441C68.6447 30.7231 68.633 30.6992 68.6263 30.6737C68.6195 30.6482 68.6179 30.6217 68.6215 30.5956C68.625 30.5694 68.6337 30.5443 68.6469 30.5215C68.6602 30.4987 68.6778 30.4788 68.6988 30.4629C68.7198 30.4469 68.7437 30.4352 68.7691 30.4285C68.7946 30.4218 68.8212 30.4202 68.8473 30.4237C68.8734 30.4272 68.8986 30.4359 68.9214 30.4492L69.9941 31.0679C70.0394 31.0953 70.0724 31.1391 70.0864 31.1901C70.0939 31.2155 70.096 31.2421 70.0925 31.2683C70.0891 31.2945 70.0802 31.3197 70.0665 31.3423L68.9937 33.2009C68.976 33.2315 68.9506 33.2569 68.9199 33.2744C68.8892 33.292 68.8544 33.301 68.8191 33.3007Z" fill="#F1592A"/>
<path d="M32.6686 52.8901C32.6686 54.2747 31.6957 55.9587 30.4957 56.6522C29.2957 57.3458 28.3252 56.782 28.3252 55.4048C28.3252 54.0277 29.2982 52.3362 30.4957 51.6452C31.6932 50.9541 32.6686 51.5055 32.6686 52.8901Z" fill="white"/>
<path d="M29.6182 54.9655C29.5827 54.9653 29.5479 54.9558 29.5172 54.9378C29.4865 54.9199 29.4612 54.8941 29.4436 54.8632C29.4173 54.8176 29.4101 54.7633 29.4237 54.7124C29.4373 54.6614 29.4704 54.6179 29.516 54.5913L31.2773 53.5734C31.3233 53.5466 31.378 53.5392 31.4295 53.5528C31.4809 53.5663 31.5249 53.5998 31.5517 53.6458C31.5785 53.6918 31.5859 53.7465 31.5724 53.798C31.5588 53.8494 31.5253 53.8934 31.4794 53.9202L29.718 54.9381C29.6875 54.9552 29.6532 54.9647 29.6182 54.9655Z" fill="#F1592A"/>
<path d="M30.6886 55.5843C30.6536 55.5834 30.6193 55.574 30.5888 55.5569L29.516 54.9382C29.4708 54.9107 29.4377 54.867 29.4237 54.8159C29.4163 54.7906 29.4142 54.7639 29.4176 54.7377C29.4211 54.7115 29.4299 54.6863 29.4437 54.6637L30.5165 52.8051C30.5429 52.7591 30.5866 52.7255 30.6378 52.7117C30.689 52.6979 30.7437 52.705 30.7896 52.7315C30.8356 52.758 30.8692 52.8016 30.883 52.8528C30.8968 52.9041 30.8897 52.9587 30.8632 53.0047L29.8903 54.6912L30.7909 55.2101C30.8366 55.2371 30.8698 55.2811 30.8833 55.3325C30.8969 55.3838 30.8897 55.4384 30.8632 55.4845C30.8452 55.5148 30.8196 55.5399 30.789 55.5574C30.7584 55.5748 30.7238 55.5841 30.6886 55.5843Z" fill="#F1592A"/>
<path d="M57.8823 78.7634V95.4262C57.8823 95.7929 57.6627 96.1397 57.2087 96.4017L33.5455 110.058C33.1399 110.277 32.6909 110.403 32.2307 110.427C32.2235 110.43 32.2155 110.43 32.2083 110.427V93.131L57.8823 78.7634Z" fill="#F1592A"/>
<path opacity="0.2" d="M36.981 96.9531V104.263C36.979 104.524 36.9088 104.779 36.7776 105.005C36.6463 105.23 36.4584 105.417 36.2325 105.548L33.5381 107.102C33.1326 107.321 32.6835 107.447 32.2234 107.471H32.2009V98.3327C32.6689 98.3105 33.1259 98.1834 33.5381 97.961L36.1153 96.4641C36.202 96.4128 36.3008 96.3853 36.4016 96.3843C36.5024 96.3833 36.6016 96.4089 36.6894 96.4585C36.7771 96.508 36.8503 96.5798 36.9015 96.6667C36.9527 96.7535 36.9801 96.8523 36.981 96.9531Z" fill="#DDDDDD"/>
<path d="M32.231 91.2947V110.44H31.5075C30.861 110.399 30.2314 110.216 29.6638 109.903L27.0518 108.407C26.4705 108.072 26.1512 107.658 26.1038 107.241V91.2947H32.231Z" fill="#F1592A"/>
<path opacity="0.3" d="M32.231 91.2947V110.44H31.5075C30.861 110.399 30.2314 110.216 29.6638 109.903L27.0518 108.407C26.4705 108.072 26.1512 107.658 26.1038 107.241V91.2947H32.231Z" fill="#DDDDDD"/>
<path d="M53.8327 76.8424C52.7225 76.4033 51.3005 76.4157 50.4348 76.9147L32.2227 87.4228L26.7666 90.5762C26.3151 90.8257 26.093 91.185 26.093 91.5517C26.093 91.9908 26.4148 92.4573 27.046 92.8191L29.6606 94.3409C30.2189 94.6489 30.8381 94.8304 31.4743 94.8723C31.7233 94.8943 31.9738 94.8943 32.2227 94.8723C32.6833 94.8483 33.1326 94.7212 33.5375 94.5006L57.2032 80.8241C57.6572 80.5746 57.8768 80.2178 57.8768 79.8511V75.0137L53.8327 76.8424Z" fill="#F1592A"/>
<path opacity="0.7" d="M53.8327 76.8424C52.7225 76.4033 51.3005 76.4157 50.4348 76.9147L32.2227 87.4228L26.7666 90.5762C26.3151 90.8257 26.093 91.185 26.093 91.5517C26.093 91.9908 26.4148 92.4573 27.046 92.8191L29.6606 94.3409C30.2189 94.6489 30.8381 94.8304 31.4743 94.8723C31.7233 94.8943 31.9738 94.8943 32.2227 94.8723C32.6833 94.8483 33.1326 94.7212 33.5375 94.5006L57.2032 80.8241C57.6572 80.5746 57.8768 80.2178 57.8768 79.8511V75.0137L53.8327 76.8424Z" fill="white"/>
<path d="M32.2307 86.6069V94.8697H31.4822C30.8436 94.8296 30.2218 94.649 29.661 94.3408L27.049 92.8315C26.4178 92.4697 26.0959 92.0032 26.0959 91.5641V86.6069H32.2307Z" fill="#F1592A"/>
<path opacity="0.5" d="M32.2307 86.6069V94.8697H31.4822C30.8436 94.8296 30.2218 94.649 29.661 94.3408L27.049 92.8315C26.4178 92.4697 26.0959 92.0032 26.0959 91.5641V86.6069H32.2307Z" fill="white"/>
<path d="M57.2036 75.9517L33.5379 89.6158C32.54 90.1921 30.7937 90.1147 29.6535 89.4561L27.039 87.9467C25.8914 87.2831 25.7666 86.2777 26.7621 85.7014L50.4278 72.0374C51.4257 71.4636 53.172 71.5384 54.3122 72.1996L56.9242 73.6964C58.0818 74.3825 58.2016 75.3804 57.2036 75.9517Z" fill="#F1592A"/>
<path opacity="0.6" d="M57.2036 75.9517L33.5379 89.6158C32.54 90.1921 30.7937 90.1147 29.6535 89.4561L27.039 87.9467C25.8914 87.2831 25.7666 86.2777 26.7621 85.7014L50.4278 72.0374C51.4257 71.4636 53.172 71.5384 54.3122 72.1996L56.9242 73.6964C58.0818 74.3825 58.2016 75.3804 57.2036 75.9517Z" fill="white"/>
<path d="M55.8571 86.1529L53.4347 84.7459C51.9553 83.8403 49.8871 83.94 47.5943 85.2623C43.1037 87.8569 39.4563 94.1687 39.4563 99.3604C39.4563 101.743 40.2247 103.472 41.4896 104.397C41.6968 104.55 41.9192 104.682 42.1532 104.789L44.0767 105.919L44.5482 105.128C45.6257 104.99 46.6629 104.63 47.5943 104.071C52.085 101.476 55.7349 95.1642 55.7349 89.975C55.7504 89.0092 55.5959 88.0481 55.2783 87.1359L55.8571 86.1529Z" fill="#F1592A"/>
<path opacity="0.5" d="M55.8571 86.1529L53.4347 84.7459C51.9553 83.8403 49.8871 83.94 47.5943 85.2623C43.1037 87.8569 39.4563 94.1687 39.4563 99.3604C39.4563 101.743 40.2247 103.472 41.4896 104.397C41.6968 104.55 41.9192 104.682 42.1532 104.789L44.0767 105.919L44.5482 105.128C45.6257 104.99 46.6629 104.63 47.5943 104.071C52.085 101.476 55.7349 95.1642 55.7349 89.975C55.7504 89.0092 55.5959 88.0481 55.2783 87.1359L55.8571 86.1529Z" fill="#DDDDDD"/>
<path d="M55.6051 99.2862C58.7838 93.7806 58.7837 87.8296 55.6049 85.9943C52.4261 84.159 47.2723 87.1344 44.0936 92.6401C40.915 98.1457 40.9151 104.097 44.0939 105.932C47.2727 107.767 52.4264 104.792 55.6051 99.2862Z" fill="#F1592A"/>
<path opacity="0.2" d="M55.6051 99.2862C58.7838 93.7806 58.7837 87.8296 55.6049 85.9943C52.4261 84.159 47.2723 87.1344 44.0936 92.6401C40.915 98.1457 40.9151 104.097 44.0939 105.932C47.2727 107.767 52.4264 104.792 55.6051 99.2862Z" fill="#DDDDDD"/>
<path d="M56.7598 89.2515L54.7939 88.1039C53.5939 87.3679 51.9124 87.4502 50.0537 88.523C46.4038 90.6311 43.4475 95.7579 43.4475 99.9667C43.4475 101.9 44.0712 103.305 45.0966 104.056C45.2661 104.179 45.4475 104.285 45.6379 104.372L47.1997 105.291L47.5814 104.649C48.4552 104.531 49.2952 104.234 50.0488 103.776C53.6962 101.671 56.655 96.5413 56.655 92.3326C56.6667 91.5494 56.5418 90.7701 56.2858 90.0299L56.7598 89.2515Z" fill="#F1592A"/>
<path opacity="0.4" d="M56.7598 89.2515L54.7939 88.1039C53.5939 87.3679 51.9124 87.4502 50.0537 88.523C46.4038 90.6311 43.4475 95.7579 43.4475 99.9667C43.4475 101.9 44.0712 103.305 45.0966 104.056C45.2661 104.179 45.4475 104.285 45.6379 104.372L47.1997 105.291L47.5814 104.649C48.4552 104.531 49.2952 104.234 50.0488 103.776C53.6962 101.671 56.655 96.5413 56.655 92.3326C56.6667 91.5494 56.5418 90.7701 56.2858 90.0299L56.7598 89.2515Z" fill="#DDDDDD"/>
<path d="M56.5541 99.9128C59.1341 95.4441 59.1342 90.6141 56.5544 89.1246C53.9747 87.6352 49.7918 90.0504 47.2118 94.5191C44.6318 98.9878 44.6316 103.818 47.2114 105.307C49.7912 106.797 53.9741 104.382 56.5541 99.9128Z" fill="#F1592A"/>
<path opacity="0.6" d="M54.7841 98.8912C56.3865 96.1157 56.3864 93.1157 54.7839 92.1905C53.1814 91.2653 50.5832 92.7652 48.9808 95.5407C47.3784 98.3162 47.3784 101.316 48.981 102.241C50.5835 103.167 53.1816 101.667 54.7841 98.8912Z" fill="#DDDDDD"/>
<path d="M51.5808 92.6694C49.5575 94.0091 47.9433 96.8008 47.7961 99.2233C48.2751 99.8969 49.1658 100.024 50.1862 99.4328C51.7155 98.5497 52.9629 96.4017 52.9629 94.6353C52.9629 93.4553 52.404 92.7493 51.5808 92.6694Z" fill="#F1592A"/>
<path opacity="0.8" d="M51.5808 92.6694C49.5575 94.0091 47.9433 96.8008 47.7961 99.2233C48.2751 99.8969 49.1658 100.024 50.1862 99.4328C51.7155 98.5497 52.9629 96.4017 52.9629 94.6353C52.9629 93.4553 52.404 92.7493 51.5808 92.6694Z" fill="#DDDDDD"/>
<path d="M51.5601 94.912C51.546 95.1715 51.4709 95.4239 51.3409 95.6489C51.2108 95.8739 51.0295 96.065 50.8117 96.2068C50.4 96.4562 50.0632 96.2517 50.0632 95.7752C50.0779 95.5155 50.1533 95.2628 50.2832 95.0375C50.4132 94.8123 50.5942 94.6206 50.8117 94.4779C51.2158 94.2409 51.5601 94.433 51.5601 94.912Z" fill="#FAFAFA"/>
<path d="M34.0248 98.9088C34.0248 98.9479 34.0132 98.9861 33.9914 99.0185C33.9696 99.051 33.9387 99.0762 33.9025 99.0911C33.8664 99.1059 33.8266 99.1097 33.7883 99.1019C33.75 99.0941 33.7149 99.0751 33.6875 99.0472C33.66 99.0194 33.6414 98.9841 33.6341 98.9457C33.6268 98.9073 33.631 98.8676 33.6463 98.8316C33.6616 98.7956 33.6873 98.765 33.72 98.7437C33.7528 98.7223 33.7911 98.7112 33.8302 98.7117C33.856 98.7117 33.8815 98.7168 33.9052 98.7267C33.929 98.7367 33.9506 98.7512 33.9687 98.7696C33.9868 98.7879 34.0011 98.8096 34.0107 98.8335C34.0203 98.8574 34.0251 98.883 34.0248 98.9088Z" fill="#F1592A"/>
<path d="M34.9125 98.37C34.9125 98.409 34.9009 98.4473 34.8791 98.4797C34.8573 98.5122 34.8264 98.5374 34.7902 98.5523C34.7541 98.5671 34.7143 98.5709 34.676 98.5631C34.6377 98.5553 34.6026 98.5362 34.5752 98.5084C34.5477 98.4806 34.5291 98.4453 34.5218 98.4069C34.5145 98.3685 34.5187 98.3288 34.534 98.2928C34.5493 98.2568 34.575 98.2262 34.6077 98.2049C34.6405 98.1835 34.6788 98.1724 34.7179 98.1729C34.7437 98.1729 34.7692 98.178 34.7929 98.1879C34.8167 98.1979 34.8383 98.2124 34.8564 98.2307C34.8745 98.2491 34.8888 98.2708 34.8984 98.2947C34.908 98.3186 34.9128 98.3442 34.9125 98.37Z" fill="#F1592A"/>
<path d="M35.8016 97.8662C35.8021 97.9054 35.7909 97.9439 35.7695 97.9767C35.748 98.0095 35.7172 98.0351 35.6811 98.0503C35.645 98.0656 35.6052 98.0697 35.5667 98.0621C35.5283 98.0546 35.4929 98.0358 35.4652 98.0081C35.4375 97.9804 35.4187 97.945 35.4111 97.9066C35.4036 97.8681 35.4077 97.8283 35.423 97.7922C35.4382 97.756 35.4638 97.7253 35.4966 97.7038C35.5294 97.6824 35.5678 97.6712 35.607 97.6716C35.6586 97.6716 35.7081 97.6921 35.7446 97.7286C35.7811 97.7651 35.8016 97.8146 35.8016 97.8662Z" fill="#F1592A"/>
<path d="M33.8301 100.226C33.9376 100.226 34.0247 100.139 34.0247 100.032C34.0247 99.924 33.9376 99.8369 33.8301 99.8369C33.7226 99.8369 33.6355 99.924 33.6355 100.032C33.6355 100.139 33.7226 100.226 33.8301 100.226Z" fill="#F1592A"/>
<path d="M34.9125 99.4925C34.913 99.5317 34.9018 99.5701 34.8803 99.6029C34.8588 99.6357 34.8281 99.6613 34.792 99.6765C34.7559 99.6918 34.716 99.6959 34.6776 99.6884C34.6391 99.6808 34.6038 99.662 34.576 99.6343C34.5483 99.6066 34.5295 99.5712 34.522 99.5328C34.5145 99.4943 34.5186 99.4545 34.5338 99.4184C34.549 99.3823 34.5747 99.3515 34.6075 99.33C34.6402 99.3086 34.6787 99.2974 34.7179 99.2979C34.7695 99.2979 34.819 99.3184 34.8555 99.3549C34.892 99.3914 34.9125 99.4409 34.9125 99.4925Z" fill="#F1592A"/>
<path d="M35.8017 98.9911C35.8016 99.0301 35.79 99.0683 35.7683 99.1008C35.7465 99.1333 35.7156 99.1585 35.6794 99.1734C35.6432 99.1882 35.6035 99.192 35.5652 99.1841C35.5269 99.1763 35.4918 99.1573 35.4643 99.1295C35.4368 99.1017 35.4183 99.0663 35.411 99.0279C35.4036 98.9896 35.4079 98.9498 35.4232 98.9139C35.4385 98.8779 35.4641 98.8473 35.4969 98.826C35.5296 98.8046 35.568 98.7935 35.6071 98.794C35.6328 98.794 35.6583 98.7991 35.6821 98.809C35.7059 98.8189 35.7274 98.8335 35.7455 98.8518C35.7636 98.8702 35.7779 98.8919 35.7876 98.9158C35.7972 98.9397 35.802 98.9653 35.8017 98.9911Z" fill="#F1592A"/>
<path d="M33.8301 101.349C33.9376 101.349 34.0247 101.262 34.0247 101.154C34.0247 101.047 33.9376 100.959 33.8301 100.959C33.7226 100.959 33.6355 101.047 33.6355 101.154C33.6355 101.262 33.7226 101.349 33.8301 101.349Z" fill="#F1592A"/>
<path d="M34.7183 100.81C34.8257 100.81 34.9129 100.723 34.9129 100.615C34.9129 100.508 34.8257 100.421 34.7183 100.421C34.6108 100.421 34.5237 100.508 34.5237 100.615C34.5237 100.723 34.6108 100.81 34.7183 100.81Z" fill="#F1592A"/>
<path d="M35.8016 100.114C35.8021 100.153 35.7909 100.192 35.7695 100.224C35.748 100.257 35.7172 100.283 35.6811 100.298C35.645 100.313 35.6052 100.317 35.5667 100.31C35.5283 100.302 35.4929 100.284 35.4652 100.256C35.4375 100.228 35.4187 100.193 35.4111 100.154C35.4036 100.116 35.4077 100.076 35.423 100.04C35.4382 100.004 35.4638 99.9731 35.4966 99.9516C35.5294 99.9302 35.5678 99.919 35.607 99.9194C35.6586 99.9194 35.7081 99.94 35.7446 99.9765C35.7811 100.013 35.8016 100.062 35.8016 100.114Z" fill="#F1592A"/>
<path d="M33.8301 102.474C33.9376 102.474 34.0247 102.387 34.0247 102.279C34.0247 102.172 33.9376 102.085 33.8301 102.085C33.7226 102.085 33.6355 102.172 33.6355 102.279C33.6355 102.387 33.7226 102.474 33.8301 102.474Z" fill="#F1592A"/>
<path d="M34.7183 101.935C34.8257 101.935 34.9129 101.848 34.9129 101.74C34.9129 101.633 34.8257 101.546 34.7183 101.546C34.6108 101.546 34.5237 101.633 34.5237 101.74C34.5237 101.848 34.6108 101.935 34.7183 101.935Z" fill="#F1592A"/>
<path d="M35.8016 101.236C35.8021 101.276 35.7909 101.314 35.7695 101.347C35.748 101.38 35.7172 101.405 35.6811 101.42C35.645 101.436 35.6052 101.44 35.5667 101.432C35.5283 101.425 35.4929 101.406 35.4652 101.378C35.4375 101.35 35.4187 101.315 35.4111 101.277C35.4036 101.238 35.4077 101.198 35.423 101.162C35.4382 101.126 35.4638 101.095 35.4966 101.074C35.5294 101.052 35.5678 101.041 35.607 101.042C35.6586 101.042 35.7081 101.062 35.7446 101.099C35.7811 101.135 35.8016 101.185 35.8016 101.236Z" fill="#F1592A"/>
<path d="M34.025 103.402C34.0196 103.45 33.9966 103.495 33.9605 103.527C33.9243 103.559 33.8776 103.577 33.8292 103.577C33.7807 103.577 33.734 103.559 33.6979 103.527C33.6617 103.495 33.6388 103.45 33.6333 103.402C33.6302 103.375 33.633 103.347 33.6414 103.32C33.6498 103.294 33.6637 103.27 33.6822 103.249C33.7007 103.228 33.7233 103.212 33.7487 103.2C33.774 103.189 33.8014 103.183 33.8292 103.183C33.8569 103.183 33.8844 103.189 33.9097 103.2C33.935 103.212 33.9577 103.228 33.9761 103.249C33.9946 103.27 34.0085 103.294 34.017 103.32C34.0254 103.347 34.0281 103.375 34.025 103.402Z" fill="#F1592A"/>
<path d="M34.7183 103.058C34.8257 103.058 34.9129 102.971 34.9129 102.863C34.9129 102.756 34.8257 102.668 34.7183 102.668C34.6108 102.668 34.5237 102.756 34.5237 102.863C34.5237 102.971 34.6108 103.058 34.7183 103.058Z" fill="#F1592A"/>
<path d="M35.8017 102.362C35.8016 102.401 35.79 102.439 35.7683 102.471C35.7465 102.504 35.7156 102.529 35.6794 102.544C35.6432 102.559 35.6035 102.563 35.5652 102.555C35.5269 102.547 35.4918 102.528 35.4643 102.5C35.4368 102.472 35.4183 102.437 35.411 102.399C35.4036 102.36 35.4079 102.32 35.4232 102.284C35.4385 102.249 35.4641 102.218 35.4969 102.197C35.5296 102.175 35.568 102.164 35.6071 102.165C35.6328 102.165 35.6583 102.17 35.6821 102.18C35.7059 102.19 35.7274 102.204 35.7455 102.222C35.7636 102.241 35.7779 102.263 35.7876 102.286C35.7972 102.31 35.802 102.336 35.8017 102.362Z" fill="#F1592A"/>
<path d="M33.8301 104.719C33.9376 104.719 34.0247 104.632 34.0247 104.525C34.0247 104.417 33.9376 104.33 33.8301 104.33C33.7226 104.33 33.6355 104.417 33.6355 104.525C33.6355 104.632 33.7226 104.719 33.8301 104.719Z" fill="#F1592A"/>
<path d="M34.9125 103.986C34.913 104.025 34.9018 104.063 34.8803 104.096C34.8588 104.129 34.8281 104.154 34.792 104.17C34.7559 104.185 34.716 104.189 34.6776 104.182C34.6391 104.174 34.6038 104.155 34.576 104.127C34.5483 104.1 34.5295 104.064 34.522 104.026C34.5145 103.987 34.5186 103.948 34.5338 103.912C34.549 103.875 34.5747 103.845 34.6075 103.823C34.6402 103.802 34.6787 103.791 34.7179 103.791C34.7695 103.791 34.819 103.812 34.8555 103.848C34.892 103.885 34.9125 103.934 34.9125 103.986Z" fill="#F1592A"/>
<path d="M35.8016 103.484C35.8021 103.523 35.7909 103.562 35.7695 103.595C35.748 103.627 35.7172 103.653 35.6811 103.668C35.645 103.683 35.6052 103.688 35.5667 103.68C35.5283 103.673 35.4929 103.654 35.4652 103.626C35.4375 103.598 35.4187 103.563 35.4111 103.524C35.4036 103.486 35.4077 103.446 35.423 103.41C35.4382 103.374 35.4638 103.343 35.4966 103.322C35.5294 103.3 35.5678 103.289 35.607 103.29C35.6586 103.29 35.7081 103.31 35.7446 103.347C35.7811 103.383 35.8016 103.433 35.8016 103.484Z" fill="#F1592A"/>
<path d="M33.8301 105.845C33.9376 105.845 34.0247 105.757 34.0247 105.65C34.0247 105.542 33.9376 105.455 33.8301 105.455C33.7226 105.455 33.6355 105.542 33.6355 105.65C33.6355 105.757 33.7226 105.845 33.8301 105.845Z" fill="#F1592A"/>
<path d="M34.9125 105.111C34.9125 105.15 34.9009 105.188 34.8791 105.221C34.8573 105.253 34.8264 105.278 34.7902 105.293C34.7541 105.308 34.7143 105.312 34.676 105.304C34.6377 105.296 34.6026 105.277 34.5752 105.249C34.5477 105.222 34.5291 105.186 34.5218 105.148C34.5145 105.109 34.5187 105.07 34.534 105.034C34.5493 104.998 34.575 104.967 34.6077 104.946C34.6405 104.924 34.6788 104.913 34.7179 104.914C34.7437 104.914 34.7692 104.919 34.7929 104.929C34.8167 104.939 34.8383 104.953 34.8564 104.972C34.8745 104.99 34.8888 105.012 34.8984 105.036C34.908 105.06 34.9128 105.085 34.9125 105.111Z" fill="#F1592A"/>
<path d="M35.8016 104.607C35.8021 104.646 35.7909 104.685 35.7695 104.717C35.748 104.75 35.7172 104.776 35.6811 104.791C35.645 104.806 35.6052 104.81 35.5667 104.803C35.5283 104.795 35.4929 104.777 35.4652 104.749C35.4375 104.721 35.4187 104.686 35.4111 104.647C35.4036 104.609 35.4077 104.569 35.423 104.533C35.4382 104.497 35.4638 104.466 35.4966 104.445C35.5294 104.423 35.5678 104.412 35.607 104.412C35.6586 104.412 35.7081 104.433 35.7446 104.469C35.7811 104.506 35.8016 104.555 35.8016 104.607Z" fill="#F1592A"/>
<path d="M48.2832 78.1393L47.4873 78.2615L45.1347 76.9019L41.0956 79.2345L38.6008 79.6137V80.669L41.1306 82.1285C41.879 82.5601 43.0091 82.6075 43.6578 82.2332L47.8341 79.8208C47.9529 79.7672 48.0557 79.6836 48.1323 79.5782C48.2088 79.4727 48.2566 79.3491 48.2707 79.2195L48.2832 78.1393Z" fill="#F1592A"/>
<path opacity="0.2" d="M48.2832 78.1393L47.4873 78.2615L45.1347 76.9019L41.0956 79.2345L38.6008 79.6137V80.669L41.1306 82.1285C41.879 82.5601 43.0091 82.6075 43.6578 82.2332L47.8341 79.8208C47.9529 79.7672 48.0557 79.6836 48.1323 79.5782C48.2088 79.4727 48.2566 79.3491 48.2707 79.2195L48.2832 78.1393Z" fill="#DDDDDD"/>
<path d="M47.8434 78.7657L43.6671 81.1782C43.0184 81.5524 41.8883 81.505 41.1398 81.0734L38.6101 79.6214L45.134 75.8542L47.6637 77.3137C48.4122 77.7378 48.492 78.3915 47.8434 78.7657Z" fill="#F1592A"/>
<path d="M46.4535 77.2714L45.8847 77.3587L44.2007 76.3857L41.3093 78.0548L39.533 78.3267V79.0751L41.3417 80.118C41.6159 80.2721 41.9227 80.3592 42.2371 80.3722C42.5514 80.3853 42.8644 80.3238 43.1504 80.1928L46.1442 78.4689C46.2288 78.4297 46.3019 78.3695 46.3565 78.2939C46.4112 78.2183 46.4454 78.1299 46.456 78.0373L46.4535 77.2714Z" fill="#F1592A"/>
<path opacity="0.2" d="M46.4535 77.2714L45.8847 77.3587L44.2007 76.3857L41.3093 78.0548L39.533 78.3267V79.0751L41.3417 80.118C41.6159 80.2721 41.9227 80.3592 42.2371 80.3722C42.5514 80.3853 42.8644 80.3238 43.1504 80.1928L46.1442 78.4689C46.2288 78.4297 46.3019 78.3695 46.3565 78.2939C46.4112 78.2183 46.4454 78.1299 46.456 78.0373L46.4535 77.2714Z" fill="#DDDDDD"/>
<path d="M46.1393 77.7205L43.1455 79.4444C42.8595 79.5754 42.5465 79.6369 42.2322 79.6239C41.9179 79.6109 41.6111 79.5237 41.3368 79.3696L39.5281 78.3268L44.2008 75.6299L46.0096 76.6752C46.546 76.9846 46.6033 77.4511 46.1393 77.7205Z" fill="#F1592A"/>
<path d="M35.06 85.9608C35.0625 85.9235 35.0625 85.8859 35.06 85.8486V84.2544H29.8508V85.9758C29.8783 86.3376 30.1302 86.6918 30.5993 86.9737C31.1708 87.2629 31.8024 87.4136 32.4429 87.4136C33.0835 87.4136 33.715 87.2629 34.2866 86.9737C34.7656 86.6968 35.0151 86.3425 35.035 85.9758L35.06 85.9608Z" fill="#F1592A"/>
<path opacity="0.2" d="M35.06 85.9608C35.0625 85.9235 35.0625 85.8859 35.06 85.8486V84.2544H29.8508V85.9758C29.8783 86.3376 30.1302 86.6918 30.5993 86.9737C31.1708 87.2629 31.8024 87.4136 32.4429 87.4136C33.0835 87.4136 33.715 87.2629 34.2866 86.9737C34.7656 86.6968 35.0151 86.3425 35.035 85.9758L35.06 85.9608Z" fill="#DDDDDD"/>
<path d="M34.3016 83.189C35.3194 83.7777 35.3194 84.7307 34.3016 85.317C33.7303 85.6073 33.0987 85.7587 32.4579 85.7587C31.8171 85.7587 31.1854 85.6073 30.6142 85.317C29.5964 84.7307 29.5964 83.7777 30.6142 83.189C31.1854 82.8986 31.8171 82.7473 32.4579 82.7473C33.0987 82.7473 33.7303 82.8986 34.3016 83.189Z" fill="#F1592A"/>
<path d="M49.7487 75.3179V74.6318H47.6555V75.3254C47.6703 75.4116 47.7056 75.4929 47.7586 75.5624C47.8116 75.6319 47.8807 75.6875 47.9599 75.7246C48.1898 75.8402 48.4435 75.9004 48.7008 75.9004C48.9582 75.9004 49.2119 75.8402 49.4418 75.7246C49.5207 75.6872 49.5896 75.6314 49.6425 75.562C49.6955 75.4925 49.731 75.4114 49.7462 75.3254L49.7487 75.3179Z" fill="#F1592A"/>
<path opacity="0.2" d="M49.7487 75.3179V74.6318H47.6555V75.3254C47.6703 75.4116 47.7056 75.4929 47.7586 75.5624C47.8116 75.6319 47.8807 75.6875 47.9599 75.7246C48.1898 75.8402 48.4435 75.9004 48.7008 75.9004C48.9582 75.9004 49.2119 75.8402 49.4418 75.7246C49.5207 75.6872 49.5896 75.6314 49.6425 75.562C49.6955 75.4925 49.731 75.4114 49.7462 75.3254L49.7487 75.3179Z" fill="#DDDDDD"/>
<path d="M49.4443 74.2055C49.8534 74.4425 49.8534 74.8242 49.4443 75.0612C49.2144 75.1768 48.9607 75.237 48.7033 75.237C48.446 75.237 48.1923 75.1768 47.9624 75.0612C47.5532 74.8117 47.5532 74.4425 47.9624 74.2055C48.1919 74.0887 48.4458 74.0278 48.7033 74.0278C48.9609 74.0278 49.2148 74.0887 49.4443 74.2055Z" fill="#F1592A"/>
<path d="M54.472 75.131C54.4745 75.1003 54.4745 75.0694 54.472 75.0387V73.7314H50.2034V75.1435C50.2327 75.3195 50.3046 75.4856 50.4129 75.6274C50.5212 75.7691 50.6625 75.8822 50.8246 75.9568C51.2927 76.1942 51.8103 76.3179 52.3352 76.3179C52.8601 76.3179 53.3776 76.1942 53.8458 75.9568C54.0073 75.8817 54.148 75.7685 54.2558 75.6267C54.3636 75.485 54.4352 75.3191 54.4645 75.1435L54.472 75.131Z" fill="#F1592A"/>
<path opacity="0.2" d="M54.472 75.131C54.4745 75.1003 54.4745 75.0694 54.472 75.0387V73.7314H50.2034V75.1435C50.2327 75.3195 50.3046 75.4856 50.4129 75.6274C50.5212 75.7691 50.6625 75.8822 50.8246 75.9568C51.2927 76.1942 51.8103 76.3179 52.3352 76.3179C52.8601 76.3179 53.3776 76.1942 53.8458 75.9568C54.0073 75.8817 54.148 75.7685 54.2558 75.6267C54.3636 75.485 54.4352 75.3191 54.4645 75.1435L54.472 75.131Z" fill="#DDDDDD"/>
<path d="M50.6193 74.0432V75.812C50.5613 75.7713 50.5085 75.7235 50.4622 75.6698V74.0432H50.6193Z" fill="#F1592A"/>
<path d="M51.216 74.0433V76.1289C51.1622 76.1118 51.1097 76.091 51.0588 76.0665V74.0408L51.216 74.0433Z" fill="#F1592A"/>
<path d="M51.8171 74.0432V76.2761C51.7642 76.2714 51.7117 76.2631 51.6599 76.2511V74.0432H51.8171Z" fill="#F1592A"/>
<path d="M52.4157 74.0432V76.3135H52.261V74.0432H52.4157Z" fill="#F1592A"/>
<path d="M53.0177 74.0432V76.2511C52.9668 76.2629 52.9151 76.2712 52.863 76.2761V74.0432H53.0177Z" fill="#F1592A"/>
<path d="M53.6163 74.0432V76.069C53.5663 76.0934 53.5146 76.1142 53.4617 76.1314V74.0432H53.6163Z" fill="#F1592A"/>
<path d="M54.2101 74.0432V75.6723C54.1633 75.7232 54.1115 75.7692 54.0554 75.8095V74.0432H54.2101Z" fill="#F1592A"/>
<path d="M53.8509 72.8581C54.6842 73.3396 54.6842 74.1205 53.8509 74.6045C53.3827 74.8419 52.8652 74.9656 52.3403 74.9656C51.8154 74.9656 51.2979 74.8419 50.8297 74.6045C49.9939 74.1205 49.9939 73.3396 50.8297 72.8581C51.2979 72.6208 51.8154 72.4971 52.3403 72.4971C52.8652 72.4971 53.3827 72.6208 53.8509 72.8581Z" fill="#F1592A"/>
<path opacity="0.2" d="M52.339 74.2676C52.8529 74.2676 53.2696 74.0274 53.2696 73.7312C53.2696 73.435 52.8529 73.1948 52.339 73.1948C51.8251 73.1948 51.4084 73.435 51.4084 73.7312C51.4084 74.0274 51.8251 74.2676 52.339 74.2676Z" fill="#DDDDDD"/>
<path d="M101.296 99.2608C101.296 99.2608 102.77 98.4375 102.958 97.5144C103.145 96.5914 101.523 94.4783 101.523 94.4783C101.523 94.4783 100.313 95.1718 101.296 99.2608Z" fill="#F1592A"/>
<path opacity="0.2" d="M101.296 99.2608C101.296 99.2608 102.77 98.4375 102.958 97.5144C103.145 96.5914 101.523 94.4783 101.523 94.4783C101.523 94.4783 100.313 95.1718 101.296 99.2608Z" fill="#DDDDDD"/>
<path d="M83.2417 102.107L85.3947 100.837L85.6766 98.6844L84.9357 98.5098L83.2417 102.107Z" fill="#F1592A"/>
<path opacity="0.3" d="M83.2417 102.107L85.3947 100.837L85.6766 98.6844L84.9357 98.5098L83.2417 102.107Z" fill="#DDDDDD"/>
<path d="M95.98 89.7231L97.9908 92.9339L99.333 97.3797C99.333 97.3797 101.805 97.0728 100.249 91.3647L99.086 87.9219L95.98 89.7231Z" fill="#945959"/>
<path d="M82.8176 90.9229L83.2417 96.0397L81.7598 99.954C81.7598 99.954 82.5082 101.79 84.8309 97.9083C86.0633 95.8501 86.1057 95.4409 86.1057 95.4409L86.6047 90.9229H82.8176Z" fill="#945959"/>
<path d="M84.7363 41.0918L83.9878 42.5887C83.9769 42.6104 83.9708 42.6342 83.9699 42.6584C83.9689 42.6827 83.9732 42.7069 83.9824 42.7294C83.9917 42.7518 84.0056 42.7721 84.0233 42.7887C84.041 42.8053 84.0621 42.8179 84.0851 42.8257L84.9833 43.1251L84.7363 41.0918Z" fill="#703838"/>
<path d="M85.7841 38.582C85.7841 38.582 84.6465 39.2057 84.6465 42.7434C84.6465 44.6918 84.7812 45.9317 85.7941 45.8569C86.807 45.782 89.7184 45.3978 89.7184 45.3978V38.582H85.7841Z" fill="#945959"/>
<path d="M85.7834 45.857C86.1377 45.8295 86.7289 45.7647 87.3452 45.6923V45.3306C86.7896 45.5697 86.2088 45.7455 85.6138 45.8545C85.6701 45.8603 85.7269 45.8612 85.7834 45.857Z" fill="#703838"/>
<path d="M87.1738 45.1782V47.4036H90.215V44.2776L87.1738 45.1782Z" fill="#FFA8A7"/>
<path d="M92.3796 52.9892L94.3555 57.0482L92.8785 58.9892L93.9039 62.4569L97.0798 58.7147C97.3566 58.3899 97.5401 57.9961 97.6108 57.5752C97.6816 57.1544 97.6368 56.7222 97.4814 56.3247C96.6083 54.0794 94.8669 49.6511 94.3954 48.8678C93.7617 47.81 93.0033 47.2461 91.8656 47.2811C90.728 47.316 92.3796 52.9892 92.3796 52.9892Z" fill="#945959"/>
<path d="M93.3332 59.6631C93.7922 61.0402 94.7926 62.9762 94.7502 69.4876C94.7228 74.0381 94.7652 76.5978 94.7926 77.7205C94.8017 78.1239 94.9599 78.5096 95.2367 78.8032C95.7182 79.3022 96.544 80.3799 97.3199 82.4157C98.014 84.2147 98.6037 86.0523 99.0862 87.9192C99.0862 87.9192 98.5199 89.7554 95.9801 89.7205L89.6359 79.5092C89.3806 79.1008 89.2164 78.6422 89.1544 78.1645L87.4854 65.481V60.2943L93.3332 59.6631Z" fill="#37474F"/>
<path d="M88.8148 75.6525L90.5811 69.3282C90.5811 69.3282 93.0609 66.806 92.1777 62.4575L88.4355 67.1752L88.6252 74.3777L88.8148 75.6525Z" fill="#425B67"/>
<path d="M82.9943 60.0126C82.8896 62.0583 81.7769 74.7968 81.9365 78.5016C82.0962 82.2063 82.8172 90.9232 82.8172 90.9232C82.8172 90.9232 85.2172 91.9211 86.5943 90.9232C86.5943 90.9232 87.1756 87.4903 87.5548 84.771C87.7867 83.3675 87.7384 81.932 87.4126 80.5473C87.2792 80.0403 87.2792 79.5075 87.4126 79.0005L90.1145 68.6221C90.1145 68.6221 92.4496 66.9831 92.4496 62.4575V59.0596L82.9943 60.0126Z" fill="#37474F"/>
<path d="M89.4883 45.8418L84.6459 47.6256C84.6459 47.6256 82.3682 49.6015 82.3682 53.3786C82.3682 54.4364 83.3935 55.3894 83.3935 55.3894C83.3935 55.3894 83.0393 58.705 83.0043 60.0123C83.0043 60.0123 85.4991 61.7586 90.127 61.0701C91.791 60.8206 93.3428 59.658 93.3428 59.658C93.3428 59.658 92.6368 56.7291 92.532 56.4472C92.4272 56.1653 93.5299 52.7424 93.5299 50.0256L89.4883 45.8418Z" fill="#F1592A"/>
<path d="M85.1929 39.3703C85.1929 39.3703 85.3875 41.0843 86.4802 41.5508C86.4802 41.5508 85.6145 42.7383 86.9018 43.2597V42.3416L87.4407 43.392C87.4407 43.392 85.9238 49.5317 88.5534 49.5317C89.0087 49.539 89.4515 49.3823 89.8008 49.0901C89.8008 49.0901 90.2049 50.6967 92.6398 50.6967C95.0748 50.6967 95.5338 48.3142 95.5338 48.3142C95.5338 48.3142 93.9122 48.8132 93.9122 47.1142C93.9122 45.4152 93.7874 39.9865 93.7001 39.1583C93.5357 38.2907 93.0941 37.4999 92.4418 36.9047C91.7895 36.3095 90.9617 35.9421 90.0827 35.8577C88.1866 35.6331 85.7243 35.6481 84.3122 37.604C82.9001 39.5599 84.9234 40.0988 84.9234 40.0988C84.9234 40.0988 84.9559 40.0439 85.1929 39.3703Z" fill="#222222"/>
<path d="M86.8909 42.342C86.8909 42.342 86.8086 40.8451 87.9687 40.9599C89.3009 41.0921 88.8768 43.4996 87.2527 43.4996L86.8909 42.342Z" fill="#945959"/>
<path d="M84.6461 47.6259C81.6848 48.5664 76.054 51.5427 76.054 51.5427L70.9022 46.9922L68.9688 49.0729C70.5631 51.2074 72.3777 53.1683 74.3825 54.9232C74.7021 55.2047 75.0934 55.3922 75.5131 55.4649C75.9328 55.5376 76.3644 55.4925 76.76 55.3348C77.7929 54.9232 79.2548 54.3519 80.3475 53.9427C82.2536 53.2367 86.2752 52.2487 86.2752 50.0608C86.2752 47.8728 84.6461 47.6259 84.6461 47.6259Z" fill="#945959"/>
<path d="M86.1048 95.4407C85.735 95.5009 85.3844 95.6469 85.0812 95.867C84.7779 96.0871 84.5304 96.3751 84.3585 96.708C83.7921 97.8382 82.7343 101.014 81.7464 99.9513L82.0807 99.0656C82.0807 99.0656 78.1339 99.9313 79.0869 100.964C80.04 101.997 82.9938 102.461 83.2408 102.104C83.4878 101.748 84.83 99.2103 84.83 99.2103L85.5784 102.598C85.686 102.692 85.8238 102.743 85.9664 102.743C86.1089 102.743 86.2467 102.692 86.3543 102.598C86.3543 102.598 87.3123 96.1118 86.1048 95.4407Z" fill="#F1592A"/>
<path d="M99.333 97.3797C99.333 97.3797 100.249 96.9906 100.109 95.793C99.9692 94.5955 99.0511 92.203 100.249 91.3648C100.78 90.993 101.96 92.6122 102.958 94.5581C103.956 96.5041 104.238 97.0529 104.238 97.0529C104.238 97.0529 104.126 97.5693 103.671 97.5519L101.484 95.2941C101.342 95.9835 101.367 96.6968 101.556 97.3748C101.873 98.4325 101.915 99.0488 100.763 99.5627C99.6099 100.077 96.454 100.778 98.1405 98.6446C98.9787 97.5843 99.333 97.3797 99.333 97.3797Z" fill="#F1592A"/>
<path d="M70.9421 47.2915C71.0632 46.5731 71.2298 45.8631 71.4411 45.1659C71.6731 44.5672 71.7754 44.0582 71.2066 44.2852C70.6378 44.5123 70.1887 45.5326 70.1488 45.6624C70.1488 45.6624 67.2573 42.2395 66.8582 42.2744C66.459 42.3094 66.5114 42.7958 67.2798 43.8412L68.0457 44.889C68.0457 44.889 66.0224 45.8445 66.2394 47.0819C66.4565 48.3193 68.9563 49.0778 68.9563 49.0778L70.9421 47.2915Z" fill="#945959"/>
</svg>
