<svg width="20" height="21" viewBox="0 0 20 21" fill="none" xmlns="http://www.w3.org/2000/svg">
<path d="M13.8636 7.16477L13.5625 8.16477H6.41477L6.71023 7.16477H13.8636ZM10.9716 16L6.50568 10.7557L6.49432 10.0227H8.44886C9.03977 10.0227 9.54356 9.9375 9.96023 9.76705C10.3769 9.5928 10.6951 9.33523 10.9148 8.99432C11.1383 8.65341 11.25 8.23106 11.25 7.72727C11.25 6.98485 11.017 6.40151 10.5511 5.97727C10.089 5.54924 9.42614 5.33523 8.5625 5.33523H6.41477L6.71023 4.36364H8.5625C9.39583 4.36364 10.0928 4.50758 10.6534 4.79545C11.2178 5.08333 11.642 5.48106 11.9261 5.98864C12.214 6.49242 12.358 7.07197 12.358 7.72727C12.358 8.34091 12.2197 8.89394 11.9432 9.38636C11.6705 9.875 11.2481 10.2633 10.6761 10.5511C10.108 10.8352 9.38258 10.9773 8.5 10.9773H8.09091L12.2955 15.9148V16H10.9716ZM13.9034 4.36364L13.608 5.36364L7.58523 5.33523L7.85795 4.36364H13.9034Z" fill="#F1592A"/>
<circle cx="10" cy="10" r="9.5" stroke="#F1592A"/>
</svg>
