<svg width="255" height="266" viewBox="0 0 255 266" fill="none" xmlns="http://www.w3.org/2000/svg">
<path d="M61.9168 127.788L59.8109 127.93C59.6267 127.078 59.2572 126.277 58.7286 125.584C59.3902 125.523 60.0949 125.465 60.7103 125.397C61.0811 126.075 61.5072 126.881 61.9168 127.788Z" fill="#F1592A" stroke="white" stroke-linecap="round" stroke-linejoin="round"/>
<path d="M63.5258 125.149C64.1933 125.104 64.8505 124.96 65.4759 124.722C67.9581 127.529 69.4479 131.074 69.7156 134.811C69.7849 135.872 64.0703 136.247 63.9958 135.189C63.7324 132.621 63.0283 130.117 61.9144 127.787C61.5049 126.881 61.0942 126.066 60.7233 125.387C61.8965 125.272 62.9351 125.188 63.5258 125.149Z" fill="#F1592A" stroke="white" stroke-linecap="round" stroke-linejoin="round"/>
<path d="M62.6514 111.836C64.2453 111.731 65.8241 112.2 67.1011 113.16C68.378 114.12 69.2683 115.506 69.61 117.066C69.9518 118.627 69.7224 120.258 68.9636 121.663C68.2047 123.069 66.9667 124.156 65.4746 124.726C64.8492 124.964 64.192 125.107 63.5244 125.152C62.9338 125.192 61.8952 125.275 60.722 125.391C60.0635 125.457 59.4019 125.517 58.7404 125.578C57.1285 125.753 55.5854 125.95 54.8302 126.123L53.9059 112.021C55.5615 112.175 60.9595 111.948 62.6514 111.836Z" fill="#F1592A" stroke="white" stroke-linecap="round" stroke-linejoin="round"/>
<path d="M45.4771 110.123C48.1827 111.13 51.0118 111.766 53.8877 112.016L54.812 126.118C51.9975 126.755 49.2813 127.766 46.7362 129.126L44.5251 130.295L43.119 109.272L45.4771 110.123Z" fill="#F1592A" stroke="white" stroke-linecap="round" stroke-linejoin="round"/>
<path d="M42.2978 132.233L40.6751 107.627C40.6646 107.441 40.728 107.257 40.8515 107.117C40.9751 106.976 41.149 106.89 41.3356 106.876L42.2632 106.817C42.4504 106.805 42.6347 106.868 42.7763 106.991C42.9178 107.114 43.0051 107.288 43.0193 107.475L43.1358 109.268L44.5419 130.291L44.6636 132.082C44.6696 132.174 44.6572 132.267 44.6273 132.355C44.5973 132.443 44.5503 132.524 44.489 132.594C44.4276 132.664 44.3531 132.721 44.2697 132.762C44.1864 132.802 44.0957 132.827 44.003 132.832L43.0703 132.895C42.9756 132.905 42.88 132.895 42.7891 132.867C42.6983 132.838 42.6141 132.792 42.5418 132.73C42.4696 132.668 42.4107 132.592 42.3687 132.507C42.3267 132.421 42.3026 132.328 42.2978 132.233Z" fill="#F1592A" stroke="white" stroke-linecap="round" stroke-linejoin="round"/>
<path d="M35.5647 120.315L30.7109 120.636" stroke="#263238" stroke-linecap="round" stroke-linejoin="round"/>
<path d="M36.3516 111.749L31.5547 109.049" stroke="#263238" stroke-linecap="round" stroke-linejoin="round"/>
<path d="M37.4704 128.7L33.0755 132.005" stroke="#263238" stroke-linecap="round" stroke-linejoin="round"/>
<path d="M57.9266 92.3767C52.885 91.3116 47.6501 91.6157 42.7656 93.2573" stroke="#263238" stroke-linecap="round" stroke-linejoin="round"/>
<path d="M75.3434 137.839C78.0358 134.157 79.8211 129.892 80.5541 125.39C81.2872 120.889 80.9471 116.278 79.5618 111.932C78.1764 107.587 75.7848 103.63 72.5815 100.383C69.3782 97.1361 65.4537 94.6914 61.1273 93.2476" stroke="#263238" stroke-linecap="round" stroke-linejoin="round"/>
<path d="M47.082 149.289C53.8984 150.466 60.9109 149.155 66.8416 145.595" stroke="#263238" stroke-linecap="round" stroke-linejoin="round"/>
<path d="M30.2734 139.907C33.7793 143.883 38.3129 146.817 43.3767 148.387" stroke="#263238" stroke-linecap="round" stroke-linejoin="round"/>
<path d="M37.103 95.8633C30.5074 99.8075 25.7488 106.21 23.874 113.663C21.9992 121.116 23.1618 129.008 27.106 135.603" stroke="#263238" stroke-linecap="round" stroke-linejoin="round"/>
<path d="M111.508 47.9479C109.076 45.7738 106.555 46.75 105.267 47.4867C105.009 46.0134 104.069 43.4739 100.859 43.0427C97.3492 42.5755 94.4743 45.9954 95.4147 50.7628C96.0974 54.1947 98.2895 57.351 99.4634 58.8184C99.6012 58.9981 99.7329 59.1538 99.8407 59.2796H100.44C102.332 59.2017 106.141 58.8244 109.184 57.1115C113.394 54.7158 114.143 50.3077 111.508 47.9479Z" fill="#F1592A"/>
<path d="M97.8521 61.5137C97.8521 61.5137 97.6904 61.8071 97.4688 62.3222" stroke="#263238" stroke-linecap="round" stroke-linejoin="round"/>
<path d="M96.8594 63.9932C95.9011 67.1256 95.2423 72.4919 100.345 75.7441C112.959 83.7877 117.205 64.8137 107.532 66.5206C100.89 67.7185 107.916 85.273 118.313 81.7334" stroke="#263238" stroke-linecap="round" stroke-linejoin="round" stroke-dasharray="2.98 2.98"/>
<path d="M119.18 81.4041C119.443 81.2843 119.713 81.1525 119.982 81.0088" stroke="#263238" stroke-linecap="round" stroke-linejoin="round"/>
<path d="M85.1065 242.353C85.1065 242.353 77.9852 247.198 75.1163 246.875C74.8012 246.858 74.5021 246.731 74.2719 246.515C72.4032 244.587 70.8999 241.197 70.8999 241.197C70.8999 241.197 71.7923 239.963 74.5414 243.239L76.2843 241.64L72.6907 238.011C72.6907 238.011 74.7211 236.399 78.1709 238.454C78.0511 238.202 75.8291 233.363 77.5061 226.775L69.1211 218.683L76.5598 212.203L77.1587 211.7C77.1587 211.7 77.6259 212.161 78.3565 212.898C79.0872 213.634 80.0994 214.521 81.1955 215.485C83.8188 217.791 86.9931 220.276 88.3826 220.276C90.8861 220.192 85.1065 242.353 85.1065 242.353Z" fill="white"/>
<mask id="mask0_816_10421" style="mask-type:luminance" maskUnits="userSpaceOnUse" x="69" y="211" width="21" height="36">
<path d="M85.1065 242.353C85.1065 242.353 77.9852 247.198 75.1163 246.875C74.8012 246.858 74.5021 246.731 74.2719 246.515C72.4032 244.587 70.8999 241.197 70.8999 241.197C70.8999 241.197 71.7923 239.963 74.5414 243.239L76.2843 241.64L72.6907 238.011C72.6907 238.011 74.7211 236.399 78.1709 238.454C78.0511 238.202 75.8291 233.363 77.5061 226.775L69.1211 218.683L76.5598 212.203L77.1587 211.7C77.1587 211.7 77.6259 212.161 78.3565 212.898C79.0872 213.634 80.0994 214.521 81.1955 215.485C83.8188 217.791 86.9931 220.276 88.3826 220.276C90.8861 220.192 85.1065 242.353 85.1065 242.353Z" fill="white"/>
</mask>
<g mask="url(#mask0_816_10421)">
<path opacity="0.4" d="M79.6023 239.178C79.6023 239.178 75.5416 243.371 75.1163 246.875C74.8012 246.858 74.5021 246.731 74.2719 246.515C72.4032 244.587 70.8999 241.197 70.8999 241.197C70.8999 241.197 71.7923 239.963 74.5414 243.239L76.2843 241.64L72.6907 238.01C72.6907 238.01 74.7211 236.399 78.1709 238.454C78.0511 238.202 75.8291 233.363 77.5061 226.775L69.1211 218.683L76.5598 212.203L78.3565 212.879C79.0932 213.574 80.0994 214.503 81.1955 215.467C79.6203 217.773 76.2483 222.546 76.2483 222.546L79.1651 226.499C79.1651 226.499 77.3683 236.465 79.6023 239.178Z" fill="#FFAF96"/>
</g>
<path d="M85.1065 242.353C85.1065 242.353 77.9852 247.198 75.1163 246.875C74.8012 246.858 74.5021 246.731 74.2719 246.515C72.4032 244.587 70.8999 241.197 70.8999 241.197C70.8999 241.197 71.7923 239.963 74.5414 243.239L76.2843 241.64L72.6907 238.011C72.6907 238.011 74.7211 236.399 78.1709 238.454C78.0511 238.202 75.8291 233.363 77.5061 226.775L69.1211 218.683L76.5598 212.203L77.1587 211.7C77.1587 211.7 77.6259 212.161 78.3565 212.898C79.0872 213.634 80.0994 214.521 81.1955 215.485C83.8188 217.791 86.9931 220.276 88.3826 220.276C90.8861 220.192 85.1065 242.353 85.1065 242.353Z" stroke="#263238" stroke-linecap="round" stroke-linejoin="round"/>
<path d="M76.3086 241.64C76.7033 240.46 77.3421 239.376 78.1832 238.459" stroke="#263238" stroke-linecap="round" stroke-linejoin="round"/>
<path d="M209.527 185.658C208.404 187.297 207.046 188.762 205.497 190.006C192.404 200.847 162.218 206.177 162.218 206.177C162.218 206.177 161.206 207.692 159.649 209.848C156.858 213.724 152.288 219.677 148.563 222.66C146.987 223.923 145.568 224.654 144.484 224.456L150.15 245.377L152.683 254.457C152.683 254.457 126.654 265.836 82.1357 252.827C82.1357 252.827 81.6266 247.018 82.0039 245.778C82.0039 245.718 82.0398 245.658 82.0638 245.592C82.5171 244.767 83.1086 244.026 83.8127 243.4C83.8127 243.4 83.5611 239.663 83.4353 235.86C83.2917 233.435 83.3217 231.003 83.5252 228.583C83.8426 226.666 85.2441 222.031 85.9508 219.755L86.3641 218.431L84.1481 197.684L83.5132 191.695L83.4773 191.384C83.4773 191.342 83.4773 191.294 83.4773 191.234L83.1299 188.03L71.6784 191.527C71.6784 191.527 72.2773 192.869 73.1039 194.75C74.6072 198.193 76.8172 203.434 77.2963 205.53C77.3323 205.701 77.3804 205.869 77.4401 206.033C78.5002 209.058 82.537 211.807 82.537 211.807L71.6904 224.48L68.4861 222.24C68.0759 222.544 67.6435 222.816 67.1925 223.055C65.0842 224.199 60.6641 225.882 55.8128 223.312C53.7106 222.131 51.885 220.513 50.4584 218.569C41.9537 207.525 38.2523 198.487 39.4562 187.904C40.66 177.321 88.2867 144.661 97.7377 145.003L111.795 148.105C112.1 147.854 112.921 147.207 113.555 147.237C116.113 147.368 116.179 150.339 116.179 150.339L147.682 155.454C147.682 155.454 150.946 153.819 151.515 153.843C151.927 153.871 152.325 154.001 152.673 154.221C153.021 154.442 153.309 154.746 153.51 155.107C153.51 155.107 161.667 150.219 164.29 151.357C172.927 155.083 215.906 175.967 209.527 185.658Z" fill="#B6E5F9"/>
<path opacity="0.2" d="M99.6957 237.705C96.1158 241.64 91.3089 244.247 86.0581 245.102C84.3991 245.365 82.9437 245.629 81.668 245.892C82.1212 245.067 82.7128 244.325 83.4168 243.7C83.4168 243.7 83.1653 239.963 83.0395 236.16C86.7349 238.597 93.1793 241.412 99.6957 237.705Z" fill="black"/>
<path opacity="0.2" d="M85.5567 220.072L85.9699 218.749L83.7539 198.002C87.066 202.751 98.8768 218.928 107.016 220.677C115.527 222.498 92.7738 225.726 85.5567 220.072Z" fill="black"/>
<path opacity="0.2" d="M149.756 245.695C140.862 244.683 128.29 242.443 127.033 237.789C125.074 230.518 134.603 226.158 148.181 222.978C146.606 224.241 145.186 224.972 144.102 224.774L149.756 245.695Z" fill="black"/>
<path opacity="0.2" d="M205.108 190.3C192.015 201.14 161.829 206.471 161.829 206.471C161.829 206.471 160.817 207.986 159.26 210.142C154.819 199.539 154.141 187.735 157.338 176.692C157.338 176.692 159.661 189.269 169.316 192.264C169.316 192.264 161.925 186.76 164.525 173.512C164.525 173.512 167.046 189.084 183.451 193.408C191.41 195.546 199.202 193.222 205.108 190.3Z" fill="black"/>
<path opacity="0.2" d="M83.0838 191.713L82.7245 188.36L71.273 191.857C71.273 191.857 71.8719 193.199 72.6984 195.079C68.3203 194.63 60.0132 198.673 58.5638 194.265C56.8149 188.923 67.5477 190.761 67.5477 190.761L77.6935 184.862C75.7769 176.656 80.6582 170.488 80.6582 170.488L81.5865 176.213C82.0297 165.331 86.2881 159.377 86.2881 159.377C82.7664 167.984 82.8622 189.192 83.0838 191.713Z" fill="black"/>
<path opacity="0.2" d="M82.146 212.113L71.2994 224.786L68.0952 222.546C67.685 222.849 67.2525 223.122 66.8015 223.36C64.6933 224.504 60.2732 226.187 55.4219 223.618C58.9376 218.755 66.2026 211.597 74.8331 208.836C72.7144 211.99 70.8057 215.279 69.1193 218.683L71.3473 220.875C71.3473 220.875 76.9054 214.538 82.146 212.113Z" fill="black"/>
<path opacity="0.2" d="M108.481 156.293C108.481 157.413 107.774 170.068 116.997 173.44C126.221 176.812 134.402 171.11 134.402 171.11C134.402 171.11 120.262 184.754 111.643 177.459C103.024 170.164 108.481 156.293 108.481 156.293Z" fill="black"/>
<path d="M81.7344 253.139C81.7344 253.139 81.2373 247.33 81.6086 246.096C81.9201 245.054 83.4054 243.7 83.4054 243.7C83.4054 243.7 82.6208 231.925 83.1239 228.889C83.5551 226.284 85.9628 218.707 85.9628 218.707L82.7166 188.318L71.2651 191.821C71.2651 191.821 76.1404 202.602 76.895 205.8C77.6497 208.999 82.1417 212.071 82.1417 212.071L71.2951 224.738L68.0908 222.504C68.0908 222.504 58.6278 229.907 50.0811 218.839C41.5344 207.771 37.863 198.757 39.0608 188.144C40.2587 177.531 87.9033 144.907 97.3544 145.243L111.411 148.351C111.711 148.1 112.537 147.453 113.166 147.483C115.723 147.615 115.789 150.585 115.789 150.585L147.293 155.7C147.293 155.7 150.563 154.065 151.132 154.089C151.542 154.118 151.939 154.248 152.286 154.469C152.634 154.69 152.92 154.993 153.12 155.353C153.12 155.353 161.278 150.471 163.901 151.603C172.526 155.329 215.499 176.213 209.126 185.904C200.076 199.679 161.811 206.453 161.811 206.453C161.811 206.453 149.084 225.619 144.071 224.732L152.27 254.733" stroke="#263238" stroke-linecap="round" stroke-linejoin="round"/>
<path d="M175.849 188.048C190.307 197.595 201.962 195.834 211.084 183.544C211.084 183.544 218.678 173.752 218.139 163.181C217.6 152.61 215.079 118.171 182.168 126.976C176.747 128.425 164.104 145.357 163.044 150.01C162.553 152.136 157.48 162.959 152.551 174.165" fill="#B6E5F9"/>
<path d="M175.849 188.048C190.307 197.595 201.962 195.834 211.084 183.544C211.084 183.544 218.678 173.752 218.139 163.181C217.6 152.61 215.079 118.171 182.168 126.976C176.747 128.425 164.104 145.357 163.044 150.01C162.553 152.136 157.48 162.959 152.551 174.165" stroke="#263238" stroke-linecap="round" stroke-linejoin="round"/>
<path d="M136.733 86.8711C136.733 86.8711 145.944 85.4756 152.341 91.2013C160.432 98.4423 169.518 117.967 156.581 150.321C156.581 150.321 137.469 137.636 104.852 146.129C104.852 146.129 107.661 138.54 102.732 114.649C100.504 103.839 106.11 78.9353 136.733 86.8711Z" fill="#263238"/>
<path d="M122.771 168.062C136.403 170.272 150.885 155.179 150.885 155.179C150.885 155.179 143.476 154.269 142.811 150.789C140.685 139.811 149.238 126.233 149.238 126.233C149.238 126.233 116.141 127.149 121.926 134.618C123.003 135.984 123.884 137.494 124.544 139.104C126.55 144.033 125.143 147.752 124.095 148.687C124.018 148.749 123.936 148.803 123.849 148.848C121.849 149.759 113.625 148.399 113.625 148.399C113.625 148.399 110.331 166.044 122.771 168.062Z" fill="white" stroke="#263238" stroke-linecap="round" stroke-linejoin="round"/>
<path d="M146.197 159.359C146.197 159.359 139.909 161.875 130.703 161.126L126.559 163.157" stroke="#263238" stroke-linecap="round" stroke-linejoin="round"/>
<path d="M122.424 162.839L122.125 160.12C122.125 160.12 115.333 157.994 113.23 153.957" stroke="#263238" stroke-linecap="round" stroke-linejoin="round"/>
<path d="M124.098 148.704C134.231 151.352 138.993 138.355 138.993 138.355C138.993 138.355 130.883 135.959 124.547 139.145C126.553 144.075 125.164 147.794 124.098 148.704Z" fill="#263238"/>
<path d="M149.828 119.411C152.289 105.57 149.552 88.9616 128.482 90.3391C113.431 91.3214 113.557 107.822 114.551 112.751C116.228 121.034 113.826 124.292 116.407 131.252C118.264 136.253 122.57 141.847 127.643 143.943C130.764 145.231 143.395 136.367 144.329 132.312" fill="white"/>
<path d="M149.828 119.411C152.289 105.57 149.552 88.9616 128.482 90.3391C113.431 91.3214 113.557 107.822 114.551 112.751C116.228 121.034 113.826 124.292 116.407 131.252C118.264 136.253 122.57 141.847 127.643 143.943C130.764 145.231 143.395 136.367 144.329 132.312" stroke="#263238" stroke-linecap="round" stroke-linejoin="round"/>
<path d="M123.355 115.332C123.229 116.889 123.043 120.722 119.761 123.573C117.629 125.412 122.516 127.293 122.516 127.293" stroke="#263238" stroke-linecap="round" stroke-linejoin="round"/>
<path d="M119.856 109.84C119.856 109.84 115.209 107.576 112.07 111.313" stroke="#263238" stroke-linecap="round" stroke-linejoin="round"/>
<path d="M127.652 109.535C130.92 108.587 134.407 108.726 137.589 109.93" stroke="#263238" stroke-linecap="round" stroke-linejoin="round"/>
<path d="M132.48 116.081C132.624 117.416 133.523 118.417 134.487 118.309C135.451 118.201 136.116 117.039 135.972 115.703C135.828 114.368 134.93 113.374 133.966 113.475C133.002 113.577 132.337 114.745 132.48 116.081Z" fill="#263238"/>
<path d="M122.742 131.695C126.437 131.185 129.98 129.89 133.134 127.897C133.134 127.897 133.571 133.707 128.707 134.911C124.976 135.839 123.533 131.581 123.533 131.581" stroke="#263238" stroke-linecap="round" stroke-linejoin="round"/>
<path d="M136.411 95.6094C136.411 95.6094 135.081 112.014 149.557 117.973L156.343 102.204L146.078 90.8239L130.619 86.356C107.519 87.7994 97.5766 102.15 110.4 140.391C110.4 140.409 106.812 94.8667 136.411 95.6094Z" fill="#263238"/>
<path d="M146.381 118.668C146.178 116.824 150.843 112.128 152.419 115.141C155.108 120.28 153.149 124.724 150.37 126.52C149.125 127.305 147.543 128.778 146.435 127.389" fill="white"/>
<path d="M146.381 118.668C146.178 116.824 150.843 112.128 152.419 115.141C155.108 120.28 153.149 124.724 150.37 126.52C149.125 127.305 147.543 128.778 146.435 127.389" stroke="#263238" stroke-linecap="round" stroke-linejoin="round"/>
<path d="M118.384 116.722C118.534 118.057 119.432 119.058 120.397 118.95C121.361 118.842 122.026 117.68 121.882 116.344C121.738 115.009 120.834 114.009 119.87 114.116C118.905 114.224 118.234 115.356 118.384 116.722Z" fill="#263238"/>
<g opacity="0.2">
<path d="M108.352 114.003C108.178 115.111 108.058 116.237 107.992 117.357" stroke="white" stroke-linecap="round" stroke-linejoin="round"/>
<path d="M134.014 92.6272C122.311 92.3218 111.435 99.7784 108.859 111.487" stroke="white" stroke-linecap="round" stroke-linejoin="round"/>
<path d="M131.925 89.285C131.925 89.285 115.047 85.3142 108.723 96.5081" stroke="white" stroke-linecap="round" stroke-linejoin="round"/>
<path d="M145.617 108.786C146.635 110.235 147.86 111.526 149.253 112.619" stroke="white" stroke-linecap="round" stroke-linejoin="round"/>
<path d="M138.922 91.4712C139.784 96.8324 141.598 101.996 144.276 106.72" stroke="white" stroke-linecap="round" stroke-linejoin="round"/>
<path d="M155.876 142.236C155.577 143.578 155.223 144.908 154.828 146.225" stroke="white" stroke-linecap="round" stroke-linejoin="round"/>
<path d="M154.898 119.932C157.636 126.011 157.45 133.576 156.324 139.972" stroke="white" stroke-linecap="round" stroke-linejoin="round"/>
<path d="M152.894 130.497C153.028 132.799 152.673 135.104 151.852 137.259C151.031 139.415 149.764 141.372 148.133 143.003" stroke="white" stroke-linecap="round" stroke-linejoin="round"/>
<path d="M145.113 93.4297C147.982 97.3107 150.114 101.473 153.438 105.019C156.942 108.75 160.446 113.027 161.105 118.285" stroke="white" stroke-linecap="round" stroke-linejoin="round"/>
<path d="M141.066 89.3931C141.888 89.9318 142.644 90.565 143.318 91.2797" stroke="white" stroke-linecap="round" stroke-linejoin="round"/>
</g>
<path d="M198.796 179.459C198.461 179.531 198.125 179.591 197.778 179.639C188.722 180.932 178.564 173.422 175.138 164.408C172.431 157.287 174.797 149.207 176.091 145.752C176.498 144.667 176.791 144.039 176.791 144.039C182.254 136.253 214.009 151.495 214.38 159.904C214.751 168.313 208.073 177.423 198.796 179.459Z" fill="#263238" stroke="#263238" stroke-linecap="round" stroke-linejoin="round"/>
<path d="M208.732 161.042C208.732 161.042 206.935 174.41 197.778 179.639C188.722 180.932 178.564 173.422 175.138 164.408C172.431 157.287 174.797 149.207 176.091 145.752C186.793 139.636 208.732 161.042 208.732 161.042Z" fill="white"/>
<mask id="mask1_816_10421" style="mask-type:luminance" maskUnits="userSpaceOnUse" x="173" y="144" width="36" height="36">
<path d="M208.732 161.042C208.732 161.042 206.935 174.41 197.778 179.639C188.722 180.932 178.564 173.422 175.138 164.408C172.431 157.287 174.797 149.207 176.091 145.752C186.793 139.636 208.732 161.042 208.732 161.042Z" fill="white"/>
</mask>
<g mask="url(#mask1_816_10421)">
<path opacity="0.4" d="M208.732 161.042C208.732 161.042 206.935 174.41 197.778 179.639C188.722 180.932 178.564 173.422 175.138 164.408C172.431 157.287 174.797 149.207 176.091 145.752C186.793 139.636 208.732 161.042 208.732 161.042Z" fill="white"/>
</g>
<path d="M208.732 161.042C208.732 161.042 206.935 174.41 197.778 179.639C188.722 180.932 178.564 173.422 175.138 164.408C172.431 157.287 174.797 149.207 176.091 145.752C186.793 139.636 208.732 161.042 208.732 161.042Z" stroke="#263238" stroke-linecap="round" stroke-linejoin="round"/>
<path d="M171.281 168.08C171.281 168.08 181.595 182.885 193.639 184.119C205.684 185.353 213.404 175.207 213.877 167.559" stroke="#263238" stroke-linecap="round" stroke-linejoin="round"/>
<path d="M165.48 101.269C166.385 98.736 172.889 99.5865 174.955 107.492C177.022 115.398 185.137 134.618 185.137 134.618C185.137 134.618 217.479 87.057 223.253 85.2243C229.027 83.3915 226.757 91.6328 219.013 103.066C219.013 103.066 226.266 101.791 228.17 103.066C230.075 104.342 229.146 112.05 230.159 114.721C231.86 119.231 228.08 120.184 228.08 120.184C229.934 120.225 231.717 120.904 233.129 122.106C235.208 124.053 234.165 132.096 234.758 134.372C235.351 136.648 231.386 138.565 231.386 138.565C231.386 138.565 240.915 143.757 238.765 145.063C235.136 147.255 233.069 145.009 233.069 145.009C233.069 145.009 218.426 163.396 207.381 167.493C196.337 171.59 174.842 155.311 172.53 146.447C170.218 137.582 172.979 138.127 171.224 123.376C169.469 108.624 165.48 101.269 165.48 101.269Z" fill="white" stroke="#263238" stroke-linecap="round" stroke-linejoin="round"/>
<path d="M212.634 72.0465L170.048 83.1473C168.537 83.5411 167.632 85.0851 168.026 86.5959L188.156 163.822C188.55 165.333 190.094 166.239 191.605 165.845L234.191 154.744C235.701 154.35 236.607 152.806 236.213 151.295L216.083 74.069C215.689 72.5582 214.145 71.6527 212.634 72.0465Z" fill="white" stroke="#263238" stroke-linecap="round" stroke-linejoin="round"/>
<path d="M188.235 80.9236C188.258 81.0113 188.264 81.1027 188.251 81.1924C188.239 81.2822 188.209 81.3686 188.163 81.4467C188.117 81.5248 188.056 81.5932 187.984 81.6478C187.911 81.7024 187.829 81.7423 187.741 81.7651C187.654 81.7879 187.562 81.7932 187.473 81.7807C187.383 81.7683 187.296 81.7382 187.218 81.6923C187.14 81.6465 187.072 81.5856 187.017 81.5133C186.962 81.441 186.923 81.3587 186.9 81.271C186.875 81.1833 186.869 81.0916 186.881 81.0013C186.892 80.9111 186.922 80.824 186.968 80.7453C187.013 80.6667 187.074 80.5979 187.147 80.5432C187.22 80.4884 187.303 80.4488 187.391 80.4265C187.569 80.381 187.758 80.4077 187.916 80.5008C188.074 80.594 188.189 80.746 188.235 80.9236Z" fill="#FFAF96" stroke="#263238" stroke-linecap="round" stroke-linejoin="round"/>
<path d="M197.009 78.6362C197.023 78.6913 197.026 78.7486 197.018 78.805C197.011 78.8613 196.992 78.9156 196.963 78.9646C196.934 79.0136 196.895 79.0563 196.85 79.0904C196.804 79.1245 196.752 79.1493 196.697 79.1632C196.615 79.1841 196.528 79.1801 196.447 79.1517C196.367 79.1233 196.297 79.0717 196.246 79.0036C196.195 78.9354 196.165 78.8537 196.161 78.7686C196.156 78.6836 196.177 78.5991 196.22 78.5258C196.263 78.4525 196.327 78.3937 196.404 78.3567C196.481 78.3197 196.567 78.3063 196.651 78.3181C196.735 78.3299 196.814 78.3664 196.878 78.423C196.942 78.4796 196.987 78.5538 197.009 78.6362Z" fill="#FFAF96" stroke="#263238" stroke-linecap="round" stroke-linejoin="round"/>
<path d="M194.913 79.7163L189.772 81.0414C189.669 81.0679 189.607 81.1726 189.634 81.2753L189.661 81.3798C189.687 81.4825 189.792 81.5443 189.895 81.5178L195.036 80.1927C195.139 80.1662 195.201 80.0616 195.174 79.9589L195.147 79.8543C195.121 79.7516 195.016 79.6899 194.913 79.7163Z" fill="#FFAF96" stroke="#263238" stroke-width="1.0017" stroke-linecap="round" stroke-linejoin="round"/>
<path d="M214.805 74.8689L234.767 151.46C234.878 151.889 234.815 152.346 234.59 152.728C234.366 153.111 233.999 153.389 233.569 153.502L191.531 164.456C191.101 164.568 190.645 164.504 190.262 164.279C189.879 164.055 189.601 163.688 189.488 163.259L169.526 86.6678C169.415 86.2381 169.479 85.7819 169.703 85.3991C169.928 85.0163 170.295 84.7381 170.724 84.6254L179.355 82.3735C179.631 82.3008 179.924 82.3147 180.193 82.4132C180.461 82.5117 180.694 82.6901 180.858 82.9245L181.487 83.8169C181.651 84.0513 181.883 84.2297 182.152 84.3282C182.421 84.4267 182.713 84.4406 182.99 84.3679L201.934 79.4327C202.208 79.3611 202.454 79.2085 202.64 78.9948C202.826 78.7811 202.943 78.5162 202.976 78.2349L203.09 77.1508C203.121 76.8689 203.238 76.6033 203.424 76.3893C203.61 76.1752 203.857 76.0231 204.132 75.953L212.763 73.701C213.188 73.5887 213.641 73.6482 214.023 73.8667C214.405 74.0852 214.686 74.4452 214.805 74.8689Z" fill="#FFCDBD" stroke="#263238" stroke-linecap="round" stroke-linejoin="round"/>
<path d="M216.268 117.848C220.174 108.852 216.047 98.3922 207.051 94.4862C198.055 90.5801 187.596 94.7065 183.69 103.703C179.784 112.699 183.91 123.158 192.906 127.064C201.902 130.97 212.362 126.844 216.268 117.848Z" fill="white" stroke="#263238" stroke-linecap="round" stroke-linejoin="round"/>
<path d="M192.645 120.974C192.797 121.331 193.075 121.619 193.427 121.783C193.779 121.947 194.179 121.974 194.549 121.86L200.389 120.177C200.402 120.303 200.426 120.427 200.461 120.549C200.549 120.854 200.697 121.139 200.896 121.387C201.094 121.635 201.34 121.841 201.618 121.994C201.896 122.148 202.202 122.245 202.518 122.28C202.834 122.315 203.153 122.287 203.458 122.199C203.764 122.11 204.048 121.962 204.296 121.764C204.545 121.565 204.751 121.32 204.904 121.042C205.058 120.763 205.154 120.457 205.189 120.142C205.224 119.826 205.197 119.506 205.108 119.201C205.071 119.08 205.025 118.962 204.971 118.848L210.804 117.165C211.185 117.063 211.514 116.822 211.726 116.489C211.938 116.156 212.017 115.756 211.948 115.368C211.911 115.157 211.83 114.956 211.71 114.778C211.59 114.6 211.434 114.45 211.252 114.337C211.07 114.224 210.866 114.151 210.654 114.122C210.441 114.093 210.225 114.109 210.02 114.17L209.529 113.871C208.464 113.234 207.681 112.217 207.336 111.026L206.228 107.187C205.772 105.606 204.759 104.243 203.376 103.351C201.993 102.459 200.334 102.099 198.706 102.335C198.986 102.04 199.16 101.662 199.203 101.257C199.246 100.853 199.155 100.446 198.943 100.099C198.732 99.7521 198.412 99.4843 198.033 99.3371C197.654 99.1899 197.238 99.1715 196.847 99.2847C196.457 99.3979 196.115 99.6364 195.874 99.9634C195.632 100.29 195.505 100.688 195.512 101.094C195.519 101.5 195.66 101.893 195.912 102.212C196.165 102.53 196.515 102.757 196.909 102.856C195.39 103.52 194.165 104.714 193.464 106.216C192.763 107.717 192.634 109.423 193.1 111.014L194.22 114.895C194.419 115.573 194.469 116.286 194.365 116.985C194.262 117.684 194.008 118.352 193.621 118.944C193.418 119.005 193.23 119.108 193.069 119.245C192.908 119.383 192.778 119.553 192.686 119.744C192.594 119.935 192.543 120.143 192.536 120.354C192.529 120.566 192.566 120.777 192.645 120.974ZM198.4 100.814C198.46 101.019 198.457 101.237 198.392 101.44C198.327 101.643 198.204 101.822 198.037 101.955C197.871 102.088 197.668 102.169 197.456 102.187C197.244 102.205 197.031 102.16 196.844 102.057C196.657 101.954 196.505 101.798 196.407 101.609C196.309 101.419 196.27 101.205 196.293 100.993C196.317 100.781 196.403 100.581 196.54 100.418C196.678 100.255 196.86 100.137 197.065 100.077C197.201 100.037 197.344 100.024 197.485 100.04C197.626 100.055 197.762 100.098 197.887 100.167C198.011 100.235 198.12 100.328 198.208 100.439C198.297 100.55 198.362 100.677 198.4 100.814Z" fill="#F1592A" stroke="#263238" stroke-linecap="round" stroke-linejoin="round"/>
<path d="M203.911 118.944L201.336 119.693" stroke="#263238" stroke-linecap="round" stroke-linejoin="round"/>
<path d="M207.719 114.823L195.914 118.237" stroke="#263238" stroke-linecap="round" stroke-linejoin="round"/>
<path d="M220.051 138.678L196.094 144.919C195.409 145.1 194.695 145.144 193.993 145.048C193.291 144.952 192.615 144.719 192.003 144.362C191.391 144.005 190.855 143.531 190.427 142.967C189.999 142.402 189.686 141.759 189.506 141.074C189.325 140.389 189.282 139.674 189.378 138.972C189.474 138.27 189.707 137.593 190.065 136.981C190.423 136.369 190.897 135.834 191.462 135.406C192.027 134.977 192.671 134.665 193.357 134.486L217.314 128.245C218.693 127.889 220.158 128.094 221.386 128.815C222.615 129.535 223.509 130.713 223.872 132.09C224.238 133.47 224.041 134.939 223.324 136.175C222.608 137.41 221.431 138.31 220.051 138.678Z" fill="white"/>
<path d="M193.452 137.439C193.535 137.298 193.646 137.177 193.779 137.083C193.913 136.989 194.064 136.924 194.225 136.894C194.379 136.841 194.544 136.823 194.706 136.841C194.868 136.859 195.025 136.911 195.165 136.995C195.441 137.201 195.629 137.502 195.692 137.84L195.734 137.996L194.997 138.187L194.943 137.984C194.921 137.849 194.853 137.727 194.752 137.636C194.704 137.606 194.65 137.587 194.594 137.581C194.538 137.575 194.481 137.581 194.428 137.6C194.373 137.61 194.321 137.632 194.277 137.665C194.232 137.699 194.196 137.742 194.171 137.792C194.126 137.92 194.126 138.059 194.171 138.187C194.219 138.384 194.328 138.56 194.482 138.69C194.679 138.846 194.892 138.98 195.117 139.092C195.311 139.19 195.499 139.3 195.68 139.421C195.838 139.53 195.977 139.664 196.093 139.816C196.227 139.996 196.324 140.199 196.381 140.415C196.489 140.744 196.467 141.102 196.321 141.416C196.135 141.685 195.858 141.878 195.542 141.96C195.225 142.043 194.89 142.009 194.596 141.865C194.313 141.665 194.119 141.361 194.057 141.02L193.979 140.715L194.716 140.523L194.806 140.876C194.889 141.2 195.063 141.326 195.333 141.254C195.602 141.182 195.698 140.99 195.614 140.655C195.565 140.459 195.456 140.283 195.303 140.152C195.107 139.996 194.894 139.864 194.668 139.756C194.475 139.654 194.287 139.543 194.105 139.421C193.947 139.312 193.808 139.178 193.692 139.026C193.557 138.847 193.459 138.644 193.404 138.427C193.299 138.103 193.316 137.751 193.452 137.439Z" fill="#F1592A"/>
<path d="M197.574 140.164C197.657 140.481 197.837 140.607 198.107 140.541C198.376 140.475 198.466 140.271 198.382 139.942L197.388 136.121L198.125 135.929L199.107 139.696C199.215 140.025 199.194 140.383 199.047 140.697C198.964 140.839 198.852 140.962 198.717 141.057C198.583 141.152 198.43 141.217 198.268 141.248C198.112 141.297 197.948 141.314 197.785 141.298C197.623 141.281 197.465 141.232 197.322 141.152C197.044 140.945 196.852 140.642 196.783 140.301L195.801 136.534L196.579 136.33L197.574 140.164Z" fill="#F1592A"/>
<path d="M200.778 135.546C200.911 135.637 201.024 135.754 201.11 135.89C201.197 136.026 201.255 136.178 201.281 136.337L201.323 136.51C201.389 136.726 201.403 136.953 201.365 137.175C201.327 137.358 201.227 137.523 201.083 137.642C201.509 137.69 201.796 137.996 201.94 138.547L202.042 138.954C202.096 139.109 202.117 139.274 202.105 139.438C202.092 139.601 202.047 139.761 201.97 139.906C201.88 140.045 201.762 140.163 201.624 140.254C201.486 140.344 201.33 140.405 201.167 140.433L199.969 140.757L198.676 135.804L199.874 135.492C200.171 135.397 200.494 135.416 200.778 135.546ZM199.957 137.612L200.263 137.534C200.327 137.523 200.389 137.499 200.444 137.463C200.498 137.427 200.545 137.38 200.58 137.325C200.635 137.184 200.635 137.028 200.58 136.888L200.508 136.612C200.485 136.474 200.415 136.347 200.311 136.253C200.263 136.22 200.209 136.199 200.151 136.191C200.094 136.184 200.036 136.191 199.981 136.211L199.604 136.307L199.957 137.612ZM200.556 139.846L201 139.727C201.056 139.718 201.111 139.697 201.158 139.665C201.206 139.632 201.246 139.59 201.275 139.541C201.323 139.409 201.323 139.265 201.275 139.134L201.161 138.702C201.133 138.534 201.049 138.38 200.922 138.265C200.858 138.23 200.788 138.208 200.716 138.202C200.644 138.196 200.571 138.205 200.503 138.229L200.155 138.325L200.556 139.846Z" fill="#F1592A"/>
<path d="M201.784 135.288C201.865 135.147 201.976 135.024 202.11 134.93C202.243 134.836 202.396 134.772 202.557 134.743C202.711 134.69 202.875 134.671 203.038 134.688C203.2 134.704 203.357 134.756 203.497 134.839C203.775 135.046 203.965 135.35 204.03 135.69L204.072 135.845L203.335 136.037L203.282 135.828C203.26 135.693 203.19 135.572 203.084 135.486C203.038 135.455 202.985 135.435 202.93 135.428C202.875 135.421 202.819 135.426 202.766 135.444C202.711 135.454 202.658 135.476 202.612 135.509C202.566 135.542 202.529 135.586 202.503 135.636C202.458 135.764 202.458 135.903 202.503 136.031C202.549 136.227 202.656 136.403 202.808 136.534C203.008 136.688 203.223 136.823 203.449 136.936C203.677 137.055 203.862 137.169 204.012 137.265C204.167 137.377 204.306 137.51 204.425 137.66C204.558 137.839 204.654 138.043 204.707 138.259C204.82 138.587 204.801 138.946 204.653 139.259C204.57 139.401 204.457 139.523 204.323 139.618C204.189 139.713 204.036 139.779 203.874 139.81C203.718 139.861 203.552 139.878 203.388 139.862C203.224 139.845 203.066 139.795 202.922 139.715C202.644 139.508 202.454 139.205 202.389 138.864L202.305 138.565L203.042 138.367L203.138 138.726C203.222 139.044 203.395 139.17 203.665 139.098C203.934 139.026 204.024 138.834 203.94 138.499C203.893 138.305 203.786 138.131 203.635 138.002C203.437 137.844 203.222 137.709 202.994 137.6C202.803 137.498 202.617 137.386 202.437 137.265C202.277 137.159 202.137 137.025 202.024 136.87C201.885 136.694 201.786 136.489 201.736 136.271C201.631 135.949 201.648 135.599 201.784 135.288Z" fill="#F1592A"/>
<path d="M207.413 137.54C207.521 137.869 207.499 138.227 207.353 138.541C207.269 138.682 207.156 138.803 207.022 138.897C206.888 138.991 206.735 139.055 206.574 139.086C206.419 139.139 206.254 139.157 206.091 139.141C205.927 139.124 205.77 139.073 205.628 138.99C205.345 138.79 205.151 138.487 205.089 138.145L204.418 135.57C204.308 135.242 204.327 134.884 204.472 134.57C204.555 134.428 204.668 134.306 204.802 134.211C204.936 134.116 205.089 134.05 205.251 134.019C205.407 133.968 205.573 133.951 205.737 133.967C205.901 133.984 206.059 134.034 206.203 134.115C206.481 134.321 206.672 134.625 206.736 134.965L206.862 135.444L206.125 135.636L205.987 135.103C205.903 134.779 205.73 134.654 205.46 134.726C205.191 134.797 205.101 134.989 205.185 135.324L205.88 137.996C205.963 138.319 206.137 138.445 206.407 138.373C206.676 138.301 206.772 138.109 206.688 137.774L206.502 137.067L207.239 136.876L207.413 137.54Z" fill="#F1592A"/>
<path d="M209.705 137.966C209.659 137.843 209.621 137.717 209.592 137.588L209.388 136.81C209.359 136.637 209.272 136.479 209.142 136.36C209.078 136.322 209.006 136.297 208.932 136.289C208.858 136.281 208.782 136.289 208.711 136.313L208.448 136.384L208.969 138.403L208.19 138.606L206.902 133.653L208.1 133.342C208.249 133.274 208.412 133.244 208.576 133.252C208.739 133.26 208.899 133.307 209.04 133.389C209.182 133.471 209.302 133.585 209.391 133.723C209.479 133.861 209.534 134.017 209.55 134.18L209.651 134.576C209.729 134.767 209.747 134.978 209.703 135.179C209.659 135.381 209.556 135.565 209.406 135.708C209.599 135.731 209.776 135.83 209.897 135.983C210.041 136.175 210.143 136.396 210.196 136.63L210.394 137.397C210.43 137.534 210.466 137.648 210.496 137.732C210.53 137.818 210.576 137.899 210.634 137.972L209.843 138.181C209.788 138.116 209.741 138.043 209.705 137.966ZM208.262 135.678L208.561 135.6C208.627 135.587 208.689 135.562 208.745 135.524C208.8 135.487 208.848 135.44 208.885 135.384C208.938 135.245 208.938 135.092 208.885 134.953L208.753 134.462C208.733 134.323 208.665 134.196 208.561 134.102C208.513 134.069 208.457 134.048 208.399 134.041C208.34 134.034 208.281 134.041 208.226 134.061L207.855 134.156L208.262 135.678Z" fill="#F1592A"/>
<path d="M210.529 132.707L211.816 137.66L211.038 137.864L209.75 132.893L210.529 132.707Z" fill="#F1592A"/>
<path d="M213.217 132.294C213.347 132.385 213.459 132.501 213.544 132.636C213.63 132.77 213.687 132.921 213.714 133.078L213.762 133.258C213.824 133.472 213.839 133.697 213.804 133.917C213.763 134.099 213.664 134.263 213.522 134.384C213.947 134.438 214.229 134.737 214.378 135.294L214.48 135.702C214.533 135.856 214.554 136.019 214.542 136.182C214.53 136.345 214.484 136.503 214.408 136.648C214.319 136.787 214.201 136.907 214.063 136.999C213.925 137.09 213.769 137.152 213.606 137.181L212.408 137.498L211.066 132.557L212.264 132.252C212.575 132.14 212.917 132.155 213.217 132.294ZM212.396 134.36L212.701 134.282C212.83 134.256 212.944 134.181 213.019 134.072C213.074 133.932 213.074 133.776 213.019 133.635L212.947 133.36C212.921 133.22 212.852 133.092 212.749 132.994C212.7 132.963 212.645 132.942 212.586 132.935C212.528 132.928 212.469 132.934 212.414 132.952L212.043 133.054L212.396 134.36ZM212.995 136.588L213.438 136.474C213.495 136.464 213.549 136.441 213.597 136.408C213.644 136.375 213.684 136.332 213.714 136.282C213.763 136.153 213.763 136.01 213.714 135.881L213.606 135.45C213.578 135.28 213.493 135.124 213.366 135.007C213.302 134.973 213.232 134.952 213.16 134.947C213.088 134.942 213.015 134.952 212.947 134.977L212.6 135.067L212.995 136.588Z" fill="#F1592A"/>
<path d="M216.355 133.414L216.54 134.127L215.468 134.402L215.845 135.852L217.193 135.504L217.379 136.211L215.253 136.762L213.965 131.809L216.085 131.258L216.271 131.965L214.929 132.318L215.288 133.695L216.355 133.414Z" fill="#F1592A"/>
<path d="M217.8 130.809C217.957 130.757 218.122 130.739 218.286 130.754C218.45 130.77 218.608 130.819 218.752 130.898C219.029 131.097 219.218 131.396 219.28 131.731L219.932 134.24C220.045 134.564 220.026 134.919 219.878 135.229C219.793 135.368 219.679 135.488 219.544 135.58C219.409 135.672 219.255 135.734 219.094 135.762L217.86 136.085L216.566 131.132L217.8 130.809ZM218.453 135.175L218.89 135.061C218.946 135.05 218.999 135.027 219.046 134.994C219.092 134.961 219.131 134.919 219.16 134.869C219.205 134.741 219.205 134.602 219.16 134.474L218.489 131.899C218.462 131.765 218.39 131.645 218.285 131.557C218.238 131.53 218.185 131.512 218.13 131.506C218.076 131.5 218.02 131.505 217.968 131.521L217.525 131.635L218.453 135.175Z" fill="#F1592A"/>
<path d="M161.827 206.495C161.827 206.495 154.556 189.575 158.234 169.056" stroke="#263238" stroke-linecap="round" stroke-linejoin="round"/>
<path d="M144.089 224.774C144.089 224.774 129.392 229.266 127.918 232.65C126.445 236.034 134.506 233.183 134.506 233.183" stroke="#263238" stroke-linecap="round" stroke-linejoin="round"/>
<path d="M153.127 155.395C153.127 155.395 139.591 168.81 130.535 172.386" stroke="#263238" stroke-linecap="round" stroke-linejoin="round"/>
<path d="M108.777 151.789C108.777 151.789 106.31 169.901 115.515 173.32" stroke="#263238" stroke-linecap="round" stroke-linejoin="round"/>
<path d="M82.7227 188.359C82.7227 188.359 82.6508 164.618 87.3644 157.275" stroke="#263238" stroke-linecap="round" stroke-linejoin="round"/>
<path d="M80.9612 164.168C80.9612 164.168 79.6376 178.914 82.6143 183.723" stroke="#263238" stroke-linecap="round" stroke-linejoin="round"/>
<path d="M71.2712 191.863C71.2712 191.863 60.9756 188.317 58.8435 192.713C56.7113 197.109 64.9825 193.21 64.9825 193.21" stroke="#263238" stroke-linecap="round" stroke-linejoin="round"/>
<path d="M77.463 207.255C77.463 207.255 67.3531 212.951 66.832 216.209" stroke="#263238" stroke-linecap="round" stroke-linejoin="round"/>
<path d="M93.9766 191.504C93.9766 191.504 113.328 220.75 124.007 218.066" stroke="#263238" stroke-linecap="round" stroke-linejoin="round"/>
<path d="M107.193 232.524C107.193 232.524 92.0223 243.646 89.8242 242.706" stroke="#263238" stroke-linecap="round" stroke-linejoin="round"/>
<path opacity="0.2" d="M213.461 185.065C214.485 184.227 215.162 183.67 215.383 183.496C215.156 183.694 214.497 184.269 213.461 185.065Z" fill="black"/>
</svg>
