<svg width="20" height="20" viewBox="0 0 20 20" fill="none" xmlns="http://www.w3.org/2000/svg">
<mask id="path-1-inside-1_2030_47593" fill="white">
<path d="M14.9974 12.5H13.3307V14.1667H14.9974M14.9974 9.16667H13.3307V10.8333H14.9974M16.6641 15.8333H9.9974V14.1667H11.6641V12.5H9.9974V10.8333H11.6641V9.16667H9.9974V7.5H16.6641M8.33073 5.83333H6.66406V4.16667H8.33073M8.33073 9.16667H6.66406V7.5H8.33073M8.33073 12.5H6.66406V10.8333H8.33073M8.33073 15.8333H6.66406V14.1667H8.33073M4.9974 5.83333H3.33073V4.16667H4.9974M4.9974 9.16667H3.33073V7.5H4.9974M4.9974 12.5H3.33073V10.8333H4.9974M4.9974 15.8333H3.33073V14.1667H4.9974M9.9974 5.83333V2.5H1.66406V17.5H18.3307V5.83333H9.9974Z"/>
</mask>
<path d="M13.3307 12.5V11.9H12.7307V12.5H13.3307ZM13.3307 14.1667H12.7307V14.7667H13.3307V14.1667ZM13.3307 9.16667V8.56667H12.7307V9.16667H13.3307ZM13.3307 10.8333H12.7307V11.4333H13.3307V10.8333ZM9.9974 15.8333H9.3974V16.4333H9.9974V15.8333ZM9.9974 14.1667V13.5667H9.3974V14.1667H9.9974ZM11.6641 14.1667V14.7667H12.2641V14.1667H11.6641ZM11.6641 12.5H12.2641V11.9H11.6641V12.5ZM9.9974 12.5H9.3974V13.1H9.9974V12.5ZM9.9974 10.8333V10.2333H9.3974V10.8333H9.9974ZM11.6641 10.8333V11.4333H12.2641V10.8333H11.6641ZM11.6641 9.16667H12.2641V8.56667H11.6641V9.16667ZM9.9974 9.16667H9.3974V9.76667H9.9974V9.16667ZM9.9974 7.5V6.9H9.3974V7.5H9.9974ZM6.66406 5.83333H6.06406V6.43333H6.66406V5.83333ZM6.66406 4.16667V3.56667H6.06406V4.16667H6.66406ZM6.66406 9.16667H6.06406V9.76667H6.66406V9.16667ZM6.66406 7.5V6.9H6.06406V7.5H6.66406ZM6.66406 12.5H6.06406V13.1H6.66406V12.5ZM6.66406 10.8333V10.2333H6.06406V10.8333H6.66406ZM6.66406 15.8333H6.06406V16.4333H6.66406V15.8333ZM6.66406 14.1667V13.5667H6.06406V14.1667H6.66406ZM3.33073 5.83333H2.73073V6.43333H3.33073V5.83333ZM3.33073 4.16667V3.56667H2.73073V4.16667H3.33073ZM3.33073 9.16667H2.73073V9.76667H3.33073V9.16667ZM3.33073 7.5V6.9H2.73073V7.5H3.33073ZM3.33073 12.5H2.73073V13.1H3.33073V12.5ZM3.33073 10.8333V10.2333H2.73073V10.8333H3.33073ZM3.33073 15.8333H2.73073V16.4333H3.33073V15.8333ZM3.33073 14.1667V13.5667H2.73073V14.1667H3.33073ZM9.9974 5.83333H9.3974V6.43333H9.9974V5.83333ZM9.9974 2.5H10.5974V1.9H9.9974V2.5ZM1.66406 2.5V1.9H1.06406V2.5H1.66406ZM1.66406 17.5H1.06406V18.1H1.66406V17.5ZM18.3307 17.5V18.1H18.9307V17.5H18.3307ZM18.3307 5.83333H18.9307V5.23333H18.3307V5.83333ZM14.9974 11.9H13.3307V13.1H14.9974V11.9ZM12.7307 12.5V14.1667H13.9307V12.5H12.7307ZM13.3307 14.7667H14.9974V13.5667H13.3307V14.7667ZM14.9974 8.56667H13.3307V9.76667H14.9974V8.56667ZM12.7307 9.16667V10.8333H13.9307V9.16667H12.7307ZM13.3307 11.4333H14.9974V10.2333H13.3307V11.4333ZM16.6641 15.2333H9.9974V16.4333H16.6641V15.2333ZM10.5974 15.8333V14.1667H9.3974V15.8333H10.5974ZM9.9974 14.7667H11.6641V13.5667H9.9974V14.7667ZM12.2641 14.1667V12.5H11.0641V14.1667H12.2641ZM11.6641 11.9H9.9974V13.1H11.6641V11.9ZM10.5974 12.5V10.8333H9.3974V12.5H10.5974ZM9.9974 11.4333H11.6641V10.2333H9.9974V11.4333ZM12.2641 10.8333V9.16667H11.0641V10.8333H12.2641ZM11.6641 8.56667H9.9974V9.76667H11.6641V8.56667ZM10.5974 9.16667V7.5H9.3974V9.16667H10.5974ZM9.9974 8.1H16.6641V6.9H9.9974V8.1ZM8.33073 5.23333H6.66406V6.43333H8.33073V5.23333ZM7.26406 5.83333V4.16667H6.06406V5.83333H7.26406ZM6.66406 4.76667H8.33073V3.56667H6.66406V4.76667ZM8.33073 8.56667H6.66406V9.76667H8.33073V8.56667ZM7.26406 9.16667V7.5H6.06406V9.16667H7.26406ZM6.66406 8.1H8.33073V6.9H6.66406V8.1ZM8.33073 11.9H6.66406V13.1H8.33073V11.9ZM7.26406 12.5V10.8333H6.06406V12.5H7.26406ZM6.66406 11.4333H8.33073V10.2333H6.66406V11.4333ZM8.33073 15.2333H6.66406V16.4333H8.33073V15.2333ZM7.26406 15.8333V14.1667H6.06406V15.8333H7.26406ZM6.66406 14.7667H8.33073V13.5667H6.66406V14.7667ZM4.9974 5.23333H3.33073V6.43333H4.9974V5.23333ZM3.93073 5.83333V4.16667H2.73073V5.83333H3.93073ZM3.33073 4.76667H4.9974V3.56667H3.33073V4.76667ZM4.9974 8.56667H3.33073V9.76667H4.9974V8.56667ZM3.93073 9.16667V7.5H2.73073V9.16667H3.93073ZM3.33073 8.1H4.9974V6.9H3.33073V8.1ZM4.9974 11.9H3.33073V13.1H4.9974V11.9ZM3.93073 12.5V10.8333H2.73073V12.5H3.93073ZM3.33073 11.4333H4.9974V10.2333H3.33073V11.4333ZM4.9974 15.2333H3.33073V16.4333H4.9974V15.2333ZM3.93073 15.8333V14.1667H2.73073V15.8333H3.93073ZM3.33073 14.7667H4.9974V13.5667H3.33073V14.7667ZM10.5974 5.83333V2.5H9.3974V5.83333H10.5974ZM9.9974 1.9H1.66406V3.1H9.9974V1.9ZM1.06406 2.5V17.5H2.26406V2.5H1.06406ZM1.66406 18.1H18.3307V16.9H1.66406V18.1ZM18.9307 17.5V5.83333H17.7307V17.5H18.9307ZM18.3307 5.23333H9.9974V6.43333H18.3307V5.23333Z" fill="#F1592A" mask="url(#path-1-inside-1_2030_47593)"/>
</svg>
