<svg width="20" height="20" viewBox="0 0 20 20" fill="none" xmlns="http://www.w3.org/2000/svg">
<g clip-path="url(#clip0_2030_47587)">
<path d="M10 12.5C11.3807 12.5 12.5 11.3807 12.5 10C12.5 8.61929 11.3807 7.5 10 7.5C8.61929 7.5 7.5 8.61929 7.5 10C7.5 11.3807 8.61929 12.5 10 12.5Z" stroke="#F1592A" stroke-linecap="round" stroke-linejoin="round"/>
<path d="M16.1654 12.5C16.0544 12.7514 16.0213 13.0302 16.0704 13.3005C16.1194 13.5708 16.2482 13.8203 16.4404 14.0167L16.4904 14.0667C16.6453 14.2215 16.7683 14.4053 16.8521 14.6076C16.936 14.8099 16.9792 15.0268 16.9792 15.2458C16.9792 15.4649 16.936 15.6817 16.8521 15.8841C16.7683 16.0864 16.6453 16.2702 16.4904 16.425C16.3356 16.58 16.1518 16.7029 15.9494 16.7868C15.7471 16.8706 15.5302 16.9138 15.3112 16.9138C15.0922 16.9138 14.8753 16.8706 14.673 16.7868C14.4706 16.7029 14.2868 16.58 14.132 16.425L14.082 16.375C13.8856 16.1829 13.6362 16.054 13.3659 16.005C13.0955 15.956 12.8167 15.9891 12.5654 16.1C12.3189 16.2056 12.1087 16.381 11.9606 16.6046C11.8126 16.8282 11.7331 17.0902 11.732 17.3583V17.5C11.732 17.942 11.5564 18.366 11.2439 18.6785C10.9313 18.9911 10.5074 19.1667 10.0654 19.1667C9.62334 19.1667 9.19941 18.9911 8.88685 18.6785C8.57429 18.366 8.3987 17.942 8.3987 17.5V17.425C8.39225 17.1492 8.30296 16.8817 8.14246 16.6573C7.98195 16.4328 7.75764 16.2619 7.4987 16.1667C7.24735 16.0557 6.96854 16.0227 6.69821 16.0717C6.42788 16.1207 6.17843 16.2496 5.98203 16.4417L5.93203 16.4917C5.77724 16.6466 5.59343 16.7696 5.3911 16.8534C5.18877 16.9373 4.97189 16.9805 4.75286 16.9805C4.53384 16.9805 4.31696 16.9373 4.11463 16.8534C3.9123 16.7696 3.72849 16.6466 3.5737 16.4917C3.41874 16.3369 3.29581 16.1531 3.21193 15.9507C3.12806 15.7484 3.08489 15.5315 3.08489 15.3125C3.08489 15.0935 3.12806 14.8766 3.21193 14.6743C3.29581 14.4719 3.41874 14.2881 3.5737 14.1333L3.6237 14.0833C3.81581 13.8869 3.94469 13.6375 3.9937 13.3672C4.04272 13.0968 4.00963 12.818 3.8987 12.5667C3.79306 12.3202 3.61766 12.11 3.39409 11.9619C3.17051 11.8139 2.90852 11.7344 2.64036 11.7333H2.4987C2.05667 11.7333 1.63275 11.5577 1.32019 11.2452C1.00763 10.9326 0.832031 10.5087 0.832031 10.0667C0.832031 9.62465 1.00763 9.20073 1.32019 8.88817C1.63275 8.5756 2.05667 8.40001 2.4987 8.40001H2.5737C2.84953 8.39356 3.11703 8.30427 3.34145 8.14377C3.56586 7.98326 3.73679 7.75896 3.83203 7.50001C3.94296 7.24866 3.97605 6.96985 3.92703 6.69952C3.87802 6.42919 3.74914 6.17974 3.55703 5.98334L3.50703 5.93334C3.35207 5.77855 3.22914 5.59474 3.14526 5.39241C3.06139 5.19008 3.01822 4.9732 3.01822 4.75418C3.01822 4.53515 3.06139 4.31827 3.14526 4.11594C3.22914 3.91361 3.35207 3.7298 3.50703 3.57501C3.66182 3.42005 3.84563 3.29712 4.04796 3.21324C4.25029 3.12937 4.46717 3.0862 4.6862 3.0862C4.90522 3.0862 5.1221 3.12937 5.32443 3.21324C5.52676 3.29712 5.71058 3.42005 5.86536 3.57501L5.91536 3.62501C6.11176 3.81712 6.36121 3.946 6.63154 3.99501C6.90187 4.04403 7.18068 4.01094 7.43203 3.90001H7.4987C7.74517 3.79437 7.95538 3.61897 8.10344 3.3954C8.2515 3.17182 8.33096 2.90983 8.33203 2.64168V2.50001C8.33203 2.05798 8.50763 1.63406 8.82019 1.3215C9.13275 1.00894 9.55667 0.833344 9.9987 0.833344C10.4407 0.833344 10.8646 1.00894 11.1772 1.3215C11.4898 1.63406 11.6654 2.05798 11.6654 2.50001V2.57501C11.6664 2.84317 11.7459 3.10516 11.894 3.32873C12.042 3.55231 12.2522 3.72771 12.4987 3.83334C12.75 3.94427 13.0289 3.97736 13.2992 3.92835C13.5695 3.87933 13.819 3.75046 14.0154 3.55834L14.0654 3.50834C14.2202 3.35338 14.404 3.23045 14.6063 3.14658C14.8086 3.0627 15.0255 3.01953 15.2445 3.01953C15.4636 3.01953 15.6804 3.0627 15.8828 3.14658C16.0851 3.23045 16.2689 3.35338 16.4237 3.50834C16.5787 3.66313 16.7016 3.84695 16.7855 4.04928C16.8693 4.25161 16.9125 4.46848 16.9125 4.68751C16.9125 4.90654 16.8693 5.12341 16.7855 5.32574C16.7016 5.52807 16.5787 5.71189 16.4237 5.86668L16.3737 5.91668C16.1816 6.11308 16.0527 6.36252 16.0037 6.63285C15.9547 6.90318 15.9878 7.182 16.0987 7.43334V7.50001C16.2043 7.74648 16.3797 7.95669 16.6033 8.10475C16.8269 8.25282 17.0889 8.33227 17.357 8.33334H17.4987C17.9407 8.33334 18.3646 8.50894 18.6772 8.8215C18.9898 9.13406 19.1654 9.55798 19.1654 10C19.1654 10.442 18.9898 10.866 18.6772 11.1785C18.3646 11.4911 17.9407 11.6667 17.4987 11.6667H17.4237C17.1555 11.6677 16.8936 11.7472 16.67 11.8953C16.4464 12.0433 16.271 12.2535 16.1654 12.5V12.5Z" stroke="#F1592A" stroke-linecap="round" stroke-linejoin="round"/>
</g>
<defs>
<clipPath id="clip0_2030_47587">
<rect width="20" height="20" fill="white"/>
</clipPath>
</defs>
</svg>
