<svg width="162" height="58" viewBox="0 0 162 58" fill="none" xmlns="http://www.w3.org/2000/svg">
<path d="M7.50836 43.7594V25.9399C7.50836 25.4322 7.77199 25.1592 8.29925 25.121H9.68366C9.94465 25.1164 10.2052 25.1447 10.4592 25.205C10.6757 25.2628 10.831 25.47 10.9253 25.8265L11.0947 26.7364C11.5235 26.1709 12.0554 25.6916 12.6625 25.324C13.2364 24.9852 13.947 24.8158 14.7944 24.8158C15.6959 24.8056 16.5883 24.9969 17.4064 25.3757C18.1922 25.7426 18.8977 26.2611 19.4823 26.9015C20.0795 27.5626 20.5489 28.3287 20.8667 29.1608C21.2107 30.0538 21.3831 31.0036 21.3749 31.9605C21.383 32.916 21.2155 33.865 20.8807 34.7601C20.5673 35.5991 20.0975 36.3709 19.4963 37.0348C18.8949 37.6975 18.1596 38.2251 17.3392 38.5827C16.5188 38.9403 15.6319 39.1198 14.737 39.1093C14.0772 39.1224 13.4237 38.9785 12.8304 38.6893C12.3092 38.4325 11.8357 38.0883 11.4306 37.6717V43.772C11.4376 43.8875 11.4195 44.0031 11.3776 44.1109C11.3357 44.2187 11.271 44.3162 11.1879 44.3966C11.1047 44.477 11.0052 44.5386 10.8961 44.5769C10.787 44.6153 10.6709 44.6296 10.5557 44.6189H8.41263C8.18035 44.6241 7.95423 44.5439 7.77712 44.3936C7.68617 44.316 7.61453 44.2183 7.56788 44.1082C7.52123 43.9982 7.50085 43.8788 7.50836 43.7594ZM11.0387 31.8709C11.0335 32.3531 11.1199 32.8319 11.2934 33.2819C11.4515 33.6982 11.6861 34.0813 11.9849 34.4115C12.2757 34.7314 12.6268 34.9906 13.018 35.1744C13.4059 35.3604 13.8309 35.4562 14.261 35.4544C14.682 35.4581 15.0979 35.3622 15.4747 35.1744C15.851 34.9869 16.1872 34.7278 16.4643 34.4115C16.7531 34.0801 16.9823 33.7013 17.1418 33.2917C17.4797 32.4098 17.4797 31.4341 17.1418 30.5522C16.9821 30.1428 16.7529 29.7639 16.4643 29.4324C16.189 29.1179 15.8522 28.863 15.4747 28.6835C15.0955 28.5037 14.6807 28.4119 14.261 28.4147C13.8347 28.4163 13.414 28.5124 13.0292 28.6961C12.6461 28.8724 12.301 29.1216 12.0129 29.4296C11.7155 29.7519 11.4785 30.1251 11.313 30.5312C11.1322 30.9547 11.0389 31.4104 11.0387 31.8709Z" fill="white"/>
<path d="M27.3902 25.9119C27.4084 26.0057 27.456 26.1918 27.5302 26.462C27.6044 26.7322 27.652 26.9183 27.6702 27.0121C27.8582 26.7666 28.0611 26.5329 28.2777 26.3122C28.5198 26.0611 28.7899 25.8385 29.0826 25.6487C29.39 25.4484 29.7186 25.2826 30.0624 25.1546C30.4285 25.0197 30.816 24.9529 31.2061 24.9572H31.4734C31.5637 24.9579 31.6537 24.9673 31.7422 24.9852C32.0508 25.0147 32.3541 25.0858 32.6437 25.1966C32.973 25.3145 33.2938 25.4548 33.604 25.6165C33.876 25.7568 34.1314 25.9273 34.3655 26.1246C34.5726 26.3038 34.6762 26.469 34.6762 26.6188C34.6666 26.7607 34.6182 26.8973 34.5362 27.0135L33.4066 28.8501C33.2377 29.1132 33.0403 29.2448 32.8145 29.2448C32.6964 29.2337 32.5815 29.2004 32.4757 29.1468C32.3117 29.0747 32.1515 28.9944 31.9956 28.9061C31.7815 28.7468 31.5488 28.6143 31.3027 28.5113C31.081 28.4316 30.8467 28.3932 30.6112 28.3979C30.2243 28.3906 29.841 28.4731 29.4913 28.6387C29.1727 28.79 28.8891 29.006 28.6584 29.2728C28.4332 29.5365 28.2565 29.8379 28.1363 30.1631C28.0162 30.4759 27.9541 30.8079 27.9529 31.143V38.282C27.9529 38.7533 27.6986 38.9866 27.19 38.9819H24.8481C24.3582 38.9819 24.1146 38.7467 24.1146 38.282V25.9119C24.1069 25.8088 24.1233 25.7053 24.1624 25.6096C24.2015 25.5139 24.2623 25.4286 24.34 25.3603C24.4826 25.2415 24.6625 25.1766 24.8481 25.177H26.6553C26.7502 25.1693 26.8456 25.1859 26.9323 25.2254C27.019 25.2648 27.0942 25.3257 27.1508 25.4023C27.2564 25.5589 27.3371 25.7307 27.3902 25.9119Z" fill="white"/>
<path d="M64.1027 43.7595V25.9399C64.1027 25.4322 64.3664 25.1593 64.8936 25.121H66.2766C66.5381 25.1165 66.7991 25.1448 67.0535 25.205C67.271 25.2628 67.4263 25.47 67.5197 25.8265L67.689 26.7308C68.1174 26.1649 68.6494 25.6855 69.2568 25.3184C69.8307 24.9796 70.5414 24.8102 71.3887 24.8102C72.2902 24.8002 73.1826 24.9915 74.0008 25.3702C74.7865 25.737 75.492 26.2555 76.0767 26.8959C76.6738 27.557 77.1432 28.3231 77.4611 29.1552C77.8051 30.0482 77.9775 30.998 77.9692 31.9549C77.9774 32.9105 77.8099 33.8594 77.4751 34.7545C77.1617 35.5935 76.6919 36.3653 76.0907 37.0292C75.4892 37.6919 74.754 38.2195 73.9336 38.5771C73.1132 38.9347 72.2262 39.1142 71.3313 39.1037C70.6715 39.1171 70.0179 38.9732 69.4248 38.6837C68.9047 38.423 68.4331 38.075 68.0306 37.6549V43.7553C68.0375 43.8707 68.0194 43.9863 67.9775 44.0941C67.9356 44.2019 67.8709 44.2994 67.7878 44.3798C67.7047 44.4602 67.6052 44.5218 67.4961 44.5601C67.387 44.5985 67.2709 44.6128 67.1557 44.6021H65.0056C64.7734 44.6071 64.5473 44.5269 64.3701 44.3768C64.2819 44.3007 64.212 44.2056 64.1657 44.0987C64.1194 43.9918 64.0979 43.8758 64.1027 43.7595ZM67.633 31.8709C67.6294 32.3532 67.7168 32.8319 67.8906 33.2819C68.0492 33.6983 68.2842 34.0814 68.5835 34.4115C68.8735 34.7311 69.2236 34.9903 69.6138 35.1744C70.0016 35.3606 70.4266 35.4563 70.8568 35.4544C71.2778 35.4581 71.6936 35.3622 72.0704 35.1744C72.4466 34.9873 72.7824 34.7281 73.0587 34.4115C73.3479 34.0802 73.5776 33.7013 73.7376 33.2917C74.0755 32.4098 74.0755 31.4341 73.7376 30.5522C73.5774 30.1427 73.3478 29.7638 73.0587 29.4324C72.7842 29.1176 72.4478 28.8627 72.0704 28.6835C71.6913 28.5037 71.2764 28.4119 70.8568 28.4147C70.4323 28.4128 70.0127 28.5046 69.6278 28.6835C69.2447 28.8599 68.8995 29.109 68.6115 29.417C68.3121 29.7392 68.0727 30.1123 67.9046 30.5187C67.7231 30.9462 67.6307 31.4064 67.633 31.8709Z" fill="white"/>
<path d="M83.1653 25.7705L85.9649 33.5646L88.7323 25.7425C88.8071 25.5514 88.9401 25.3886 89.1124 25.2771C89.2847 25.1656 89.4876 25.111 89.6926 25.121H92.2123C92.7204 25.121 92.9752 25.3366 92.9752 25.7705C92.9751 25.8477 92.9604 25.9242 92.9318 25.9959C92.9123 26.0407 92.8982 26.0877 92.8898 26.1359L88.0044 38.1098C87.9122 38.3321 87.7835 38.5375 87.6237 38.7173C87.5483 38.804 87.4548 38.873 87.3499 38.9194C87.2449 38.9658 87.1309 38.9886 87.0162 38.9861H84.9164C84.7721 38.9972 84.6274 38.9688 84.4979 38.9039C84.3685 38.8391 84.2591 38.7402 84.1815 38.618C84.0267 38.3666 83.8946 38.1019 83.7868 37.8271L81.4687 32.1242C81.074 31.164 80.6741 30.1757 80.2691 29.1594C79.8641 28.1432 79.4642 27.1736 79.0694 26.2506C79.0498 26.1932 79.026 26.1107 78.998 26.0099C78.9726 25.9229 78.9585 25.8331 78.9561 25.7425C78.9561 25.3282 79.2006 25.121 79.6896 25.121H82.2596C82.4623 25.1084 82.663 25.1662 82.8281 25.2845C82.9931 25.4029 83.1122 25.5745 83.1653 25.7705Z" fill="#F15A29"/>
<path d="M95.0541 20.9971C95.0567 20.5662 95.1865 20.1457 95.4271 19.7883C95.6678 19.4308 96.0087 19.1524 96.4069 18.988C96.8052 18.8235 97.2432 18.7803 97.6659 18.8638C98.0887 18.9473 98.4774 19.1538 98.7832 19.4574C98.9847 19.6592 99.1435 19.8995 99.2501 20.1641C99.3566 20.4287 99.4087 20.712 99.4033 20.9971C99.4094 21.2803 99.3576 21.5617 99.2509 21.8241C99.1443 22.0865 98.9851 22.3243 98.7832 22.5229C98.3665 22.9208 97.8125 23.1429 97.2364 23.1429C96.6603 23.1429 96.1063 22.9208 95.6896 22.5229C95.4838 22.3265 95.321 22.0895 95.2116 21.8268C95.1022 21.5641 95.0485 21.2816 95.0541 20.9971ZM99.2339 25.7985V38.338C99.2339 38.771 99.0006 38.9875 98.534 38.9875H96.0718C95.6378 38.9875 95.4223 38.7705 95.4223 38.338V25.7985C95.4128 25.6181 95.4735 25.441 95.5916 25.3044C95.654 25.2414 95.7291 25.1925 95.8119 25.1608C95.8947 25.1292 95.9833 25.1156 96.0718 25.121H98.5284C98.705 25.1239 98.875 25.1888 99.0086 25.3044C99.0821 25.3634 99.1407 25.4389 99.1798 25.5247C99.219 25.6105 99.2375 25.7043 99.2339 25.7985Z" fill="#F15A29"/>
<path d="M109.885 35.9653C110.297 35.9839 110.709 35.9265 111.1 35.7959C111.5 35.662 111.888 35.4919 112.258 35.2878C112.404 35.2137 112.544 35.1286 112.677 35.033C112.782 34.9493 112.91 34.9003 113.044 34.8931C113.13 34.8955 113.214 34.9203 113.288 34.9649C113.361 35.0096 113.422 35.0726 113.464 35.1478L114.51 36.8136C114.588 36.9215 114.636 37.048 114.65 37.1803C114.654 37.321 114.604 37.4578 114.51 37.5625C114.413 37.6684 114.309 37.7676 114.199 37.8593C113.6 38.3084 112.94 38.6695 112.239 38.9315C111.512 39.1995 110.741 39.3338 109.966 39.3277C109.01 39.3339 108.063 39.1433 107.183 38.7677C106.329 38.4054 105.553 37.8827 104.896 37.2279C104.237 36.5656 103.711 35.7842 103.344 34.9253C102.964 34.0411 102.767 33.0893 102.765 32.1271C102.762 31.1649 102.954 30.2121 103.33 29.326C103.694 28.4681 104.21 27.6832 104.854 27.0093C105.489 26.3404 106.246 25.8 107.085 25.4177C107.936 25.0305 108.862 24.8328 109.797 24.8382C110.679 24.8341 111.553 25.0069 112.367 25.3464C113.159 25.6737 113.884 26.145 114.504 26.7364C115.114 27.3173 115.604 28.0127 115.945 28.7829C116.292 29.5685 116.469 30.4186 116.464 31.2774C116.464 32.0109 116.402 32.5442 116.281 32.8731C116.159 33.2021 115.89 33.3673 115.476 33.3673H106.689C106.72 33.7591 106.846 34.1374 107.057 34.4689C107.26 34.7849 107.518 35.0621 107.819 35.2878C108.121 35.514 108.461 35.6859 108.822 35.7959C109.166 35.9056 109.524 35.9628 109.885 35.9653ZM106.693 30.6278H112.766C112.748 30.2773 112.657 29.9343 112.499 29.621C112.341 29.3076 112.119 29.0307 111.847 28.8081C111.256 28.299 110.495 28.0298 109.715 28.0536C109.367 28.0556 109.023 28.122 108.699 28.2496C108.361 28.379 108.046 28.563 107.767 28.7941C107.487 29.0255 107.251 29.3041 107.067 29.6172C106.878 29.9268 106.749 30.2699 106.689 30.6278H106.693Z" fill="#F15A29"/>
<path d="M141.85 25.9959C141.843 25.8811 141.862 25.7664 141.903 25.6592C141.945 25.5521 142.009 25.455 142.09 25.3744C142.265 25.2188 142.493 25.1379 142.726 25.149H152.751C152.972 25.1471 153.186 25.2218 153.357 25.3604C153.449 25.4376 153.521 25.5354 153.568 25.6459C153.615 25.7563 153.635 25.8763 153.626 25.9959V27.8884C153.626 27.9591 153.621 28.0297 153.612 28.0998C153.596 28.1996 153.552 28.2928 153.485 28.3686L146.962 35.4852H152.859C153.443 35.4852 153.735 35.7768 153.735 36.3601V38.0552C153.732 38.2887 153.647 38.5137 153.495 38.6907C153.419 38.7865 153.323 38.8632 153.212 38.9148C153.102 38.9663 152.981 38.9912 152.859 38.9875H142.411C142.293 38.9894 142.176 38.9652 142.069 38.9168C141.962 38.8685 141.866 38.797 141.789 38.7075C141.625 38.5316 141.533 38.2992 141.535 38.058V36.5588C141.535 36.4637 141.535 36.3657 141.549 36.2621C141.564 36.1479 141.619 36.0428 141.704 35.9653C142.194 35.4194 142.735 34.8357 143.328 34.2142C143.92 33.5926 144.518 32.9618 145.121 32.3216L146.914 30.4165C147.508 29.7856 148.049 29.1972 148.539 28.6513H142.722C142.137 28.6513 141.845 28.3499 141.845 27.747L141.85 25.9959Z" fill="#F15A29"/>
<path d="M48.512 20.6486C46.4842 20.6494 44.502 21.2515 42.8162 22.3786C41.1305 23.5058 39.8167 25.1074 39.041 26.9811C38.2654 28.8548 38.0627 30.9164 38.4585 32.9053C38.8543 34.8942 39.8309 36.721 41.2649 38.155C42.6988 39.5889 44.5257 40.5655 46.5146 40.9614C48.5034 41.3572 50.565 41.1545 52.4387 40.3788C54.3124 39.6031 55.9141 38.2894 57.0412 36.6036C58.1684 34.9178 58.7704 32.9357 58.7712 30.9078C58.7724 29.5602 58.5077 28.2257 57.9926 26.9805C57.4774 25.7353 56.7217 24.6039 55.7689 23.651C54.816 22.6981 53.6846 21.9425 52.4394 21.4273C51.1942 20.9121 49.8596 20.6475 48.512 20.6486ZM48.512 35.4432C47.6137 35.4432 46.7355 35.1767 45.9886 34.6775C45.2417 34.1783 44.6597 33.4687 44.3162 32.6387C43.9727 31.8086 43.8831 30.8953 44.0587 30.0142C44.2344 29.1332 44.6674 28.3241 45.3031 27.6893C45.9387 27.0544 46.7483 26.6224 47.6296 26.4478C48.5108 26.2732 49.424 26.3639 50.2537 26.7085C51.0833 27.053 51.7922 27.6359 52.2905 28.3834C52.7888 29.1309 53.0541 30.0094 53.053 30.9078C53.0534 31.504 52.9362 32.0944 52.708 32.6451C52.4799 33.1959 52.1453 33.6963 51.7235 34.1176C51.3017 34.5389 50.8009 34.8728 50.2498 35.1003C49.6987 35.3278 49.1082 35.4443 48.512 35.4432Z" fill="#F15A29"/>
<path d="M50.06 33.5814C52.0453 33.5814 53.6548 31.972 53.6548 29.9867C53.6548 28.0014 52.0453 26.392 50.06 26.392C48.0747 26.392 46.4653 28.0014 46.4653 29.9867C46.4653 31.972 48.0747 33.5814 50.06 33.5814Z" fill="white"/>
<path d="M71.0779 21.3415L71.0695 21.3331L71.1927 21.4283L71.0989 21.3289L71.1927 21.3989C71.1927 21.3989 70.756 20.9649 70.0309 20.2538L70.0197 20.2412L69.5003 19.6813L57.532 7.51138C57.3738 7.37139 57.2184 7.23141 57.0588 7.09143C56.4835 6.5931 55.7108 5.99818 54.9311 5.8316C54.3838 5.71682 53.8379 5.96179 53.3535 6.18016L38.5058 12.8447L29.2292 16.4842C28.5489 16.8439 28.01 17.8378 27.814 18.826L27.0161 21.4283L29.0892 21.3989H34.7991C35.5472 21.3946 36.2831 21.2087 36.9436 20.8572L52.7964 14.4838L55.2013 13.6173L58.397 16.8131L61.5914 20.0047C62.2451 20.6598 62.8177 21.2267 63.7275 21.4045L71.1675 21.4339H71.1969C71.1549 21.3989 71.1171 21.3695 71.0779 21.3415Z" fill="white"/>
<path d="M138.66 25.121H136.09C135.89 25.1198 135.695 25.1789 135.53 25.2904C135.341 25.4294 135.202 25.6259 135.135 25.8503C134.814 26.7546 134.503 27.649 134.203 28.5337C133.902 29.4184 133.591 30.305 133.27 31.1934L132.479 33.3687C132.339 33.0271 132.06 31.7701 131.763 30.3857C131.739 30.2667 131.714 30.1477 131.689 30.0287L130.689 25.6893C130.647 25.3114 130.388 25.121 129.907 25.121H127.642C127.412 25.1035 127.185 25.1741 127.006 25.3184C126.848 25.4762 126.728 25.6676 126.653 25.8783L124.877 33.3393C124.614 32.6422 124.36 31.9423 124.114 31.2396C123.869 30.5369 123.605 29.7903 123.323 28.9999L122.223 25.8083C122.141 25.6171 122.014 25.4479 121.855 25.3142C121.695 25.1896 121.497 25.1248 121.295 25.1308H118.721C118.231 25.1308 117.986 25.338 117.986 25.7523C117.987 25.8676 118.006 25.982 118.043 26.0911C118.072 26.133 118.091 26.1808 118.099 26.231C118.117 26.3052 118.179 26.4746 118.283 26.7392C118.386 27.0037 118.532 27.3845 118.721 27.8828C118.91 28.3811 119.177 29.0685 119.526 29.9447L120.825 33.2063C121.343 34.5053 121.978 36.0773 122.731 37.9223C122.827 38.172 122.945 38.4127 123.084 38.6418C123.225 38.8779 123.474 38.9959 123.833 38.9959H125.923C126.035 39.004 126.147 38.9851 126.25 38.9407C126.353 38.8964 126.444 38.828 126.515 38.7411C126.634 38.5916 126.738 38.4308 126.826 38.261L126.854 38.177C126.854 38.1392 126.863 38.1196 126.883 38.1196L127.503 36.5672C127.596 36.3022 127.7 36.0386 127.814 35.7763C127.928 35.5141 128.031 35.2505 128.125 34.9854L128.685 33.629C128.778 33.8745 128.858 34.0816 128.924 34.2505C128.99 34.4199 129.064 34.6089 129.165 34.8105L130.378 37.8313C130.398 37.8887 130.426 37.9824 130.464 38.1112C130.504 38.2496 130.561 38.3826 130.633 38.5074C130.71 38.6421 130.816 38.7579 130.944 38.8461C131.104 38.9475 131.291 38.9964 131.48 38.9861H133.514C133.648 38.9971 133.782 38.9729 133.903 38.9159C134.024 38.859 134.129 38.7712 134.205 38.6614C134.345 38.4444 134.445 38.2792 134.502 38.1672L139.332 26.1079C139.39 25.9841 139.419 25.8485 139.416 25.7117C139.419 25.3179 139.167 25.121 138.66 25.121Z" fill="#F15A29"/>
</svg>
