<svg width="85" height="85" viewBox="0 0 85 85" fill="none" xmlns="http://www.w3.org/2000/svg">
<g clip-path="url(#clip0_617_19774)">
<path d="M91.9704 70.1523H-6V70.2013H91.9704V70.1523Z" fill="#716868"/>
<path d="M82.1536 73.3027H75.6641V73.3517H82.1536V73.3027Z" fill="#716868"/>
<path d="M58.8986 73.8359H57.1953V73.8849H58.8986V73.8359Z" fill="#716868"/>
<path d="M75.471 71.4863H71.7109V71.5353H75.471V71.4863Z" fill="#716868"/>
<path d="M12.74 71.8145H4.27734V71.8634H12.74V71.8145Z" fill="#716868"/>
<path d="M15.729 71.8145H14.4883V71.8635H15.729V71.8145Z" fill="#716868"/>
<path d="M38.1135 72.6406H19.7578V72.6896H38.1135V72.6406Z" fill="#716868"/>
<path d="M40.4354 61.412H2.60124C2.30485 61.4115 2.02077 61.2934 1.81138 61.0837C1.60198 60.8739 1.48437 60.5896 1.48438 60.2932V7.10902C1.48696 6.81433 1.6057 6.53256 1.81482 6.32491C2.02394 6.11726 2.30654 6.0005 2.60124 6H40.4354C40.7322 6 41.0167 6.11788 41.2266 6.3277C41.4364 6.53752 41.5543 6.82209 41.5543 7.11882V60.2932C41.5543 60.5899 41.4364 60.8745 41.2266 61.0843C41.0167 61.2942 40.7322 61.412 40.4354 61.412V61.412ZM2.60124 6.03919C2.31784 6.03971 2.04622 6.15265 1.84602 6.35323C1.64581 6.5538 1.53336 6.82563 1.53336 7.10902V60.2932C1.53336 60.5766 1.64581 60.8484 1.84602 61.049C2.04622 61.2496 2.31784 61.3625 2.60124 61.3631H40.4354C40.719 61.3625 40.9908 61.2497 41.1914 61.0491C41.3919 60.8486 41.5048 60.5768 41.5053 60.2932V7.10902C41.5048 6.82545 41.3919 6.55363 41.1914 6.35311C40.9908 6.15259 40.719 6.03971 40.4354 6.03919H2.60124Z" fill="#716868"/>
<path d="M82.8222 61.412H44.986C44.6894 61.4115 44.4052 61.2935 44.1955 61.0838C43.9858 60.8741 43.8677 60.5898 43.8672 60.2932V7.10902C43.8703 6.81416 43.9895 6.53239 44.1989 6.32479C44.4083 6.11719 44.6911 6.0005 44.986 6H82.8222C83.1165 6.00102 83.3986 6.11801 83.6073 6.3256C83.816 6.5332 83.9345 6.81467 83.9371 7.10902V60.2932C83.9371 60.5893 83.8197 60.8733 83.6108 61.083C83.4018 61.2927 83.1182 61.411 82.8222 61.412V61.412ZM44.986 6.03919C44.7024 6.03971 44.4306 6.15259 44.2301 6.35311C44.0296 6.55363 43.9167 6.82545 43.9162 7.10902V60.2932C43.9167 60.5768 44.0296 60.8486 44.2301 61.0491C44.4306 61.2497 44.7024 61.3625 44.986 61.3631H82.8222C83.1057 61.3625 83.3776 61.2497 83.5781 61.0491C83.7786 60.8486 83.8915 60.5768 83.892 60.2932V7.10902C83.8915 6.82545 83.7786 6.55363 83.5781 6.35311C83.3776 6.15259 83.1057 6.03971 82.8222 6.03919H44.986Z" fill="#716868"/>
<path d="M46.4662 70.1523H53.3438V44.537H46.4662V70.1523Z" fill="#605757"/>
<path d="M47.6134 70.1507H46.4688V67.8438H48.8149L47.6134 70.1507Z" fill="#726A6A"/>
<path d="M74.4623 70.1523H81.3398V44.537H74.4623V70.1523Z" fill="#605757"/>
<path d="M46.4695 69.2656H75.4609V44.5359H46.4695V69.2656Z" fill="#726A6A"/>
<path d="M47.3561 52.4141H74.5703V45.6326H47.3561V52.4141Z" fill="#605757"/>
<path d="M59.6794 47.734H62.2501C63.367 47.734 64.4349 46.8973 65.203 45.4199H56.7266C57.4947 46.9012 58.5625 47.734 59.6794 47.734Z" fill="#726A6A"/>
<path d="M74.3187 70.1507H75.4633V67.8438H73.1172L74.3187 70.1507Z" fill="#726A6A"/>
<path d="M47.3561 60.291H74.5703V53.5095H47.3561V60.291Z" fill="#605757"/>
<path d="M59.6794 55.6148H62.2501C63.367 55.6148 64.4349 54.7782 65.203 53.3008H56.7266C57.4947 54.788 58.5625 55.6148 59.6794 55.6148Z" fill="#726A6A"/>
<path d="M47.3561 68.1699H74.5703V61.3884H47.3561V68.1699Z" fill="#605757"/>
<path d="M59.6794 63.4957H62.2501C63.367 63.4957 64.4349 62.659 65.203 61.1816H56.7266C57.4947 62.659 58.5625 63.4957 59.6794 63.4957Z" fill="#726A6A"/>
<path d="M9.27907 38.7266H35.543V12.1511L9.27907 12.1511L9.27907 38.7266Z" fill="#605757"/>
<path d="M7.45837 38.7266H35.0625V12.1511L7.45837 12.1511L7.45837 38.7266Z" fill="#726A6A"/>
<path d="M32.75 36.4141V14.4629L9.77203 14.4629V36.4141H32.75Z" fill="#948B8B"/>
<path d="M21.1008 17.3632L16.8842 21.5877C15.8652 22.6092 15.293 23.9932 15.293 25.436C15.293 26.8788 15.8652 28.2628 16.8842 29.2843L21.1008 33.5029C21.1214 33.5235 21.1458 33.5399 21.1727 33.551C21.1996 33.5622 21.2284 33.5679 21.2576 33.5679C21.2867 33.5679 21.3155 33.5622 21.3424 33.551C21.3693 33.5399 21.3937 33.5235 21.4143 33.5029L25.6329 29.2843C26.6519 28.2628 27.2241 26.8788 27.2241 25.436C27.2241 23.9932 26.6519 22.6092 25.6329 21.5877L21.4163 17.3632C21.3741 17.322 21.3175 17.2988 21.2585 17.2988C21.1996 17.2988 21.1429 17.322 21.1008 17.3632V17.3632ZM17.1977 28.9629C16.2621 28.0248 15.7367 26.754 15.7367 25.4291C15.7367 24.1043 16.2621 22.8335 17.1977 21.8954V28.9629ZM25.3194 28.9629V21.9032C26.255 22.8413 26.7803 24.1121 26.7803 25.437C26.7803 26.7619 26.255 28.0327 25.3194 28.9708V28.9629Z" fill="#726A6A"/>
<path d="M73.7216 35.3906H59.0476L58.2109 44.0551H72.8849L73.7216 35.3906Z" fill="#605757"/>
<path d="M72.8832 44.0547L72.8244 44.5347H58.1484L58.2092 44.0547H72.8832Z" fill="#605757"/>
<path d="M73.2704 35.3906H58.5964L57.7578 44.0551H72.4318L73.2704 35.3906Z" fill="#726A6A"/>
<path d="M72.1347 43.4915L72.748 35.9791C72.7496 35.9542 72.7461 35.9291 72.7376 35.9055C72.7292 35.8819 72.7161 35.8603 72.699 35.842C72.682 35.8236 72.6614 35.8089 72.6384 35.7988C72.6155 35.7887 72.5908 35.7834 72.5657 35.7832H59.0752C59.029 35.783 58.9844 35.8003 58.9502 35.8315C58.9161 35.8627 58.895 35.9056 58.891 35.9517L58.2699 43.4621C58.2683 43.4873 58.2719 43.5125 58.2804 43.5362C58.2889 43.5599 58.3022 43.5817 58.3195 43.6C58.3368 43.6184 58.3576 43.633 58.3808 43.643C58.4039 43.653 58.4289 43.6581 58.4541 43.6581H71.9446C71.9917 43.6603 72.0378 43.6441 72.0732 43.6131C72.1086 43.582 72.1307 43.5385 72.1347 43.4915V43.4915Z" fill="#948B8B"/>
<path d="M68.6047 44.0547L68.546 44.5347H52.3867L52.4455 44.0547H68.6047Z" fill="#726A6A"/>
<path d="M48.8824 30.7598L76.4375 30.7598V12.4413L48.8824 12.4413V30.7598Z" fill="#605757"/>
<path d="M48.273 30.7598L75.8281 30.7598V12.4413L48.273 12.4413V30.7598Z" fill="#5F5656"/>
<path d="M74.7266 29.5235V13.6758L49.3699 13.6758V29.5235H74.7266Z" fill="#948B8B"/>
<path d="M49.8281 29.5215V13.6738H49.3657V29.5215H49.8281Z" fill="#605757"/>
<path d="M48.7251 27.4219L75.3711 27.4219V25.7642L48.7251 25.7642V27.4219Z" fill="#5F5656"/>
<path d="M47.0728 10.3984H77.6396C77.6841 10.3989 77.7267 10.4169 77.7582 10.4484C77.7897 10.4798 77.8076 10.5224 77.8081 10.5669V10.5669C77.8081 10.6116 77.7903 10.6545 77.7587 10.6861C77.7271 10.7177 77.6843 10.7355 77.6396 10.7355H47.0728C47.0505 10.7357 47.0284 10.7315 47.0077 10.7232C46.9871 10.7148 46.9682 10.7025 46.9524 10.6868C46.9365 10.6711 46.9239 10.6525 46.9154 10.6319C46.9068 10.6113 46.9023 10.5892 46.9023 10.5669V10.5669C46.9029 10.5221 46.921 10.4792 46.953 10.4477C46.9849 10.4161 47.0279 10.3984 47.0728 10.3984V10.3984Z" fill="#605757"/>
<path d="M46.4766 10.5679C46.4766 10.6515 46.5013 10.7333 46.5478 10.8029C46.5942 10.8725 46.6602 10.9267 46.7375 10.9588C46.8147 10.9909 46.8997 10.9994 46.9818 10.9833C47.0639 10.9671 47.1393 10.927 47.1986 10.8679C47.2579 10.8089 47.2984 10.7337 47.3149 10.6517C47.3315 10.5697 47.3234 10.4846 47.2916 10.4072C47.2599 10.3298 47.2059 10.2636 47.1366 10.2168C47.0672 10.1701 46.9855 10.1449 46.9019 10.1445C46.8461 10.1443 46.7909 10.155 46.7393 10.1762C46.6877 10.1974 46.6408 10.2285 46.6013 10.2678C46.5617 10.3072 46.5304 10.3539 46.509 10.4054C46.4876 10.4569 46.4766 10.5121 46.4766 10.5679V10.5679Z" fill="#605757"/>
<path d="M76.2078 11.515C76.268 11.515 76.3257 11.4914 76.3686 11.4493C76.4115 11.4071 76.4361 11.3498 76.4372 11.2896V10.7996C76.4372 10.7388 76.413 10.6805 76.37 10.6375C76.327 10.5945 76.2687 10.5703 76.2078 10.5703V10.5703C76.1778 10.5703 76.1481 10.5763 76.1204 10.5878C76.0927 10.5994 76.0675 10.6163 76.0464 10.6376C76.0252 10.6589 76.0085 10.6842 75.9972 10.712C75.9859 10.7398 75.9802 10.7696 75.9805 10.7996V11.2896C75.9815 11.3494 76.0058 11.4065 76.0483 11.4486C76.0908 11.4907 76.148 11.5145 76.2078 11.515V11.515Z" fill="#605757"/>
<path d="M49.6219 11.515C49.6805 11.5126 49.736 11.4879 49.7772 11.4461C49.8183 11.4042 49.842 11.3483 49.8434 11.2896V10.7996C49.8434 10.7388 49.8192 10.6805 49.7762 10.6375C49.7332 10.5945 49.6749 10.5703 49.6141 10.5703C49.5841 10.5703 49.5543 10.5763 49.5266 10.5878C49.4989 10.5994 49.4738 10.6163 49.4526 10.6376C49.4315 10.6589 49.4148 10.6842 49.4035 10.712C49.3922 10.7398 49.3865 10.7696 49.3867 10.7996V11.2896C49.3872 11.3199 49.3937 11.3498 49.4059 11.3776C49.418 11.4053 49.4355 11.4304 49.4573 11.4514C49.4792 11.4723 49.505 11.4887 49.5333 11.4997C49.5615 11.5106 49.5916 11.5158 49.6219 11.515V11.515Z" fill="#605757"/>
<path opacity="0.4" d="M47.1262 28.3652L75.3711 28.3652V10.5679L47.1262 10.5679V28.3652Z" fill="#E0E0E0"/>
<path d="M73.0625 10.5679C73.0625 10.6516 73.0873 10.7335 73.1338 10.8031C73.1804 10.8727 73.2465 10.927 73.3238 10.959C73.4012 10.9911 73.4863 10.9995 73.5685 10.9831C73.6506 10.9668 73.726 10.9265 73.7852 10.8673C73.8444 10.808 73.8847 10.7326 73.9011 10.6505C73.9174 10.5684 73.909 10.4832 73.877 10.4059C73.845 10.3285 73.7907 10.2624 73.7211 10.2159C73.6514 10.1694 73.5696 10.1445 73.4859 10.1445C73.3736 10.1445 73.2659 10.1891 73.1865 10.2685C73.1071 10.3479 73.0625 10.4556 73.0625 10.5679Z" fill="#605757"/>
<path d="M33.0904 68.8809H35.3555V49.2339H33.0904V68.8809Z" fill="#726A6A"/>
<path d="M8.51831 70.125H34.4844V68.8808H8.51831V70.125Z" fill="#726A6A"/>
<path d="M33.0894 49.2344H7.64844V68.8814H33.0894V49.2344Z" fill="#5F5656"/>
<path d="M29.9133 51.6523H10.8248C10.0543 51.6523 9.42969 52.2769 9.42969 53.0474V56.6998C9.42969 57.4703 10.0543 58.0949 10.8248 58.0949H29.9133C30.6838 58.0949 31.3084 57.4703 31.3084 56.6998V53.0474C31.3084 52.2769 30.6838 51.6523 29.9133 51.6523Z" fill="#726A6A"/>
<path d="M29.9133 60.0195H10.8248C10.0543 60.0195 9.42969 60.6441 9.42969 61.4146V65.067C9.42969 65.8375 10.0543 66.4621 10.8248 66.4621H29.9133C30.6838 66.4621 31.3084 65.8375 31.3084 65.067V61.4146C31.3084 60.6441 30.6838 60.0195 29.9133 60.0195Z" fill="#726A6A"/>
<path d="M15.6303 55.3153H25.1099C25.227 55.3153 25.3394 55.2689 25.4224 55.1863C25.5054 55.1037 25.5522 54.9916 25.5528 54.8745V54.8745C25.5522 54.7572 25.5054 54.6448 25.4225 54.5619C25.3396 54.479 25.2272 54.4322 25.1099 54.4316H15.6303C15.513 54.4322 15.4007 54.479 15.3178 54.5619C15.2348 54.6448 15.188 54.7572 15.1875 54.8745V54.8745C15.188 54.9916 15.2349 55.1037 15.3179 55.1863C15.4009 55.2689 15.5132 55.3153 15.6303 55.3153Z" fill="#5F5656"/>
<path d="M15.6303 63.6825H25.1099C25.227 63.6825 25.3394 63.6361 25.4224 63.5535C25.5054 63.4709 25.5522 63.3588 25.5528 63.2417V63.2417C25.5522 63.1244 25.5054 63.012 25.4225 62.9291C25.3396 62.8462 25.2272 62.7993 25.1099 62.7988H15.6303C15.513 62.7993 15.4007 62.8462 15.3178 62.9291C15.2348 63.012 15.188 63.1244 15.1875 63.2417V63.2417C15.188 63.3588 15.2349 63.4709 15.3179 63.5535C15.4009 63.6361 15.5132 63.6825 15.6303 63.6825V63.6825Z" fill="#5F5656"/>
<path d="M42.987 79.0005C63.9689 79.0005 80.978 78.0075 80.978 76.7825C80.978 75.5575 63.9689 74.5645 42.987 74.5645C22.0052 74.5645 4.99609 75.5575 4.99609 76.7825C4.99609 78.0075 22.0052 79.0005 42.987 79.0005Z" fill="#605757"/>
<path d="M51.3778 15.0996H15.168L17.9817 64.412H54.1896L51.3778 15.0996Z" fill="#263238"/>
<path d="M52.0809 15.0996H15.8711L18.6848 64.412H54.8947L52.0809 15.0996Z" fill="#F1592A"/>
<path opacity="0.5" d="M49.5872 16.7578H17.5273L19.8257 61.3951H52.7183L49.5872 16.7578Z" fill="black"/>
<path d="M17.5273 16.7578C19.91 31.6376 18.2758 46.5173 20.6624 61.3951H53.5511C51.1684 46.5173 52.8026 31.6376 50.416 16.7578H17.5273Z" fill="white"/>
<g opacity="0.3">
<path d="M24.2502 30.1327C24.9765 30.1385 25.6729 30.4229 26.1957 30.9271C26.7185 31.4313 27.0279 32.1169 27.06 32.8426C27.0746 33.1916 27.018 33.54 26.8937 33.8665C26.7694 34.193 26.58 34.4908 26.3369 34.7417C26.0939 34.9927 25.8023 35.1915 25.4799 35.3262C25.1575 35.4609 24.8111 35.5285 24.4618 35.525C23.7399 35.519 23.0481 35.2355 22.5297 34.7331C22.0113 34.2308 21.7061 33.5482 21.6775 32.8269C21.6624 32.4789 21.7176 32.1313 21.8398 31.8051C21.962 31.4789 22.1487 31.1807 22.3887 30.9282C22.6295 30.678 22.9188 30.4795 23.2388 30.3448C23.5588 30.21 23.9029 30.1419 24.2502 30.1445M24.2306 29.5782C23.8082 29.5755 23.3898 29.6591 23.0008 29.8237C22.6119 29.9883 22.2606 30.2305 21.9684 30.5355C21.6762 30.8405 21.4494 31.2018 21.3016 31.5975C21.1539 31.9932 21.0884 32.4148 21.1092 32.8367C21.1434 33.7075 21.5116 34.5318 22.1372 35.1385C22.7629 35.7452 23.5981 36.0878 24.4696 36.0952C24.8939 36.0987 25.3145 36.016 25.7059 35.8522C26.0972 35.6884 26.4513 35.4469 26.7466 35.1423C27.0419 34.8376 27.2723 34.4762 27.4239 34.0799C27.5754 33.6836 27.6449 33.2606 27.6282 32.8367C27.5861 31.962 27.2104 31.1368 26.5784 30.5307C25.9464 29.9246 25.1062 29.5837 24.2306 29.5782V29.5782Z" fill="#F1592A"/>
</g>
<path d="M42.4369 54.5743H32.052C31.9743 54.573 31.8973 54.5882 31.8259 54.6191C31.7546 54.6499 31.6907 54.6955 31.6384 54.753C31.5861 54.8105 31.5467 54.8785 31.5227 54.9524C31.4988 55.0263 31.4908 55.1045 31.4995 55.1817V55.1817C31.5184 55.3469 31.5965 55.4996 31.7193 55.6117C31.8422 55.7237 32.0014 55.7874 32.1676 55.7911H42.5525C42.6302 55.7925 42.7074 55.7772 42.7787 55.7463C42.85 55.7153 42.9138 55.6694 42.9659 55.6116C43.0179 55.5538 43.0569 55.4855 43.0802 55.4114C43.1036 55.3372 43.1107 55.2589 43.1011 55.1817V55.1817C43.0827 55.0172 43.0052 54.865 42.883 54.7533C42.7609 54.6416 42.6024 54.578 42.4369 54.5743V54.5743Z" fill="#E0E0E0"/>
<path d="M47.9917 52.0177H31.8422C31.7641 52.0162 31.6865 52.0313 31.6146 52.0619C31.5427 52.0925 31.4781 52.138 31.425 52.1954C31.3719 52.2527 31.3315 52.3207 31.3065 52.3947C31.2815 52.4688 31.2724 52.5473 31.2799 52.6251C31.294 52.7897 31.3687 52.9433 31.4897 53.0559C31.6106 53.1685 31.7691 53.2322 31.9343 53.2345H48.0759C48.1542 53.2367 48.2321 53.2224 48.3044 53.1923C48.3767 53.1623 48.4419 53.1173 48.4955 53.0603C48.5492 53.0033 48.5902 52.9356 48.6158 52.8616C48.6415 52.7876 48.6511 52.709 48.6442 52.631V52.631C48.6315 52.4658 48.5575 52.3113 48.4368 52.1978C48.3161 52.0844 48.1573 52.0201 47.9917 52.0177V52.0177Z" fill="#E0E0E0"/>
<g opacity="0.3">
<path d="M24.5823 40.6796C25.3032 40.6848 25.9943 40.9684 26.511 41.4712C27.0277 41.974 27.3301 42.6572 27.3548 43.3777C27.368 43.7265 27.3108 44.0744 27.1866 44.4007C27.0624 44.7269 26.8737 45.0247 26.6318 45.2764C26.3897 45.5271 26.0992 45.7258 25.7778 45.8606C25.4564 45.9953 25.111 46.0632 24.7625 46.0601C24.0398 46.0552 23.3468 45.7721 22.8272 45.2697C22.3077 44.7673 22.0015 44.0842 21.9723 43.362C21.9604 43.0127 22.0193 42.6645 22.1453 42.3385C22.2713 42.0124 22.4619 41.7152 22.7057 41.4647C22.9495 41.2142 23.2414 41.0155 23.5638 40.8806C23.8863 40.7456 24.2327 40.6773 24.5823 40.6796M24.5823 40.1114C24.1577 40.1088 23.737 40.1919 23.3454 40.3559C22.9537 40.5198 22.5993 40.7612 22.3032 41.0655C22.0071 41.3698 21.7756 41.7308 21.6224 42.1267C21.4693 42.5227 21.3977 42.9456 21.4119 43.3699C21.4467 44.2431 21.8168 45.0693 22.4453 45.6766C23.0737 46.2839 23.9121 46.6255 24.786 46.6303C25.2093 46.632 25.6286 46.5479 26.0185 46.3832C26.4084 46.2184 26.7609 45.9764 27.0548 45.6718C27.3487 45.3671 27.5778 45.0061 27.7284 44.6105C27.8789 44.2148 27.9478 43.7928 27.9309 43.3699C27.9015 42.4994 27.5366 41.6741 26.9124 41.0667C26.2882 40.4593 25.4532 40.117 24.5823 40.1114V40.1114Z" fill="#F1592A"/>
</g>
<path d="M36.6706 32.1543H31.1156C30.9524 32.1529 30.7959 32.089 30.6785 31.9756C30.5611 31.8622 30.4917 31.708 30.4847 31.5449V31.5449C30.4821 31.4661 30.4953 31.3875 30.5237 31.3139C30.5521 31.2404 30.5949 31.1732 30.6498 31.1165C30.7046 31.0599 30.7703 31.0148 30.843 30.984C30.9156 30.9533 30.9937 30.9375 31.0725 30.9375H36.6255C36.7888 30.9388 36.9454 31.0024 37.0634 31.1153C37.1814 31.2281 37.2518 31.3818 37.2603 31.5449V31.5449C37.2632 31.6241 37.2501 31.703 37.2218 31.777C37.1934 31.8509 37.1504 31.9184 37.0953 31.9753C37.0402 32.0322 36.9742 32.0774 36.9012 32.1082C36.8282 32.1389 36.7498 32.1546 36.6706 32.1543V32.1543Z" fill="#E0E0E0"/>
<path d="M43.0828 32.1543H39.3207C39.1573 32.153 39.0006 32.089 38.8829 31.9757C38.7651 31.8623 38.6953 31.7082 38.6878 31.5449V31.5449C38.6852 31.4661 38.6985 31.3875 38.7268 31.3139C38.7552 31.2404 38.7981 31.1732 38.8529 31.1165C38.9078 31.0599 38.9735 31.0148 39.0461 30.984C39.1187 30.9533 39.1968 30.9375 39.2756 30.9375H43.0397C43.2028 30.9388 43.3592 31.0025 43.4769 31.1154C43.5945 31.2283 43.6646 31.382 43.6726 31.5449V31.5449C43.6755 31.6241 43.6623 31.703 43.634 31.777C43.6056 31.8509 43.5626 31.9184 43.5075 31.9753C43.4524 32.0322 43.3864 32.0774 43.3134 32.1082C43.2404 32.1389 43.162 32.1546 43.0828 32.1543V32.1543Z" fill="#E0E0E0"/>
<path d="M46.1185 34.7109H31.2074C31.0442 34.71 30.8877 34.6461 30.7705 34.5326C30.6533 34.4191 30.5845 34.2646 30.5785 34.1016V34.1016C30.5758 34.0227 30.5891 33.9442 30.6174 33.8706C30.6458 33.797 30.6887 33.7299 30.7435 33.6732C30.7984 33.6165 30.8641 33.5714 30.9367 33.5407C31.0093 33.5099 31.0874 33.4941 31.1663 33.4941H46.0754C46.2381 33.495 46.3941 33.5587 46.5109 33.6719C46.6277 33.7851 46.6964 33.939 46.7024 34.1016C46.7053 34.1802 46.6924 34.2587 46.6644 34.3322C46.6364 34.4058 46.5939 34.473 46.5394 34.5298C46.485 34.5866 46.4196 34.632 46.3473 34.6631C46.275 34.6942 46.1972 34.7105 46.1185 34.7109V34.7109Z" fill="#E0E0E0"/>
<g opacity="0.3">
<path d="M25.0055 51.2133C25.7364 51.2277 26.4363 51.511 26.9714 52.0092C27.5064 52.5074 27.839 53.1854 27.9054 53.9134C27.9405 54.2545 27.9045 54.5992 27.7996 54.9257C27.6948 55.2521 27.5233 55.5533 27.296 55.8101C27.0669 56.0625 26.7864 56.2629 26.4735 56.3981C26.1606 56.5333 25.8224 56.6 25.4816 56.5939C24.7443 56.5819 24.0368 56.3012 23.492 55.8043C22.9472 55.3075 22.6026 54.6288 22.5229 53.8958C22.4893 53.5521 22.5288 53.2053 22.6389 52.878C22.749 52.5508 22.9272 52.2505 23.1617 51.9971C23.3976 51.7454 23.6834 51.5457 24.0009 51.4108C24.3184 51.2758 24.6605 51.2086 25.0055 51.2133M24.978 50.6471C24.5584 50.6388 24.1418 50.7194 23.7555 50.8835C23.3692 51.0475 23.0219 51.2914 22.7364 51.5991C22.451 51.9067 22.2338 52.2713 22.099 52.6687C21.9643 53.0662 21.9151 53.4877 21.9547 53.9056C22.1055 55.7043 23.7377 57.164 25.5365 57.164C27.3352 57.164 28.6245 55.7043 28.4756 53.9056C28.3978 53.0267 27.9978 52.2077 27.3525 51.6062C26.7071 51.0046 25.8621 50.663 24.98 50.6471H24.978Z" fill="#F1592A"/>
</g>
<path d="M48.6648 44.0352H31.4592C31.3804 44.0351 31.3023 44.051 31.2297 44.0817C31.157 44.1125 31.0914 44.1575 31.0365 44.2142C30.9817 44.2709 30.9388 44.338 30.9104 44.4116C30.8821 44.4852 30.8688 44.5638 30.8714 44.6426V44.6426C30.8784 44.8052 30.9476 44.9588 31.0647 45.0719C31.1817 45.1849 31.3377 45.2487 31.5004 45.25H48.7138C48.7927 45.2501 48.8707 45.2342 48.9434 45.2035C49.016 45.1727 49.0817 45.1277 49.1365 45.071C49.1914 45.0143 49.2343 44.9472 49.2626 44.8736C49.291 44.8 49.3042 44.7214 49.3016 44.6426V44.6426C49.2955 44.4784 49.2255 44.323 49.1066 44.2095C48.9877 44.0961 48.8292 44.0335 48.6648 44.0352V44.0352Z" fill="#E0E0E0"/>
<path d="M44.5876 41.4766H31.3851C31.3061 41.4765 31.2278 41.4924 31.155 41.5233C31.0823 41.5542 31.0165 41.5994 30.9616 41.6563C30.9068 41.7132 30.8639 41.7805 30.8357 41.8544C30.8074 41.9282 30.7944 42.0069 30.7973 42.0859V42.0859C30.8028 42.2483 30.871 42.4022 30.9875 42.5155C31.104 42.6287 31.2599 42.6924 31.4223 42.6934H44.6268C44.7056 42.6934 44.7837 42.6776 44.8563 42.6468C44.929 42.6161 44.9947 42.571 45.0495 42.5143C45.1044 42.4576 45.1472 42.3905 45.1756 42.3169C45.204 42.2433 45.2172 42.1648 45.2146 42.0859V42.0859C45.21 41.9227 45.1419 41.7677 45.0248 41.6539C44.9077 41.5401 44.7509 41.4765 44.5876 41.4766V41.4766Z" fill="#E0E0E0"/>
<path d="M24.5499 34.7469L24.3187 34.3668C23.8112 33.538 22.7512 32.7993 22.3867 32.5818L22.661 32.0958C23.3807 32.5315 24.022 33.0853 24.5577 33.7339C25.3905 32.6151 26.6073 31.4649 28.2551 30.2227L28.6098 30.6812C26.8463 32.0077 25.5962 33.2284 24.7948 34.3903C24.7145 34.5098 24.6322 34.6294 24.5499 34.7469Z" fill="#F1592A"/>
<path d="M24.8448 45.288C24.7684 45.1606 24.69 45.0332 24.6117 44.9078C24.1022 44.079 23.0441 43.3403 22.6836 43.1208L22.9618 42.6349C23.6778 43.0718 24.3156 43.6254 24.8487 44.273C25.6834 43.1561 26.91 42.004 28.5834 40.7617L28.9302 41.2202C27.1432 42.5467 25.8853 43.7675 25.0878 44.9294L24.8448 45.288Z" fill="#F1592A"/>
<path d="M25.5152 55.8524L25.2565 55.4723C24.6922 54.6434 23.5989 53.9047 23.2227 53.6873L23.4774 53.2013C24.2178 53.6401 24.8849 54.1921 25.4544 54.8374C26.2225 53.7206 27.3903 52.5684 29.0127 51.3281L29.3791 51.7866C27.647 53.1131 26.4576 54.3339 25.7346 55.4958L25.5152 55.8524Z" fill="#F1592A"/>
<path d="M37.9077 20.498C37.5628 21.2505 37.2095 22.0022 36.8477 22.7533C37.5936 23.1243 38.2313 23.6813 38.6995 24.3704C39.1676 25.0595 39.4503 25.8577 39.5203 26.6878H42.1243C41.9519 24.025 40.2394 21.707 37.9077 20.498Z" fill="#F1592A"/>
<path d="M27.9849 26.6913H30.5889C30.5251 25.9547 30.6593 25.2145 30.9776 24.5472C31.2959 23.8799 31.7868 23.3098 32.3994 22.8959C31.8926 22.1435 31.3779 21.3911 30.8554 20.6387C28.9548 21.8692 27.8183 24.1245 27.9849 26.6913Z" fill="#263238"/>
<path d="M34.3863 19.6234C33.1369 19.611 31.9111 19.9638 30.8594 20.6383C31.3819 21.3907 31.8966 22.1432 32.4034 22.8956C33.0823 22.4519 33.8771 22.2188 34.6881 22.2255C35.4384 22.2298 36.177 22.4118 36.8434 22.7565C37.2039 22.004 37.5573 21.2523 37.9034 20.5012C36.8179 19.9321 35.6119 19.6312 34.3863 19.6234V19.6234Z" fill="#F1592A"/>
<path opacity="0.5" d="M34.3863 19.6234C33.1369 19.611 31.9111 19.9638 30.8594 20.6383C31.3819 21.3907 31.8966 22.1432 32.4034 22.8956C33.0823 22.4519 33.8771 22.2188 34.6881 22.2255C35.4384 22.2298 36.177 22.4118 36.8434 22.7565C37.2039 22.004 37.5573 21.2523 37.9034 20.5012C36.8179 19.9321 35.6119 19.6312 34.3863 19.6234V19.6234Z" fill="#263238"/>
<path d="M37.5666 24.9082C37.5666 24.9082 34.9363 25.9842 34.658 26.1802C34.5915 26.2306 34.5357 26.2937 34.494 26.3659C34.4523 26.4381 34.4255 26.5179 34.415 26.6006C34.4046 26.6834 34.4109 26.7674 34.4334 26.8476C34.4559 26.9279 34.4943 27.0029 34.5462 27.0681C34.6444 27.2076 34.793 27.3033 34.9605 27.3351C35.1281 27.367 35.3014 27.3324 35.4439 27.2386C35.732 27.0309 37.5705 24.9082 37.5666 24.9082ZM34.803 26.8682C34.7774 26.8361 34.7585 26.7992 34.7474 26.7597C34.7363 26.7202 34.7332 26.6788 34.7383 26.6381C34.7434 26.5974 34.7567 26.5581 34.7772 26.5225C34.7977 26.487 34.8252 26.4559 34.8579 26.4311C34.9284 26.3857 35.0137 26.3691 35.0962 26.3848C35.1786 26.4005 35.2519 26.4473 35.3008 26.5154C35.3264 26.5475 35.3453 26.5844 35.3564 26.6239C35.3675 26.6634 35.3706 26.7048 35.3655 26.7455C35.3604 26.7862 35.3472 26.8255 35.3266 26.8611C35.3061 26.8966 35.2787 26.9277 35.246 26.9525C35.1763 26.9987 35.0916 27.0165 35.0093 27.0023C34.9269 26.9881 34.8531 26.9429 34.803 26.876V26.8682Z" fill="#263238"/>
<path d="M40.6798 23.6635C40.6927 23.7815 40.6802 23.9009 40.6433 24.0136C40.6064 24.1264 40.5458 24.23 40.4657 24.3176C40.3856 24.4051 40.2877 24.4746 40.1786 24.5213C40.0695 24.5681 39.9518 24.591 39.8331 24.5887C39.5817 24.5837 39.3408 24.4869 39.1559 24.3164C38.971 24.146 38.8549 23.9137 38.8296 23.6635C38.8162 23.5462 38.828 23.4273 38.8642 23.3149C38.9004 23.2025 38.9603 23.0992 39.0397 23.0117C39.1191 22.9243 39.2163 22.8549 39.3248 22.8081C39.4332 22.7613 39.5504 22.7382 39.6685 22.7404C39.9206 22.7446 40.1624 22.8408 40.3487 23.0108C40.5349 23.1807 40.6526 23.4129 40.6798 23.6635V23.6635Z" fill="white"/>
<path d="M39.5371 23.4537C39.5391 23.4723 39.537 23.4911 39.5312 23.5089C39.5254 23.5267 39.5159 23.543 39.5033 23.5569C39.4907 23.5708 39.4754 23.5818 39.4582 23.5894C39.4411 23.5969 39.4226 23.6008 39.4039 23.6007C39.3636 23.6004 39.3249 23.5852 39.2953 23.558C39.2656 23.5309 39.247 23.4937 39.2431 23.4537C39.2409 23.435 39.2427 23.416 39.2484 23.3981C39.2541 23.3802 39.2636 23.3637 39.2762 23.3498C39.2889 23.3358 39.3043 23.3248 39.3216 23.3173C39.3389 23.3099 39.3576 23.3063 39.3764 23.3067C39.4166 23.307 39.4553 23.3222 39.485 23.3493C39.5147 23.3765 39.5333 23.4136 39.5371 23.4537V23.4537Z" fill="#263238"/>
<path d="M40.2383 23.4537C40.2403 23.4725 40.2382 23.4915 40.2323 23.5094C40.2263 23.5274 40.2166 23.5438 40.2038 23.5577C40.191 23.5716 40.1754 23.5826 40.1581 23.5901C40.1407 23.5975 40.122 23.6011 40.1031 23.6007C40.0631 23.5996 40.0249 23.5841 39.9954 23.5571C39.9659 23.5301 39.947 23.4934 39.9424 23.4537C39.9401 23.4349 39.9419 23.4158 39.9477 23.3977C39.9536 23.3796 39.9632 23.363 39.9761 23.349C39.9889 23.3351 40.0047 23.3241 40.0222 23.3167C40.0397 23.3094 40.0586 23.306 40.0776 23.3067C40.1178 23.307 40.1565 23.3222 40.1862 23.3494C40.2159 23.3765 40.2344 23.4137 40.2383 23.4537V23.4537Z" fill="#263238"/>
<path d="M39.7981 24.2201C39.6043 24.2186 39.4178 24.1453 39.2748 24.0143C39.2614 24.0007 39.2539 23.9824 39.2539 23.9633C39.2539 23.9443 39.2614 23.926 39.2748 23.9124C39.2814 23.9055 39.2893 23.9 39.2981 23.8963C39.3068 23.8926 39.3163 23.8906 39.3258 23.8906C39.3353 23.8906 39.3447 23.8926 39.3535 23.8963C39.3623 23.9 39.3702 23.9055 39.3767 23.9124C39.4928 24.0193 39.6443 24.0794 39.8021 24.0809V24.0809C39.8753 24.0826 39.9481 24.0688 40.0156 24.0404C40.0832 24.012 40.144 23.9697 40.1941 23.9163C40.2073 23.9023 40.2256 23.8941 40.2449 23.8935C40.2545 23.8932 40.264 23.8949 40.2729 23.8983C40.2818 23.9017 40.29 23.9068 40.297 23.9134C40.3039 23.9199 40.3095 23.9278 40.3134 23.9365C40.3173 23.9452 40.3195 23.9546 40.3197 23.9642C40.32 23.9738 40.3184 23.9833 40.315 23.9922C40.3116 24.0011 40.3065 24.0093 40.2999 24.0163C40.2354 24.0837 40.1573 24.1367 40.0708 24.1718C39.9843 24.2069 39.8914 24.2234 39.7981 24.2201V24.2201Z" fill="#263238"/>
<path d="M35.4608 20.9098C35.477 21.0264 35.4677 21.1451 35.4335 21.2578C35.3993 21.3705 35.3411 21.4744 35.2628 21.5624C35.1845 21.6503 35.0881 21.7203 34.9801 21.7673C34.8722 21.8144 34.7553 21.8374 34.6376 21.8349C34.3841 21.829 34.141 21.7324 33.9526 21.5627C33.7642 21.3929 33.6428 21.1613 33.6105 20.9098C33.593 20.7937 33.6012 20.6751 33.6344 20.5625C33.6676 20.4499 33.7251 20.346 33.8029 20.258C33.8806 20.17 33.9766 20.1001 34.0843 20.0532C34.1919 20.0063 34.3085 19.9836 34.4259 19.9866C34.6799 19.9926 34.9235 20.0887 35.1131 20.2579C35.3027 20.427 35.426 20.6581 35.4608 20.9098Z" fill="white"/>
<path d="M34.3111 20.6939C34.3137 20.7123 34.3122 20.7311 34.3069 20.7489C34.3015 20.7667 34.2924 20.7831 34.2801 20.797C34.2678 20.811 34.2527 20.8221 34.2357 20.8297C34.2188 20.8373 34.2004 20.8411 34.1818 20.8409C34.1414 20.8399 34.1026 20.8246 34.0725 20.7977C34.0423 20.7707 34.0227 20.734 34.0171 20.6939C34.0143 20.6755 34.0155 20.6566 34.0207 20.6387C34.0259 20.6207 34.035 20.6041 34.0474 20.5901C34.0597 20.5761 34.075 20.5649 34.0921 20.5575C34.1093 20.55 34.1278 20.5464 34.1465 20.5469C34.187 20.5475 34.226 20.5627 34.2562 20.5897C34.2865 20.6167 34.306 20.6537 34.3111 20.6939V20.6939Z" fill="#263238"/>
<path d="M35.0081 20.6939C35.0107 20.7125 35.0092 20.7314 35.0037 20.7493C34.9982 20.7673 34.9889 20.7838 34.9764 20.7978C34.9639 20.8118 34.9486 20.8229 34.9314 20.8303C34.9142 20.8378 34.8955 20.8414 34.8768 20.8409C34.8365 20.8395 34.798 20.8241 34.7679 20.7972C34.7378 20.7703 34.7181 20.7338 34.7122 20.6939C34.7096 20.6753 34.7111 20.6564 34.7166 20.6385C34.722 20.6206 34.7313 20.604 34.7438 20.5901C34.7563 20.5761 34.7717 20.565 34.7889 20.5575C34.8061 20.5501 34.8247 20.5465 34.8435 20.5469C34.8839 20.5479 34.9226 20.5633 34.9528 20.5902C34.9829 20.6171 35.0025 20.6539 35.0081 20.6939Z" fill="#263238"/>
<path d="M35.0305 21.2818H34.1132C34.0958 21.2789 34.0799 21.2699 34.0685 21.2565C34.0571 21.243 34.0508 21.2259 34.0508 21.2083C34.0508 21.1906 34.0571 21.1735 34.0685 21.16C34.0799 21.1466 34.0958 21.1376 34.1132 21.1348H35.0305C35.0479 21.1376 35.0638 21.1466 35.0752 21.16C35.0867 21.1735 35.0929 21.1906 35.0929 21.2083C35.0929 21.2259 35.0867 21.243 35.0752 21.2565C35.0638 21.2699 35.0479 21.2789 35.0305 21.2818V21.2818Z" fill="#263238"/>
<path d="M30.8087 23.6635C30.8216 23.7815 30.8091 23.9009 30.7722 24.0136C30.7353 24.1264 30.6747 24.23 30.5946 24.3176C30.5145 24.4051 30.4166 24.4746 30.3075 24.5213C30.1985 24.5681 30.0807 24.591 29.962 24.5887C29.7106 24.5837 29.4697 24.4869 29.2848 24.3164C29.0999 24.146 28.9838 23.9137 28.9585 23.6635C28.9451 23.5462 28.9569 23.4273 28.9931 23.3149C29.0294 23.2025 29.0892 23.0992 29.1686 23.0117C29.248 22.9243 29.3452 22.8549 29.4537 22.8081C29.5621 22.7613 29.6793 22.7382 29.7974 22.7404C30.0494 22.7451 30.291 22.8413 30.4771 23.0112C30.6633 23.1811 30.7811 23.413 30.8087 23.6635V23.6635Z" fill="white"/>
<path d="M29.6582 23.4537C29.6602 23.4723 29.6581 23.4911 29.6523 23.5089C29.6465 23.5267 29.637 23.543 29.6244 23.5569C29.6118 23.5708 29.5965 23.5818 29.5793 23.5894C29.5622 23.5969 29.5437 23.6008 29.5249 23.6007C29.4847 23.6004 29.446 23.5852 29.4164 23.558C29.3867 23.5309 29.3681 23.4937 29.3642 23.4537C29.362 23.435 29.3638 23.416 29.3695 23.3981C29.3752 23.3802 29.3847 23.3637 29.3973 23.3498C29.41 23.3358 29.4254 23.3248 29.4427 23.3173C29.46 23.3099 29.4787 23.3063 29.4975 23.3067C29.5377 23.307 29.5764 23.3222 29.6061 23.3493C29.6358 23.3765 29.6543 23.4136 29.6582 23.4537V23.4537Z" fill="#263238"/>
<path d="M30.3613 23.4537C30.3636 23.4724 30.3618 23.4913 30.3561 23.5092C30.3504 23.5272 30.3409 23.5437 30.3283 23.5576C30.3156 23.5715 30.3001 23.5826 30.2828 23.59C30.2656 23.5975 30.2469 23.6011 30.2281 23.6007C30.1881 23.5995 30.1499 23.5841 30.1204 23.5571C30.0909 23.5301 30.072 23.4934 30.0673 23.4537C30.0651 23.435 30.0669 23.416 30.0726 23.3981C30.0783 23.3802 30.0878 23.3637 30.1004 23.3498C30.1131 23.3358 30.1286 23.3248 30.1459 23.3173C30.1631 23.3099 30.1818 23.3063 30.2006 23.3067C30.241 23.3065 30.2799 23.3216 30.3097 23.3488C30.3395 23.376 30.3579 23.4135 30.3613 23.4537V23.4537Z" fill="#263238"/>
<path d="M29.4605 24.2219C29.4515 24.222 29.4425 24.2204 29.4341 24.217C29.4257 24.2136 29.418 24.2086 29.4115 24.2023C29.3981 24.1887 29.3906 24.1704 29.3906 24.1513C29.3906 24.1323 29.3981 24.114 29.4115 24.1004C29.4751 24.0328 29.552 23.9791 29.6373 23.9426C29.7227 23.9062 29.8146 23.8879 29.9074 23.8887C30.1016 23.8908 30.2881 23.9648 30.4307 24.0965C30.4376 24.103 30.4431 24.111 30.4468 24.1197C30.4506 24.1285 30.4525 24.1379 30.4525 24.1474C30.4525 24.1569 30.4506 24.1664 30.4468 24.1751C30.4431 24.1839 30.4376 24.1918 30.4307 24.1984C30.4166 24.2115 30.3981 24.2187 30.3788 24.2187C30.3595 24.2187 30.341 24.2115 30.3269 24.1984C30.2109 24.0902 30.0582 24.03 29.8996 24.0298C29.8265 24.0282 29.7539 24.0418 29.6864 24.0698C29.6189 24.0978 29.558 24.1396 29.5076 24.1925C29.4961 24.2078 29.4794 24.2183 29.4605 24.2219V24.2219Z" fill="#263238"/>
<path d="M44.3032 16.8843C43.6919 15.5969 42.2654 14.7446 40.7273 14.7446H37.5922C37.377 14.7541 37.163 14.7066 36.9721 14.6068C36.7811 14.507 36.6199 14.3585 36.5048 14.1764C36.0678 13.3573 35.0254 12.7734 33.8419 12.7734C32.6584 12.7734 31.6866 13.3613 31.3417 14.1764C31.1987 14.5212 30.7892 14.7446 30.3189 14.7446H27.1839C25.6457 14.7446 24.3153 15.5969 23.8529 16.8843C23.8357 16.9292 23.829 16.9774 23.8333 17.0254C23.8383 17.1259 23.8818 17.2206 23.9547 17.2899C24.0277 17.3592 24.1245 17.3978 24.2251 17.3976H43.9916C44.0521 17.3978 44.1115 17.3823 44.1641 17.3527C44.2168 17.3232 44.261 17.2805 44.2923 17.2289C44.3236 17.1772 44.3411 17.1184 44.343 17.058C44.3449 16.9976 44.3312 16.9378 44.3032 16.8843V16.8843ZM33.9693 15.0993C33.7354 15.0944 33.5118 15.0023 33.3425 14.8409C33.1732 14.6795 33.0703 14.4607 33.0542 14.2273C33.0464 14.1149 33.0619 14.0021 33.0998 13.896C33.1377 13.79 33.1973 13.6929 33.2746 13.611C33.3519 13.529 33.4454 13.464 33.5491 13.42C33.6528 13.376 33.7645 13.354 33.8772 13.3554C34.1125 13.3578 34.3383 13.449 34.5094 13.6106C34.6805 13.7722 34.7843 13.9925 34.8001 14.2273C34.808 14.3404 34.7923 14.4538 34.7539 14.5605C34.7155 14.6671 34.6553 14.7646 34.5771 14.8466C34.4989 14.9287 34.4045 14.9935 34.2998 15.037C34.1952 15.0805 34.0826 15.1017 33.9693 15.0993V15.0993Z" fill="#263238"/>
<path d="M64.6213 75.3857C64.4679 75.4046 64.313 75.3662 64.1862 75.2779C64.1695 75.2572 64.1593 75.232 64.1568 75.2055C64.1544 75.179 64.1598 75.1523 64.1724 75.1289C64.1818 75.1088 64.1957 75.091 64.213 75.0771C64.2304 75.0632 64.2507 75.0534 64.2724 75.0486C64.5037 74.9839 65.0388 75.27 65.0564 75.2838C65.0631 75.2867 65.0686 75.2917 65.0721 75.2981C65.0757 75.3045 65.077 75.3118 65.076 75.319C65.0757 75.3256 65.0732 75.3318 65.0689 75.3368C65.0647 75.3418 65.0589 75.3452 65.0525 75.3465C64.9101 75.3718 64.7659 75.3849 64.6213 75.3857V75.3857ZM64.3626 75.1074C64.3411 75.1041 64.3193 75.1041 64.2979 75.1074C64.2845 75.1098 64.2719 75.1154 64.261 75.1235C64.2501 75.1317 64.2413 75.1423 64.2352 75.1544C64.2156 75.1975 64.2352 75.2191 64.2352 75.2308C64.3136 75.323 64.6781 75.3249 64.9407 75.2877C64.7604 75.1934 64.5645 75.1323 64.3626 75.1074Z" fill="#F1592A"/>
<path d="M65.0529 75.3451H65.0392C64.8569 75.2667 64.4767 74.9531 64.4845 74.7924C64.4845 74.7532 64.508 74.7061 64.6021 74.6963C64.6725 74.6903 64.7426 74.7113 64.7981 74.7551C64.9447 74.9087 65.044 75.1013 65.0843 75.3098C65.0867 75.3147 65.0879 75.32 65.0879 75.3255C65.0879 75.3309 65.0867 75.3363 65.0843 75.3412C65.0798 75.3444 65.0745 75.3464 65.0691 75.3471C65.0636 75.3478 65.058 75.3471 65.0529 75.3451V75.3451ZM64.6354 74.7571H64.6158C64.5551 74.7571 64.5531 74.7865 64.5531 74.7943C64.5531 74.8923 64.8099 75.1373 65 75.2432C64.9628 75.0758 64.8792 74.9223 64.7589 74.8002C64.7234 74.7735 64.6798 74.7597 64.6354 74.761V74.7571Z" fill="#F1592A"/>
<path d="M66.6274 75.3115H65.1872L64.6719 71.9766H66.112L66.6274 75.3115Z" fill="#FFC3BD"/>
<path d="M65.1812 75.1465H66.7487C66.7783 75.1473 66.8069 75.1571 66.8307 75.1746C66.8545 75.1921 66.8724 75.2165 66.882 75.2445L67.3091 76.5239C67.3182 76.5526 67.3205 76.583 67.3159 76.6127C67.3114 76.6424 67.3 76.6707 67.2828 76.6953C67.2655 76.7199 67.2429 76.7402 67.2165 76.7547C67.1902 76.7692 67.1608 76.7774 67.1308 76.7787C66.5626 76.7787 65.7396 76.7375 65.0264 76.7375C64.1937 76.7375 64.2681 76.7826 63.2904 76.7826C62.7025 76.7826 62.4694 76.185 62.7025 76.1301C63.8018 75.8852 63.9291 75.8577 64.8344 75.2582C64.9358 75.1862 65.0569 75.1472 65.1812 75.1465V75.1465Z" fill="#263238"/>
<path opacity="0.2" d="M64.6719 71.9805L64.9384 73.6994H66.379L66.1125 71.9805H64.6719Z" fill="black"/>
<path d="M66.4683 39.3984L65.4883 40.3882L66.9896 40.9194C66.9896 40.9194 67.5776 40.1119 67.1641 39.5592L66.4683 39.3984Z" fill="#FFC3BD"/>
<path d="M65.1602 41.7705L66.6596 41.99L66.9947 40.9179L65.4934 40.3867L65.1602 41.7705Z" fill="#FFC3BD"/>
<path d="M67.1212 27.2148C67.2485 27.4892 67.3504 27.7223 67.4523 27.9771C67.5542 28.2318 67.6483 28.4767 67.7462 28.7275C67.9324 29.2311 68.0989 29.7444 68.2537 30.2637C68.4112 30.789 68.542 31.322 68.6456 31.8606L68.72 32.2721L68.7808 32.6914C68.8023 32.8305 68.8161 32.9755 68.8278 33.1185C68.8396 33.2616 68.8592 33.3909 68.8592 33.5712V33.8259V34.0512L68.8474 34.2726L68.8259 34.4823C68.8004 34.7644 68.7632 35.029 68.7279 35.2974C68.6495 35.8264 68.5594 36.3437 68.4595 36.8649C68.2518 37.8897 68.0245 38.891 67.7501 39.9L65.9651 39.5474C66.0788 38.552 66.1963 37.5409 66.2904 36.5455C66.3355 36.0479 66.3844 35.5521 66.4119 35.0662C66.4236 34.8271 66.4373 34.5842 66.4373 34.3549V34.1825V34.0238V33.8651L66.4236 33.7358C66.4147 33.6325 66.4003 33.5298 66.3805 33.4281C66.3629 33.3184 66.3472 33.2087 66.3217 33.097L66.2492 32.7619L66.165 32.4249C66.0435 31.9742 65.9063 31.5216 65.7496 31.069C65.5928 30.6164 65.4184 30.1657 65.2343 29.719C65.1441 29.4936 65.0501 29.2703 64.9521 29.0508C64.8541 28.8314 64.7562 28.6021 64.6602 28.412L67.1212 27.2148Z" fill="#263238"/>
<path d="M60.3555 38.6973C60.3555 38.6973 60.5945 49.717 61.2411 54.106C61.9152 58.6715 64.3762 73.3651 64.3762 73.3651H66.8137C66.8137 73.3651 65.9398 59.3808 65.6615 54.8878C65.3578 49.9893 65.4245 38.6973 65.4245 38.6973H60.3555Z" fill="#F1592A"/>
<path d="M63.7894 72.3926C63.7777 72.3926 64.0403 73.4059 64.0403 73.4059H67.0078L66.9862 72.5023L63.7894 72.3926Z" fill="#263238"/>
<path d="M59.8031 20.8319C59.8106 20.7098 59.7519 20.6069 59.672 20.6019C59.592 20.597 59.5211 20.692 59.5136 20.8141C59.5061 20.9362 59.5648 21.0391 59.6448 21.0441C59.7247 21.049 59.7956 20.954 59.8031 20.8319Z" fill="#263238"/>
<path d="M59.7444 21.043C59.5854 21.4166 59.3771 21.7673 59.125 22.0857C59.2073 22.1455 59.3018 22.1863 59.4018 22.2053C59.5018 22.2243 59.6047 22.2209 59.7032 22.1954L59.7444 21.043Z" fill="#ED847E"/>
<path d="M60.264 20.1463C60.2488 20.1463 60.2339 20.1423 60.2209 20.1345C60.1507 20.0794 60.0683 20.042 59.9806 20.0256C59.8928 20.0092 59.8025 20.0143 59.7171 20.0405C59.7084 20.0439 59.699 20.0456 59.6897 20.0454C59.6803 20.0452 59.671 20.0431 59.6624 20.0393C59.6538 20.0354 59.6461 20.0299 59.6397 20.0231C59.6333 20.0162 59.6283 20.0081 59.625 19.9993C59.6219 19.9903 59.6206 19.9808 59.6212 19.9713C59.6218 19.9617 59.6243 19.9525 59.6285 19.9439C59.6327 19.9353 59.6385 19.9277 59.6456 19.9214C59.6528 19.9151 59.6611 19.9103 59.6701 19.9072C59.7775 19.8722 59.8918 19.864 60.0031 19.8831C60.1145 19.9022 60.2195 19.9482 60.3091 20.0169C60.3239 20.0286 60.3336 20.0455 60.3361 20.0641C60.3387 20.0828 60.3339 20.1017 60.3228 20.1169C60.3159 20.126 60.307 20.1333 60.2968 20.1384C60.2866 20.1435 60.2754 20.1462 60.264 20.1463V20.1463Z" fill="#263238"/>
<path d="M63.6177 22.1699C63.3747 23.2241 63.1004 25.1541 63.8136 25.8556C63.8136 25.8556 63.4883 26.9234 61.5309 26.9234C59.3755 26.9234 60.5414 25.8556 60.5414 25.8556C61.717 25.5754 61.7268 24.7054 61.5505 23.8864L63.6177 22.1699Z" fill="#FFC3BD"/>
<path d="M64.5712 26.3488C64.7828 25.9197 65.016 25.4259 64.5712 25.2731C64.0853 25.1026 61.3989 24.9302 60.4565 25.2476C60.2047 25.3118 59.9887 25.4734 59.8561 25.6968C59.7234 25.9202 59.6849 26.1872 59.7491 26.4389L64.5712 26.3488Z" fill="#F1592A"/>
<path d="M66.6335 26.2684C67.8738 26.8405 68.5047 31.1786 68.5047 31.1786L66.0065 31.9624C65.5602 30.8146 65.1981 29.6358 64.9229 28.4355C64.5389 26.625 65.3638 25.6844 66.6335 26.2684Z" fill="#263238"/>
<path d="M51.2792 33.0191L50.1267 32.0273L49.0898 33.5365C49.0898 33.5365 50.0208 34.2833 51.0498 33.9775L51.2792 33.0191Z" fill="#FFC3BD"/>
<path d="M48.608 31.5469L48.4492 33.0384L49.0901 33.5363L50.127 32.0271L48.608 31.5469Z" fill="#FFC3BD"/>
<path d="M63.8793 20.5646C63.7343 22.0616 63.7245 22.9433 62.9408 23.7114C62.6883 23.9615 62.3726 24.1382 62.0275 24.2226C61.6823 24.307 61.3207 24.296 60.9813 24.1908C60.642 24.0855 60.3376 23.8899 60.1008 23.625C59.8641 23.36 59.7038 23.0357 59.6372 22.6866C59.3629 21.3425 59.6372 19.1205 61.1322 18.5249C61.4505 18.3876 61.7992 18.3365 62.1435 18.3765C62.4877 18.4166 62.8154 18.5464 63.0936 18.753C63.3719 18.9596 63.5909 19.2357 63.7288 19.5537C63.8667 19.8716 63.9186 20.2203 63.8793 20.5646V20.5646Z" fill="#FFC3BD"/>
<path d="M60.8136 21.0451C60.6823 20.0105 60.7038 19.6186 61.2564 19.3894C60.6823 19.2757 60.1846 19.2601 59.9475 18.925C59.7104 18.5899 59.6536 17.7337 60.8057 17.3418C60.6999 17.5377 61.035 17.9453 62.095 17.5769C63.1551 17.2086 64.6991 17.1694 64.8382 18.247C65.3986 18.0511 66.3371 19.7813 65.2301 21.0451C64.3072 22.1032 63.6919 22.834 63.5097 23.3964C63.5012 23.4227 63.4872 23.4469 63.4686 23.4675C63.45 23.488 63.4273 23.5044 63.4019 23.5155C63.3765 23.5266 63.3491 23.5322 63.3214 23.5319C63.2937 23.5317 63.2664 23.5255 63.2413 23.5139C62.8592 23.3356 62.1754 23.4885 61.8697 23.5708C61.8266 23.5819 61.7811 23.5781 61.7405 23.5599C61.6999 23.5418 61.6667 23.5104 61.6463 23.4708C61.4484 23.0633 60.9135 21.8994 60.8136 21.0451Z" fill="#263238"/>
<path d="M64.6328 18.3778C64.6328 18.3778 65.0875 17.7369 65.9597 18.2132C65.5113 18.1923 65.0626 18.2479 64.6328 18.3778Z" fill="#263238"/>
<path d="M64.707 18.5157C64.707 18.5157 65.3401 18.1237 64.8462 17.3848C64.8765 17.7673 64.8291 18.1519 64.707 18.5157Z" fill="#263238"/>
<path d="M61.5476 21.0891C61.4788 21.4597 61.295 21.7991 61.0223 22.0593C60.6597 22.4023 60.3461 22.1593 60.3363 21.7183C60.3265 21.3263 60.5029 20.6638 60.9243 20.4874C61.3457 20.311 61.6221 20.6461 61.5476 21.0891Z" fill="#FFC3BD"/>
<path opacity="0.3" d="M60.5586 44.8203C60.6997 48.1082 60.9211 51.9251 61.2424 54.1059C61.3659 54.9367 61.5461 56.1006 61.7617 57.4507C62.6277 52.7246 63.145 46.6347 60.5586 44.8203Z" fill="black"/>
<path d="M59.4774 75.3857C59.2931 75.3857 59.1147 75.3602 59.0579 75.2779C59.0431 75.2559 59.0352 75.2299 59.0352 75.2034C59.0352 75.1769 59.0431 75.1509 59.0579 75.1289C59.0842 75.0895 59.1239 75.061 59.1696 75.0486C59.4107 74.9839 59.9046 75.27 59.9262 75.2838C59.9323 75.2871 59.937 75.2924 59.9395 75.2989C59.942 75.3054 59.9421 75.3125 59.9399 75.319C59.9385 75.3258 59.9352 75.332 59.9303 75.3369C59.9254 75.3418 59.9192 75.3451 59.9125 75.3465C59.7688 75.3716 59.6232 75.3847 59.4774 75.3857ZM59.2598 75.1074C59.2377 75.1041 59.2152 75.1041 59.1932 75.1074C59.1791 75.1101 59.1657 75.1156 59.1539 75.1237C59.1421 75.1318 59.1321 75.1423 59.1245 75.1544C59.0991 75.1975 59.1069 75.2191 59.1148 75.2308C59.1794 75.323 59.542 75.3249 59.8125 75.2877C59.6419 75.1919 59.4541 75.1306 59.2598 75.1074V75.1074Z" fill="#F1592A"/>
<path d="M59.9142 75.346H59.9004C59.7299 75.2676 59.3948 74.954 59.4281 74.7933C59.4281 74.7541 59.4634 74.7071 59.5574 74.6973C59.5924 74.6929 59.6279 74.6958 59.6617 74.706C59.6954 74.7161 59.7267 74.7332 59.7534 74.7561C59.9318 74.907 59.9494 75.2951 59.9494 75.3108C59.9493 75.3168 59.9478 75.3228 59.9451 75.3282C59.9424 75.3336 59.9385 75.3384 59.9338 75.3421C59.9277 75.3452 59.9209 75.3466 59.9142 75.346ZM59.5829 74.758H59.5633C59.5006 74.758 59.4967 74.7875 59.4947 74.7953C59.4751 74.8933 59.7005 75.1383 59.875 75.2441C59.8641 75.082 59.8032 74.9272 59.7005 74.8012C59.6672 74.7746 59.6255 74.7607 59.5829 74.762V74.758Z" fill="#F1592A"/>
<path d="M61.4969 75.3115H60.0587L60.0312 71.9766H61.4714L61.4969 75.3115Z" fill="#FFC3BD"/>
<path d="M60.0727 75.1465H61.6402C61.6682 75.1461 61.6955 75.1558 61.7171 75.1737C61.7386 75.1917 61.7531 75.2168 61.7577 75.2445L61.9988 76.524C62.0042 76.5555 62.0027 76.5878 61.9942 76.6187C61.9858 76.6495 61.9706 76.6781 61.9499 76.7024C61.9291 76.7268 61.9032 76.7462 61.8741 76.7594C61.8449 76.7726 61.8132 76.7792 61.7813 76.7787C61.215 76.7787 60.396 76.7375 59.6847 76.7375C58.85 76.7375 58.1289 76.7826 57.1512 76.7826C56.5634 76.7826 56.4184 76.185 56.6672 76.1301C57.8017 75.8852 58.7226 75.8578 59.716 75.2582C59.8226 75.1893 59.9459 75.1507 60.0727 75.1465Z" fill="#263238"/>
<path opacity="0.2" d="M60.0312 71.9805L60.043 73.6994H61.4836L61.4718 71.9805H60.0312Z" fill="black"/>
<path d="M57.7872 38.6973C57.7872 38.6973 57.1994 49.4603 57.2111 53.8494C57.2111 58.4148 59.5232 73.3651 59.5232 73.3651H61.9607C61.9607 73.3651 61.3259 58.6813 61.6002 54.2021C61.8921 49.3035 63.3068 38.7012 63.3068 38.7012L57.7872 38.6973Z" fill="#F1592A"/>
<path d="M59.0868 72.3926C59.075 72.3926 59.1868 73.4059 59.1868 73.4059H62.1542L62.2679 72.5023L59.0868 72.3926Z" fill="#263238"/>
<path d="M58.3108 26.2554C58.3108 26.2554 55.8576 32.453 56.9255 43.1651H65.8839C65.978 41.9894 65.0414 31.7495 66.3777 26.1809C65.5301 26.0168 64.6726 25.9082 63.8109 25.8557C62.721 25.7929 61.6285 25.7929 60.5387 25.8557C59.7869 25.9313 59.042 26.0649 58.3108 26.2554V26.2554Z" fill="#263238"/>
<path opacity="0.2" d="M57.044 31.8646C56.9107 32.8443 56.801 33.9632 56.7305 35.1956C58.4704 33.5968 59.0661 29.6133 59.0661 29.6133L57.044 31.8646Z" fill="black"/>
<path d="M59.2314 29.2061C58.8787 30.1231 58.5221 31.0068 58.1303 31.8944C57.7384 32.782 57.3328 33.6579 56.8762 34.5357L56.6979 34.8629L56.6078 35.0275C56.5706 35.0941 56.5745 35.098 56.4726 35.2685C56.2969 35.5448 56.0534 35.7714 55.7653 35.9268C55.527 36.0521 55.2669 36.1306 54.9991 36.1581C54.631 36.1918 54.2599 36.1619 53.9019 36.0699C53.6188 35.9998 53.3411 35.9094 53.0711 35.7995C52.5863 35.5988 52.1167 35.363 51.6662 35.0941C51.4448 34.9667 51.2331 34.8296 51.0235 34.7022C50.8138 34.5749 50.6238 34.4122 50.3984 34.2555L51.4565 32.6331C52.2158 33.0515 53.0129 33.3972 53.8372 33.6657C54.0121 33.7198 54.191 33.7604 54.3721 33.7872C54.4755 33.8092 54.5823 33.8092 54.6856 33.7872C54.6974 33.7872 54.6601 33.7754 54.5955 33.8087C54.5167 33.8489 54.4494 33.9082 54.3995 33.9812C54.3584 34.0497 54.4113 33.9478 54.4289 33.9087L54.4995 33.7539L54.6406 33.4462C55.0128 32.6154 55.3577 31.7553 55.6928 30.899C56.0278 30.0427 56.3531 29.1493 56.6529 28.2852L59.2314 29.2061Z" fill="#263238"/>
<path d="M60.2065 26.905C60.665 28.1864 57.4202 33.3455 57.4202 33.3455L55.4961 31.439C55.4961 31.439 55.9879 29.8186 56.6365 27.867C57.2752 25.9488 59.7696 25.6803 60.2065 26.905Z" fill="#263238"/>
</g>
<defs>
<clipPath id="clip0_617_19774">
<rect width="85" height="85" fill="white"/>
</clipPath>
</defs>
</svg>
