<svg width="85" height="85" viewBox="0 0 85 85" fill="none" xmlns="http://www.w3.org/2000/svg">
<path d="M43.589 84.0011C64.9313 84.0011 82.2327 75.3504 82.2327 64.6793C82.2327 54.0081 64.9313 45.3574 43.589 45.3574C22.2467 45.3574 4.94531 54.0081 4.94531 64.6793C4.94531 75.3504 22.2467 84.0011 43.589 84.0011Z" fill="#605757"/>
<path d="M55.0312 51.9619L22.6515 70.6938C21.7077 71.2399 20.0591 71.1717 18.9686 70.5419L14.6747 68.0725C13.5859 67.4444 13.4664 66.4921 14.4102 65.946L46.7985 47.2073C47.7423 46.6629 49.3909 46.7311 50.4814 47.3609L54.7667 49.8355C55.8573 50.4635 55.975 51.4158 55.0312 51.9619Z" fill="#E0E0E0"/>
<path d="M66.5677 75.1872C71.91 75.1872 76.2408 72.6863 76.2408 69.6014C76.2408 66.5165 71.91 64.0156 66.5677 64.0156C61.2253 64.0156 56.8945 66.5165 56.8945 69.6014C56.8945 72.6863 61.2253 75.1872 66.5677 75.1872Z" fill="#E0E0E0"/>
<path d="M12.0719 61.9936C13.2768 62.6882 13.2768 63.8146 12.0719 64.5092C10.867 65.2038 8.91805 65.2038 7.71488 64.5092C6.51171 63.8146 6.51171 62.6882 7.71488 61.9936C8.91805 61.299 10.8773 61.299 12.0719 61.9936Z" fill="#E0E0E0"/>
<path d="M44.0966 68.4278L26.8597 78.2869C26.0866 78.7324 24.7367 78.676 23.8441 78.1623L21.8167 76.9899C20.9241 76.4779 20.8268 75.6963 21.5999 75.2491L38.8454 65.3917C39.6185 64.9446 40.9684 65.0009 41.861 65.5163L43.8884 66.687C44.7725 67.2024 44.8697 67.9823 44.0966 68.4278Z" fill="#E0E0E0"/>
<path d="M43.1165 72.5101L36.1996 76.5206C35.4265 76.9661 34.0765 76.9098 33.184 76.3944L31.1565 75.2236C30.2639 74.7116 30.1667 73.93 30.9398 73.4829L37.8567 69.4723C38.6298 69.0269 39.9798 69.0832 40.8723 69.5986L42.9015 70.7693C43.7941 71.2898 43.8896 72.0681 43.1165 72.5101Z" fill="#E0E0E0"/>
<path d="M9.69863 57.6894C9.69863 57.6894 12.0213 55.4196 10.6987 51.619C9.95804 49.4891 7.50221 47.9344 6.09766 47.7773C6.56005 48.3279 6.92903 48.9505 7.1899 49.6205L8.95113 50.7912L7.33155 50.2793L7.67287 51.665C7.67287 51.665 9.17982 52.5764 9.40168 52.7743L7.77868 52.3494C7.77868 52.3494 7.9135 56.278 9.69863 57.6894Z" fill="#F1592A"/>
<path opacity="0.4" d="M9.69863 57.6894C9.69863 57.6894 12.0213 55.4196 10.6987 51.619C9.95804 49.4891 7.50221 47.9344 6.09766 47.7773C6.56005 48.3279 6.92903 48.9505 7.1899 49.6205L8.95113 50.7912L7.33155 50.2793L7.67287 51.665C7.67287 51.665 9.17982 52.5764 9.40168 52.7743L7.77868 52.3494C7.77868 52.3494 7.9135 56.278 9.69863 57.6894Z" fill="black"/>
<path d="M9.69793 57.6896C9.69793 57.6896 10.8926 52.9417 9.12109 50.1719C9.12109 50.1719 11.2066 52.6158 9.69793 57.6896Z" fill="white"/>
<path d="M7.03917 58.331L9.8807 58.2969H9.90971L12.7529 58.331C12.7529 58.331 12.7854 61.8347 11.7068 63.2597C11.4081 63.6386 10.7101 63.9031 9.89606 63.9031C9.082 63.9031 8.38057 63.6369 8.08362 63.2563C7.00674 61.8313 7.03917 58.331 7.03917 58.331Z" fill="#37474F"/>
<path d="M7.03906 58.3309C7.03906 59.1842 8.31903 59.8668 9.89766 59.8668C11.4763 59.8668 12.7545 59.1842 12.7545 58.3309C12.7545 57.4776 11.4746 56.7949 9.89766 56.7949C8.32074 56.7949 7.03906 57.4912 7.03906 58.3309Z" fill="#455A64"/>
<path d="M9.89561 57.9246C8.91259 57.9246 8.07976 58.2403 7.78622 58.6772C7.71507 58.5773 7.67526 58.4585 7.67188 58.3359C7.67188 57.73 8.66684 57.2402 9.89049 57.2402C11.1141 57.2402 12.1091 57.73 12.1091 58.3359C12.1056 58.4582 12.0665 58.5768 11.9965 58.6772C11.7115 58.2403 10.8752 57.9246 9.89561 57.9246Z" fill="#263238"/>
<path d="M9.89845 59.4291C11.0634 59.4291 12.0078 59.0921 12.0078 58.6764C12.0078 58.2608 11.0634 57.9238 9.89845 57.9238C8.73347 57.9238 7.78906 58.2608 7.78906 58.6764C7.78906 59.0921 8.73347 59.4291 9.89845 59.4291Z" fill="#E0E0E0"/>
<path d="M9.85905 58.8658C9.85905 58.8658 10.9615 58.8231 11.907 57.3606C12.2961 56.7564 12.4838 56.4407 12.4838 56.4407L10.9479 56.3263L12.6682 55.8963L13.4788 54.6539L12.0521 54.548C12.0521 54.548 13.1153 54.1743 13.8747 54.1709C13.8747 54.1709 15.1905 51.8448 15.5814 51.5137C14.5859 51.5751 13.6129 51.8355 12.7198 52.2792C11.8266 52.723 11.0315 53.3413 10.3813 54.0975C8.21216 56.6557 9.53821 58.9307 9.85905 58.8658Z" fill="#F1592A"/>
<path d="M9.85823 58.8665C9.85823 58.8665 9.17558 54.7177 13.565 52.2227C13.565 52.2227 8.99638 54.4191 9.85823 58.8665Z" fill="white"/>
<path d="M9.86055 58.8675C9.86055 58.8675 8.86388 58.9323 7.87404 57.7019C7.46615 57.1899 7.26648 56.9253 7.26648 56.9253L8.63178 56.6779L7.0395 56.4526L6.18619 55.4082L7.46445 55.1778C7.46445 55.1778 6.46948 54.9423 5.78513 55.0071C5.78513 55.0071 4.37887 53.0325 4 52.7697C4.9037 52.7315 5.8059 52.8748 6.65331 53.191C7.50072 53.5073 8.27617 53.9902 8.93385 54.6112C11.1405 56.7188 10.1575 58.8965 9.86055 58.8675Z" fill="#F1592A"/>
<path opacity="0.2" d="M9.86055 58.8675C9.86055 58.8675 8.86388 58.9323 7.87404 57.7019C7.46615 57.1899 7.26648 56.9253 7.26648 56.9253L8.63178 56.6779L7.0395 56.4526L6.18619 55.4082L7.46445 55.1778C7.46445 55.1778 6.46948 54.9423 5.78513 55.0071C5.78513 55.0071 4.37887 53.0325 4 52.7697C4.9037 52.7315 5.8059 52.8748 6.65331 53.191C7.50072 53.5073 8.27617 53.9902 8.93385 54.6112C11.1405 56.7188 10.1575 58.8965 9.86055 58.8675Z" fill="black"/>
<path d="M9.86023 58.8667C9.86023 58.8667 10.0923 55.0592 5.89062 53.2246C5.89062 53.2246 10.2135 54.7691 9.86023 58.8667Z" fill="white"/>
<path d="M42.2793 61.7904C42.2143 61.7903 42.1511 61.7688 42.0996 61.7291C42.048 61.6895 42.011 61.6339 41.9943 61.5711C41.9776 61.5083 41.9821 61.4417 42.0071 61.3816C42.032 61.3216 42.0762 61.2715 42.1325 61.2391L54.3656 54.2283C54.5541 54.121 54.7112 53.9663 54.8216 53.7795C54.9319 53.5928 54.9915 53.3805 54.9946 53.1636C54.9978 52.9468 54.9442 52.7329 54.8392 52.543C54.7343 52.3532 54.5816 52.1941 54.3963 52.0814L53.427 51.4994C52.9099 51.1894 52.3193 51.0234 51.7164 51.0186C51.1135 51.0138 50.5203 51.1704 49.9984 51.4721L48.9351 52.0797C48.5454 52.2815 48.1129 52.3869 47.6739 52.3869C47.235 52.3869 46.8025 52.2815 46.4127 52.0797C46.027 51.8578 45.8052 51.5302 45.8052 51.182C45.8052 50.8338 46.027 50.4994 46.4127 50.2826L48.1927 49.2586C48.4964 49.0825 48.7487 48.8299 48.9245 48.526C49.1002 48.2221 49.1933 47.8775 49.1945 47.5264V41.4867C49.1945 41.4084 49.2256 41.3333 49.281 41.2779C49.3364 41.2225 49.4115 41.1914 49.4898 41.1914V41.1914C49.5286 41.191 49.567 41.1982 49.603 41.2126C49.639 41.227 49.6718 41.2484 49.6996 41.2755C49.7273 41.3026 49.7494 41.3349 49.7647 41.3705C49.7799 41.4062 49.788 41.4445 49.7884 41.4833V47.523C49.787 47.9775 49.6666 48.4238 49.439 48.8172C49.2114 49.2107 48.8847 49.5376 48.4914 49.7655L46.7114 50.7895C46.5134 50.9038 46.3991 51.0455 46.3991 51.1769C46.3991 51.3083 46.5134 51.4499 46.7114 51.5643C47.0116 51.7133 47.3422 51.7908 47.6773 51.7908C48.0125 51.7908 48.3431 51.7133 48.6433 51.5643L49.698 50.955C50.3114 50.6011 51.0083 50.4176 51.7165 50.4236C52.4246 50.4296 53.1183 50.6249 53.7256 50.9892L54.695 51.5694C54.9689 51.7342 55.1951 51.9677 55.3512 52.2466C55.5073 52.5256 55.5879 52.8404 55.5852 53.1601C55.5824 53.4798 55.4963 53.7932 55.3354 54.0694C55.1745 54.3456 54.9444 54.5751 54.6677 54.7352L42.4329 61.7579C42.3856 61.7824 42.3325 61.7936 42.2793 61.7904V61.7904Z" fill="#F1592A"/>
<path opacity="0.2" d="M42.2793 61.7904C42.2143 61.7903 42.1511 61.7688 42.0996 61.7291C42.048 61.6895 42.011 61.6339 41.9943 61.5711C41.9776 61.5083 41.9821 61.4417 42.0071 61.3816C42.032 61.3216 42.0762 61.2715 42.1325 61.2391L54.3656 54.2283C54.5541 54.121 54.7112 53.9663 54.8216 53.7795C54.9319 53.5928 54.9915 53.3805 54.9946 53.1636C54.9978 52.9468 54.9442 52.7329 54.8392 52.543C54.7343 52.3532 54.5816 52.1941 54.3963 52.0814L53.427 51.4994C52.9099 51.1894 52.3193 51.0234 51.7164 51.0186C51.1135 51.0138 50.5203 51.1704 49.9984 51.4721L48.9351 52.0797C48.5454 52.2815 48.1129 52.3869 47.6739 52.3869C47.235 52.3869 46.8025 52.2815 46.4127 52.0797C46.027 51.8578 45.8052 51.5302 45.8052 51.182C45.8052 50.8338 46.027 50.4994 46.4127 50.2826L48.1927 49.2586C48.4964 49.0825 48.7487 48.8299 48.9245 48.526C49.1002 48.2221 49.1933 47.8775 49.1945 47.5264V41.4867C49.1945 41.4084 49.2256 41.3333 49.281 41.2779C49.3364 41.2225 49.4115 41.1914 49.4898 41.1914V41.1914C49.5286 41.191 49.567 41.1982 49.603 41.2126C49.639 41.227 49.6718 41.2484 49.6996 41.2755C49.7273 41.3026 49.7494 41.3349 49.7647 41.3705C49.7799 41.4062 49.788 41.4445 49.7884 41.4833V47.523C49.787 47.9775 49.6666 48.4238 49.439 48.8172C49.2114 49.2107 48.8847 49.5376 48.4914 49.7655L46.7114 50.7895C46.5134 50.9038 46.3991 51.0455 46.3991 51.1769C46.3991 51.3083 46.5134 51.4499 46.7114 51.5643C47.0116 51.7133 47.3422 51.7908 47.6773 51.7908C48.0125 51.7908 48.3431 51.7133 48.6433 51.5643L49.698 50.955C50.3114 50.6011 51.0083 50.4176 51.7165 50.4236C52.4246 50.4296 53.1183 50.6249 53.7256 50.9892L54.695 51.5694C54.9689 51.7342 55.1951 51.9677 55.3512 52.2466C55.5073 52.5256 55.5879 52.8404 55.5852 53.1601C55.5824 53.4798 55.4963 53.7932 55.3354 54.0694C55.1745 54.3456 54.9444 54.5751 54.6677 54.7352L42.4329 61.7579C42.3856 61.7824 42.3325 61.7936 42.2793 61.7904V61.7904Z" fill="black"/>
<path d="M49.4782 43.8682C49.2844 43.8682 49.0984 43.7913 48.9611 43.6544C48.8239 43.5175 48.7465 43.3317 48.7461 43.1378V41.0898H50.2104V43.1378C50.2099 43.3317 50.1326 43.5175 49.9953 43.6544C49.8581 43.7913 49.6721 43.8682 49.4782 43.8682V43.8682Z" fill="#F1592A"/>
<path opacity="0.4" d="M49.4782 43.8682C49.2844 43.8682 49.0984 43.7913 48.9611 43.6544C48.8239 43.5175 48.7465 43.3317 48.7461 43.1378V41.0898H50.2104V43.1378C50.2099 43.3317 50.1326 43.5175 49.9953 43.6544C49.8581 43.7913 49.6721 43.8682 49.4782 43.8682V43.8682Z" fill="black"/>
<path d="M45.3576 54.066L40.2701 56.9672C39.8746 57.1932 39.4269 57.3121 38.9714 57.3121C38.5159 57.3121 38.0682 57.1932 37.6727 56.9672L34.413 55.0899L34.041 54.8749C33.6545 54.6514 33.3336 54.3301 33.1104 53.9434C32.8872 53.5567 32.7697 53.1181 32.7695 52.6717V43.2852L40.3998 38.918V48.5058C40.4 48.8915 40.5016 49.2704 40.6945 49.6044C40.8875 49.9384 41.1649 50.2158 41.4989 50.4087L45.3593 52.6375C45.4847 52.71 45.5888 52.8142 45.6611 52.9396C45.7334 53.0651 45.7714 53.2074 45.7712 53.3522C45.771 53.497 45.7327 53.6393 45.6601 53.7646C45.5875 53.8899 45.4832 53.9938 45.3576 54.066V54.066Z" fill="#263238"/>
<path d="M39.1836 57.2949C39.5667 57.2626 39.9379 57.146 40.2707 56.9536L45.3582 54.0523C45.4836 53.98 45.5879 53.8759 45.6603 53.7506C45.7328 53.6252 45.7709 53.4829 45.7709 53.3381C45.7709 53.1933 45.7328 53.051 45.6603 52.9256C45.5879 52.8002 45.4836 52.6962 45.3582 52.6239L42.7214 51.1016H39.1836V57.2949Z" fill="#37474F"/>
<path d="M45.2685 52.0078L45.4102 52.1205C45.5238 52.2114 45.6154 52.3267 45.6783 52.4579C45.7413 52.5891 45.7739 52.7327 45.7737 52.8782V53.3526H45.2617L45.2685 52.0078Z" fill="#37474F"/>
<path d="M40.993 39.6426V48.2747C40.993 48.6479 41.0912 49.0146 41.2779 49.3378C41.4645 49.6611 41.7329 49.9295 42.0562 50.1161L45.2697 52.0122C45.3914 52.082 45.4924 52.1827 45.5627 52.304C45.6329 52.4254 45.6699 52.5631 45.6699 52.7034C45.6699 52.8436 45.6329 52.9813 45.5627 53.1027C45.4924 53.2241 45.3914 53.3247 45.2697 53.3946L44.9045 53.6028L40.3393 56.1934C39.9569 56.4122 39.5239 56.5274 39.0832 56.5274C38.6426 56.5274 38.2096 56.4122 37.8272 56.1934L34.6648 54.3264C34.3415 54.1397 34.0731 53.8713 33.8865 53.5481C33.6998 53.2248 33.6016 52.8582 33.6016 52.4849V43.8494L40.993 39.6426Z" fill="#455A64"/>
<path d="M40.993 48.2747V39.6426L33.6016 43.8494V52.4764C33.6016 52.8496 33.6998 53.2163 33.8865 53.5395C34.0731 53.8628 34.3415 54.1312 34.6648 54.3178L41.947 50.0427C41.6544 49.8496 41.4142 49.5871 41.2478 49.2786C41.0813 48.9701 40.9938 48.6252 40.993 48.2747V48.2747Z" fill="#263238"/>
<path d="M17.6044 58.901L16.7647 59.3874V60.9233C16.2241 60.9241 15.6933 60.7784 15.2288 60.5018L15.1639 60.4625C14.9714 60.348 14.8041 60.1957 14.6721 60.0147C14.5401 59.8337 14.4461 59.6279 14.3959 59.4095C14.367 59.3155 14.352 59.2178 14.3516 59.1194V57.0254L17.6044 58.901Z" fill="#263238"/>
<path d="M54.1123 2.46252L54.0457 2.42156C53.5808 2.1457 53.0503 2.0001 52.5097 2.00003V2.00003C52.3373 1.99877 52.1676 2.04354 52.0182 2.12973L15.8276 22.9488C15.3823 23.2057 15.0125 23.5754 14.7554 24.0206C14.4984 24.4658 14.3631 24.9708 14.3633 25.4849V57.025L17.6059 58.9023L51.996 39.1293C52.4412 38.8723 52.8109 38.5026 53.0679 38.0575C53.325 37.6123 53.4603 37.1073 53.4603 36.5933V3.88926H54.9229C54.9228 3.60163 54.848 3.31896 54.7059 3.06889C54.5638 2.81881 54.3593 2.60988 54.1123 2.46252V2.46252Z" fill="#37474F"/>
<path d="M14.6661 24.1719C14.4623 24.58 14.356 25.0298 14.3555 25.486V57.0261L17.5981 58.9034L18.8149 58.2002V26.7455L14.6661 24.1719Z" fill="#263238"/>
<path d="M15.8164 57.8679V59.962C15.8166 60.1302 15.8611 60.2955 15.9454 60.4411C16.0296 60.5867 16.1507 60.7076 16.2965 60.7917C16.4423 60.8757 16.6076 60.9199 16.7758 60.9199C16.9441 60.9198 17.1094 60.8755 17.2551 60.7914L53.4577 39.9706C53.9029 39.7136 54.2726 39.3439 54.5296 38.8987C54.7866 38.4536 54.922 37.9486 54.922 37.4345V35.291L15.8164 57.8679Z" fill="#37474F"/>
<path d="M54.922 3.80533C54.9221 3.63692 54.8778 3.47146 54.7937 3.32559C54.7095 3.17972 54.5885 3.05857 54.4426 2.97433C54.2968 2.89009 54.1314 2.84573 53.963 2.8457C53.7946 2.84568 53.6291 2.89 53.4833 2.9742L17.2807 23.795C16.8354 24.0519 16.4656 24.4215 16.2086 24.8667C15.9515 25.3119 15.8163 25.817 15.8164 26.3311V57.8695L54.922 35.2908" fill="#455A64"/>
<path d="M52.8228 5.25785H52.8143C52.649 5.25644 52.4858 5.29447 52.3381 5.36878L18.3132 24.9284C17.9198 25.1555 17.5932 25.4821 17.3661 25.8755C17.1391 26.2688 17.0195 26.715 17.0196 27.1692V54.0417C17.0186 54.1591 17.0425 54.2754 17.0895 54.383V54.383C17.1378 54.4912 17.208 54.5881 17.2958 54.6676C17.3836 54.7471 17.4869 54.8075 17.5993 54.8449C17.7116 54.8823 17.8306 54.8959 17.9485 54.8849C18.0664 54.8738 18.1807 54.8383 18.2842 54.7807L52.316 35.2142C52.709 34.9873 53.0355 34.6609 53.2626 34.2679C53.4896 33.8749 53.6093 33.429 53.6096 32.9751V6.10263C53.6081 5.88886 53.5264 5.68344 53.3807 5.52701C53.235 5.37057 53.0359 5.27452 52.8228 5.25785V5.25785Z" fill="#F1592A"/>
<path opacity="0.5" d="M52.8228 5.25785H52.8143C52.649 5.25644 52.4858 5.29447 52.3381 5.36878L18.3132 24.9284C17.9198 25.1555 17.5932 25.4821 17.3661 25.8755C17.1391 26.2688 17.0195 26.715 17.0196 27.1692V54.0417C17.0186 54.1591 17.0425 54.2754 17.0895 54.383V54.383C17.1378 54.4912 17.208 54.5881 17.2958 54.6676C17.3836 54.7471 17.4869 54.8075 17.5993 54.8449C17.7116 54.8823 17.8306 54.8959 17.9485 54.8849C18.0664 54.8738 18.1807 54.8383 18.2842 54.7807L52.316 35.2142C52.709 34.9873 53.0355 34.6609 53.2626 34.2679C53.4896 33.8749 53.6093 33.429 53.6096 32.9751V6.10263C53.6081 5.88886 53.5264 5.68344 53.3807 5.52701C53.235 5.37057 53.0359 5.27452 52.8228 5.25785V5.25785Z" fill="white"/>
<path d="M20.6478 25.6312L53.1966 6.83786C53.5703 6.62112 53.9048 6.63819 54.1437 6.83786L55.2701 7.61608L54.5021 8.56667V34.8145C54.5021 35.7771 53.9168 36.8932 53.1966 37.3096L20.9687 55.9118L20.909 56.9358L19.7143 56.1217C19.4771 55.9425 19.332 55.5927 19.332 55.1114V28.1263C19.3423 27.1637 19.9259 26.0476 20.6478 25.6312Z" fill="#F1592A"/>
<path opacity="0.2" d="M20.6478 25.6312L53.1966 6.83786C53.5703 6.62112 53.9048 6.63819 54.1437 6.83786L55.2701 7.61608L54.5021 8.56667V34.8145C54.5021 35.7771 53.9168 36.8932 53.1966 37.3096L20.9687 55.9118L20.909 56.9358L19.7143 56.1217C19.4771 55.9425 19.332 55.5927 19.332 55.1114V28.1263C19.3423 27.1637 19.9259 26.0476 20.6478 25.6312Z" fill="white"/>
<path d="M20.4531 55.8788V28.8885C20.4665 28.343 20.6167 27.8096 20.89 27.3372L19.7277 26.6699C19.4868 27.1181 19.3553 27.6169 19.3438 28.1257V55.1159C19.3438 55.5972 19.4888 55.9471 19.726 56.1262L20.82 56.8755C20.6015 56.6946 20.4531 56.3498 20.4531 55.8788Z" fill="#F1592A"/>
<path opacity="0.3" d="M20.8945 56.9277L20.9135 56.9398C20.9067 56.9365 20.9004 56.9324 20.8945 56.9277V56.9277Z" fill="#F1592A"/>
<path d="M21.7587 56.8669L54.3091 38.0719C55.031 37.6554 55.6164 36.5359 55.6164 35.5785V8.58652C55.6164 7.62569 55.031 7.18367 54.3091 7.60009L21.7587 26.3934C21.0368 26.8098 20.4531 27.9294 20.4531 28.8885V55.8788C20.4531 56.8413 21.0368 57.2833 21.7587 56.8669Z" fill="#F1592A"/>
<path d="M21.7587 56.8669L54.3091 38.0719C55.031 37.6554 55.6164 36.5359 55.6164 35.5785V8.58652C55.6164 7.62569 55.031 7.18367 54.3091 7.60009L21.7587 26.3934C21.0368 26.8098 20.4531 27.9294 20.4531 28.8885V55.8788C20.4531 56.8413 21.0368 57.2833 21.7587 56.8669Z" fill="#F1592A"/>
<path opacity="0.7" d="M21.7587 56.8669L54.3091 38.0719C55.031 37.6554 55.6164 36.5359 55.6164 35.5785V8.58652C55.6164 7.62569 55.031 7.18367 54.3091 7.60009L21.7587 26.3934C21.0368 26.8098 20.4531 27.9294 20.4531 28.8885V55.8788C20.4531 56.8413 21.0368 57.2833 21.7587 56.8669Z" fill="white"/>
<path d="M21.7558 26.3934L54.3063 7.60009C55.0282 7.18367 55.6135 7.62569 55.6135 8.58652V9.90574L20.4571 30.2146V28.8953C20.4503 27.926 21.0339 26.8098 21.7558 26.3934Z" fill="#F1592A"/>
<path opacity="0.5" d="M21.7558 26.3934L54.3063 7.60009C55.0282 7.18367 55.6135 7.62569 55.6135 8.58652V9.90574L20.4571 30.2146V28.8953C20.4503 27.926 21.0339 26.8098 21.7558 26.3934Z" fill="white"/>
<path d="M54.8296 7.56112C55.2375 7.56112 55.5004 7.96388 55.5004 8.58509V35.5788C55.5004 36.5003 54.9406 37.5738 54.2528 37.968L21.7007 56.7648C21.5628 56.8516 21.4044 56.9005 21.2416 56.9064C20.8337 56.9064 20.5709 56.5037 20.5709 55.8825V28.8888C20.5709 27.9655 21.1307 26.892 21.8184 26.4995L54.3706 7.70106C54.5085 7.61468 54.6669 7.5664 54.8296 7.56112M54.8296 7.44336C54.6482 7.45 54.4716 7.50414 54.3177 7.60037L21.7604 26.3937C21.0385 26.8101 20.4531 27.9297 20.4531 28.8888V55.879C20.4531 56.5958 20.7774 57.0242 21.2416 57.0242C21.4229 57.0168 21.5993 56.9627 21.7536 56.8672L54.3108 38.0721C55.0327 37.6557 55.6181 36.5362 55.6181 35.5788V8.5868C55.6181 7.87172 55.2938 7.44336 54.8296 7.44336Z" fill="#F1592A"/>
<path d="M23.224 27.2143C23.2161 27.385 23.1677 27.5514 23.0828 27.6998C22.9979 27.8482 22.879 27.9742 22.7359 28.0676C22.4662 28.2229 22.2461 28.0966 22.2461 27.786C22.2543 27.6152 22.3031 27.4487 22.3882 27.3004C22.4734 27.152 22.5925 27.026 22.7359 26.9327C23.0055 26.7706 23.224 26.9037 23.224 27.2143Z" fill="white"/>
<path d="M24.9466 26.2196C24.9387 26.3903 24.8903 26.5567 24.8055 26.7051C24.7206 26.8534 24.6017 26.9795 24.4586 27.0729C24.1889 27.2282 23.9688 27.1019 23.9688 26.7913C23.977 26.6204 24.0257 26.454 24.1109 26.3056C24.196 26.1573 24.3152 26.0313 24.4586 25.938C24.7282 25.7827 24.9466 25.9175 24.9466 26.2196Z" fill="white"/>
<path d="M26.6693 25.225C26.6614 25.3957 26.613 25.5621 26.5281 25.7105C26.4433 25.8588 26.3244 25.9849 26.1812 26.0783C25.9099 26.2336 25.6914 26.1073 25.6914 25.7967C25.6992 25.6258 25.7478 25.4592 25.833 25.3107C25.9182 25.1623 26.0375 25.0364 26.1812 24.9434C26.4509 24.7881 26.6693 24.9144 26.6693 25.225Z" fill="white"/>
<path d="M27.2272 47.6973C27.2042 47.6978 27.1816 47.7031 27.1607 47.7126L22.4231 50.4432C22.368 50.4746 22.3222 50.5201 22.2905 50.5749C22.2587 50.6298 22.242 50.6921 22.2422 50.7555V54.4982C22.2421 54.5141 22.2456 54.5298 22.2524 54.5442V54.5442C22.259 54.56 22.2689 54.5741 22.2815 54.5856C22.294 54.5971 22.3089 54.6057 22.3252 54.6109C22.3414 54.6161 22.3585 54.6177 22.3754 54.6156C22.3924 54.6136 22.4086 54.6078 22.4231 54.5989L27.1607 51.8683C27.2154 51.8369 27.2609 51.7916 27.2927 51.7371C27.3244 51.6826 27.3413 51.6207 27.3416 51.5577V47.815C27.3416 47.7844 27.3297 47.7549 27.3083 47.7329C27.287 47.711 27.2579 47.6982 27.2272 47.6973V47.6973Z" fill="white"/>
<path d="M26.7416 51.4353L23.168 53.4986L24.2227 50.751L24.9548 51.6196L25.7023 50.5547L26.7416 51.4353Z" fill="#F1592A"/>
<path opacity="0.4" d="M26.7416 51.4353L23.168 53.4986L24.2227 50.751L24.9548 51.6196L25.7023 50.5547L26.7416 51.4353Z" fill="white"/>
<path d="M25.5035 49.7227C25.4976 49.8359 25.465 49.9461 25.4083 50.0443C25.3516 50.1424 25.2726 50.2258 25.1775 50.2876C24.9983 50.3917 24.8516 50.3064 24.8516 50.0982C24.8579 49.9853 24.8907 49.8755 24.9473 49.7777C25.0039 49.6798 25.0828 49.5967 25.1775 49.535C25.3584 49.4309 25.5035 49.5145 25.5035 49.7227Z" fill="#F1592A"/>
<path d="M33.5788 44.0157C33.5557 44.0151 33.5328 44.0204 33.5123 44.031L28.7747 46.7616C28.7196 46.793 28.6738 46.8385 28.642 46.8933C28.6102 46.9482 28.5936 47.0105 28.5938 47.0739V50.8149C28.5935 50.8313 28.597 50.8477 28.604 50.8626V50.8626C28.6106 50.8784 28.6205 50.8924 28.633 50.904C28.6456 50.9155 28.6605 50.9241 28.6767 50.9293C28.693 50.9345 28.7101 50.9361 28.727 50.934C28.7439 50.9319 28.7602 50.9262 28.7747 50.9172L33.5123 48.1866C33.567 48.1553 33.6125 48.11 33.6442 48.0555C33.676 48.001 33.6928 47.9391 33.6932 47.876V44.1334C33.6932 44.1028 33.6812 44.0733 33.6599 44.0513C33.6385 44.0293 33.6094 44.0165 33.5788 44.0157V44.0157Z" fill="white"/>
<path d="M33.101 47.7556L29.5273 49.8189L30.582 47.0713L31.3142 47.9399L32.0617 46.875L33.101 47.7556Z" fill="#F1592A"/>
<path opacity="0.4" d="M33.101 47.7556L29.5273 49.8189L30.582 47.0713L31.3142 47.9399L32.0617 46.875L33.101 47.7556Z" fill="white"/>
<path d="M31.7657 46.3613C31.893 46.1409 31.8929 45.9027 31.7656 45.8291C31.6382 45.7556 31.4319 45.8747 31.3046 46.0951C31.1774 46.3155 31.1774 46.5537 31.3048 46.6273C31.4321 46.7008 31.6385 46.5817 31.7657 46.3613Z" fill="#F1592A"/>
<path d="M52.5849 33.0215C52.5618 33.021 52.5389 33.0263 52.5183 33.0369L47.7808 35.7675C47.7261 35.7992 47.6808 35.8448 47.6493 35.8996C47.6179 35.9545 47.6014 36.0166 47.6016 36.0798V39.8207C47.6016 39.837 47.6045 39.8532 47.6101 39.8685V39.8685C47.6167 39.8842 47.6266 39.8983 47.6391 39.9098C47.6517 39.9213 47.6666 39.93 47.6828 39.9352C47.6991 39.9404 47.7162 39.942 47.7331 39.9399C47.75 39.9378 47.7663 39.9321 47.7808 39.9231L52.52 37.1925C52.5747 37.1608 52.62 37.1152 52.6515 37.0604C52.6829 37.0055 52.6994 36.9434 52.6992 36.8802V33.1393C52.6995 33.124 52.6967 33.1089 52.6911 33.0947C52.6854 33.0806 52.6771 33.0676 52.6665 33.0567C52.6558 33.0458 52.6432 33.037 52.6292 33.031C52.6152 33.025 52.6001 33.0217 52.5849 33.0215V33.0215Z" fill="white"/>
<path d="M52.0971 36.7595L48.5234 38.8228L49.5798 36.0752L50.3103 36.9438L51.0578 35.8789L52.0971 36.7595Z" fill="#F1592A"/>
<path opacity="0.4" d="M52.0971 36.7595L48.5234 38.8228L49.5798 36.0752L50.3103 36.9438L51.0578 35.8789L52.0971 36.7595Z" fill="white"/>
<path d="M50.859 35.0463C50.8526 35.1592 50.8198 35.269 50.7632 35.3668C50.7066 35.4647 50.6277 35.5478 50.533 35.6095C50.3521 35.7136 50.207 35.63 50.207 35.4218C50.213 35.3086 50.2456 35.1984 50.3022 35.1002C50.3589 35.0021 50.438 34.9187 50.533 34.8569C50.7122 34.7528 50.859 34.8381 50.859 35.0463Z" fill="#F1592A"/>
<path d="M39.9421 40.336C39.919 40.3354 39.8961 40.3407 39.8755 40.3513L35.1379 43.0819C35.0829 43.1133 35.0371 43.1588 35.0053 43.2137C34.9735 43.2685 34.9569 43.3308 34.957 43.3942V47.1352C34.9568 47.1517 34.9603 47.168 34.9673 47.1829V47.1829C34.9739 47.1987 34.9838 47.2128 34.9963 47.2243C35.0089 47.2358 35.0238 47.2444 35.04 47.2496C35.0562 47.2548 35.0734 47.2564 35.0903 47.2543C35.1072 47.2523 35.1235 47.2465 35.1379 47.2376L39.8755 44.507C39.9305 44.4754 39.9762 44.4299 40.0079 44.3751C40.0397 44.3203 40.0564 44.258 40.0564 44.1946V40.4537C40.0567 40.4385 40.0539 40.4234 40.0483 40.4092C40.0426 40.395 40.0343 40.3821 40.0237 40.3712C40.013 40.3602 40.0004 40.3515 39.9864 40.3455C39.9724 40.3394 39.9573 40.3362 39.9421 40.336V40.336Z" fill="white"/>
<path d="M39.4604 44.0759L35.8867 46.1392L36.9414 43.3916L37.6736 44.2602L38.4211 43.1953L39.4604 44.0759Z" fill="#F1592A"/>
<path opacity="0.4" d="M39.4604 44.0759L35.8867 46.1392L36.9414 43.3916L37.6736 44.2602L38.4211 43.1953L39.4604 44.0759Z" fill="white"/>
<path d="M38.2183 42.3608C38.2124 42.474 38.1798 42.5842 38.1231 42.6824C38.0665 42.7805 37.9874 42.8639 37.8924 42.9257C37.7132 43.0281 37.5664 42.9445 37.5664 42.7362C37.5727 42.6231 37.6055 42.5131 37.6621 42.415C37.7188 42.3169 37.7976 42.2334 37.8924 42.1714C38.0733 42.0672 38.2183 42.1526 38.2183 42.3608Z" fill="#F1592A"/>
<path d="M46.3015 36.6699C46.2784 36.6702 46.2557 36.6754 46.2349 36.6853L41.4973 39.4159C41.4423 39.4474 41.3967 39.4929 41.3649 39.5477C41.3332 39.6026 41.3164 39.6648 41.3164 39.7282V43.4708C41.3162 43.4868 41.3197 43.5025 41.3267 43.5169V43.5169C41.3333 43.5326 41.3432 43.5466 41.3557 43.5582C41.3682 43.5697 41.3831 43.5784 41.3992 43.5837C41.4154 43.5891 41.4325 43.5909 41.4494 43.5891C41.4663 43.5873 41.4827 43.5819 41.4973 43.5732L46.2349 40.8426C46.2896 40.8108 46.3351 40.7653 46.3669 40.7105C46.3986 40.6557 46.4155 40.5936 46.4158 40.5303V36.7809C46.4137 36.7515 46.4009 36.724 46.3798 36.7035C46.3587 36.6831 46.3308 36.6711 46.3015 36.6699Z" fill="white"/>
<path d="M45.8159 40.4023L42.2422 42.4657L43.2969 39.7197L44.029 40.5867L44.7765 39.5234L45.8159 40.4023Z" fill="#F1592A"/>
<path opacity="0.4" d="M45.8159 40.4023L42.2422 42.4657L43.2969 39.7197L44.029 40.5867L44.7765 39.5234L45.8159 40.4023Z" fill="white"/>
<path d="M44.5777 38.6876C44.5718 38.8008 44.5392 38.9109 44.4825 39.0091C44.4259 39.1073 44.3468 39.1907 44.2517 39.2524C44.0726 39.3566 43.9258 39.2712 43.9258 39.0647C43.9321 38.9516 43.9649 38.8416 44.0215 38.7435C44.0781 38.6454 44.157 38.5619 44.2517 38.4998C44.4326 38.3957 44.5777 38.4793 44.5777 38.6876Z" fill="#F1592A"/>
<path d="M47.3937 17.5371C47.3048 17.5366 47.2171 17.557 47.1377 17.5969L28.9451 28.0516C28.7353 28.1727 28.561 28.3469 28.4397 28.5565C28.3184 28.7662 28.2544 29.004 28.2539 29.2463V43.6092C28.2538 43.6715 28.2666 43.7331 28.2915 43.7901V43.7901C28.3172 43.8486 28.355 43.9009 28.4023 43.9438C28.4496 43.9867 28.5054 44.0192 28.566 44.0392C28.6267 44.0591 28.6909 44.0661 28.7544 44.0597C28.818 44.0532 28.8794 44.0335 28.9348 44.0017L47.1206 33.5453C47.3306 33.4244 47.5051 33.2504 47.6264 33.0406C47.7478 32.8309 47.8117 32.5929 47.8118 32.3506V17.9894C47.8121 17.8751 47.7692 17.765 47.6916 17.6811C47.6141 17.5972 47.5076 17.5457 47.3937 17.5371V17.5371Z" fill="white"/>
<path d="M45.5382 31.8891L31.8203 39.8096L35.8735 29.2643L38.6792 32.5974L41.5481 28.5117L45.5382 31.8891Z" fill="#F1592A"/>
<path opacity="0.4" d="M45.5382 31.8891L31.8203 39.8096L35.8735 29.2643L38.6792 32.5974L41.5481 28.5117L45.5382 31.8891Z" fill="white"/>
<path d="M40.781 25.3106C40.757 25.7448 40.6311 26.1673 40.4135 26.5439C40.1958 26.9204 39.8926 27.2404 39.5283 27.478C38.8456 27.8756 38.2773 27.5531 38.2773 26.7544C38.301 26.3202 38.4266 25.8978 38.6439 25.5212C38.8612 25.1447 39.1642 24.8246 39.5283 24.587C40.2263 24.1876 40.781 24.5119 40.781 25.3106Z" fill="#F1592A"/>
<path d="M52.2537 24.3999C52.8338 23.3951 52.8336 22.3089 52.2533 21.9738C51.6729 21.6387 50.7321 22.1816 50.152 23.1865C49.5719 24.1913 49.572 25.2775 50.1524 25.6126C50.7328 25.9476 51.6735 25.4047 52.2537 24.3999Z" fill="white"/>
<path d="M50.6036 24.2111C50.5731 24.2115 50.5434 24.2018 50.5191 24.1835C50.4948 24.1651 50.4773 24.1392 50.4695 24.1097C50.4616 24.0803 50.4638 24.0491 50.4758 24.0211C50.4877 23.993 50.5087 23.9698 50.5353 23.9551L51.7299 23.2588C51.7456 23.2496 51.7629 23.2437 51.7809 23.2414C51.7988 23.239 51.8171 23.2403 51.8345 23.245C51.852 23.2498 51.8684 23.258 51.8826 23.2691C51.8969 23.2803 51.9088 23.2942 51.9177 23.31C51.9358 23.3415 51.9407 23.3788 51.9314 23.414C51.9222 23.4491 51.8994 23.4792 51.8682 23.4977L50.6633 24.1923C50.645 24.2028 50.6246 24.2092 50.6036 24.2111Z" fill="#F1592A"/>
<path d="M51.0739 24.7779C51.0501 24.7779 51.0267 24.7721 51.0057 24.7609C50.9744 24.7424 50.9517 24.7123 50.9424 24.6772C50.9332 24.642 50.9381 24.6047 50.9562 24.5731L51.6218 23.4195L51.0057 23.0645C50.9901 23.0554 50.9765 23.0434 50.9655 23.029C50.9546 23.0147 50.9466 22.9983 50.942 22.9809C50.9374 22.9634 50.9363 22.9453 50.9387 22.9274C50.9412 22.9095 50.9471 22.8923 50.9562 22.8768C50.9652 22.8612 50.9773 22.8475 50.9916 22.8366C51.006 22.8257 51.0223 22.8177 51.0398 22.8131C51.0572 22.8085 51.0754 22.8074 51.0932 22.8098C51.1111 22.8123 51.1283 22.8182 51.1439 22.8273L51.8777 23.2505C51.9087 23.2693 51.9313 23.2992 51.9409 23.3341C51.946 23.3515 51.9474 23.3697 51.9451 23.3876C51.9427 23.4056 51.9366 23.4228 51.9272 23.4382L51.1934 24.7097C51.1813 24.7306 51.1639 24.748 51.1429 24.76C51.1219 24.7719 51.0981 24.7782 51.0739 24.7779V24.7779Z" fill="#F1592A"/>
<path d="M26.3462 38.1803C26.3462 39.1275 25.6806 40.2794 24.8598 40.7539C24.0389 41.2283 23.375 40.8426 23.375 39.9006C23.375 38.9585 24.0406 37.8014 24.8598 37.3287C25.6789 36.856 26.3462 37.2331 26.3462 38.1803Z" fill="white"/>
<path d="M24.2549 39.5999C24.2305 39.5997 24.2067 39.5932 24.1857 39.5809C24.1648 39.5686 24.1474 39.551 24.1354 39.5299C24.1174 39.4986 24.1125 39.4615 24.1218 39.4267C24.1311 39.3918 24.1537 39.3621 24.1849 39.3439L25.3898 38.6476C25.4212 38.6292 25.4587 38.6242 25.4939 38.6334C25.5291 38.6427 25.5592 38.6656 25.5775 38.6971C25.5958 38.7285 25.6009 38.766 25.5916 38.8012C25.5823 38.8364 25.5595 38.8665 25.528 38.8848L24.3231 39.5811C24.3022 39.5928 24.2788 39.5993 24.2549 39.5999V39.5999Z" fill="#F1592A"/>
<path d="M24.9877 40.0245C24.9638 40.0239 24.9403 40.0174 24.9195 40.0057L24.1856 39.5824C24.1546 39.5637 24.1321 39.5337 24.1225 39.4988C24.1174 39.4815 24.1159 39.4632 24.1183 39.4453C24.1206 39.4274 24.1267 39.4102 24.1361 39.3947L24.87 38.1233C24.8881 38.0918 24.9179 38.0688 24.953 38.0594C24.988 38.05 25.0254 38.0548 25.0568 38.0729C25.0883 38.091 25.1113 38.1209 25.1207 38.1559C25.1302 38.191 25.1253 38.2283 25.1072 38.2598L24.4416 39.4135L25.0577 39.7685C25.089 39.787 25.1117 39.817 25.1209 39.8522C25.1302 39.8873 25.1253 39.9247 25.1072 39.9562C25.0948 39.9769 25.0774 39.9941 25.0564 40.006C25.0355 40.018 25.0118 40.0243 24.9877 40.0245V40.0245Z" fill="#F1592A"/>
<path d="M43.598 55.8809V67.2794C43.598 67.5303 43.4478 67.7675 43.1372 67.9467L26.9499 77.2887C26.6725 77.4384 26.3653 77.5247 26.0505 77.5413C26.0456 77.5432 26.0401 77.5432 26.0352 77.5413V65.7093L43.598 55.8809Z" fill="#F1592A"/>
<path opacity="0.2" d="M29.2972 68.3246V73.325C29.2959 73.5034 29.2479 73.6784 29.1581 73.8326C29.0683 73.9867 28.9398 74.1148 28.7852 74.204L26.9421 75.2672C26.6647 75.4168 26.3575 75.5031 26.0427 75.5198H26.0273V69.2684C26.3475 69.2532 26.6601 69.1663 26.9421 69.0141L28.705 67.9901C28.7644 67.9551 28.8319 67.9362 28.9009 67.9356C28.9698 67.9349 29.0377 67.9524 29.0978 67.9863C29.1578 68.0202 29.2078 68.0693 29.2429 68.1287C29.2779 68.1881 29.2966 68.2557 29.2972 68.3246Z" fill="black"/>
<path d="M26.0508 64.4531V77.5498H25.5559C25.1136 77.5218 24.683 77.3965 24.2947 77.1828L22.5079 76.1589C22.1102 75.9302 21.8918 75.6469 21.8594 75.3619V64.4531H26.0508Z" fill="#F1592A"/>
<path opacity="0.3" d="M26.0508 64.4531V77.5498H25.5559C25.1136 77.5218 24.683 77.3965 24.2947 77.1828L22.5079 76.1589C22.1102 75.9302 21.8918 75.6469 21.8594 75.3619V64.4531H26.0508Z" fill="black"/>
<path d="M40.8275 54.5674C40.0681 54.267 39.0953 54.2755 38.5031 54.6169L26.0447 61.8052L22.3124 63.9623C22.0035 64.133 21.8516 64.3787 21.8516 64.6296C21.8516 64.93 22.0717 65.2491 22.5035 65.4966L24.292 66.5376C24.6739 66.7483 25.0975 66.8724 25.5327 66.9011C25.7031 66.9162 25.8744 66.9162 26.0447 66.9011C26.3598 66.8847 26.6671 66.7978 26.9441 66.6468L43.1332 57.2911C43.4438 57.1205 43.5939 56.8764 43.5939 56.6256V53.3164L40.8275 54.5674Z" fill="#F1592A"/>
<path opacity="0.7" d="M40.8275 54.5674C40.0681 54.267 39.0953 54.2755 38.5031 54.6169L26.0447 61.8052L22.3124 63.9623C22.0035 64.133 21.8516 64.3787 21.8516 64.6296C21.8516 64.93 22.0717 65.2491 22.5035 65.4966L24.292 66.5376C24.6739 66.7483 25.0975 66.8724 25.5327 66.9011C25.7031 66.9162 25.8744 66.9162 26.0447 66.9011C26.3598 66.8847 26.6671 66.7978 26.9441 66.6468L43.1332 57.2911C43.4438 57.1205 43.5939 56.8764 43.5939 56.6256V53.3164L40.8275 54.5674Z" fill="white"/>
<path d="M26.0482 61.248V66.9004H25.5362C25.0993 66.873 24.6739 66.7494 24.2903 66.5386L22.5035 65.5061C22.0717 65.2586 21.8516 64.9395 21.8516 64.6391V61.248H26.0482Z" fill="#F1592A"/>
<path opacity="0.5" d="M26.0482 61.248V66.9004H25.5362C25.0993 66.873 24.6739 66.7494 24.2903 66.5386L22.5035 65.5061C22.0717 65.2586 21.8516 64.9395 21.8516 64.6391V61.248H26.0482Z" fill="white"/>
<path d="M43.1317 53.9576L26.9427 63.3047C26.26 63.699 25.0654 63.6461 24.2855 63.1955L22.4969 62.163C21.7119 61.709 21.6266 61.0213 22.3075 60.627L38.4965 51.2799C39.1792 50.8873 40.3738 50.9385 41.1538 51.3908L42.9406 52.4148C43.7325 52.8841 43.8144 53.5667 43.1317 53.9576Z" fill="#F1592A"/>
<path opacity="0.6" d="M43.1317 53.9576L26.9427 63.3047C26.26 63.699 25.0654 63.6461 24.2855 63.1955L22.4969 62.163C21.7119 61.709 21.6266 61.0213 22.3075 60.627L38.4965 51.2799C39.1792 50.8873 40.3738 50.9385 41.1538 51.3908L42.9406 52.4148C43.7325 52.8841 43.8144 53.5667 43.1317 53.9576Z" fill="white"/>
<path d="M42.2076 60.9348L40.5505 59.9723C39.5385 59.3528 38.1237 59.421 36.5553 60.3255C33.4834 62.1004 30.9883 66.4182 30.9883 69.9697C30.9883 71.5995 31.5139 72.7822 32.3792 73.4153C32.521 73.5199 32.6731 73.6097 32.8331 73.6833L34.1489 74.4564L34.4715 73.9154C35.2086 73.8206 35.9181 73.5742 36.5553 73.1918C39.6272 71.4169 42.124 67.0991 42.124 63.5493C42.1346 62.8887 42.0289 62.2312 41.8117 61.6072L42.2076 60.9348Z" fill="#F1592A"/>
<path opacity="0.5" d="M42.2076 60.9348L40.5505 59.9723C39.5385 59.3528 38.1237 59.421 36.5553 60.3255C33.4834 62.1004 30.9883 66.4182 30.9883 69.9697C30.9883 71.5995 31.5139 72.7822 32.3792 73.4153C32.521 73.5199 32.6731 73.6097 32.8331 73.6833L34.1489 74.4564L34.4715 73.9154C35.2086 73.8206 35.9181 73.5742 36.5553 73.1918C39.6272 71.4169 42.124 67.0991 42.124 63.5493C42.1346 62.8887 42.0289 62.2312 41.8117 61.6072L42.2076 60.9348Z" fill="black"/>
<path d="M42.0384 69.9204C44.2129 66.1542 44.2128 62.0833 42.0383 60.8278C39.8637 59.5723 36.3382 61.6077 34.1637 65.374C31.9893 69.1402 31.9894 73.2111 34.1639 74.4666C36.3384 75.722 39.864 73.6867 42.0384 69.9204Z" fill="#F1592A"/>
<path opacity="0.2" d="M42.0384 69.9204C44.2129 66.1542 44.2128 62.0833 42.0383 60.8278C39.8637 59.5723 36.3382 61.6077 34.1637 65.374C31.9893 69.1402 31.9894 73.2111 34.1639 74.4666C36.3384 75.722 39.864 73.6867 42.0384 69.9204Z" fill="black"/>
<path d="M42.8292 63.056L41.4844 62.271C40.6635 61.7675 39.5132 61.8239 38.2418 62.5577C35.745 63.9998 33.7227 67.5069 33.7227 70.386C33.7227 71.7086 34.1493 72.6695 34.8507 73.1831C34.9667 73.2675 35.0908 73.3401 35.2211 73.3999L36.2894 74.0279L36.5505 73.5893C37.1483 73.5085 37.7229 73.3051 38.2384 72.992C40.7335 71.5516 42.7575 68.0428 42.7575 65.1637C42.7656 64.628 42.6801 64.0949 42.5049 63.5885L42.8292 63.056Z" fill="#F1592A"/>
<path opacity="0.4" d="M42.8292 63.056L41.4844 62.271C40.6635 61.7675 39.5132 61.8239 38.2418 62.5577C35.745 63.9998 33.7227 67.5069 33.7227 70.386C33.7227 71.7086 34.1493 72.6695 34.8507 73.1831C34.9667 73.2675 35.0908 73.3401 35.2211 73.3999L36.2894 74.0279L36.5505 73.5893C37.1483 73.5085 37.7229 73.3051 38.2384 72.992C40.7335 71.5516 42.7575 68.0428 42.7575 65.1637C42.7656 64.628 42.6801 64.0949 42.5049 63.5885L42.8292 63.056Z" fill="black"/>
<path d="M42.6841 70.348C44.449 67.2911 44.4491 63.987 42.6844 62.9682C40.9196 61.9493 38.0582 63.6014 36.2933 66.6583C34.5284 69.7152 34.5283 73.0193 36.293 74.0382C38.0578 75.0571 40.9192 73.405 42.6841 70.348Z" fill="#F1592A"/>
<path opacity="0.6" d="M41.4781 69.6491C42.5743 67.7505 42.5742 65.6983 41.478 65.0654C40.3817 64.4324 38.6044 65.4585 37.5082 67.3571C36.4121 69.2558 36.4121 71.308 37.5084 71.9409C38.6046 72.5738 40.3819 71.5478 41.4781 69.6491Z" fill="black"/>
<path d="M39.2843 65.3926C37.9002 66.309 36.796 68.2188 36.6953 69.8759C37.023 70.3367 37.6322 70.4237 38.3303 70.0192C39.3764 69.4151 40.2297 67.9457 40.2297 66.7374C40.2297 65.9302 39.8474 65.4472 39.2843 65.3926Z" fill="#F1592A"/>
<path opacity="0.8" d="M39.2843 65.3926C37.9002 66.309 36.796 68.2188 36.6953 69.8759C37.023 70.3367 37.6322 70.4237 38.3303 70.0192C39.3764 69.4151 40.2297 67.9457 40.2297 66.7374C40.2297 65.9302 39.8474 65.4472 39.2843 65.3926Z" fill="black"/>
<path d="M39.2701 66.9288C39.2604 67.1063 39.209 67.2791 39.1201 67.433C39.0311 67.5869 38.9071 67.7176 38.7581 67.8146C38.4765 67.9852 38.2461 67.8453 38.2461 67.5193C38.2561 67.3417 38.3077 67.1688 38.3966 67.0147C38.4855 66.8606 38.6093 66.7295 38.7581 66.6319C39.0346 66.4697 39.2701 66.6011 39.2701 66.9288Z" fill="#FAFAFA"/>
<path d="M27.2736 69.6622C27.2735 69.6889 27.2656 69.715 27.2507 69.7373C27.2358 69.7595 27.2147 69.7767 27.1899 69.7869C27.1652 69.797 27.138 69.7996 27.1118 69.7943C27.0856 69.7889 27.0616 69.7759 27.0428 69.7569C27.024 69.7379 27.0113 69.7137 27.0063 69.6874C27.0013 69.6612 27.0042 69.634 27.0147 69.6094C27.0251 69.5848 27.0427 69.5639 27.0651 69.5492C27.0875 69.5346 27.1137 69.527 27.1404 69.5274C27.1581 69.5274 27.1755 69.5309 27.1918 69.5377C27.208 69.5444 27.2228 69.5544 27.2352 69.5669C27.2476 69.5795 27.2573 69.5944 27.2639 69.6107C27.2705 69.6271 27.2738 69.6446 27.2736 69.6622V69.6622Z" fill="#F1592A"/>
<path d="M27.8829 69.293C27.8829 69.3198 27.875 69.3459 27.8601 69.3681C27.8452 69.3903 27.824 69.4076 27.7993 69.4178C27.7746 69.4279 27.7474 69.4305 27.7212 69.4251C27.695 69.4198 27.6709 69.4068 27.6522 69.3878C27.6334 69.3687 27.6207 69.3445 27.6157 69.3183C27.6107 69.292 27.6136 69.2649 27.624 69.2403C27.6345 69.2156 27.6521 69.1947 27.6744 69.1801C27.6968 69.1655 27.7231 69.1579 27.7498 69.1582C27.7674 69.1582 27.7849 69.1617 27.8011 69.1685C27.8174 69.1753 27.8322 69.1853 27.8445 69.1978C27.8569 69.2103 27.8667 69.2252 27.8733 69.2416C27.8799 69.2579 27.8832 69.2754 27.8829 69.293V69.293Z" fill="#F1592A"/>
<path d="M28.4923 68.9476C28.4926 68.9744 28.485 69.0007 28.4703 69.0231C28.4556 69.0456 28.4346 69.0631 28.4099 69.0735C28.3852 69.0839 28.3579 69.0867 28.3316 69.0816C28.3053 69.0764 28.2811 69.0636 28.2621 69.0446C28.2432 69.0257 28.2303 69.0015 28.2252 68.9752C28.22 68.9489 28.2228 68.9216 28.2332 68.8969C28.2437 68.8722 28.2612 68.8512 28.2836 68.8365C28.3061 68.8218 28.3324 68.8141 28.3592 68.8145C28.3945 68.8145 28.4283 68.8285 28.4533 68.8535C28.4783 68.8784 28.4923 68.9123 28.4923 68.9476V68.9476Z" fill="#F1592A"/>
<path d="M27.1409 70.5631C27.2144 70.5631 27.274 70.5035 27.274 70.43C27.274 70.3565 27.2144 70.2969 27.1409 70.2969C27.0674 70.2969 27.0078 70.3565 27.0078 70.43C27.0078 70.5035 27.0674 70.5631 27.1409 70.5631Z" fill="#F1592A"/>
<path d="M27.8829 70.0628C27.8833 70.0896 27.8756 70.1159 27.8609 70.1384C27.8462 70.1608 27.8252 70.1783 27.8005 70.1887C27.7758 70.1992 27.7485 70.202 27.7222 70.1968C27.6959 70.1917 27.6717 70.1788 27.6528 70.1598C27.6338 70.1409 27.6209 70.1167 27.6158 70.0904C27.6106 70.0641 27.6135 70.0368 27.6239 70.0121C27.6343 69.9874 27.6518 69.9664 27.6743 69.9517C27.6967 69.937 27.723 69.9294 27.7498 69.9297C27.7851 69.9297 27.819 69.9437 27.8439 69.9687C27.8689 69.9937 27.8829 70.0275 27.8829 70.0628V70.0628Z" fill="#F1592A"/>
<path d="M28.4923 69.7169C28.4923 69.7436 28.4843 69.7697 28.4695 69.7919C28.4546 69.8142 28.4334 69.8314 28.4087 69.8416C28.3839 69.8517 28.3567 69.8543 28.3305 69.849C28.3043 69.8436 28.2803 69.8306 28.2615 69.8116C28.2428 69.7926 28.2301 69.7684 28.225 69.7421C28.22 69.7158 28.2229 69.6887 28.2334 69.6641C28.2439 69.6395 28.2614 69.6185 28.2838 69.6039C28.3062 69.5893 28.3324 69.5817 28.3592 69.582C28.3768 69.582 28.3943 69.5855 28.4105 69.5923C28.4268 69.5991 28.4415 69.6091 28.4539 69.6216C28.4663 69.6342 28.4761 69.6491 28.4827 69.6654C28.4893 69.6817 28.4925 69.6992 28.4923 69.7169V69.7169Z" fill="#F1592A"/>
<path d="M27.1409 71.3307C27.2144 71.3307 27.274 71.2711 27.274 71.1976C27.274 71.1241 27.2144 71.0645 27.1409 71.0645C27.0674 71.0645 27.0078 71.1241 27.0078 71.1976C27.0078 71.2711 27.0674 71.3307 27.1409 71.3307Z" fill="#F1592A"/>
<path d="M27.7503 70.9635C27.8238 70.9635 27.8834 70.9039 27.8834 70.8304C27.8834 70.7569 27.8238 70.6973 27.7503 70.6973C27.6768 70.6973 27.6172 70.7569 27.6172 70.8304C27.6172 70.9039 27.6768 70.9635 27.7503 70.9635Z" fill="#F1592A"/>
<path d="M28.4923 70.4866C28.4926 70.5135 28.485 70.5398 28.4703 70.5622C28.4556 70.5846 28.4346 70.6022 28.4099 70.6126C28.3852 70.623 28.3579 70.6258 28.3316 70.6207C28.3053 70.6155 28.2811 70.6026 28.2621 70.5837C28.2432 70.5647 28.2303 70.5405 28.2252 70.5142C28.22 70.4879 28.2228 70.4607 28.2332 70.436C28.2437 70.4113 28.2612 70.3902 28.2836 70.3755C28.3061 70.3609 28.3324 70.3532 28.3592 70.3535C28.3945 70.3535 28.4283 70.3676 28.4533 70.3925C28.4783 70.4175 28.4923 70.4513 28.4923 70.4866V70.4866Z" fill="#F1592A"/>
<path d="M27.1409 72.1002C27.2144 72.1002 27.274 72.0406 27.274 71.9671C27.274 71.8936 27.2144 71.834 27.1409 71.834C27.0674 71.834 27.0078 71.8936 27.0078 71.9671C27.0078 72.0406 27.0674 72.1002 27.1409 72.1002Z" fill="#F1592A"/>
<path d="M27.7503 71.733C27.8238 71.733 27.8834 71.6734 27.8834 71.5999C27.8834 71.5264 27.8238 71.4668 27.7503 71.4668C27.6768 71.4668 27.6172 71.5264 27.6172 71.5999C27.6172 71.6734 27.6768 71.733 27.7503 71.733Z" fill="#F1592A"/>
<path d="M28.4923 71.2542C28.4926 71.281 28.485 71.3073 28.4703 71.3298C28.4556 71.3522 28.4346 71.3697 28.4099 71.3802C28.3852 71.3906 28.3579 71.3934 28.3316 71.3882C28.3053 71.3831 28.2811 71.3702 28.2621 71.3513C28.2432 71.3323 28.2303 71.3081 28.2252 71.2818C28.22 71.2555 28.2228 71.2282 28.2332 71.2035C28.2437 71.1788 28.2612 71.1578 28.2836 71.1431C28.3061 71.1284 28.3324 71.1208 28.3592 71.1211C28.3945 71.1211 28.4283 71.1351 28.4533 71.1601C28.4783 71.1851 28.4923 71.2189 28.4923 71.2542V71.2542Z" fill="#F1592A"/>
<path d="M27.2727 72.7359C27.269 72.7688 27.2533 72.7992 27.2285 72.8213C27.2038 72.8434 27.1719 72.8556 27.1387 72.8556C27.1056 72.8556 27.0736 72.8434 27.0489 72.8213C27.0242 72.7992 27.0085 72.7688 27.0048 72.7359C27.0026 72.717 27.0045 72.6979 27.0103 72.6799C27.016 72.6618 27.0255 72.6451 27.0382 72.6309C27.0508 72.6168 27.0663 72.6055 27.0837 72.5977C27.101 72.5899 27.1197 72.5859 27.1387 72.5859C27.1577 72.5859 27.1765 72.5899 27.1938 72.5977C27.2111 72.6055 27.2266 72.6168 27.2393 72.6309C27.2519 72.6451 27.2614 72.6618 27.2672 72.6799C27.273 72.6979 27.2748 72.717 27.2727 72.7359Z" fill="#F1592A"/>
<path d="M27.7503 72.5006C27.8238 72.5006 27.8834 72.441 27.8834 72.3675C27.8834 72.294 27.8238 72.2344 27.7503 72.2344C27.6768 72.2344 27.6172 72.294 27.6172 72.3675C27.6172 72.441 27.6768 72.5006 27.7503 72.5006Z" fill="#F1592A"/>
<path d="M28.4923 72.0235C28.4923 72.0502 28.4843 72.0764 28.4695 72.0986C28.4546 72.1208 28.4334 72.1381 28.4087 72.1482C28.3839 72.1584 28.3567 72.1609 28.3305 72.1556C28.3043 72.1503 28.2803 72.1373 28.2615 72.1182C28.2428 72.0992 28.2301 72.075 28.225 72.0488C28.22 72.0225 28.2229 71.9953 28.2334 71.9707C28.2439 71.9461 28.2614 71.9252 28.2838 71.9106C28.3062 71.896 28.3324 71.8883 28.3592 71.8887C28.3768 71.8887 28.3943 71.8922 28.4105 71.899C28.4268 71.9058 28.4415 71.9157 28.4539 71.9283C28.4663 71.9408 28.4761 71.9557 28.4827 71.972C28.4893 71.9884 28.4925 72.0059 28.4923 72.0235V72.0235Z" fill="#F1592A"/>
<path d="M27.1409 73.6373C27.2144 73.6373 27.274 73.5777 27.274 73.5042C27.274 73.4307 27.2144 73.3711 27.1409 73.3711C27.0674 73.3711 27.0078 73.4307 27.0078 73.5042C27.0078 73.5777 27.0674 73.6373 27.1409 73.6373Z" fill="#F1592A"/>
<path d="M27.8829 73.1351C27.8833 73.1619 27.8756 73.1882 27.8609 73.2106C27.8462 73.2331 27.8252 73.2506 27.8005 73.261C27.7758 73.2714 27.7485 73.2742 27.7222 73.2691C27.6959 73.2639 27.6717 73.2511 27.6528 73.2321C27.6338 73.2132 27.6209 73.189 27.6158 73.1627C27.6106 73.1364 27.6135 73.1091 27.6239 73.0844C27.6343 73.0597 27.6518 73.0387 27.6743 73.024C27.6967 73.0093 27.723 73.0016 27.7498 73.002C27.7851 73.002 27.819 73.016 27.8439 73.041C27.8689 73.0659 27.8829 73.0998 27.8829 73.1351V73.1351Z" fill="#F1592A"/>
<path d="M28.4923 72.7913C28.4926 72.8181 28.485 72.8444 28.4703 72.8669C28.4556 72.8893 28.4346 72.9068 28.4099 72.9173C28.3852 72.9277 28.3579 72.9305 28.3316 72.9253C28.3053 72.9202 28.2811 72.9073 28.2621 72.8884C28.2432 72.8694 28.2303 72.8452 28.2252 72.8189C28.22 72.7926 28.2228 72.7654 28.2332 72.7406C28.2437 72.7159 28.2612 72.6949 28.2836 72.6802C28.3061 72.6655 28.3324 72.6579 28.3592 72.6582C28.3945 72.6582 28.4283 72.6722 28.4533 72.6972C28.4783 72.7222 28.4923 72.756 28.4923 72.7913V72.7913Z" fill="#F1592A"/>
<path d="M27.1409 74.4069C27.2144 74.4069 27.274 74.3473 27.274 74.2737C27.274 74.2002 27.2144 74.1406 27.1409 74.1406C27.0674 74.1406 27.0078 74.2002 27.0078 74.2737C27.0078 74.3473 27.0674 74.4069 27.1409 74.4069Z" fill="#F1592A"/>
<path d="M27.8829 73.9063C27.8829 73.9331 27.875 73.9592 27.8601 73.9814C27.8452 74.0036 27.824 74.0209 27.7993 74.031C27.7746 74.0412 27.7474 74.0438 27.7212 74.0384C27.695 74.0331 27.6709 74.0201 27.6522 74.001C27.6334 73.982 27.6207 73.9578 27.6157 73.9316C27.6107 73.9053 27.6136 73.8781 27.624 73.8535C27.6345 73.8289 27.6521 73.808 27.6744 73.7934C27.6968 73.7788 27.7231 73.7712 27.7498 73.7715C27.7674 73.7715 27.7849 73.775 27.8011 73.7818C27.8174 73.7886 27.8322 73.7985 27.8445 73.8111C27.8569 73.8236 27.8667 73.8385 27.8733 73.8549C27.8799 73.8712 27.8832 73.8887 27.8829 73.9063V73.9063Z" fill="#F1592A"/>
<path d="M28.4923 73.5589C28.4926 73.5857 28.485 73.612 28.4703 73.6344C28.4556 73.6569 28.4346 73.6744 28.4099 73.6848C28.3852 73.6953 28.3579 73.6981 28.3316 73.6929C28.3053 73.6878 28.2811 73.6749 28.2621 73.6559C28.2432 73.637 28.2303 73.6128 28.2252 73.5865C28.22 73.5602 28.2228 73.5329 28.2332 73.5082C28.2437 73.4835 28.2612 73.4625 28.2836 73.4478C28.3061 73.4331 28.3324 73.4255 28.3592 73.4258C28.3945 73.4258 28.4283 73.4398 28.4533 73.4648C28.4783 73.4897 28.4923 73.5236 28.4923 73.5589V73.5589Z" fill="#F1592A"/>
<path d="M37.0258 55.4539L36.4813 55.5375L34.872 54.6074L32.109 56.2031L30.4023 56.4625V57.1844L32.1329 58.1828C32.6449 58.478 33.4179 58.5105 33.8617 58.2545L36.7186 56.6042C36.7998 56.5675 36.8702 56.5103 36.9225 56.4382C36.9749 56.3661 37.0076 56.2815 37.0172 56.1929V56.1929L37.0258 55.4539Z" fill="#F1592A"/>
<path opacity="0.2" d="M37.0258 55.4539L36.4813 55.5375L34.872 54.6074L32.109 56.2031L30.4023 56.4625V57.1844L32.1329 58.1828C32.6449 58.478 33.4179 58.5105 33.8617 58.2545L36.7186 56.6042C36.7998 56.5675 36.8702 56.5103 36.9225 56.4382C36.9749 56.3661 37.0076 56.2815 37.0172 56.1929V56.1929L37.0258 55.4539Z" fill="black"/>
<path d="M36.7264 55.8823L33.8695 57.5326C33.4258 57.7886 32.6527 57.7561 32.1407 57.4609L30.4102 56.4676L34.873 53.8906L36.6035 54.889C37.1155 55.1791 37.1701 55.6263 36.7264 55.8823Z" fill="#F1592A"/>
<path d="M35.7771 54.8598L35.388 54.9195L34.2361 54.2539L32.2581 55.3956L31.043 55.5817V56.0936L32.2803 56.807C32.4679 56.9125 32.6778 56.9721 32.8928 56.981C33.1078 56.9899 33.3219 56.9478 33.5176 56.8582L35.5655 55.6789C35.6234 55.6521 35.6734 55.6109 35.7108 55.5592C35.7481 55.5075 35.7716 55.4471 35.7788 55.3837L35.7771 54.8598Z" fill="#F1592A"/>
<path opacity="0.2" d="M35.7771 54.8598L35.388 54.9195L34.2361 54.2539L32.2581 55.3956L31.043 55.5817V56.0936L32.2803 56.807C32.4679 56.9125 32.6778 56.9721 32.8928 56.981C33.1078 56.9899 33.3219 56.9478 33.5176 56.8582L35.5655 55.6789C35.6234 55.6521 35.6734 55.6109 35.7108 55.5592C35.7481 55.5075 35.7716 55.4471 35.7788 55.3837L35.7771 54.8598Z" fill="black"/>
<path d="M35.5616 55.1684L33.5137 56.3477C33.318 56.4373 33.1039 56.4794 32.8889 56.4705C32.6739 56.4616 32.464 56.402 32.2764 56.2965L31.0391 55.5831L34.2356 53.7383L35.4729 54.4534C35.8398 54.665 35.879 54.9841 35.5616 55.1684Z" fill="#F1592A"/>
<path d="M27.9853 60.804C27.987 60.7785 27.987 60.7528 27.9853 60.7272V59.6367H24.4219V60.8143C24.4406 61.0617 24.613 61.3041 24.9339 61.4969C25.3248 61.6947 25.7569 61.7978 26.1951 61.7978C26.6332 61.7978 27.0653 61.6947 27.4563 61.4969C27.7839 61.3075 27.9546 61.0652 27.9682 60.8143L27.9853 60.804Z" fill="#F1592A"/>
<path opacity="0.2" d="M27.9853 60.804C27.987 60.7785 27.987 60.7528 27.9853 60.7272V59.6367H24.4219V60.8143C24.4406 61.0617 24.613 61.3041 24.9339 61.4969C25.3248 61.6947 25.7569 61.7978 26.1951 61.7978C26.6332 61.7978 27.0653 61.6947 27.4563 61.4969C27.7839 61.3075 27.9546 61.0652 27.9682 60.8143L27.9853 60.804Z" fill="black"/>
<path d="M27.4665 58.9076C28.1628 59.3103 28.1628 59.9623 27.4665 60.3633C27.0757 60.5619 26.6436 60.6655 26.2053 60.6655C25.767 60.6655 25.3348 60.5619 24.9441 60.3633C24.2478 59.9623 24.2478 59.3103 24.9441 58.9076C25.3348 58.709 25.767 58.6055 26.2053 58.6055C26.6436 58.6055 27.0757 58.709 27.4665 58.9076Z" fill="#F1592A"/>
<path d="M38.0334 53.524V53.0547H36.6016V53.5291C36.6116 53.5881 36.6358 53.6437 36.6721 53.6912C36.7084 53.7388 36.7556 53.7769 36.8098 53.8022C36.967 53.8813 37.1406 53.9225 37.3166 53.9225C37.4927 53.9225 37.6662 53.8813 37.8235 53.8022C37.8775 53.7766 37.9246 53.7385 37.9608 53.691C37.9971 53.6435 38.0214 53.588 38.0317 53.5291V53.5291L38.0334 53.524Z" fill="#F1592A"/>
<path opacity="0.2" d="M38.0334 53.524V53.0547H36.6016V53.5291C36.6116 53.5881 36.6358 53.6437 36.6721 53.6912C36.7084 53.7388 36.7556 53.7769 36.8098 53.8022C36.967 53.8813 37.1406 53.9225 37.3166 53.9225C37.4927 53.9225 37.6662 53.8813 37.8235 53.8022C37.8775 53.7766 37.9246 53.7385 37.9608 53.691C37.9971 53.6435 38.0214 53.588 38.0317 53.5291V53.5291L38.0334 53.524Z" fill="black"/>
<path d="M37.8252 52.7621C38.1051 52.9243 38.1051 53.1854 37.8252 53.3475C37.668 53.4266 37.4944 53.4678 37.3183 53.4678C37.1423 53.4678 36.9687 53.4266 36.8115 53.3475C36.5316 53.1769 36.5316 52.9243 36.8115 52.7621C36.9685 52.6823 37.1422 52.6406 37.3183 52.6406C37.4945 52.6406 37.6682 52.6823 37.8252 52.7621V52.7621Z" fill="#F1592A"/>
<path d="M41.2638 53.3969C41.2655 53.3759 41.2655 53.3547 41.2638 53.3337V52.4395H38.3438V53.4054C38.3638 53.5258 38.413 53.6394 38.4871 53.7364C38.5611 53.8334 38.6578 53.9108 38.7687 53.9618C39.089 54.1241 39.443 54.2088 39.8021 54.2088C40.1611 54.2088 40.5152 54.1241 40.8354 53.9618C40.9459 53.9104 41.0422 53.8329 41.1159 53.736C41.1897 53.639 41.2387 53.5256 41.2587 53.4054V53.4054L41.2638 53.3969Z" fill="#F1592A"/>
<path opacity="0.2" d="M41.2638 53.3969C41.2655 53.3759 41.2655 53.3547 41.2638 53.3337V52.4395H38.3438V53.4054C38.3638 53.5258 38.413 53.6394 38.4871 53.7364C38.5611 53.8334 38.6578 53.9108 38.7687 53.9618C39.089 54.1241 39.443 54.2088 39.8021 54.2088C40.1611 54.2088 40.5152 54.1241 40.8354 53.9618C40.9459 53.9104 41.0422 53.8329 41.1159 53.736C41.1897 53.639 41.2387 53.5256 41.2587 53.4054V53.4054L41.2638 53.3969Z" fill="black"/>
<path d="M38.627 52.6523V53.8623C38.5873 53.8345 38.5512 53.8018 38.5195 53.7651V52.6523H38.627Z" fill="#F1592A"/>
<path d="M39.0333 52.6521V54.0788C38.9965 54.0671 38.9606 54.0529 38.9258 54.0362V52.6504L39.0333 52.6521Z" fill="#F1592A"/>
<path d="M39.4474 52.6523V54.1798C39.4112 54.1766 39.3752 54.1709 39.3398 54.1627V52.6523H39.4474Z" fill="#F1592A"/>
<path d="M39.8597 52.6523V54.2054H39.7539V52.6523H39.8597Z" fill="#F1592A"/>
<path d="M40.266 52.6523V54.1627C40.2311 54.1707 40.1958 54.1765 40.1602 54.1798V52.6523H40.266Z" fill="#F1592A"/>
<path d="M40.68 52.6523V54.0381C40.6458 54.0548 40.6105 54.0691 40.5742 54.0808V52.6523H40.68Z" fill="#F1592A"/>
<path d="M41.0824 52.6523V53.7668C41.0504 53.8016 41.0149 53.833 40.9766 53.8606V52.6523H41.0824Z" fill="#F1592A"/>
<path d="M40.8393 51.8407C41.4093 52.1701 41.4093 52.7043 40.8393 53.0354C40.519 53.1978 40.165 53.2824 39.8059 53.2824C39.4468 53.2824 39.0928 53.1978 38.7725 53.0354C38.2008 52.7043 38.2008 52.1701 38.7725 51.8407C39.0928 51.6784 39.4468 51.5938 39.8059 51.5938C40.165 51.5938 40.519 51.6784 40.8393 51.8407V51.8407Z" fill="#F1592A"/>
<path opacity="0.2" d="M39.8045 52.8061C40.1561 52.8061 40.4411 52.6418 40.4411 52.4392C40.4411 52.2365 40.1561 52.0723 39.8045 52.0723C39.453 52.0723 39.168 52.2365 39.168 52.4392C39.168 52.6418 39.453 52.8061 39.8045 52.8061Z" fill="black"/>
<path d="M73.2945 69.9025C73.2945 69.9025 74.3032 69.3393 74.4312 68.7078C74.5592 68.0764 73.4498 66.6309 73.4498 66.6309C73.4498 66.6309 72.6221 67.1053 73.2945 69.9025Z" fill="#F1592A"/>
<path opacity="0.2" d="M73.2945 69.9025C73.2945 69.9025 74.3032 69.3393 74.4312 68.7078C74.5592 68.0764 73.4498 66.6309 73.4498 66.6309C73.4498 66.6309 72.6221 67.1053 73.2945 69.9025Z" fill="#F1592A"/>
<path d="M60.9414 71.8496L62.4142 70.981L62.6071 69.5081L62.1002 69.3887L60.9414 71.8496Z" fill="#F1592A"/>
<path opacity="0.3" d="M60.9414 71.8496L62.4142 70.981L62.6071 69.5081L62.1002 69.3887L60.9414 71.8496Z" fill="#F1592A"/>
<path d="M69.6562 63.3787L71.0318 65.5751L71.95 68.6163C71.95 68.6163 73.6412 68.4064 72.5763 64.5016L71.781 62.1465L69.6562 63.3787Z" fill="#FFC3BD"/>
<path d="M60.6533 64.1992L60.9434 67.6995L59.9297 70.3772C59.9297 70.3772 60.4417 71.6333 62.0305 68.9778C62.8736 67.5698 62.9026 67.2899 62.9026 67.2899L63.244 64.1992H60.6533Z" fill="#FFC3BD"/>
<path d="M61.9658 30.1113L61.4538 31.1353C61.4463 31.1501 61.4421 31.1664 61.4415 31.183C61.4409 31.1996 61.4438 31.2162 61.4501 31.2315C61.4564 31.2469 61.4659 31.2608 61.4781 31.2721C61.4902 31.2835 61.5046 31.2921 61.5204 31.2974L62.1347 31.5022L61.9658 30.1113Z" fill="#ED847E"/>
<path d="M62.6806 28.3945C62.6806 28.3945 61.9023 28.8212 61.9023 31.2412C61.9023 32.5741 61.9945 33.4222 62.6874 33.371C63.3803 33.3198 65.3719 33.057 65.3719 33.057V28.3945H62.6806Z" fill="#FFC3BD"/>
<path d="M62.6825 33.3718C62.9248 33.353 63.3293 33.3087 63.7508 33.2592V33.0117C63.3707 33.1753 62.9734 33.2955 62.5664 33.3701C62.605 33.3741 62.6438 33.3747 62.6825 33.3718V33.3718Z" fill="#703838"/>
<path d="M63.6328 32.9071V34.4294H65.7132V32.291L63.6328 32.9071Z" fill="#FFA8A7"/>
<path d="M67.1915 38.2496L68.5431 41.0262L67.5328 42.354L68.2342 44.7262L70.4068 42.1663C70.5961 41.944 70.7216 41.6746 70.77 41.3867C70.8184 41.0988 70.7878 40.8032 70.6815 40.5313C70.0842 38.9953 68.893 35.9661 68.5704 35.4302C68.1369 34.7066 67.6181 34.3209 66.8399 34.3448C66.0617 34.3687 67.1915 38.2496 67.1915 38.2496Z" fill="#FFC3BD"/>
<path d="M67.848 42.8164C68.162 43.7585 68.8464 45.0828 68.8173 49.5371C68.7986 52.65 68.8276 54.401 68.8464 55.1689C68.8525 55.4449 68.9608 55.7088 69.1501 55.9096C69.4795 56.2509 70.0444 56.9882 70.5752 58.3808C71.05 59.6115 71.4534 60.8685 71.7835 62.1456C71.7835 62.1456 71.3961 63.4017 69.6587 63.3778L65.3188 56.3926C65.1441 56.1132 65.0318 55.7995 64.9894 55.4727L63.8477 46.7963V43.2482L67.848 42.8164Z" fill="#F1592A"/>
<path d="M64.7555 53.7529L65.9638 49.4266C65.9638 49.4266 67.6602 47.7012 67.056 44.7266L64.4961 47.9538L64.6258 52.8808L64.7555 53.7529Z" fill="#A93E1D"/>
<path d="M60.7734 43.0543C60.7017 44.4537 59.9405 53.1677 60.0498 55.7021C60.159 58.2364 60.6522 64.1993 60.6522 64.1993C60.6522 64.1993 62.294 64.882 63.236 64.1993C63.236 64.1993 63.6337 61.851 63.8931 59.9908C64.0517 59.0307 64.0186 58.0487 63.7958 57.1015C63.7045 56.7547 63.7045 56.3902 63.7958 56.0434L65.6441 48.9438C65.6441 48.9438 67.2415 47.8226 67.2415 44.7268V42.4023L60.7734 43.0543Z" fill="#F1592A"/>
<path d="M65.2184 33.3613L61.9058 34.5816C61.9058 34.5816 60.3477 35.9332 60.3477 38.517C60.3477 39.2406 61.0491 39.8926 61.0491 39.8926C61.0491 39.8926 60.8067 42.1607 60.7828 43.0549C60.7828 43.0549 62.4895 44.2496 65.6553 43.7786C66.7936 43.6079 67.8551 42.8126 67.8551 42.8126C67.8551 42.8126 67.3721 40.809 67.3004 40.6162C67.2288 40.4233 67.9831 38.0818 67.9831 36.2233L65.2184 33.3613Z" fill="#394A53"/>
<path d="M62.277 28.9341C62.277 28.9341 62.4101 30.1065 63.1576 30.4257C63.1576 30.4257 62.5654 31.238 63.446 31.5947V30.9667L63.8146 31.6851C63.8146 31.6851 62.777 35.8851 64.5758 35.8851C64.8873 35.8902 65.1902 35.783 65.4291 35.5831C65.4291 35.5831 65.7056 36.6821 67.3712 36.6821C69.0369 36.6821 69.3509 35.0523 69.3509 35.0523C69.3509 35.0523 68.2416 35.3936 68.2416 34.2314C68.2416 33.0692 68.1563 29.3556 68.0966 28.789C67.9841 28.1955 67.682 27.6546 67.2358 27.2474C66.7895 26.8403 66.2232 26.5889 65.6219 26.5311C64.3249 26.3775 62.6405 26.3878 61.6745 27.7258C60.7086 29.0638 62.0926 29.4324 62.0926 29.4324C62.0926 29.4324 62.1148 29.3949 62.277 28.9341Z" fill="#263238"/>
<path d="M63.4384 30.9673C63.4384 30.9673 63.3821 29.9434 64.1756 30.0219C65.087 30.1123 64.7968 31.7592 63.6858 31.7592L63.4384 30.9673Z" fill="#FFC3BD"/>
<path d="M61.9041 34.58C59.8783 35.2234 56.0265 37.2594 56.0265 37.2594L52.5023 34.1465L51.1797 35.5698C52.2704 37.03 53.5116 38.3714 54.8831 39.5718C55.1017 39.7644 55.3694 39.8927 55.6565 39.9424C55.9436 39.9921 56.2388 39.9613 56.5095 39.8534C57.216 39.5718 58.2161 39.181 58.9636 38.9011C60.2675 38.4182 63.0185 37.7423 63.0185 36.2456C63.0185 34.7489 61.9041 34.58 61.9041 34.58Z" fill="#FFC3BD"/>
<path d="M62.9023 67.2891C62.6493 67.3303 62.4095 67.4302 62.2021 67.5807C61.9946 67.7313 61.8253 67.9283 61.7077 68.156C61.3203 68.9291 60.5966 71.1017 59.9208 70.3746L60.1495 69.7688C60.1495 69.7688 57.4496 70.361 58.1016 71.0675C58.7535 71.7741 60.7741 72.0915 60.9431 71.8475C61.112 71.6034 62.0302 69.8678 62.0302 69.8678L62.5422 72.1854C62.6158 72.2494 62.71 72.2846 62.8076 72.2846C62.9051 72.2846 62.9994 72.2494 63.073 72.1854C63.073 72.1854 63.7283 67.7481 62.9023 67.2891Z" fill="#263238"/>
<path d="M71.9488 68.6181C71.9488 68.6181 72.5751 68.3518 72.4796 67.5326C72.384 66.7135 71.7559 65.0768 72.5751 64.5034C72.9386 64.2491 73.7459 65.3567 74.4285 66.6879C75.1112 68.019 75.304 68.3945 75.304 68.3945C75.304 68.3945 75.2272 68.7478 74.9166 68.7358L73.4199 67.1913C73.3231 67.663 73.3401 68.1509 73.4694 68.6146C73.6861 69.3383 73.7151 69.7598 72.9267 70.1114C72.1382 70.4629 69.9793 70.9425 71.133 69.4833C71.7065 68.758 71.9488 68.6181 71.9488 68.6181Z" fill="#263238"/>
<path d="M52.5289 34.3521C52.6117 33.8607 52.7257 33.375 52.8702 32.8981C53.029 32.4885 53.0989 32.1403 52.7098 32.2956C52.3207 32.4509 52.0135 33.149 51.9862 33.2377C51.9862 33.2377 50.0082 30.8962 49.7352 30.9201C49.4621 30.944 49.498 31.2768 50.0236 31.9919L50.5475 32.7086C50.5475 32.7086 49.1635 33.3623 49.3119 34.2088C49.4604 35.0553 51.1704 35.5741 51.1704 35.5741L52.5289 34.3521Z" fill="#FFC3BD"/>
</svg>
