<svg width="762" height="422" viewBox="0 0 762 422" fill="none" xmlns="http://www.w3.org/2000/svg">
<rect x="0.5" y="0.5" width="761" height="421" rx="3.5" fill="white"/>
<path d="M267.584 234.608V207.077C267.584 206.293 267.991 205.871 268.805 205.812H270.941C271.344 205.805 271.746 205.849 272.138 205.942C272.472 206.031 272.712 206.351 272.857 206.902L273.119 208.308C273.781 207.434 274.601 206.694 275.538 206.125C276.424 205.602 277.521 205.34 278.828 205.34C280.219 205.325 281.597 205.62 282.859 206.206C284.072 206.772 285.16 207.573 286.063 208.563C286.984 209.584 287.709 210.768 288.199 212.053C288.73 213.433 288.996 214.9 288.983 216.379C288.996 217.855 288.737 219.321 288.221 220.704C287.738 222 287.013 223.192 286.084 224.216C285.157 225.241 284.022 226.057 282.756 226.609C281.49 227.162 280.121 227.44 278.74 227.423C277.721 227.444 276.713 227.221 275.797 226.775C274.993 226.378 274.262 225.846 273.637 225.202V234.627C273.648 234.805 273.62 234.984 273.555 235.151C273.491 235.317 273.391 235.468 273.263 235.592C273.134 235.716 272.981 235.811 272.812 235.871C272.644 235.93 272.465 235.952 272.287 235.936H268.98C268.621 235.944 268.272 235.82 267.999 235.587C267.859 235.467 267.748 235.317 267.676 235.147C267.604 234.976 267.573 234.792 267.584 234.608ZM273.032 216.24C273.024 216.985 273.158 217.725 273.426 218.42C273.67 219.063 274.031 219.655 274.493 220.165C274.941 220.66 275.483 221.06 276.087 221.344C276.685 221.631 277.341 221.779 278.005 221.777C278.655 221.782 279.297 221.634 279.878 221.344C280.459 221.054 280.978 220.654 281.405 220.165C281.851 219.653 282.205 219.068 282.451 218.435C282.972 217.073 282.972 215.565 282.451 214.203C282.204 213.57 281.851 212.985 281.405 212.473C280.98 211.987 280.461 211.593 279.878 211.316C279.293 211.038 278.653 210.896 278.005 210.901C277.347 210.903 276.698 211.052 276.104 211.335C275.513 211.608 274.98 211.993 274.536 212.469C274.077 212.967 273.711 213.543 273.456 214.171C273.177 214.825 273.033 215.529 273.032 216.24Z" fill="#231F20"/>
<path d="M298.265 207.035C298.293 207.18 298.366 207.467 298.481 207.885C298.595 208.302 298.669 208.59 298.697 208.735C298.987 208.355 299.3 207.994 299.634 207.653C300.008 207.265 300.425 206.921 300.876 206.628C301.351 206.319 301.858 206.063 302.389 205.865C302.953 205.657 303.552 205.553 304.153 205.56H304.566C304.705 205.561 304.844 205.576 304.981 205.603C305.457 205.649 305.925 205.759 306.372 205.93C306.88 206.112 307.375 206.329 307.854 206.578C308.274 206.795 308.668 207.059 309.029 207.364C309.349 207.64 309.509 207.896 309.509 208.127C309.494 208.346 309.419 208.557 309.293 208.737L307.549 211.574C307.289 211.981 306.984 212.184 306.636 212.184C306.453 212.167 306.276 212.116 306.113 212.033C305.86 211.921 305.612 211.797 305.372 211.661C305.041 211.415 304.682 211.21 304.303 211.051C303.96 210.928 303.599 210.868 303.235 210.876C302.638 210.864 302.047 210.992 301.507 211.248C301.016 211.481 300.578 211.815 300.222 212.227C299.873 212.634 299.601 213.1 299.416 213.603C299.231 214.086 299.135 214.599 299.133 215.117V226.146C299.133 226.874 298.741 227.235 297.956 227.228H294.342C293.586 227.228 293.21 226.864 293.21 226.146V207.035C293.198 206.876 293.223 206.716 293.284 206.568C293.344 206.42 293.438 206.288 293.558 206.183C293.778 205.999 294.055 205.899 294.342 205.899H297.131C297.277 205.888 297.424 205.913 297.558 205.974C297.692 206.035 297.808 206.129 297.895 206.248C298.058 206.489 298.183 206.755 298.265 207.035Z" fill="#231F20"/>
<path d="M354.919 234.61V207.079C354.919 206.295 355.326 205.873 356.14 205.814H358.274C358.677 205.807 359.08 205.851 359.473 205.944C359.808 206.033 360.048 206.353 360.192 206.904L360.454 208.301C361.115 207.427 361.936 206.686 362.873 206.119C363.759 205.596 364.855 205.334 366.163 205.334C367.554 205.319 368.931 205.614 370.194 206.199C371.407 206.766 372.495 207.567 373.397 208.556C374.319 209.578 375.043 210.761 375.534 212.047C376.065 213.426 376.331 214.894 376.318 216.372C376.331 217.849 376.072 219.315 375.556 220.698C375.072 221.993 374.347 223.185 373.419 224.21C372.491 225.234 371.357 226.05 370.091 226.603C368.825 227.156 367.456 227.433 366.074 227.417C365.056 227.438 364.048 227.215 363.132 226.768C362.33 226.365 361.602 225.828 360.981 225.179V234.603C360.991 234.782 360.963 234.96 360.899 235.127C360.834 235.293 360.734 235.444 360.606 235.568C360.478 235.693 360.324 235.788 360.156 235.847C359.987 235.906 359.808 235.928 359.631 235.912H356.312C355.954 235.919 355.605 235.796 355.332 235.564C355.195 235.446 355.087 235.3 355.016 235.134C354.944 234.969 354.911 234.79 354.919 234.61ZM360.367 216.242C360.362 216.988 360.496 217.727 360.765 218.422C361.009 219.066 361.372 219.658 361.834 220.168C362.281 220.661 362.822 221.062 363.424 221.346C364.022 221.634 364.678 221.782 365.342 221.779C365.992 221.785 366.634 221.636 367.215 221.346C367.796 221.057 368.314 220.657 368.74 220.168C369.186 219.656 369.541 219.07 369.788 218.438C370.309 217.075 370.309 215.568 369.788 214.205C369.541 213.573 369.186 212.987 368.74 212.475C368.316 211.989 367.797 211.595 367.215 211.318C366.63 211.04 365.99 210.898 365.342 210.903C364.687 210.9 364.039 211.042 363.445 211.318C362.854 211.591 362.322 211.975 361.877 212.451C361.415 212.949 361.046 213.526 360.786 214.153C360.506 214.814 360.363 215.525 360.367 216.242Z" fill="#231F20"/>
<path d="M384.343 206.816L388.664 218.858L392.935 206.773C393.05 206.478 393.255 206.226 393.521 206.054C393.787 205.882 394.1 205.797 394.416 205.813H398.305C399.089 205.813 399.482 206.146 399.482 206.816C399.482 206.935 399.459 207.054 399.415 207.164C399.385 207.234 399.363 207.306 399.35 207.381L391.811 225.88C391.669 226.223 391.47 226.541 391.224 226.819C391.107 226.952 390.963 227.059 390.801 227.131C390.639 227.202 390.463 227.238 390.286 227.234H387.046C386.823 227.251 386.6 227.207 386.4 227.107C386.2 227.007 386.031 226.854 385.912 226.665C385.673 226.277 385.469 225.868 385.303 225.443L381.725 216.632C381.116 215.149 380.499 213.622 379.874 212.052C379.249 210.482 378.632 208.984 378.023 207.558C377.992 207.469 377.956 207.342 377.912 207.186C377.873 207.052 377.851 206.913 377.848 206.773C377.848 206.124 378.224 205.813 378.98 205.813H382.946C383.258 205.793 383.568 205.883 383.823 206.065C384.078 206.248 384.261 206.513 384.343 206.816Z" fill="#F15A29"/>
<path d="M402.68 199.443C402.684 198.777 402.885 198.128 403.256 197.575C403.627 197.023 404.153 196.593 404.768 196.339C405.383 196.085 406.059 196.018 406.711 196.147C407.363 196.276 407.963 196.595 408.435 197.064C408.746 197.376 408.991 197.747 409.156 198.156C409.32 198.565 409.4 199.002 409.392 199.443C409.401 199.88 409.321 200.315 409.157 200.721C408.992 201.126 408.747 201.493 408.435 201.8C407.792 202.415 406.937 202.758 406.048 202.758C405.159 202.758 404.304 202.415 403.661 201.8C403.343 201.497 403.092 201.131 402.923 200.725C402.754 200.319 402.672 199.882 402.68 199.443ZM409.131 206.861V226.234C409.131 226.903 408.771 227.237 408.051 227.237H404.251C403.581 227.237 403.248 226.902 403.248 226.234V206.861C403.234 206.582 403.328 206.309 403.51 206.097C403.606 206 403.722 205.925 403.85 205.876C403.978 205.827 404.114 205.806 404.251 205.814H408.042C408.314 205.819 408.577 205.919 408.783 206.097C408.896 206.189 408.987 206.305 409.047 206.438C409.108 206.57 409.136 206.715 409.131 206.861Z" fill="#F15A29"/>
<path d="M425.574 222.568C426.21 222.597 426.845 222.508 427.449 222.306C428.067 222.099 428.665 221.837 429.235 221.521C429.461 221.407 429.678 221.275 429.883 221.128C430.045 220.998 430.243 220.923 430.449 220.911C430.582 220.915 430.712 220.954 430.825 221.023C430.939 221.092 431.033 221.189 431.098 221.305L432.711 223.879C432.831 224.045 432.906 224.241 432.927 224.445C432.933 224.662 432.856 224.874 432.711 225.036C432.562 225.199 432.402 225.352 432.232 225.494C431.308 226.188 430.289 226.746 429.207 227.151C428.084 227.565 426.896 227.772 425.699 227.763C424.224 227.772 422.762 227.478 421.405 226.898C420.087 226.338 418.889 225.53 417.875 224.519C416.859 223.495 416.046 222.288 415.479 220.961C414.894 219.595 414.59 218.125 414.586 216.638C414.582 215.152 414.879 213.68 415.458 212.311C416.019 210.985 416.817 209.772 417.81 208.731C418.789 207.698 419.959 206.863 421.253 206.272C422.567 205.674 423.995 205.369 425.438 205.377C426.799 205.371 428.148 205.638 429.404 206.162C430.626 206.668 431.745 207.396 432.703 208.31C433.644 209.207 434.399 210.282 434.925 211.471C435.461 212.685 435.734 213.999 435.727 215.325C435.727 216.459 435.632 217.283 435.444 217.791C435.256 218.299 434.841 218.554 434.202 218.554H420.642C420.689 219.16 420.884 219.744 421.21 220.256C421.524 220.744 421.922 221.173 422.385 221.521C422.852 221.871 423.376 222.136 423.934 222.306C424.464 222.476 425.017 222.564 425.574 222.568ZM420.649 214.322H430.02C429.992 213.78 429.852 213.25 429.608 212.766C429.364 212.282 429.021 211.854 428.602 211.51C427.69 210.724 426.516 210.308 425.312 210.345C424.776 210.348 424.244 210.45 423.744 210.648C423.222 210.848 422.736 211.132 422.305 211.489C421.874 211.846 421.509 212.277 421.225 212.76C420.933 213.239 420.735 213.769 420.642 214.322H420.649Z" fill="#F15A29"/>
<path d="M474.9 207.163C474.891 206.986 474.919 206.809 474.983 206.643C475.047 206.478 475.145 206.328 475.272 206.203C475.54 205.963 475.893 205.838 476.252 205.855H491.724C492.064 205.852 492.395 205.968 492.659 206.182C492.801 206.301 492.912 206.452 492.984 206.623C493.056 206.793 493.087 206.979 493.074 207.163V210.087C493.073 210.197 493.066 210.306 493.052 210.414C493.027 210.568 492.959 210.712 492.856 210.829L482.789 221.824H491.89C492.792 221.824 493.242 222.275 493.242 223.176V225.795C493.237 226.155 493.106 226.503 492.871 226.777C492.755 226.925 492.605 227.043 492.435 227.123C492.265 227.202 492.078 227.241 491.89 227.235H475.766C475.585 227.238 475.404 227.201 475.239 227.126C475.073 227.051 474.926 226.941 474.807 226.803C474.553 226.531 474.412 226.172 474.414 225.799V223.483C474.414 223.336 474.414 223.184 474.436 223.024C474.459 222.848 474.544 222.686 474.675 222.566C475.432 221.722 476.267 220.821 477.181 219.86C478.096 218.9 479.018 217.926 479.949 216.937L482.716 213.993C483.632 213.019 484.468 212.109 485.224 211.266H476.246C475.343 211.266 474.892 210.8 474.894 209.869L474.9 207.163Z" fill="#F15A29"/>
<path style="mix-blend-mode:multiply" d="M330.858 238.803C359.442 238.803 382.614 235.125 382.614 230.589C382.614 226.052 359.442 222.375 330.858 222.375C302.274 222.375 279.102 226.052 279.102 230.589C279.102 235.125 302.274 238.803 330.858 238.803Z" fill="url(#paint0_radial_2342_29297)"/>
<path d="M330.858 198.904C327.729 198.906 324.67 199.836 322.068 201.577C319.467 203.319 317.439 205.793 316.242 208.688C315.045 211.583 314.733 214.768 315.343 217.84C315.954 220.913 317.461 223.736 319.674 225.951C321.887 228.166 324.706 229.675 327.776 230.287C330.845 230.898 334.026 230.585 336.918 229.387C339.809 228.188 342.281 226.159 344.021 223.554C345.76 220.95 346.689 217.887 346.69 214.754C346.692 212.672 346.284 210.611 345.489 208.687C344.694 206.763 343.527 205.015 342.057 203.543C340.587 202.071 338.841 200.903 336.919 200.107C334.997 199.311 332.938 198.903 330.858 198.904ZM330.858 221.761C329.472 221.761 328.117 221.35 326.964 220.578C325.811 219.807 324.913 218.711 324.383 217.429C323.853 216.146 323.715 214.735 323.986 213.374C324.257 212.013 324.925 210.763 325.906 209.782C326.887 208.801 328.136 208.134 329.496 207.864C330.856 207.594 332.266 207.734 333.546 208.267C334.826 208.799 335.92 209.7 336.689 210.854C337.458 212.009 337.868 213.366 337.866 214.754C337.866 215.675 337.686 216.588 337.333 217.439C336.981 218.289 336.465 219.063 335.814 219.713C335.163 220.364 334.39 220.88 333.54 221.232C332.69 221.583 331.778 221.763 330.858 221.761Z" fill="#F15A29"/>
<path d="M333.243 218.885C336.306 218.885 338.79 216.399 338.79 213.332C338.79 210.264 336.306 207.778 333.243 207.778C330.179 207.778 327.695 210.264 327.695 213.332C327.695 216.399 330.179 218.885 333.243 218.885Z" fill="#231F20"/>
<path d="M365.692 199.974L365.679 199.961L365.869 200.108L365.724 199.954L365.869 200.062C365.869 200.062 365.195 199.392 364.076 198.293L364.059 198.274L363.257 197.409L344.788 178.607C344.544 178.39 344.304 178.174 344.058 177.958C343.17 177.188 341.977 176.269 340.774 176.012C339.929 175.834 339.087 176.213 338.339 176.55L315.426 186.846L301.111 192.469C300.061 193.025 299.229 194.561 298.927 196.087L297.695 200.108L300.895 200.062H309.706C310.861 200.056 311.996 199.769 313.015 199.225L337.48 189.379L341.191 188.04L346.123 192.978L351.052 197.908C352.061 198.921 352.945 199.796 354.349 200.071L365.83 200.116H365.876C365.811 200.062 365.752 200.017 365.692 199.974Z" fill="#231F20"/>
<path d="M469.978 205.814H466.012C465.704 205.812 465.403 205.904 465.148 206.076C464.857 206.291 464.643 206.594 464.539 206.941C464.043 208.338 463.564 209.72 463.1 211.087C462.636 212.453 462.157 213.823 461.661 215.196L460.441 218.556C460.225 218.029 459.793 216.087 459.335 213.948C459.298 213.764 459.259 213.58 459.22 213.396L457.678 206.692C457.613 206.108 457.214 205.814 456.47 205.814H452.975C452.622 205.787 452.271 205.896 451.995 206.119C451.751 206.363 451.565 206.659 451.45 206.984L448.709 218.511C448.303 217.434 447.91 216.353 447.532 215.267C447.153 214.181 446.746 213.028 446.311 211.807L444.613 206.876C444.486 206.581 444.291 206.319 444.045 206.113C443.799 205.92 443.493 205.82 443.181 205.829H439.208C438.452 205.829 438.074 206.149 438.074 206.789C438.075 206.968 438.105 207.144 438.163 207.313C438.207 207.378 438.237 207.452 438.249 207.529C438.277 207.644 438.372 207.905 438.532 208.314C438.692 208.723 438.917 209.311 439.208 210.081C439.5 210.851 439.913 211.913 440.45 213.267L442.455 218.306C443.254 220.313 444.235 222.741 445.397 225.592C445.546 225.977 445.728 226.349 445.942 226.703C446.159 227.068 446.544 227.25 447.097 227.25H450.323C450.495 227.263 450.668 227.234 450.827 227.165C450.986 227.097 451.127 226.991 451.236 226.857C451.42 226.626 451.58 226.377 451.716 226.115L451.759 225.985C451.759 225.927 451.774 225.897 451.804 225.897L452.761 223.498C452.905 223.089 453.065 222.681 453.241 222.276C453.417 221.871 453.577 221.464 453.721 221.054L454.585 218.959C454.729 219.338 454.852 219.658 454.954 219.919C455.056 220.181 455.17 220.473 455.326 220.784L457.198 225.451C457.227 225.54 457.272 225.685 457.33 225.884C457.392 226.097 457.48 226.303 457.592 226.496C457.71 226.704 457.874 226.883 458.071 227.019C458.318 227.176 458.607 227.251 458.899 227.235H462.037C462.243 227.252 462.45 227.215 462.638 227.127C462.825 227.039 462.986 226.903 463.104 226.733C463.32 226.398 463.474 226.143 463.562 225.97L471.015 207.339C471.105 207.148 471.149 206.938 471.145 206.727C471.15 206.118 470.762 205.814 469.978 205.814Z" fill="#F15A29"/>
<path d="M330.67 258.364V270H329.057L323.142 261.466H323.034V270H321.278V258.364H322.903L328.824 266.909H328.932V258.364H330.67ZM336.771 270.176C335.953 270.176 335.239 269.989 334.629 269.614C334.019 269.239 333.546 268.714 333.209 268.04C332.872 267.366 332.703 266.578 332.703 265.676C332.703 264.771 332.872 263.979 333.209 263.301C333.546 262.623 334.019 262.097 334.629 261.722C335.239 261.347 335.953 261.159 336.771 261.159C337.589 261.159 338.304 261.347 338.913 261.722C339.523 262.097 339.997 262.623 340.334 263.301C340.671 263.979 340.839 264.771 340.839 265.676C340.839 266.578 340.671 267.366 340.334 268.04C339.997 268.714 339.523 269.239 338.913 269.614C338.304 269.989 337.589 270.176 336.771 270.176ZM336.777 268.75C337.307 268.75 337.747 268.61 338.095 268.33C338.444 268.049 338.701 267.676 338.868 267.21C339.038 266.744 339.124 266.231 339.124 265.67C339.124 265.114 339.038 264.602 338.868 264.136C338.701 263.667 338.444 263.29 338.095 263.006C337.747 262.722 337.307 262.58 336.777 262.58C336.243 262.58 335.8 262.722 335.447 263.006C335.099 263.29 334.839 263.667 334.669 264.136C334.502 264.602 334.419 265.114 334.419 265.67C334.419 266.231 334.502 266.744 334.669 267.21C334.839 267.676 335.099 268.049 335.447 268.33C335.8 268.61 336.243 268.75 336.777 268.75ZM348.862 258.364V270H347.107V258.364H348.862ZM351.283 270V261.273H352.913V262.693H353.021C353.203 262.212 353.5 261.837 353.913 261.568C354.326 261.295 354.821 261.159 355.396 261.159C355.98 261.159 356.468 261.295 356.862 261.568C357.26 261.841 357.554 262.216 357.743 262.693H357.834C358.042 262.227 358.374 261.856 358.828 261.58C359.283 261.299 359.824 261.159 360.453 261.159C361.245 261.159 361.891 261.407 362.391 261.903C362.894 262.4 363.146 263.148 363.146 264.148V270H361.447V264.307C361.447 263.716 361.286 263.288 360.964 263.023C360.643 262.758 360.258 262.625 359.811 262.625C359.258 262.625 358.828 262.795 358.521 263.136C358.214 263.473 358.061 263.907 358.061 264.438V270H356.368V264.199C356.368 263.725 356.22 263.345 355.925 263.057C355.629 262.769 355.245 262.625 354.771 262.625C354.449 262.625 354.152 262.71 353.879 262.881C353.61 263.047 353.393 263.28 353.226 263.58C353.063 263.879 352.982 264.225 352.982 264.619V270H351.283ZM367.963 270.193C367.41 270.193 366.91 270.091 366.463 269.886C366.016 269.678 365.662 269.377 365.401 268.983C365.143 268.589 365.014 268.106 365.014 267.534C365.014 267.042 365.109 266.636 365.298 266.318C365.488 266 365.743 265.748 366.065 265.562C366.387 265.377 366.747 265.237 367.145 265.142C367.543 265.047 367.948 264.975 368.361 264.926C368.884 264.866 369.308 264.816 369.634 264.778C369.959 264.737 370.196 264.67 370.344 264.58C370.491 264.489 370.565 264.341 370.565 264.136V264.097C370.565 263.6 370.425 263.216 370.145 262.943C369.868 262.67 369.455 262.534 368.906 262.534C368.334 262.534 367.884 262.661 367.554 262.915C367.228 263.165 367.003 263.443 366.878 263.75L365.281 263.386C365.471 262.856 365.747 262.428 366.111 262.102C366.478 261.773 366.901 261.534 367.378 261.386C367.855 261.235 368.357 261.159 368.884 261.159C369.232 261.159 369.601 261.201 369.991 261.284C370.385 261.364 370.753 261.511 371.094 261.727C371.438 261.943 371.721 262.252 371.94 262.653C372.16 263.051 372.27 263.568 372.27 264.205V270H370.611V268.807H370.543C370.433 269.027 370.268 269.242 370.048 269.455C369.829 269.667 369.546 269.843 369.202 269.983C368.857 270.123 368.444 270.193 367.963 270.193ZM368.332 268.83C368.802 268.83 369.204 268.737 369.537 268.551C369.874 268.366 370.13 268.123 370.304 267.824C370.482 267.521 370.571 267.197 370.571 266.852V265.727C370.51 265.788 370.393 265.845 370.219 265.898C370.048 265.947 369.853 265.991 369.634 266.028C369.414 266.062 369.2 266.095 368.991 266.125C368.783 266.152 368.609 266.174 368.469 266.193C368.139 266.235 367.838 266.305 367.565 266.403C367.296 266.502 367.08 266.644 366.918 266.83C366.759 267.011 366.679 267.254 366.679 267.557C366.679 267.977 366.834 268.295 367.145 268.511C367.455 268.723 367.851 268.83 368.332 268.83ZM378.192 273.455C377.499 273.455 376.902 273.364 376.402 273.182C375.906 273 375.5 272.759 375.186 272.46C374.872 272.161 374.637 271.833 374.482 271.477L375.942 270.875C376.044 271.042 376.18 271.218 376.351 271.403C376.525 271.593 376.76 271.754 377.055 271.886C377.355 272.019 377.739 272.085 378.209 272.085C378.853 272.085 379.385 271.928 379.805 271.614C380.226 271.303 380.436 270.807 380.436 270.125V268.409H380.328C380.226 268.595 380.078 268.801 379.885 269.028C379.696 269.256 379.434 269.453 379.101 269.619C378.768 269.786 378.334 269.869 377.8 269.869C377.11 269.869 376.489 269.708 375.936 269.386C375.387 269.061 374.951 268.581 374.629 267.949C374.311 267.312 374.152 266.53 374.152 265.602C374.152 264.674 374.309 263.879 374.624 263.216C374.942 262.553 375.377 262.045 375.93 261.693C376.483 261.337 377.11 261.159 377.811 261.159C378.353 261.159 378.79 261.25 379.124 261.432C379.457 261.61 379.716 261.818 379.902 262.057C380.091 262.295 380.237 262.506 380.339 262.688H380.464V261.273H382.129V270.193C382.129 270.943 381.955 271.559 381.607 272.04C381.258 272.521 380.786 272.877 380.192 273.108C379.601 273.339 378.934 273.455 378.192 273.455ZM378.175 268.46C378.663 268.46 379.076 268.347 379.413 268.119C379.754 267.888 380.012 267.559 380.186 267.131C380.364 266.699 380.453 266.182 380.453 265.58C380.453 264.992 380.366 264.475 380.192 264.028C380.018 263.581 379.762 263.233 379.425 262.983C379.088 262.729 378.671 262.602 378.175 262.602C377.663 262.602 377.237 262.735 376.896 263C376.555 263.261 376.298 263.617 376.124 264.068C375.953 264.519 375.868 265.023 375.868 265.58C375.868 266.152 375.955 266.653 376.129 267.085C376.304 267.517 376.561 267.854 376.902 268.097C377.247 268.339 377.671 268.46 378.175 268.46ZM388.169 270.176C387.309 270.176 386.569 269.992 385.947 269.625C385.33 269.254 384.853 268.733 384.516 268.062C384.182 267.388 384.016 266.598 384.016 265.693C384.016 264.799 384.182 264.011 384.516 263.33C384.853 262.648 385.322 262.116 385.925 261.733C386.531 261.35 387.239 261.159 388.05 261.159C388.542 261.159 389.019 261.241 389.482 261.403C389.944 261.566 390.358 261.822 390.726 262.17C391.093 262.519 391.383 262.972 391.595 263.528C391.807 264.081 391.913 264.754 391.913 265.545V266.148H384.976V264.875H390.249C390.249 264.428 390.158 264.032 389.976 263.688C389.794 263.339 389.538 263.064 389.209 262.864C388.883 262.663 388.5 262.562 388.061 262.562C387.584 262.562 387.167 262.68 386.811 262.915C386.459 263.146 386.186 263.449 385.993 263.824C385.804 264.195 385.709 264.598 385.709 265.034V266.028C385.709 266.612 385.811 267.108 386.016 267.517C386.224 267.926 386.514 268.239 386.885 268.455C387.256 268.667 387.69 268.773 388.186 268.773C388.508 268.773 388.802 268.727 389.067 268.636C389.332 268.542 389.561 268.402 389.754 268.216C389.947 268.03 390.095 267.801 390.197 267.528L391.805 267.818C391.677 268.292 391.446 268.706 391.112 269.062C390.783 269.415 390.368 269.689 389.868 269.886C389.372 270.08 388.805 270.176 388.169 270.176ZM402.186 261.273V262.636H397.254V261.273H402.186ZM398.607 270V260.261C398.607 259.716 398.726 259.263 398.964 258.903C399.203 258.54 399.519 258.269 399.913 258.091C400.307 257.909 400.735 257.818 401.197 257.818C401.538 257.818 401.83 257.847 402.072 257.903C402.315 257.956 402.495 258.006 402.612 258.051L402.214 259.426C402.135 259.403 402.033 259.377 401.908 259.347C401.783 259.312 401.631 259.295 401.453 259.295C401.04 259.295 400.745 259.398 400.567 259.602C400.393 259.807 400.305 260.102 400.305 260.489V270H398.607ZM407.271 270.176C406.453 270.176 405.739 269.989 405.129 269.614C404.519 269.239 404.046 268.714 403.709 268.04C403.372 267.366 403.203 266.578 403.203 265.676C403.203 264.771 403.372 263.979 403.709 263.301C404.046 262.623 404.519 262.097 405.129 261.722C405.739 261.347 406.453 261.159 407.271 261.159C408.089 261.159 408.804 261.347 409.413 261.722C410.023 262.097 410.497 262.623 410.834 263.301C411.171 263.979 411.339 264.771 411.339 265.676C411.339 266.578 411.171 267.366 410.834 268.04C410.497 268.714 410.023 269.239 409.413 269.614C408.804 269.989 408.089 270.176 407.271 270.176ZM407.277 268.75C407.807 268.75 408.247 268.61 408.595 268.33C408.944 268.049 409.201 267.676 409.368 267.21C409.538 266.744 409.624 266.231 409.624 265.67C409.624 265.114 409.538 264.602 409.368 264.136C409.201 263.667 408.944 263.29 408.595 263.006C408.247 262.722 407.807 262.58 407.277 262.58C406.743 262.58 406.3 262.722 405.947 263.006C405.599 263.29 405.339 263.667 405.169 264.136C405.002 264.602 404.919 265.114 404.919 265.67C404.919 266.231 405.002 266.744 405.169 267.21C405.339 267.676 405.599 268.049 405.947 268.33C406.3 268.61 406.743 268.75 407.277 268.75ZM418.764 266.381V261.273H420.469V270H418.798V268.489H418.707C418.507 268.955 418.185 269.343 417.741 269.653C417.302 269.96 416.755 270.114 416.099 270.114C415.539 270.114 415.043 269.991 414.611 269.744C414.183 269.494 413.846 269.125 413.599 268.636C413.357 268.148 413.236 267.544 413.236 266.824V261.273H414.935V266.619C414.935 267.214 415.099 267.687 415.429 268.04C415.759 268.392 416.187 268.568 416.713 268.568C417.031 268.568 417.348 268.489 417.662 268.33C417.98 268.17 418.243 267.93 418.452 267.608C418.664 267.286 418.768 266.877 418.764 266.381ZM424.45 264.818V270H422.751V261.273H424.382V262.693H424.49C424.691 262.231 425.005 261.86 425.433 261.58C425.865 261.299 426.409 261.159 427.064 261.159C427.659 261.159 428.179 261.284 428.626 261.534C429.073 261.78 429.42 262.148 429.666 262.636C429.912 263.125 430.036 263.729 430.036 264.449V270H428.337V264.653C428.337 264.021 428.172 263.527 427.842 263.17C427.513 262.811 427.06 262.631 426.484 262.631C426.09 262.631 425.74 262.716 425.433 262.886C425.13 263.057 424.89 263.307 424.712 263.636C424.537 263.962 424.45 264.356 424.45 264.818ZM435.581 270.17C434.876 270.17 434.248 269.991 433.695 269.631C433.145 269.267 432.714 268.75 432.399 268.08C432.089 267.405 431.933 266.597 431.933 265.653C431.933 264.71 432.09 263.903 432.405 263.233C432.723 262.562 433.159 262.049 433.712 261.693C434.265 261.337 434.892 261.159 435.592 261.159C436.134 261.159 436.57 261.25 436.899 261.432C437.232 261.61 437.49 261.818 437.672 262.057C437.857 262.295 438.001 262.506 438.104 262.688H438.206V258.364H439.905V270H438.246V268.642H438.104C438.001 268.828 437.854 269.04 437.661 269.278C437.471 269.517 437.21 269.725 436.876 269.903C436.543 270.081 436.111 270.17 435.581 270.17ZM435.956 268.722C436.445 268.722 436.857 268.593 437.195 268.335C437.536 268.074 437.793 267.712 437.967 267.25C438.145 266.788 438.234 266.25 438.234 265.636C438.234 265.03 438.147 264.5 437.973 264.045C437.799 263.591 437.543 263.237 437.206 262.983C436.869 262.729 436.452 262.602 435.956 262.602C435.445 262.602 435.018 262.735 434.678 263C434.337 263.265 434.079 263.627 433.905 264.085C433.734 264.544 433.649 265.061 433.649 265.636C433.649 266.22 433.736 266.744 433.911 267.21C434.085 267.676 434.342 268.045 434.683 268.318C435.028 268.587 435.452 268.722 435.956 268.722Z" fill="#383838"/>
<rect x="0.5" y="0.5" width="761" height="421" rx="3.5" stroke="#F1592A"/>
<defs>
<radialGradient id="paint0_radial_2342_29297" cx="0" cy="0" r="1" gradientUnits="userSpaceOnUse" gradientTransform="translate(330.812 229.662) scale(52.0462 8.2606)">
<stop stop-color="#2E649B"/>
<stop offset="0.06" stop-color="#5985B0"/>
<stop offset="0.12" stop-color="#80A1C2"/>
<stop offset="0.18" stop-color="#A3BBD3"/>
<stop offset="0.26" stop-color="#BFD0E1"/>
<stop offset="0.33" stop-color="#D7E1EC"/>
<stop offset="0.43" stop-color="#E9EFF4"/>
<stop offset="0.53" stop-color="#F6F8FA"/>
<stop offset="0.68" stop-color="#FDFDFE"/>
<stop offset="1" stop-color="white"/>
</radialGradient>
</defs>
</svg>
