<svg width="239" height="211" viewBox="0 0 239 211" fill="none" xmlns="http://www.w3.org/2000/svg">
<path d="M6.50867 84.727C4.93805 80.3206 4.65346 75.5265 5.6909 70.9511C6.72833 66.3757 9.04118 62.2245 12.3369 59.0226C15.6327 55.8207 19.7632 53.7118 24.2062 52.9628C28.6492 52.2137 33.205 52.8581 37.2974 54.8145C41.3899 56.7709 44.835 59.9513 47.1972 63.9536C49.5594 67.9559 50.7325 72.6002 50.5682 77.2991C50.4038 81.998 48.9094 86.5404 46.2739 90.3518C43.6384 94.1633 39.9802 97.0725 35.762 98.7116C30.1078 100.909 23.8498 100.67 18.3641 98.0473C12.8784 95.4249 8.61402 90.6336 6.50867 84.727Z" fill="#EBEBEB"/>
<path d="M39.6648 77.996C37.0645 85.5961 29.4196 90.8531 29.4196 90.8531C29.4196 90.8531 20.8321 87.5794 16.6196 80.8078C13.1092 75.1637 14.1883 68.4669 18.5113 66.504C24.7065 63.6854 27.6644 75.1773 27.6644 75.1773C27.6644 75.1773 28.0089 63.2847 34.6657 64.5276C39.3072 65.3969 41.8295 71.6387 39.6648 77.996Z" fill="#9C9C9C"/>
<path d="M220.201 172.779C215.912 175.049 211.046 175.841 206.301 175.041C201.555 174.242 197.173 171.894 193.784 168.332C190.395 164.77 188.173 160.178 187.437 155.215C186.7 150.252 187.487 145.173 189.684 140.706C191.882 136.239 195.377 132.614 199.668 130.351C203.959 128.088 208.826 127.303 213.571 128.109C218.316 128.915 222.694 131.27 226.079 134.836C229.463 138.403 231.679 142.998 232.409 147.962C233.168 152.917 232.393 157.997 230.197 162.46C228.001 166.924 224.499 170.539 220.201 172.779Z" fill="#EBEBEB"/>
<path d="M217.043 149.504C216.926 150.928 216.407 152.284 215.553 153.4C214.698 154.516 213.546 155.343 212.242 155.775C210.938 156.207 209.541 156.225 208.227 155.828C206.913 155.43 205.741 154.634 204.86 153.54C203.979 152.447 203.428 151.105 203.277 149.685C203.126 148.264 203.381 146.828 204.011 145.56C204.641 144.291 205.616 143.245 206.815 142.556C208.013 141.867 209.38 141.564 210.743 141.686C212.571 141.85 214.261 142.766 215.443 144.232C216.624 145.698 217.199 147.594 217.043 149.504Z" fill="#9C9C9C"/>
<path d="M220.443 169.839L220.203 172.807C216.436 174.799 212.211 175.654 208.004 175.275C203.797 174.896 199.775 173.298 196.391 170.66L196.631 167.706C196.902 164.407 198.416 161.355 200.84 159.222C203.264 157.089 206.4 156.05 209.558 156.333C212.716 156.616 215.636 158.197 217.678 160.73C219.719 163.263 220.714 166.539 220.443 169.839Z" fill="#9C9C9C"/>
<path d="M176.961 58.3152C189.225 51.7356 194.062 36.0143 187.765 23.2007C181.467 10.3872 166.42 5.33357 154.156 11.9132C141.891 18.4928 137.054 34.2141 143.352 47.0277C149.649 59.8412 164.697 64.8948 176.961 58.3152Z" fill="#EBEBEB"/>
<path fill-rule="evenodd" clip-rule="evenodd" d="M162.154 45.4768C161.504 45.0421 160.919 44.4105 160.035 44.4988C159.697 44.4988 159.768 44.2407 159.768 44.0505C159.768 40.573 159.768 37.1024 159.768 33.6249C159.768 33.3736 159.768 33.1698 160.048 33.0272C162.589 31.6688 163.688 29.0607 165.248 26.8058C166.046 25.6892 166.621 24.4161 166.938 23.0626C167.255 21.7091 167.308 20.3027 167.094 18.9272C166.984 18.1461 167.335 17.7929 168.011 17.6367C168.349 17.5137 168.716 17.5073 169.058 17.6186C169.399 17.7299 169.698 17.9529 169.909 18.2548C170.638 19.6764 171.128 21.2178 171.359 22.8122C171.502 24.1298 171.053 25.4135 170.897 26.7107C170.78 27.6684 170.566 28.6125 170.39 29.5769C170.618 29.7467 170.871 29.6584 171.112 29.6584H179.563C180.746 29.6584 181.325 30.0116 181.513 30.8334C181.604 31.3392 181.534 31.8623 181.314 32.3225C181.093 32.7826 180.733 33.1543 180.291 33.3804C180.083 33.4891 179.699 33.3804 179.673 33.7336C179.647 34.0867 180.044 34.046 180.232 34.1886C181.253 34.9154 181.064 36.4232 179.888 37.2857C179.602 37.4963 179.056 37.4012 179.043 37.8359C179.03 38.2706 179.55 38.1755 179.777 38.42C180.603 39.269 180.193 40.8515 178.965 41.4899C178.796 41.5444 178.631 41.6102 178.471 41.6869C178.334 41.7888 178.198 41.8975 178.471 42.0944C179.686 43.0045 179.66 44.2678 178.432 45.1915L178.068 45.4632C177.622 45.7424 177.102 45.8617 176.585 45.8028C172.182 45.8028 167.779 45.8028 163.376 45.8028C163.162 45.8383 162.943 45.8277 162.733 45.7716C162.523 45.7155 162.326 45.6152 162.154 45.4768Z" fill="#9C9C9C"/>
<path fill-rule="evenodd" clip-rule="evenodd" d="M149.625 39.3501C149.625 37.1428 149.625 34.9286 149.625 32.728C149.625 32.2798 149.671 32.0488 150.198 32.0488C152.772 32.0851 155.348 32.0851 157.927 32.0488C158.427 32.0488 158.505 32.2254 158.505 32.728C158.505 37.1699 158.505 41.6119 158.505 46.0538C158.505 46.6243 158.362 46.7805 157.823 46.7737C155.32 46.7737 152.824 46.7737 150.321 46.7737C149.671 46.7737 149.619 46.5564 149.625 45.9859C149.645 43.7921 149.625 41.5575 149.625 39.3501Z" fill="#9C9C9C"/>
<path d="M67.3975 155.208L19.9485 176L2.85156 134.71L20.1566 108.822L50.3005 113.918L67.3975 155.208Z" fill="#F1592A"/>
<path opacity="0.2" d="M67.3975 155.208L19.9485 176L2.85156 134.71L20.1566 108.822L50.3005 113.918L67.3975 155.208Z" fill="black"/>
<path d="M64.5589 155.977L22.4601 174.422L0 120.178L31.2556 106.475L46.4804 112.32L64.5589 155.977Z" fill="#EBEBEB"/>
<path d="M31.2539 106.475L46.4787 112.32L35.6354 117.068L31.2539 106.475Z" fill="#DBDBDB"/>
<path d="M8.56563 129.119L31.9688 118.865L31.3778 117.437L7.97465 127.692L8.56563 129.119Z" fill="#DBDBDB"/>
<path d="M10.0578 132.725L33.4609 122.471L32.87 121.043L9.46684 131.298L10.0578 132.725Z" fill="#DBDBDB"/>
<path d="M11.5539 136.329L34.957 126.074L34.366 124.647L10.9629 134.901L11.5539 136.329Z" fill="#DBDBDB"/>
<path d="M13.0339 139.931L47.3281 124.905L46.7371 123.477L12.4429 138.504L13.0339 139.931Z" fill="#DBDBDB"/>
<path d="M14.526 143.537L48.8203 128.51L48.2293 127.083L13.9351 142.109L14.526 143.537Z" fill="#DBDBDB"/>
<path d="M16.0221 147.14L50.3164 132.113L49.7254 130.686L15.4311 145.712L16.0221 147.14Z" fill="#DBDBDB"/>
<path d="M17.5104 150.739L51.8047 135.713L51.2137 134.285L16.9194 149.312L17.5104 150.739Z" fill="#DBDBDB"/>
<path d="M19.0065 154.343L53.3008 139.316L52.7098 137.889L18.4155 152.915L19.0065 154.343Z" fill="#DBDBDB"/>
<path d="M20.4948 157.949L54.7891 142.922L54.1981 141.495L19.9038 156.521L20.4948 157.949Z" fill="#DBDBDB"/>
<path d="M21.9909 161.553L56.2852 146.526L55.6942 145.099L21.3999 160.125L21.9909 161.553Z" fill="#DBDBDB"/>
<path d="M23.4792 165.152L57.7734 150.125L57.1824 148.698L22.8882 163.725L23.4792 165.152Z" fill="#DBDBDB"/>
<path d="M24.9753 168.749L59.2695 153.723L58.6785 152.295L24.3843 167.322L24.9753 168.749Z" fill="#DBDBDB"/>
<path d="M54.5792 124.257L67.3987 155.208L19.9432 176L7.13672 145.069C9.66551 145.364 12.1813 145.738 14.7036 146.066C17.2259 146.393 19.7482 146.781 22.264 147.169C25.0679 147.584 27.8849 148.03 30.7149 148.507L30.7669 148.427C30.7669 148.427 30.7669 148.48 30.7279 148.507L37.0337 149.523C38.2493 147.731 39.4584 145.925 40.6806 144.14C40.6806 144.14 40.6351 144.14 40.6026 144.14H40.6936C42.3188 141.746 43.9548 139.36 45.6017 136.984C47.0795 134.857 48.566 132.737 50.0612 130.624C51.5498 128.457 53.032 126.344 54.5792 124.257Z" fill="#F1592A"/>
<g opacity="0.2">
<path d="M54.5792 124.257C53.24 126.478 51.8359 128.664 50.4707 130.871C49.1056 133.078 47.6754 135.245 46.2647 137.425C44.8541 139.606 43.3004 141.966 41.8117 144.22L41.6817 144.434L37.6967 150.419L37.4952 150.707L37.1637 150.654C34.8429 150.259 32.5351 149.858 30.2209 149.45L29.9738 149.41C27.3735 148.955 24.7733 148.493 22.1209 148.005C19.6247 147.55 17.1219 147.069 14.6191 146.587C12.1163 146.106 9.62651 145.598 7.13672 145.056C9.66551 145.35 12.1813 145.725 14.7036 146.052C17.2259 146.38 19.7482 146.768 22.264 147.156C25.0679 147.57 27.8849 148.016 30.7149 148.493L37.0207 149.51C38.2363 147.718 39.4454 145.912 40.6676 144.126C42.2928 141.732 43.9288 139.347 45.5756 136.971C47.0535 134.844 48.54 132.724 50.0352 130.611C51.5498 128.457 53.032 126.344 54.5792 124.257Z" fill="black"/>
<path d="M30.7344 148.413C30.7344 148.413 30.7344 148.467 30.6954 148.493C30.5394 148.821 30.3833 149.162 30.2208 149.47C29.4602 151.028 28.6476 152.553 27.8091 154.051C26.7884 155.903 25.7093 157.716 24.6237 159.528C23.5381 161.34 22.4134 163.106 21.2433 164.878C20.0732 166.65 18.89 168.376 17.6094 170.054C18.5065 168.128 19.5076 166.262 20.5282 164.417C21.5488 162.571 22.628 160.752 23.7071 158.946C24.7862 157.14 25.9238 155.362 27.094 153.596C28.0171 152.192 28.9727 150.794 29.9738 149.436C30.2078 149.122 30.4419 148.808 30.6824 148.5L30.7344 148.413Z" fill="black"/>
<path d="M64.8246 149.323C62.7574 149.109 60.7096 148.788 58.6749 148.434C56.6402 148.079 54.6119 147.665 52.5837 147.25C50.5555 146.835 48.5467 146.34 46.5445 145.819C44.9128 145.398 43.2941 144.949 41.6819 144.434L40.6483 144.1C40.6483 144.1 40.6028 144.1 40.5703 144.1H40.6613C41.0514 144.147 41.4284 144.187 41.812 144.241C43.4566 144.434 45.0623 144.695 46.72 144.976C48.7613 145.331 50.783 145.745 52.8047 146.173C54.8265 146.601 56.8417 147.083 58.8439 147.604C60.8461 148.126 62.8484 148.654 64.8246 149.323Z" fill="black"/>
</g>
<path d="M170.662 105.449L177.793 102.515L169.655 80.9238L160.625 84.639L170.662 105.449Z" fill="#F1592A"/>
<path d="M160.625 84.639L164.454 92.5788L170.662 105.449L177.8 102.515L169.655 80.9238L160.625 84.639Z" fill="#F1592A"/>
<path opacity="0.1" d="M160.625 84.639L164.454 92.5788L172.762 89.1556L169.655 80.9238L160.625 84.639Z" fill="black"/>
<path d="M160.988 88.1978L172.219 83.5732L168.856 74.6573L157.624 79.2819L160.988 88.1978Z" fill="#F1592A"/>
<path d="M148.873 79.0971L157.948 76.4143L152.507 61.9883L144.121 66.4913L148.873 79.0971Z" fill="#F1592A"/>
<path d="M155.918 57.2812L163.946 78.5739L179.282 74.3765L218.26 73.4528L198.972 22.3164L169.869 49.423L155.918 57.2812Z" fill="#F1592A"/>
<path d="M219.108 73.2285C223.474 71.4308 222.674 58.4706 217.321 44.281C211.969 30.0913 204.091 20.0456 199.725 21.8433C195.359 23.6409 196.159 36.6011 201.512 50.7907C206.865 64.9804 214.743 75.0261 219.108 73.2285Z" fill="#F1592A"/>
<path opacity="0.2" d="M218.259 69.7394C221.833 68.2678 220.878 56.8618 216.126 44.2636C211.373 31.6653 204.624 22.6454 201.049 24.1171C197.475 25.5887 198.431 36.9947 203.183 49.5929C207.935 62.1912 214.685 71.2111 218.259 69.7394Z" fill="black"/>
<path d="M204.242 49.1782C204.892 50.8558 205.542 52.4723 206.238 54.0005C207.184 54.3161 208.196 54.3444 209.156 54.0821C210.117 53.8198 210.987 53.2777 211.664 52.519C212.341 51.7603 212.798 50.8162 212.981 49.7966C213.165 48.7771 213.067 47.7241 212.699 46.7603L211.789 44.3492C211.429 43.3876 210.816 42.552 210.021 41.9388C209.226 41.3257 208.281 40.96 207.295 40.884C206.31 40.808 205.324 41.0248 204.451 41.5094C203.578 41.9939 202.855 42.7265 202.363 43.6224C202.896 45.4291 203.527 47.2901 204.242 49.1782Z" fill="#F1592A"/>
<path d="M156.493 83.0087L174.032 77.8197L163.514 49.9185L147.301 58.6257L156.493 83.0087Z" fill="#F1592A"/>
<path opacity="0.2" d="M156.493 83.0087L174.032 77.8197L163.514 49.9185L147.301 58.6257L156.493 83.0087Z" fill="black"/>
<path opacity="0.2" d="M198.006 26.7646C197.439 28.7446 197.218 30.8155 197.356 32.8774C197.434 34.947 197.669 37.0069 198.058 39.0376C198.227 40.0632 198.487 41.0752 198.708 42.0736C198.929 43.0721 199.235 44.0705 199.534 45.0553C199.833 46.0401 200.132 47.0317 200.477 48.003C200.821 48.9742 201.127 49.9523 201.517 50.9167C202.959 54.7788 204.734 58.4958 206.821 62.0215C207.881 63.7764 209.086 65.4309 210.423 66.966C211.734 68.5333 213.349 69.7906 215.162 70.654C213.408 69.6979 211.86 68.3783 210.611 66.7759C209.329 65.2161 208.179 63.5436 207.172 61.777C205.155 58.2435 203.432 54.535 202.024 50.6926C200.526 46.888 199.332 42.9601 198.455 38.9494C198.011 36.9389 197.72 34.895 197.584 32.8366C197.387 30.8023 197.53 28.7478 198.006 26.7646Z" fill="black"/>
<path d="M215.947 22.2891C215.205 23.2128 214.503 24.1704 213.814 25.1281C213.125 26.0857 212.456 27.0706 211.793 28.0554C211.13 29.0402 210.492 30.0386 209.842 31.0506L208.913 32.5788C208.62 33.095 208.315 33.6044 208.035 34.1342C208.412 33.6723 208.757 33.1969 209.121 32.7282L210.167 31.2884C210.869 30.3307 211.533 29.3527 212.189 28.3678C212.846 27.383 213.489 26.3846 214.139 25.3658C214.789 24.347 215.381 23.3418 215.947 22.2891Z" fill="#263238"/>
<path d="M216.391 58.1166C217.691 58.1913 218.991 58.2049 220.291 58.2117C221.591 58.2185 222.891 58.2117 224.192 58.1573C225.492 58.103 226.792 58.0623 228.092 57.974L230.042 57.8381C230.692 57.777 231.342 57.7295 231.992 57.648C231.342 57.6072 230.692 57.6004 230.042 57.5732H228.092C226.792 57.5732 225.492 57.5732 224.192 57.6276C222.891 57.6819 221.591 57.7227 220.291 57.811C218.991 57.8993 217.691 57.9672 216.391 58.1166Z" fill="#263238"/>
<path d="M238.909 48.499C237.011 48.7435 235.126 49.0492 233.241 49.3548C231.355 49.6604 229.47 50.034 227.591 50.36C225.713 50.686 223.84 51.08 221.968 51.4807L219.166 52.0852C218.237 52.3093 217.301 52.513 216.371 52.7643C217.32 52.6489 218.263 52.4995 219.212 52.3636L222.04 51.9086C223.925 51.6029 225.81 51.2294 227.689 50.9102C229.568 50.5909 231.44 50.1834 233.312 49.7827C235.184 49.382 237.05 48.9677 238.909 48.499Z" fill="#263238"/>
<path d="M226.466 20.4551C225.082 21.8678 223.729 23.3213 222.39 24.7815C221.051 26.2418 219.731 27.7156 218.418 29.2031C217.105 30.6905 215.818 32.1847 214.518 33.7061L212.607 35.995C211.957 36.7693 211.345 37.53 210.734 38.3178C211.436 37.6386 212.106 36.8847 212.795 36.1716L214.81 33.9914C216.156 32.5379 217.476 31.0573 218.789 29.5698C220.102 28.0824 221.389 26.5814 222.689 25.06C223.989 23.5386 225.238 22.0172 226.466 20.4551Z" fill="#263238"/>
<path d="M214.152 45.3746C216.265 44.6003 218.352 43.7717 220.439 42.9363C222.525 42.1009 224.593 41.2179 226.673 40.3554C228.753 39.4928 230.807 38.5827 232.861 37.6386L235.943 36.2802C236.963 35.8048 237.984 35.3361 238.998 34.8403C237.945 35.2207 236.898 35.635 235.845 36.0357L232.712 37.2854C230.625 38.1208 228.558 39.0038 226.478 39.8596C224.398 40.7153 222.343 41.6323 220.289 42.5763C218.235 43.5204 216.181 44.3966 214.152 45.3746Z" fill="#263238"/>
<path d="M163.155 77.6292C163.157 77.79 163.105 77.9465 163.007 78.0709C162.91 78.1953 162.773 78.2795 162.622 78.3084C161.887 78.3491 161.003 78.3763 160.021 78.4103C157.856 71.9987 155.471 66.864 156.082 68.8676C156.998 71.9881 157.463 75.2344 157.46 78.4986L152.305 78.6208C150.582 67.3802 148.203 59.0193 148.294 61.5799C148.671 71.9172 148.001 75.2181 147.221 78.7363C134.792 78.9808 118.494 79.1166 106.715 78.9536C105.519 72.7322 104.505 66.015 104.29 66.4769C102.587 69.9204 102.022 74.9735 101.879 78.8721C98.1276 78.7906 95.1308 78.6548 93.3105 78.4782C93.3105 78.4782 92.5695 73.2552 92.4915 71.5436C92.282 67.1457 92.8528 62.7453 94.1751 58.5643C95.5403 54.2718 97.7961 50.5091 99.9413 46.6444C99.9577 46.6129 99.9773 46.5833 99.9998 46.5562C101.413 44.0457 102.537 41.3691 103.348 38.5824C103.352 38.5624 103.352 38.5414 103.348 38.5213C103.901 36.5073 104.282 34.4457 104.485 32.361C105.233 24.7405 109.523 18.261 116.44 16.4408C129.747 4.05232 142.593 9.79149 146.253 19.6873C146.604 20.6518 146.942 21.7249 147.267 22.9542V22.995C148.482 27.4437 149.516 33.1829 150.517 37.6519C150.517 37.6519 150.517 37.6519 150.517 37.6995C150.883 39.4464 151.352 41.168 151.921 42.8546C154.99 50.9234 162.355 55.6573 163.155 77.6292Z" fill="#263238"/>
<path d="M113.394 18.4313C108.843 20.7541 105.97 24.2655 105.125 29.8145C104.631 33.0475 104.338 36.2125 103.064 39.2417C101.79 42.2709 99.7294 44.9062 97.6557 47.4396C94.3663 51.4672 92.0326 55.5084 91.3955 60.9555C90.7584 66.4026 90.8299 73.0519 92.4811 78.2817H92.5266C91.2265 72.9908 91.3695 65.7166 92.4096 60.2423C93.5537 54.2247 96.9276 50.5163 100.399 46.0201C103.177 42.5168 104.992 38.2914 105.652 33.7946C106.061 31.0778 106.1 28.1913 107.225 25.6443C108.577 22.5879 111.125 20.6862 113.726 19.0086C113.762 18.9858 113.793 18.9559 113.819 18.9203C113.844 18.8848 113.862 18.8445 113.872 18.8016C113.883 18.7587 113.885 18.7141 113.878 18.6704C113.872 18.6267 113.858 18.5846 113.836 18.5467C113.814 18.5088 113.786 18.4758 113.752 18.4495C113.718 18.4231 113.679 18.4041 113.638 18.3934C113.597 18.3826 113.554 18.3805 113.512 18.387C113.471 18.3935 113.43 18.4085 113.394 18.4313Z" fill="#263238"/>
<path d="M159.255 51.6166C156.194 47.2019 152.976 43.4188 151.259 38.0328C149.693 33.0951 148.861 27.8992 147.262 22.9615C147.262 22.9453 147.255 22.9298 147.244 22.9183C147.233 22.9068 147.219 22.9004 147.203 22.9004C147.188 22.9004 147.173 22.9068 147.162 22.9183C147.151 22.9298 147.145 22.9453 147.145 22.9615C149.576 31.7163 149.862 40.4847 155.03 47.9286C157.838 52.0038 160.653 55.7325 162.447 60.5412C164.266 65.5775 165.149 70.9302 165.048 76.3121C165.048 76.3481 165.061 76.3826 165.086 76.4081C165.11 76.4336 165.143 76.4479 165.178 76.4479C165.212 76.4479 165.245 76.4336 165.27 76.4081C165.294 76.3826 165.308 76.3481 165.308 76.3121C166.325 67.5786 164.165 58.7646 159.255 51.6166Z" fill="#263238"/>
<path d="M118.008 15.0218C117.8 16.8556 109.2 20.7134 103.492 15.6331C97.7843 10.5527 100.846 1.41758 108.966 2.87105C114.101 3.78796 118.457 11.1504 118.008 15.0218Z" fill="#263238"/>
<path d="M100.969 7.14975C102.003 4.95733 103.72 3.19715 105.838 2.15769C106.817 1.64915 107.906 1.41907 108.997 1.49061C110.089 1.56215 111.142 1.93279 112.053 2.5652C113.927 3.93566 115.408 5.81424 116.337 7.99874C116.842 9.09037 117.253 10.2268 117.565 11.3947C117.927 12.5692 118.077 13.8036 118.007 15.0352C118.333 13.8059 118.398 12.5169 118.196 11.2589C118.03 9.98951 117.723 8.74486 117.279 7.55047C116.418 5.07186 114.839 2.93526 112.761 1.43774C111.659 0.689903 110.382 0.269632 109.069 0.221987C107.772 0.209869 106.496 0.5567 105.37 1.22719C104.29 1.8512 103.343 2.69798 102.587 3.71611C101.83 4.73424 101.28 5.90244 100.969 7.14975Z" fill="#263238"/>
<path d="M142.404 77.8267C171.768 99.2009 211.592 143.389 207.782 155.676C203.537 169.355 162.336 143.851 163.077 141.813C163.727 140.081 145.167 109.28 131.665 86.7445C118.163 64.2089 135.13 72.5426 142.404 77.8267Z" fill="#F7A9A0"/>
<path d="M178.245 103.317L144.76 117.233C144.76 117.233 131.108 93.3395 126.558 79.4161C124.035 71.6122 128.475 70.3285 134.97 73.3848C157.722 84.0685 178.245 103.317 178.245 103.317Z" fill="#455A64"/>
<path d="M146.709 79.681C143.1 79.1376 139.438 79.1033 135.82 79.5791C132.895 79.9051 129.969 80.3873 127.076 80.8696C126.998 80.659 126.927 80.4485 126.855 80.2379C129.807 79.7557 132.771 79.2802 135.762 78.9474C138.938 78.5468 142.148 78.5194 145.331 78.8659L146.709 79.681ZM155.101 85.067C152.728 85.7462 150.349 86.4254 147.95 86.9755C144.225 87.7973 140.416 88.5308 136.639 88.1641C134.75 87.953 132.894 87.4967 131.113 86.8057C130.398 86.5272 129.69 86.208 129.001 85.8616L129.235 86.4186C129.8 86.7038 130.379 86.9687 130.97 87.2064C132.775 87.9428 134.663 88.4358 136.587 88.6735C138.517 88.8481 140.459 88.8048 142.379 88.5444C144.29 88.3032 146.187 87.9518 148.061 87.4917C150.596 86.8804 153.106 86.1333 155.595 85.393L155.101 85.067ZM170.619 96.7151C167.778 99.2349 164.917 101.728 161.921 104.03C158.924 106.332 155.634 108.635 152.039 109.905C150.23 110.507 148.357 110.874 146.462 110.999C144.697 111.097 142.928 111.022 141.177 110.774L141.398 111.168C143.083 111.414 144.787 111.5 146.488 111.426C148.423 111.339 150.339 110.99 152.189 110.387C154.022 109.737 155.781 108.878 157.435 107.827C159.092 106.79 160.692 105.657 162.226 104.431C165.236 102.067 168.109 99.5202 170.95 96.9596L170.619 96.7151ZM169.585 95.8729C167.726 95.8729 165.86 96.0087 164.001 96.1853C162.084 96.389 160.182 96.7225 158.306 97.1838C154.558 98.1761 150.972 99.744 147.664 101.836C144.811 103.555 142.048 105.416 139.298 107.27C139.408 107.467 139.506 107.65 139.603 107.84C142.373 105.972 145.123 104.084 147.97 102.407C151.228 100.345 154.753 98.7827 158.436 97.7679C160.285 97.2914 162.161 96.9398 164.053 96.7151C165.951 96.5114 167.856 96.3687 169.767 96.3348H170.118L169.585 95.8729Z" fill="#37474F"/>
<path d="M173.759 105.185L144.752 117.227C144.752 117.227 131.101 93.3394 126.583 79.4228C124.97 74.4239 126.212 72.1011 129.014 71.877L173.759 105.185Z" fill="#37474F"/>
<path d="M143.828 111.236C148.814 108.648 162.517 102.04 171.963 98.9629C172.021 98.9629 172.112 99.1667 172.06 99.1938C164.572 102.991 149.145 109.436 143.964 111.555C143.867 111.596 143.737 111.283 143.828 111.236Z" fill="#263238"/>
<path d="M166 176H80C80 176 83.4874 109.734 112.629 76.8859C120.481 68.0298 132.854 70.1855 139.154 76.6464C149.564 87.3282 161.852 110.517 162.787 115.58C164.332 123.944 159.47 132.982 159.47 132.982L166 176Z" fill="#455A64"/>
<path d="M161.134 150.119C158.918 150.799 156.681 151.478 154.426 152.021C150.693 152.994 146.887 153.63 143.049 153.923C141.127 154.049 139.199 154.049 137.277 153.923C135.352 153.75 133.451 153.358 131.608 152.755C127.943 151.515 124.447 149.784 121.207 147.606C117.956 145.508 114.817 143.171 111.605 140.991C109.837 139.775 108.043 138.594 106.197 137.514L105.462 137.093C104.207 136.379 102.927 135.734 101.614 135.136C99.8651 134.35 98.047 133.745 96.1855 133.33C94.3255 132.935 92.4258 132.782 90.5298 132.875C89.4837 132.95 88.4435 133.098 87.416 133.316C87.4615 133.126 87.507 132.936 87.559 132.746C88.5293 132.551 89.5109 132.424 90.4973 132.365C92.4359 132.287 94.376 132.47 96.27 132.909C98.1511 133.357 99.9863 133.994 101.75 134.81C103.15 135.454 104.517 136.173 105.846 136.964C106.093 137.099 106.327 137.242 106.567 137.391C108.329 138.458 110.045 139.612 111.729 140.787C114.908 143.029 118.047 145.331 121.324 147.389C124.566 149.543 128.063 151.249 131.725 152.463C133.55 153.037 135.429 153.401 137.329 153.549C139.233 153.646 141.142 153.616 143.043 153.461C146.847 153.114 150.619 152.449 154.322 151.471C156.59 150.901 158.872 150.228 161.069 149.508L161.134 150.119ZM160.777 147.627C159.652 146.948 158.547 146.18 157.455 145.426C154.244 143.246 151.123 140.91 147.853 138.811C144.611 136.637 141.116 134.907 137.452 133.663C135.611 133.06 133.712 132.669 131.79 132.494C129.868 132.369 127.94 132.369 126.017 132.494C122.178 132.788 118.37 133.424 114.635 134.396C111.677 135.136 108.751 136.026 105.852 136.964L105.469 137.093L103.57 137.711C99.9104 138.92 96.2895 140.21 92.5971 141.229C90.215 141.916 87.7849 142.406 85.3292 142.696C85.2837 142.913 85.2447 143.124 85.1992 143.334C87.7517 143.054 90.278 142.557 92.7531 141.847C97.3036 140.577 101.737 138.988 106.203 137.514L106.574 137.391C109.284 136.502 112.008 135.659 114.771 134.967C118.473 133.983 122.245 133.315 126.05 132.97C127.949 132.818 129.855 132.789 131.758 132.882C133.658 133.029 135.537 133.394 137.361 133.968C141.009 135.171 144.492 136.863 147.723 139.001C151.006 141.039 154.146 143.361 157.325 145.603C158.476 146.411 159.639 147.206 160.822 147.966L160.777 147.627ZM140.521 78.6345C138.928 78.6345 137.335 78.7771 135.762 78.9469C131.082 79.4699 126.459 80.3053 121.831 81.066L121.441 81.1271C118.633 81.5754 115.818 81.9693 112.99 82.2138C111.475 82.3429 109.954 82.4448 108.439 82.4923L108.043 83.0628C109.714 83.0628 111.378 82.9338 113.042 82.7979C116.078 82.5398 119.094 82.1187 122.097 81.6705L122.501 81.6093L124.451 81.2969C128.241 80.6924 132.011 79.9997 135.808 79.5786C137.534 79.3757 139.27 79.2668 141.008 79.2526C140.865 79.042 140.696 78.8382 140.521 78.6345ZM146.833 87.2127C143.459 87.9326 140.027 88.4964 136.62 88.1636C134.731 87.9525 132.875 87.4962 131.095 86.8052C129.313 86.0965 127.604 85.2047 125.991 84.1427C124.782 83.3549 123.612 82.4991 122.481 81.6026L121.831 81.0592C120.167 79.7008 118.581 78.2338 117.001 76.7531C116.292 76.0739 115.597 75.3947 114.895 74.7495L114.745 74.8786L116.845 76.9161C118.34 78.356 119.855 79.7755 121.441 81.1068C121.655 81.2969 121.87 81.4735 122.091 81.6501C123.292 82.643 124.539 83.5724 125.829 84.4348C127.452 85.5249 129.171 86.4484 130.964 87.1923C132.769 87.9286 134.657 88.4216 136.581 88.6594C138.511 88.834 140.453 88.7907 142.373 88.5303C143.994 88.3266 145.593 88.0436 147.171 87.6813L146.833 87.2127ZM158.008 106.814C156.138 108.087 154.13 109.124 152.027 109.904C150.218 110.506 148.344 110.874 146.449 110.998C144.547 111.102 142.639 111.009 140.755 110.72C139.337 110.516 137.94 110.224 136.555 109.877L135.782 109.674C133.727 109.123 131.706 108.465 129.697 107.772C126.05 106.542 122.462 105.13 118.782 103.989C115.114 102.764 111.31 102.04 107.464 101.836C105.536 101.752 103.605 101.886 101.705 102.236C100.137 102.561 98.5913 102.99 97.0761 103.52L96.8421 104.091C98.4543 103.495 100.103 103.012 101.776 102.644C103.647 102.267 105.553 102.11 107.458 102.175C111.279 102.345 115.064 103.03 118.717 104.213C122.396 105.313 125.998 106.678 129.625 107.982C131.543 108.662 133.487 109.341 135.476 109.877L136.276 110.095C137.759 110.495 139.26 110.817 140.774 111.059C142.68 111.374 144.612 111.492 146.54 111.412C148.476 111.325 150.392 110.975 152.241 110.373C154.075 109.723 155.834 108.864 157.488 107.813L158.307 107.29L158.008 106.814ZM153.763 98.6639C151.661 99.5674 149.622 100.62 147.658 101.815C143.582 104.294 139.682 107.038 135.782 109.674L135.45 109.891C133.058 111.48 130.639 113.036 128.143 114.455C124.81 116.405 121.332 118.07 117.742 119.434C115.945 120.096 114.11 120.642 112.249 121.07C110.377 121.44 108.472 121.598 106.567 121.539C102.748 121.367 98.9662 120.682 95.3144 119.501C94.0836 119.135 92.8658 118.743 91.661 118.326C91.661 118.388 91.6155 118.456 91.596 118.523C92.8051 118.945 94.0207 119.352 95.2429 119.732C98.9006 120.955 102.693 121.683 106.528 121.899C108.457 121.984 110.388 121.848 112.288 121.492C114.175 121.086 116.036 120.555 117.859 119.902C121.494 118.582 125.013 116.937 128.377 114.985C131.055 113.47 133.649 111.82 136.217 110.129C136.334 110.054 136.451 109.979 136.562 109.898C137.127 109.531 137.686 109.157 138.245 108.784C141.496 106.631 144.655 104.396 147.996 102.413C149.958 101.21 151.997 100.152 154.101 99.248C153.984 99.051 153.88 98.8676 153.776 98.6842L153.763 98.6639ZM162.961 162.732C160.199 161.965 157.366 161.51 154.51 161.374C152.582 161.29 150.651 161.424 148.751 161.774C146.864 162.183 145.003 162.713 143.179 163.364C139.545 164.685 136.026 166.33 132.661 168.281C129.983 169.796 127.383 171.446 124.815 173.137C124.704 173.219 124.587 173.293 124.47 173.368L122.78 174.536C119.53 176.689 116.364 178.917 113.029 180.907L112.775 181.057H113.991C117.833 178.707 121.512 176.119 125.25 173.633L125.582 173.409C127.974 171.82 130.392 170.264 132.889 168.845C136.22 166.892 139.699 165.227 143.29 163.866C145.083 163.197 146.916 162.65 148.777 162.229C150.648 161.853 152.554 161.696 154.458 161.761C157.335 161.866 160.193 162.296 162.981 163.044L162.961 162.732ZM165.275 178.802C165.106 178.876 164.937 178.938 164.768 178.999C162.972 179.664 161.137 180.211 159.275 180.636C158.307 180.834 157.328 180.968 156.343 181.036C155.427 181.104 154.517 181.125 153.6 181.104C153.158 181.104 152.716 181.07 152.3 181.036C148.93 180.752 145.6 180.087 142.367 179.053C138.687 177.953 135.086 176.581 131.459 175.277C129.508 174.598 127.597 173.918 125.608 173.389L124.802 173.164C123.321 172.765 121.822 172.443 120.31 172.2C118.403 171.892 116.472 171.774 114.544 171.847C112.607 171.941 110.689 172.29 108.836 172.886C107.003 173.54 105.244 174.401 103.59 175.453C101.936 176.491 100.338 177.625 98.8053 178.849C97.8822 179.569 96.9721 180.307 96.075 181.063H96.8486C97.5896 180.457 98.3416 179.861 99.1043 179.277C102.192 176.948 105.391 174.672 108.992 173.402C110.798 172.797 112.67 172.43 114.563 172.309C116.465 172.202 118.373 172.293 120.258 172.58C121.668 172.791 123.066 173.076 124.457 173.423L125.276 173.64C127.324 174.176 129.352 174.835 131.361 175.528C135.001 176.764 138.596 178.177 142.276 179.318C144.64 180.073 147.051 180.656 149.492 181.063C150.848 181.285 152.215 181.421 153.587 181.471C155.515 181.556 157.447 181.42 159.347 181.063C161.234 180.658 163.095 180.127 164.918 179.474L165.34 179.318L165.275 178.802Z" fill="#37474F"/>
<path d="M133.038 129.71C136.944 130.11 140.816 130.811 144.623 131.809C146.508 132.332 148.354 132.943 150.2 133.602C151.123 133.928 152.047 134.22 152.976 134.505C153.945 134.839 154.949 135.047 155.967 135.123C155.981 135.128 155.994 135.137 156.003 135.15C156.012 135.163 156.017 135.179 156.017 135.194C156.017 135.21 156.012 135.226 156.003 135.239C155.994 135.252 155.981 135.261 155.967 135.266C155.006 135.306 154.044 135.279 153.087 135.184C152.163 135.061 151.249 134.873 150.35 134.621C148.432 134.111 146.54 133.507 144.629 132.97C140.768 131.897 136.913 130.824 132.993 130.05C132.958 130.035 132.928 130.008 132.91 129.974C132.891 129.94 132.883 129.9 132.888 129.861C132.894 129.822 132.911 129.786 132.938 129.759C132.966 129.731 133.001 129.714 133.038 129.71Z" fill="#263238"/>
<path d="M123.345 133.242C126.568 132.918 129.806 132.784 133.044 132.841C134.663 132.841 136.295 133.011 137.881 133.187C138.648 133.269 139.415 133.371 140.182 133.479C140.949 133.588 141.853 133.839 142.698 133.948C142.789 133.948 142.782 134.097 142.698 134.091C141.898 134.016 141.079 134.091 140.28 134.05L137.861 133.961C136.249 133.907 134.611 133.866 133.018 133.798C129.768 133.649 126.569 133.54 123.339 133.513C123.163 133.513 123.183 133.255 123.345 133.242Z" fill="#263238"/>
<path d="M207.757 155.397C204.423 165.102 189.971 170.882 154.893 189.017C150.037 191.523 123.878 160.491 128.929 157.536C135.294 153.807 160.783 140.794 162.733 140.088C179.414 134.124 210.013 148.808 207.757 155.397Z" fill="#F7A9A0"/>
<path d="M93.5732 198.682C97.0771 201.881 103.89 192.189 103.89 192.189C103.631 194.266 104.074 196.373 105.145 198.145C107.173 201.174 112.607 199.184 112.607 199.184C112.769 201.398 113.561 203.511 114.883 205.25C117.106 207.966 122.859 206.751 122.859 206.751C124.105 208.668 125.94 210.084 128.06 210.765C137.642 213.4 154.531 193.167 158.178 186.314L136.829 153.509C136.829 153.509 112.243 160.98 105.099 168.933C101.153 173.362 88.2166 193.792 93.5732 198.682Z" fill="#F7A9A0"/>
<path d="M103.858 192.019C106.497 186.008 110.514 180.67 114.441 175.555C114.525 175.447 114.694 175.589 114.61 175.705C110.645 180.738 107.875 187 104.111 192.189C104.007 192.331 103.786 192.182 103.858 192.019Z" fill="#263238"/>
<path d="M112.378 198.729C113.105 197.423 113.992 196.222 115.018 195.157C116.032 193.962 117.072 192.787 118.125 191.632C120.231 189.309 122.398 187.045 124.626 184.84C124.723 184.745 124.892 184.84 124.795 184.983C122.695 187.299 120.634 189.649 118.632 192.06C117.624 193.262 116.636 194.478 115.648 195.7C114.792 196.914 113.808 198.023 112.716 199.008C112.681 199.055 112.629 199.085 112.573 199.092C112.516 199.099 112.459 199.082 112.414 199.045C112.369 199.008 112.34 198.954 112.334 198.895C112.327 198.836 112.343 198.776 112.378 198.729Z" fill="#263238"/>
<path d="M122.948 206.649C123.455 205.46 124.618 204.482 125.483 203.565C126.471 202.533 127.433 201.487 128.415 200.441C130.365 198.349 132.315 196.25 134.168 194.084C134.259 193.975 134.428 194.118 134.337 194.226C132.445 196.441 130.586 198.675 128.675 200.869C127.739 201.942 126.796 203.013 125.847 204.081C125.041 204.985 124.131 206.214 123.045 206.757C123.031 206.763 123.015 206.763 123.001 206.76C122.986 206.756 122.973 206.748 122.963 206.736C122.952 206.725 122.945 206.71 122.943 206.695C122.94 206.679 122.942 206.663 122.948 206.649Z" fill="#263238"/>
<path d="M180.265 139.47C177.353 138.587 169.324 136.876 162.771 140.014C162.758 140.02 162.747 140.032 162.74 140.046C162.734 140.061 162.733 140.077 162.737 140.092C162.74 140.107 162.749 140.121 162.762 140.13C162.774 140.139 162.789 140.144 162.804 140.143C168.447 138.397 177.346 138.981 180.239 139.592C180.254 139.596 180.271 139.593 180.284 139.584C180.297 139.575 180.307 139.561 180.31 139.545C180.314 139.529 180.311 139.512 180.302 139.498C180.294 139.484 180.28 139.474 180.265 139.47Z" fill="#263238"/>
<path d="M117.58 84.3333C116.371 98.7525 97.792 163.989 68.6817 173.932C58.8005 177.328 44.1738 136.713 47.7558 89.1488C47.8598 87.7428 78.4978 80.523 81.0331 87.8787C81.3061 88.6665 83.6334 109.837 82.7688 109.613C81.6702 109.341 90.9792 98.6439 106.249 81.0324C113.485 72.7123 118.321 75.7143 117.58 84.3333Z" fill="#F7A9A0"/>
<path d="M82.2624 107.949C83.465 118.782 84.4596 129.683 85.1682 140.55C85.3632 143.586 85.5908 146.615 85.8183 149.651C85.8183 149.76 85.9938 149.739 85.9938 149.651C86.1845 144.194 86.1021 138.73 85.7468 133.282C85.4022 127.89 84.9472 122.415 84.0956 117.104C83.608 114.034 83.075 110.991 82.4769 107.935C82.4314 107.772 82.2494 107.82 82.2624 107.949Z" fill="#263238"/>
<path d="M47.7022 98.5487C45.2319 95.1528 35.2143 78.5329 33.4005 73.2556C31.5868 67.9783 27.4849 52.4044 31.2163 50.557C34.9477 48.7096 36.4949 53.1651 36.4949 53.1651C36.4949 53.1651 35.7538 46.3053 39.6673 44.7975C43.5807 43.2897 45.7845 50.3193 45.7845 50.3193C45.7845 50.3193 45.5114 43.2082 49.5159 42.006C53.5204 40.8038 54.606 48.241 54.606 48.241C54.606 48.241 54.0664 41.7547 57.7718 42.2097C62.2249 42.7599 61.9193 54.8359 64.3246 60.5072C64.8642 61.7909 77.1571 85.7731 77.1571 85.7731L47.7022 98.5487Z" fill="#F7A9A0"/>
<path d="M54.5202 47.6023C54.3187 56.4862 55.6968 60.4051 59.9938 67.9102C60.0783 68.0528 59.8898 68.2226 59.7858 68.0732C54.9427 61.125 52.531 56.4726 54.1106 47.5751C54.1822 47.1337 54.5202 47.188 54.5202 47.6023Z" fill="#263238"/>
<path d="M45.8309 49.6132C46.39 58.857 47.8527 63.1223 51.7986 71.3473C51.8571 71.4628 51.6751 71.5714 51.6101 71.4628C47.0596 63.7539 44.7843 59.0471 45.3889 49.7286C45.4214 49.2939 45.8049 49.226 45.8309 49.6132Z" fill="#263238"/>
<path d="M36.7305 53.5793C37.8877 62.4835 39.3308 67.2379 44.1089 74.6886C44.1296 74.7231 44.1372 74.7643 44.1303 74.8044C44.1234 74.8444 44.1024 74.8802 44.0714 74.9049C44.0405 74.9296 44.0018 74.9413 43.963 74.9377C43.9243 74.9341 43.8882 74.9155 43.8618 74.8856C38.2452 67.788 36.4445 61.8723 36.477 53.6473C36.477 53.0835 36.659 53.0156 36.7305 53.5793Z" fill="#263238"/>
<path d="M66.2234 25.0537H42.7752C42.1401 25.0609 41.5337 25.3309 41.0889 25.8045C40.6441 26.2782 40.3972 26.9168 40.4024 27.5803V77.9899C40.3972 78.6535 40.6441 79.2921 41.0889 79.7657C41.5337 80.2394 42.1401 80.5094 42.7752 80.5165H66.2234C66.8585 80.5094 67.4649 80.2394 67.9097 79.7657C68.3545 79.2921 68.6014 78.6535 68.5962 77.9899V27.5803C68.6014 26.9168 68.3545 26.2782 67.9097 25.8045C67.4649 25.3309 66.8585 25.0609 66.2234 25.0537ZM67.114 76.4346C67.1253 76.7379 67.0793 77.0406 66.9785 77.3253C66.8778 77.61 66.7243 77.8711 66.5269 78.0938C66.3294 78.3165 66.0919 78.4963 65.8279 78.623C65.5639 78.7497 65.2786 78.8208 64.9883 78.8321H44.0103C43.4246 78.8074 42.8721 78.5412 42.4737 78.0919C42.0753 77.6426 41.8635 77.0467 41.8846 76.4346V29.4888C41.8846 26.7721 42.8402 26.6566 44.0103 26.6566H48.2163C48.4569 26.6566 48.6584 26.9487 48.6584 27.3358V27.492C48.6584 28.3342 49.1004 28.341 49.64 28.341H59.3521C59.8982 28.341 60.3402 28.341 60.3402 27.492V27.3358C60.3402 26.9826 60.5352 26.6566 60.7823 26.6566H64.9818C66.1584 26.6566 67.1075 27.0166 67.1075 29.4888L67.114 76.4346Z" fill="#37474F"/>
<path d="M67.1071 29.5292V76.475C67.1185 76.7783 67.0724 77.081 66.9717 77.3657C66.8709 77.6504 66.7175 77.9115 66.52 78.1342C66.3226 78.3569 66.0851 78.5367 65.8211 78.6634C65.5571 78.7901 65.2717 78.8612 64.9814 78.8725H44.0165C43.4296 78.8495 42.8754 78.5842 42.4756 78.1346C42.0759 77.6851 41.8632 77.0882 41.8842 76.475V29.5292C41.8842 26.8125 42.8399 26.697 44.0165 26.697H48.216C48.4565 26.697 48.658 26.9891 48.658 27.3762V27.4917C48.658 28.3339 49.1001 28.3406 49.6396 28.3406H59.3517C59.8978 28.3406 60.3399 28.3406 60.3399 27.4917V27.3354C60.3399 26.9823 60.5349 26.6562 60.7819 26.6562H64.9814C66.158 26.697 67.1071 27.057 67.1071 29.5292Z" fill="#F1592A"/>
<path opacity="0.2" d="M67.1087 35.52V76.4753C67.12 76.7786 67.074 77.0813 66.9732 77.366C66.8725 77.6507 66.719 77.9119 66.5216 78.1345C66.3242 78.3572 66.0866 78.537 65.8226 78.6637C65.5586 78.7904 65.2733 78.8615 64.983 78.8729H44.018C43.7277 78.8615 43.4424 78.7904 43.1784 78.6637C42.9144 78.537 42.6769 78.3572 42.4794 78.1345C42.282 77.9119 42.1285 77.6507 42.0278 77.366C41.927 77.0813 41.881 76.7786 41.8923 76.4753V45.7487C47.4114 45.0083 52.9436 53.4303 58.0922 50.9513C62.7922 48.676 62.5777 41.4833 64.3264 38.2028C64.9516 37.0177 65.9279 36.0763 67.1087 35.52Z" fill="white"/>
<path opacity="0.2" d="M67.1087 62.4834V76.4747C67.12 76.778 67.074 77.0807 66.9732 77.3654C66.8725 77.6501 66.719 77.9113 66.5216 78.134C66.3242 78.3566 66.0866 78.5365 65.8226 78.6631C65.5586 78.7898 65.2733 78.8609 64.983 78.8723H44.018C43.7277 78.8609 43.4424 78.7898 43.1784 78.6631C42.9144 78.5365 42.6769 78.3566 42.4794 78.134C42.282 77.9113 42.1285 77.6501 42.0278 77.3654C41.927 77.0807 41.881 76.778 41.8923 76.4747V58.1841C44.8826 63.6516 48.237 65.2273 51.2859 64.4191C54.7703 63.4954 59.7368 58.7818 64.4434 60.4254C65.5148 60.8055 66.4464 61.5248 67.1087 62.4834Z" fill="white"/>
<path d="M55.8226 27.2541H53.1703C53.1272 27.2541 53.0859 27.2362 53.0554 27.2044C53.0249 27.1725 53.0078 27.1293 53.0078 27.0843C53.0078 27.0386 53.0247 26.9947 53.055 26.9618C53.0853 26.9288 53.1266 26.9095 53.1703 26.9077H55.8226C55.8663 26.9095 55.9077 26.9288 55.938 26.9618C55.9683 26.9947 55.9852 27.0386 55.9852 27.0843C55.9852 27.1293 55.968 27.1725 55.9376 27.2044C55.9071 27.2362 55.8657 27.2541 55.8226 27.2541Z" fill="#263238"/>
<path d="M47.4896 27.7096L47.4506 27.7504C47.4001 27.6958 47.3394 27.6526 47.2724 27.6234C47.2053 27.5942 47.1332 27.5796 47.0605 27.5806C46.9143 27.5817 46.7742 27.6426 46.6705 27.7504L46.625 27.7096C46.6391 27.6903 46.6568 27.6742 46.677 27.6621C46.7107 27.6274 46.7504 27.5997 46.794 27.5806C46.8427 27.5534 46.8955 27.535 46.95 27.5262H47.028H47.1516C47.1987 27.516 47.2474 27.516 47.2946 27.5262L47.3921 27.5738C47.4249 27.5925 47.4555 27.6153 47.4831 27.6417L47.5286 27.6825L47.4896 27.7096Z" fill="#263238"/>
<path d="M46.7759 27.9068L46.7109 27.8456C46.7802 27.7706 46.872 27.7226 46.971 27.7098C47.0417 27.6959 47.1146 27.701 47.1829 27.7248C47.2511 27.7486 47.3124 27.7902 47.361 27.8456L47.296 27.9068C47.2259 27.837 47.1328 27.7981 47.036 27.7981C46.9392 27.7981 46.8461 27.837 46.7759 27.9068Z" fill="#263238"/>
<path d="M47.2364 27.9746L47.1714 28.0425C47.1335 28.0081 47.085 27.9891 47.0349 27.9891C46.9847 27.9891 46.9362 28.0081 46.8984 28.0425L46.8398 27.9746C46.8931 27.921 46.9642 27.8911 47.0381 27.8911C47.1121 27.8911 47.1831 27.921 47.2364 27.9746Z" fill="#263238"/>
<path d="M47.0936 28.1036C47.0936 28.1157 47.0901 28.1275 47.0837 28.1376C47.0773 28.1476 47.0681 28.1555 47.0575 28.1601C47.0468 28.1647 47.035 28.1659 47.0237 28.1636C47.0123 28.1612 47.0019 28.1554 46.9937 28.1468C46.9855 28.1383 46.9799 28.1274 46.9777 28.1155C46.9754 28.1037 46.9766 28.0914 46.981 28.0802C46.9854 28.069 46.9929 28.0595 47.0026 28.0528C47.0122 28.0461 47.0235 28.0425 47.0351 28.0425C47.0506 28.0425 47.0655 28.0489 47.0764 28.0604C47.0874 28.0718 47.0936 28.0874 47.0936 28.1036Z" fill="#263238"/>
<path d="M43.5273 27.8382C43.5273 27.8033 43.5373 27.7691 43.5558 27.7401C43.5744 27.7111 43.6008 27.6884 43.6317 27.6751C43.6626 27.6617 43.6966 27.6582 43.7293 27.665C43.7621 27.6718 43.7922 27.6886 43.8159 27.7133C43.8395 27.738 43.8556 27.7695 43.8621 27.8038C43.8687 27.838 43.8653 27.8735 43.8525 27.9058C43.8397 27.9381 43.8181 27.9656 43.7903 27.985C43.7625 28.0044 43.7298 28.0148 43.6964 28.0148C43.6515 28.0148 43.6085 27.9962 43.5769 27.9631C43.5452 27.93 43.5273 27.885 43.5273 27.8382Z" fill="#263238"/>
<path d="M44.0547 27.8382C44.0547 27.8033 44.0646 27.7691 44.0832 27.7401C44.1017 27.7111 44.1281 27.6884 44.159 27.6751C44.1899 27.6617 44.2239 27.6582 44.2567 27.665C44.2895 27.6718 44.3196 27.6886 44.3432 27.7133C44.3669 27.738 44.383 27.7695 44.3895 27.8038C44.396 27.838 44.3927 27.8735 44.3799 27.9058C44.3671 27.9381 44.3454 27.9656 44.3176 27.985C44.2898 28.0044 44.2571 28.0148 44.2237 28.0148C44.1789 28.0148 44.1359 27.9962 44.1042 27.9631C44.0725 27.93 44.0547 27.885 44.0547 27.8382Z" fill="#263238"/>
<path d="M44.751 28.0148C44.8444 28.0148 44.9201 27.9357 44.9201 27.8382C44.9201 27.7407 44.8444 27.6616 44.751 27.6616C44.6577 27.6616 44.582 27.7407 44.582 27.8382C44.582 27.9357 44.6577 28.0148 44.751 28.0148Z" fill="#263238"/>
<path d="M45.2784 28.0148C45.3717 28.0148 45.4474 27.9357 45.4474 27.8382C45.4474 27.7407 45.3717 27.6616 45.2784 27.6616C45.185 27.6616 45.1094 27.7407 45.1094 27.8382C45.1094 27.9357 45.185 28.0148 45.2784 28.0148Z" fill="#263238"/>
<path d="M45.8057 28.0148C45.8991 28.0148 45.9748 27.9357 45.9748 27.8382C45.9748 27.7407 45.8991 27.6616 45.8057 27.6616C45.7124 27.6616 45.6367 27.7407 45.6367 27.8382C45.6367 27.9357 45.7124 28.0148 45.8057 28.0148Z" fill="#263238"/>
<path d="M65.2141 28.2183H63.8555V27.5391H65.2141V28.2183ZM63.914 28.1435H65.1361V27.6341H63.914V28.1435Z" fill="#263238"/>
<path d="M64.8464 27.6748H63.9688V28.1095H64.8464V27.6748Z" fill="#263238"/>
<path d="M65.3384 27.7158H65.2148V28.069H65.3384V27.7158Z" fill="#263238"/>
<path d="M55.3334 51.3175C55.3346 51.4923 55.2858 51.6633 55.1933 51.8089C55.1007 51.9544 54.9686 52.0676 54.814 52.1341C54.6593 52.2006 54.4892 52.2173 54.3254 52.182C54.1616 52.1467 54.0117 52.0611 53.8949 51.9361C53.778 51.8111 53.6996 51.6524 53.6698 51.4805C53.6399 51.3086 53.6598 51.1313 53.7271 50.9714C53.7944 50.8114 53.9059 50.6761 54.0474 50.5829C54.1888 50.4897 54.3537 50.4428 54.5208 50.4482C54.7381 50.4535 54.9448 50.5474 55.0966 50.7099C55.2485 50.8724 55.3335 51.0905 55.3334 51.3175Z" fill="white"/>
<path d="M58.1415 51.0252H50.8477L50.9452 50.4886C51.0086 50.1564 51.1755 49.8556 51.4197 49.6328L51.8033 49.2728L52.7654 45.3879C52.8589 45.0035 53.0758 44.6643 53.3799 44.427C53.6839 44.1896 54.0568 44.0685 54.4361 44.0838H54.5596C54.938 44.0688 55.31 44.1902 55.6129 44.4276C55.9159 44.665 56.1316 45.0041 56.2238 45.3879L57.1924 49.2728L57.5759 49.6328C57.8205 49.8542 57.9856 50.156 58.044 50.4886L58.1415 51.0252Z" fill="white"/>
<path d="M54.4363 44.9131C54.2792 44.9144 54.1252 44.867 53.9939 44.7767C53.8627 44.6865 53.76 44.5576 53.699 44.4063C53.6379 44.255 53.6213 44.0882 53.6512 43.927C53.681 43.7658 53.7561 43.6175 53.8667 43.501C53.9774 43.3844 54.1187 43.3048 54.2727 43.2723C54.4267 43.2398 54.5865 43.2558 54.7318 43.3183C54.8771 43.3808 55.0013 43.487 55.0888 43.6234C55.1762 43.7598 55.2229 43.9203 55.2229 44.0844C55.2229 44.303 55.1402 44.5128 54.9929 44.668C54.8456 44.8232 54.6455 44.9113 54.4363 44.9131ZM54.4363 43.7584C54.3728 43.7571 54.3103 43.7756 54.2569 43.8117C54.2036 43.8477 54.1617 43.8996 54.1368 43.9607C54.1119 44.0218 54.1051 44.0893 54.1172 44.1544C54.1292 44.2196 54.1597 44.2796 54.2046 44.3265C54.2496 44.3735 54.3069 44.4053 54.3693 44.4179C54.4317 44.4305 54.4963 44.4234 54.5547 44.3973C54.6132 44.3713 54.6629 44.3276 54.6974 44.2719C54.7319 44.2161 54.7496 44.1508 54.7484 44.0844C54.7389 44.0046 54.7021 43.931 54.6447 43.8773C54.5874 43.8236 54.5133 43.7934 54.4363 43.7924V43.7584Z" fill="white"/>
<path d="M54.5202 56.4186C52.8744 56.4186 51.2657 55.9087 49.8973 54.9534C48.5289 53.9982 47.4624 52.6404 46.8326 51.0518C46.2028 49.4633 46.038 47.7153 46.3591 46.0289C46.6802 44.3425 47.4727 42.7934 48.6364 41.5776C49.8001 40.3617 51.2827 39.5337 52.8968 39.1983C54.5109 38.8629 56.184 39.035 57.7045 39.693C59.2249 40.351 60.5245 41.4653 61.4388 42.895C62.3531 44.3246 62.8411 46.0055 62.8411 47.7249C62.8394 50.0301 61.9622 52.2403 60.4021 53.8703C58.842 55.5003 56.7265 56.4168 54.5202 56.4186ZM54.5202 39.7104C53.003 39.7104 51.5199 40.1805 50.2585 41.0611C48.997 41.9418 48.0138 43.1935 47.4332 44.6579C46.8526 46.1224 46.7007 47.7338 46.9967 49.2885C47.2927 50.8431 48.0233 52.2712 49.096 53.392C50.1688 54.5128 51.5357 55.2761 53.0237 55.5854C54.5117 55.8946 56.054 55.7359 57.4557 55.1293C58.8574 54.5227 60.0554 53.4955 60.8983 52.1775C61.7412 50.8595 62.1911 49.31 62.1911 47.7249C62.1876 45.6011 61.3781 43.5654 59.9401 42.0642C58.5021 40.5631 56.553 39.719 54.5202 39.7172V39.7104Z" fill="white"/>
<path d="M46.8112 61.6144C46.8355 61.5895 46.8682 61.5756 46.9022 61.5756C46.9362 61.5756 46.9689 61.5895 46.9932 61.6144C47.1258 61.7339 47.2929 61.8032 47.4678 61.8114C47.5788 61.8153 47.6882 61.782 47.7798 61.7163C47.8105 61.6956 47.8359 61.6676 47.854 61.6345C47.8721 61.6014 47.8823 61.5642 47.8838 61.5261C47.8904 61.4994 47.8904 61.4714 47.8838 61.4446C47.8625 61.4149 47.836 61.3895 47.8058 61.3699C47.7023 61.3055 47.5872 61.2639 47.4678 61.2477C47.3581 61.227 47.2512 61.1928 47.1492 61.1458C47.0539 61.1031 46.9726 61.0323 46.9152 60.942C46.8755 60.8773 46.8551 60.8016 46.8567 60.7247C46.8599 60.6503 46.8798 60.5777 46.9148 60.5128C46.9498 60.4479 46.999 60.3926 47.0582 60.3511C47.1834 60.2578 47.3335 60.208 47.4873 60.2085C47.6855 60.219 47.8761 60.2924 48.0333 60.419C48.0601 60.4395 48.0784 60.4699 48.0845 60.504C48.0905 60.5381 48.0838 60.5733 48.0658 60.6024C48.0472 60.6315 48.0186 60.652 47.9859 60.6596C47.9532 60.6672 47.919 60.6613 47.8903 60.6432C47.775 60.5461 47.6347 60.487 47.4873 60.4734C47.3878 60.4735 47.2906 60.5042 47.2077 60.5617C47.1818 60.58 47.1602 60.6041 47.1444 60.6323C47.1286 60.6605 47.1192 60.6921 47.1167 60.7247C47.1093 60.749 47.1093 60.7751 47.1167 60.7994C47.1358 60.827 47.1601 60.8501 47.1882 60.8673C47.2822 60.9256 47.3858 60.9648 47.4938 60.9828C47.6123 61.0048 47.7279 61.0413 47.8383 61.0915C47.9393 61.1369 48.0252 61.2125 48.0853 61.3088C48.1263 61.3733 48.1489 61.4487 48.1503 61.5261C48.1481 61.607 48.1275 61.6861 48.0902 61.757C48.0529 61.8278 48 61.8884 47.9358 61.9337C47.801 62.0332 47.6394 62.0856 47.4743 62.0831C47.2352 62.074 47.006 61.9806 46.8242 61.8182C46.8085 61.8072 46.7955 61.7926 46.786 61.7755C46.7766 61.7584 46.7711 61.7393 46.7698 61.7196C46.7685 61.7 46.7716 61.6803 46.7788 61.662C46.786 61.6438 46.797 61.6275 46.8112 61.6144Z" fill="white"/>
<path d="M49.2424 62.0689C49.0522 62.0671 48.8703 61.9869 48.7364 61.8457C48.6025 61.7045 48.5273 61.5138 48.5273 61.315V60.3913C48.5273 60.3726 48.5309 60.3541 48.5377 60.3367C48.5446 60.3194 48.5547 60.3037 48.5673 60.2905C48.58 60.2772 48.5951 60.2667 48.6116 60.2596C48.6282 60.2524 48.6459 60.2487 48.6639 60.2487C48.7001 60.2487 48.7348 60.2637 48.7604 60.2905C48.786 60.3172 48.8004 60.3535 48.8004 60.3913V61.315C48.8004 61.4375 48.847 61.555 48.9299 61.6416C49.0128 61.7282 49.1252 61.7769 49.2424 61.7769C49.3597 61.7769 49.4721 61.7282 49.555 61.6416C49.6379 61.555 49.6845 61.4375 49.6845 61.315V60.3913C49.6845 60.372 49.6882 60.3529 49.6955 60.3351C49.7027 60.3174 49.7134 60.3013 49.7267 60.288C49.7401 60.2747 49.7559 60.2643 49.7733 60.2575C49.7906 60.2508 49.809 60.2478 49.8275 60.2487C49.8637 60.2487 49.8984 60.2637 49.924 60.2905C49.9496 60.3172 49.964 60.3535 49.964 60.3913V61.315C49.964 61.414 49.9453 61.5121 49.9091 61.6035C49.8728 61.695 49.8197 61.7781 49.7527 61.8481C49.6857 61.9181 49.6061 61.9737 49.5186 62.0115C49.431 62.0494 49.3372 62.0689 49.2424 62.0689Z" fill="white"/>
<path d="M50.543 61.9263V60.3913C50.5429 60.372 50.5467 60.3529 50.5539 60.3351C50.5612 60.3174 50.5719 60.3013 50.5852 60.288C50.5986 60.2747 50.6144 60.2643 50.6317 60.2575C50.6491 60.2508 50.6675 60.2478 50.686 60.2487H51.037C51.1629 60.2487 51.2836 60.3009 51.3726 60.3939C51.4616 60.4869 51.5116 60.613 51.5116 60.7445C51.5102 60.8503 51.476 60.9528 51.4141 61.0366C51.4905 61.0879 51.5536 61.1582 51.5978 61.2411C51.642 61.324 51.666 61.4171 51.6676 61.512C51.6676 61.6597 51.6114 61.8014 51.5115 61.9058C51.4115 62.0103 51.2759 62.0689 51.1345 62.0689H50.686C50.6492 62.069 50.6137 62.0542 50.5871 62.0276C50.5604 62.001 50.5446 61.9647 50.543 61.9263ZM50.8225 60.9551H51.037C51.0905 60.9551 51.1417 60.9329 51.1795 60.8934C51.2173 60.8539 51.2385 60.8004 51.2385 60.7445C51.2385 60.6887 51.2173 60.6351 51.1795 60.5956C51.1417 60.5561 51.0905 60.534 51.037 60.534H50.8225V60.9551ZM50.8225 61.7837H51.1345C51.2035 61.7837 51.2696 61.7551 51.3184 61.7041C51.3672 61.6532 51.3946 61.584 51.3946 61.512C51.3946 61.4399 51.3672 61.3708 51.3184 61.3199C51.2696 61.2689 51.2035 61.2403 51.1345 61.2403H50.8225V61.7837Z" fill="white"/>
<path d="M51.9685 61.6144C51.9928 61.5895 52.0255 61.5756 52.0595 61.5756C52.0935 61.5756 52.1262 61.5895 52.1505 61.6144C52.2831 61.7339 52.4502 61.8032 52.6251 61.8114C52.7363 61.8163 52.8459 61.7829 52.9371 61.7163C52.9698 61.6974 52.9972 61.6699 53.0165 61.6366C53.0359 61.6032 53.0466 61.5651 53.0476 61.5261C53.0571 61.4999 53.0571 61.4709 53.0476 61.4446C53.029 61.4148 53.0046 61.3894 52.9761 61.3699C52.8706 61.3047 52.7533 61.263 52.6316 61.2477C52.5224 61.225 52.4157 61.1909 52.313 61.1458C52.2207 61.0982 52.1405 61.0284 52.079 60.942C52.0444 60.8753 52.0265 60.8006 52.027 60.7247C52.0305 60.6511 52.0498 60.5793 52.0836 60.5146C52.1174 60.4499 52.1647 60.394 52.222 60.3511C52.3496 60.2577 52.5018 60.2079 52.6576 60.2085C52.854 60.2186 53.0425 60.2922 53.1971 60.419C53.2119 60.4279 53.2246 60.4399 53.2344 60.4544C53.2443 60.4689 53.251 60.4854 53.254 60.5029C53.2571 60.5203 53.2566 60.5383 53.2523 60.5555C53.2481 60.5727 53.2404 60.5887 53.2296 60.6024C53.221 60.6176 53.2095 60.6307 53.1959 60.641C53.1823 60.6513 53.1667 60.6586 53.1503 60.6624C53.1339 60.6662 53.1169 60.6665 53.1003 60.6632C53.0838 60.6599 53.0681 60.6531 53.0541 60.6432C52.9419 60.5452 52.8034 60.4859 52.6576 60.4734C52.558 60.4727 52.4606 60.5035 52.378 60.5617C52.3506 60.5788 52.3274 60.6025 52.3104 60.6309C52.2935 60.6592 52.2832 60.6914 52.2805 60.7247C52.2731 60.749 52.2731 60.7751 52.2805 60.7994C52.2969 60.827 52.3192 60.8502 52.3455 60.8673C52.4414 60.9266 52.5474 60.9658 52.6576 60.9828C52.7756 61.0068 52.8911 61.0432 53.0021 61.0915C53.1007 61.141 53.1856 61.2158 53.2491 61.3088C53.2882 61.3739 53.3085 61.4493 53.3077 61.5261C53.3054 61.607 53.2848 61.6861 53.2475 61.757C53.2102 61.8278 53.1573 61.8884 53.0931 61.9337C52.9587 62.0341 52.7968 62.0865 52.6316 62.0831C52.3928 62.0724 52.1641 61.9793 51.9815 61.8182C51.9676 61.8058 51.9563 61.7907 51.9481 61.7737C51.9399 61.7567 51.9351 61.7382 51.9339 61.7192C51.9327 61.7002 51.9351 61.6811 51.9411 61.6631C51.947 61.6452 51.9563 61.6286 51.9685 61.6144Z" fill="white"/>
<path d="M53.6055 61.1317C53.6105 60.8824 53.7085 60.645 53.8784 60.47C54.0484 60.295 54.2769 60.1961 54.5156 60.1944C54.7249 60.1923 54.9287 60.2641 55.0941 60.3981C55.1243 60.4225 55.144 60.4583 55.1489 60.4978C55.1538 60.5373 55.1434 60.5772 55.1201 60.6087C55.0969 60.6402 55.0626 60.6608 55.0248 60.6659C54.987 60.671 54.9488 60.6602 54.9186 60.6359C54.8034 60.5424 54.6614 60.4922 54.5156 60.4932C54.3482 60.4939 54.1875 60.562 54.067 60.6834C54.0107 60.7422 53.9661 60.8121 53.936 60.889C53.9059 60.966 53.8907 61.0485 53.8915 61.1317C53.8906 61.2159 53.9056 61.2994 53.9358 61.3775C53.9659 61.4556 54.0105 61.5267 54.067 61.5867C54.1886 61.7056 54.3491 61.7712 54.5156 61.7701C54.6614 61.7712 54.8034 61.7209 54.9186 61.6275C54.9505 61.6069 54.9884 61.599 55.0254 61.6052C55.0624 61.6115 55.0961 61.6314 55.1201 61.6614C55.1448 61.6891 55.1585 61.7255 55.1585 61.7633C55.1585 61.8011 55.1448 61.8375 55.1201 61.8652C54.9547 61.9992 54.7509 62.071 54.5416 62.069C54.421 62.0726 54.3009 62.0511 54.1883 62.0058C54.0757 61.9605 53.9729 61.8922 53.8858 61.805C53.7987 61.7178 53.729 61.6133 53.6809 61.4977C53.6328 61.3822 53.6071 61.2577 53.6055 61.1317Z" fill="white"/>
<path d="M56.7521 61.8521C56.7581 61.8703 56.7605 61.8897 56.7592 61.9089C56.7578 61.9282 56.7527 61.947 56.7442 61.9641C56.7357 61.9813 56.7239 61.9964 56.7097 62.0087C56.6954 62.0209 56.6788 62.03 56.6611 62.0354H56.6091C56.5771 62.0438 56.5436 62.0438 56.5116 62.0354C56.4791 62.013 56.4524 61.9827 56.4336 61.9471C56.3891 61.8498 56.369 61.7423 56.3751 61.6347C56.387 61.5972 56.387 61.5567 56.3751 61.5193C56.3557 61.4877 56.3288 61.462 56.297 61.4445C56.2539 61.4188 56.2081 61.3983 56.1605 61.3834H55.8225V61.9471C55.8208 61.9856 55.805 62.0219 55.7784 62.0484C55.7517 62.075 55.7163 62.0898 55.6795 62.0898C55.6433 62.0898 55.6085 62.0747 55.5829 62.048C55.5573 62.0212 55.543 61.985 55.543 61.9471V60.4122C55.543 60.3934 55.5465 60.3749 55.5534 60.3576C55.5602 60.3403 55.5703 60.3246 55.5829 60.3113C55.5956 60.2981 55.6107 60.2876 55.6272 60.2804C55.6438 60.2732 55.6616 60.2695 55.6795 60.2695H56.128C56.2694 60.2695 56.405 60.3282 56.505 60.4327C56.6049 60.5371 56.6611 60.6788 56.6611 60.8265C56.6612 60.9085 56.6437 60.9894 56.6099 61.0635C56.5762 61.1375 56.527 61.2027 56.4661 61.2544C56.4975 61.2827 56.5259 61.3146 56.5506 61.3495C56.6065 61.433 56.6361 61.5327 56.6351 61.6347C56.6351 61.7094 56.6351 61.757 56.6351 61.7841C56.6587 61.7833 56.682 61.7892 56.7026 61.8012C56.7232 61.8131 56.7403 61.8307 56.7521 61.8521ZM56.4011 60.8061C56.4019 60.7707 56.396 60.7356 56.3837 60.7026C56.3713 60.6697 56.3528 60.6397 56.3291 60.6144C56.3055 60.5891 56.2773 60.569 56.2461 60.5552C56.2149 60.5415 56.1814 60.5344 56.1475 60.5344H55.8225V61.071H56.128C56.1631 61.0749 56.1986 61.0709 56.2321 61.0592C56.2656 61.0476 56.2964 61.0286 56.3223 61.0035C56.3481 60.9784 56.3686 60.9478 56.3821 60.9137C56.3957 60.8797 56.4022 60.843 56.4011 60.8061Z" fill="white"/>
<path d="M57.168 60.3913C57.168 60.3535 57.1823 60.3172 57.2079 60.2905C57.2335 60.2637 57.2683 60.2487 57.3045 60.2487C57.3229 60.2478 57.3414 60.2508 57.3587 60.2575C57.376 60.2643 57.3919 60.2747 57.4052 60.288C57.4186 60.3013 57.4293 60.3174 57.4365 60.3351C57.4438 60.3529 57.4475 60.372 57.4475 60.3913V61.9263C57.4475 61.9456 57.4438 61.9647 57.4365 61.9825C57.4293 62.0003 57.4186 62.0163 57.4052 62.0296C57.3919 62.043 57.376 62.0533 57.3587 62.0601C57.3414 62.0668 57.3229 62.0699 57.3045 62.0689C57.2683 62.0689 57.2335 62.0539 57.2079 62.0272C57.1823 62.0004 57.168 61.9641 57.168 61.9263V60.3913Z" fill="white"/>
<path d="M57.9102 61.9266V60.3917C57.9102 60.3538 57.9245 60.3175 57.9501 60.2908C57.9757 60.2641 58.0105 60.249 58.0467 60.249H58.4237C58.5484 60.2508 58.6675 60.3038 58.7551 60.3966C58.8427 60.4894 58.8918 60.6145 58.8918 60.7448C58.8927 60.85 58.8607 60.9525 58.8008 61.0369C58.8772 61.0882 58.9403 61.1585 58.9845 61.2414C59.0287 61.3244 59.0527 61.4174 59.0543 61.5123C59.0543 61.66 58.9981 61.8017 58.8982 61.9061C58.7982 62.0106 58.6626 62.0693 58.5212 62.0693H58.0662C58.0469 62.0711 58.0274 62.0689 58.0089 62.0626C57.9905 62.0564 57.9735 62.0463 57.9589 62.0329C57.9443 62.0196 57.9324 62.0033 57.9241 61.985C57.9157 61.9667 57.911 61.9469 57.9102 61.9266ZM58.1897 60.9554H58.4237C58.4772 60.9554 58.5284 60.9332 58.5662 60.8937C58.604 60.8542 58.6252 60.8007 58.6252 60.7448C58.6252 60.689 58.604 60.6354 58.5662 60.596C58.5284 60.5565 58.4772 60.5343 58.4237 60.5343H58.2092L58.1897 60.9554ZM58.1897 61.784H58.5017C58.5707 61.784 58.6368 61.7554 58.6856 61.7044C58.7344 61.6535 58.7618 61.5844 58.7618 61.5123C58.7618 61.4403 58.7344 61.3712 58.6856 61.3202C58.6368 61.2693 58.5707 61.2406 58.5017 61.2406H58.1897V61.784Z" fill="white"/>
<path d="M59.3828 61.9266V60.3917C59.3828 60.3538 59.3972 60.3175 59.4228 60.2908C59.4484 60.2641 59.4831 60.249 59.5193 60.249H60.3709C60.4071 60.249 60.4419 60.2641 60.4675 60.2908C60.4931 60.3175 60.5074 60.3538 60.5074 60.3917C60.5074 60.4295 60.4931 60.4658 60.4675 60.4925C60.4419 60.5193 60.4071 60.5343 60.3709 60.5343H59.7209V61.0165H60.2994C60.3356 61.0165 60.3704 61.0315 60.396 61.0583C60.4216 61.085 60.4359 61.1213 60.4359 61.1591C60.4359 61.197 60.4216 61.2332 60.396 61.26C60.3704 61.2867 60.3356 61.3018 60.2994 61.3018H59.7209V61.784H60.3709C60.4071 61.784 60.4419 61.799 60.4675 61.8258C60.4931 61.8525 60.5074 61.8888 60.5074 61.9266C60.5059 61.9639 60.491 61.9992 60.4657 62.0256C60.4404 62.052 60.4066 62.0676 60.3709 62.0693H59.5518C59.5315 62.0732 59.5107 62.0725 59.4907 62.0672C59.4706 62.0619 59.452 62.0521 59.4359 62.0386C59.4199 62.025 59.4068 62.008 59.3976 61.9887C59.3885 61.9694 59.3834 61.9482 59.3828 61.9266Z" fill="white"/>
<path d="M60.8594 61.9266V60.3917C60.8594 60.3538 60.8738 60.3175 60.8994 60.2908C60.925 60.2641 60.9597 60.249 60.9959 60.249H61.2884C61.5195 60.249 61.741 60.3449 61.9044 60.5156C62.0678 60.6863 62.1595 60.9178 62.1595 61.1591C62.1595 61.4005 62.0678 61.632 61.9044 61.8027C61.741 61.9734 61.5195 62.0693 61.2884 62.0693H61.0219C61.0019 62.0733 60.9814 62.0727 60.9617 62.0673C60.942 62.062 60.9237 62.0521 60.9081 62.0385C60.8925 62.0248 60.8801 62.0077 60.8716 61.9883C60.8632 61.969 60.859 61.9479 60.8594 61.9266ZM61.1389 61.784H61.2884C61.4471 61.784 61.5992 61.7182 61.7113 61.601C61.8235 61.4838 61.8865 61.3249 61.8865 61.1591C61.8865 60.9934 61.8235 60.8345 61.7113 60.7173C61.5992 60.6001 61.4471 60.5343 61.2884 60.5343H61.1389V61.784Z" fill="white"/>
<path d="M81.2667 88.1773C81.2667 88.1773 81.5072 77.0521 80.6166 72.1347C79.726 67.2174 69.7994 50.2376 66.1655 52.2684C61.4719 54.8765 65.3399 65.8522 67.9012 70.9801C67.9012 70.9801 57.0514 77.0181 58.1891 85.5216C59.3267 94.0251 81.2667 88.1773 81.2667 88.1773Z" fill="#F7A9A0"/>
<path d="M65.0669 53.423C62.4666 59.0331 66.2175 65.5262 68.3563 70.688C68.3899 70.7627 68.406 70.8446 68.4031 70.9271C68.4002 71.0095 68.3784 71.0901 68.3395 71.1619C68.3007 71.2337 68.2459 71.2948 68.1799 71.34C68.1138 71.3852 68.0383 71.4131 67.9597 71.4215C63.5717 74.2741 58.2086 79.6194 57.8901 85.311C57.8901 85.3452 57.8771 85.3781 57.8539 85.4023C57.8307 85.4265 57.7993 85.4401 57.7666 85.4401C57.7338 85.4401 57.7024 85.4265 57.6792 85.4023C57.6561 85.3781 57.643 85.3452 57.643 85.311C57.1555 79.1983 62.044 73.4591 67.0431 70.6608C64.7744 65.4039 61.2575 58.7206 65.0214 53.389C65.0409 53.3686 65.0864 53.389 65.0669 53.423Z" fill="#263238"/>
<path d="M82.4766 107.908L111.73 120.419C111.73 120.419 119.94 93.93 121.338 79.3138C122.118 71.1227 117.516 70.9054 111.84 75.4017C92.0002 91.1385 82.4766 107.908 82.4766 107.908Z" fill="#455A64"/>
<path d="M121.143 81.1476C121.143 81.365 121.091 81.5823 121.058 81.8268C118.4 82.2276 115.728 82.5671 113.037 82.7981C109.734 83.1025 106.414 83.1592 103.103 82.9679L103.604 82.4992C106.736 82.6012 109.87 82.5059 112.991 82.214C115.721 81.9763 118.432 81.6027 121.143 81.1476ZM117.002 76.7329C115.994 75.7888 115 74.8312 114.005 73.8667L113.83 73.9754C114.837 74.9466 115.838 75.9314 116.846 76.9095C118.257 78.2679 119.687 79.6262 121.175 80.8828C121.175 80.7605 121.208 80.645 121.221 80.5296C119.778 79.3478 118.38 78.0641 117.002 76.7601V76.7329ZM107.439 101.836C105.511 101.752 103.58 101.886 101.68 102.237C99.7933 102.647 97.9327 103.177 96.1086 103.826C92.4752 105.15 88.9564 106.795 85.5904 108.743C85.4214 108.838 85.2524 108.933 85.0898 109.035L85.7399 109.321L85.8374 109.259C89.1703 107.31 92.6487 105.645 96.2386 104.281C98.0341 103.613 99.8689 103.066 101.732 102.644C103.603 102.267 105.509 102.11 107.413 102.175C110.472 102.29 113.508 102.769 116.462 103.602C116.462 103.513 116.501 103.432 116.527 103.344C113.563 102.483 110.514 101.977 107.439 101.836Z" fill="#37474F"/>
<path d="M112.567 113.369C107.9 111.033 95.0478 105.11 86.1808 102.502C86.1288 102.502 86.0377 102.706 86.0897 102.726C93.1106 106.122 107.575 111.827 112.431 113.702C112.522 113.749 112.652 113.41 112.567 113.369Z" fill="#263238"/>
<path d="M119.738 93.2373C119.146 94.7995 118.581 96.3752 118.022 97.9509C118.061 97.7607 118.113 97.5638 118.152 97.3668C118.633 95.1255 119.101 92.8841 119.517 90.6224C119.517 90.5681 119.439 90.5477 119.426 90.6224C117.476 98.4331 112.178 118.123 111.755 120.303C111.593 120.256 108.739 119.06 108.355 118.992C108.277 118.992 108.206 119.142 108.284 119.162C108.479 119.21 112.184 120.846 112.184 120.792C113.692 117.05 116.969 102.631 117.684 99.4315C118.477 97.4166 119.172 95.3632 119.771 93.2713C119.771 93.2713 119.751 93.2034 119.738 93.2373Z" fill="#263238"/>
<path d="M120.336 74.6345C120.856 76.1423 129.06 85.3114 135.795 84.1432C137.992 83.756 136.516 71.157 136.516 71.157L136.614 70.1993L137.914 56.8193L122.13 48.8048L119.868 47.7656C119.868 47.7656 119.738 51.4536 119.621 56.045C119.621 56.2623 119.621 56.4729 119.621 56.7242C119.621 56.9755 119.621 57.2336 119.621 57.4781C119.621 58.1573 119.569 58.8365 119.562 59.5564C119.562 60.093 119.562 60.6091 119.562 61.1661C119.562 61.723 119.562 62.2664 119.562 62.8301C119.602 68.3248 120.122 73.996 120.336 74.6345Z" fill="#F7A9A0"/>
<path d="M119.645 56.0178C121.318 59.5242 123.703 62.6075 126.633 65.0531C129.564 67.4987 132.969 69.2479 136.611 70.179L137.912 56.7989L122.128 48.8048L119.866 47.7656C119.866 47.7656 119.762 51.4536 119.645 56.0178Z" fill="#263238"/>
<path d="M152.449 34.7588C157.968 57.6544 145.467 63.6992 140.747 64.9353C136.457 66.0628 121.707 69.3161 113.951 47.1405C106.196 24.9649 114.64 15.0419 124.353 11.9312C134.065 8.82049 146.923 11.8701 152.449 34.7588Z" fill="#F7A9A0"/>
<path d="M145.449 30.4733C144.929 30.5005 144.408 30.5005 143.889 30.4733C143.337 30.5409 142.778 30.4218 142.296 30.1337C142.163 30.0111 142.073 29.8462 142.038 29.6645C142.004 29.4828 142.029 29.2944 142.107 29.1285C142.311 28.8245 142.59 28.5831 142.913 28.429C143.237 28.275 143.593 28.214 143.947 28.2524C144.672 28.21 145.386 28.4522 145.949 28.9316C146.071 29.0482 146.157 29.1993 146.198 29.3664C146.239 29.5335 146.233 29.7095 146.18 29.8729C146.127 30.0362 146.029 30.18 145.9 30.2866C145.77 30.3932 145.613 30.4581 145.449 30.4733Z" fill="#263238"/>
<path d="M131.283 33.8283C131.772 33.6423 132.252 33.4292 132.719 33.1899C133.256 33.0371 133.73 32.7027 134.065 32.239C134.144 32.0727 134.168 31.8835 134.133 31.7015C134.097 31.5194 134.005 31.3549 133.87 31.2338C133.571 31.0355 133.226 30.9241 132.872 30.911C132.518 30.8978 132.167 30.9835 131.855 31.1591C131.17 31.4158 130.599 31.9256 130.249 32.5922C130.178 32.7498 130.153 32.9254 130.176 33.0978C130.2 33.2701 130.27 33.4316 130.38 33.5627C130.489 33.6938 130.633 33.7887 130.794 33.8358C130.954 33.883 131.124 33.8804 131.283 33.8283Z" fill="#263238"/>
<path d="M135.346 39.0381C135.346 38.9838 135.242 39.14 135.261 39.2079C135.645 40.7633 135.827 42.6039 134.579 43.4529C134.54 43.4529 134.579 43.5548 134.611 43.5344C136.217 42.9299 135.95 40.4712 135.346 39.0381Z" fill="#263238"/>
<path d="M133.654 37.734C131.196 38.1007 132.087 43.2083 134.362 42.8687C136.637 42.5291 135.714 37.4215 133.654 37.734Z" fill="#263238"/>
<path d="M132.747 38.1819C132.37 38.5555 132.038 39.1464 131.531 39.2958C131.024 39.4452 130.407 39.0241 129.926 38.6166C129.88 38.569 129.841 38.6166 129.854 38.6913C130.01 39.6693 130.543 40.6066 131.577 40.5591C132.61 40.5115 133.02 39.5267 133.085 38.5215C133.091 38.277 132.896 38.0325 132.747 38.1819Z" fill="#263238"/>
<path d="M143.869 36.4368C143.869 36.3756 143.999 36.4911 144.005 36.5522C144.22 38.1483 144.727 39.9482 146.183 40.2063C146.229 40.2063 146.242 40.3014 146.183 40.3014C144.473 40.3557 143.83 37.9785 143.869 36.4368Z" fill="#263238"/>
<path d="M144.948 34.5345C147.354 33.896 148.394 38.9696 146.164 39.5605C143.934 40.1514 142.933 35.071 144.948 34.5345Z" fill="#263238"/>
<path d="M146.027 34.6434C146.462 34.8268 146.943 35.2276 147.411 35.1596C147.879 35.0917 148.23 34.4397 148.458 33.8013C148.458 33.7401 148.529 33.8012 148.549 33.842C148.77 34.8065 148.672 35.8796 147.821 36.2667C146.969 36.6539 146.274 35.9203 145.871 35.0034C145.773 34.8676 145.851 34.5687 146.027 34.6434Z" fill="#263238"/>
<path d="M137.64 51.5757C138.056 51.8949 138.486 52.3568 139.045 52.3296C139.61 52.2387 140.151 52.0234 140.631 51.698C140.64 51.6872 140.653 51.6807 140.667 51.6801C140.681 51.6795 140.695 51.6847 140.706 51.6946C140.716 51.7045 140.722 51.7183 140.723 51.7329C140.723 51.7476 140.718 51.7619 140.709 51.7727C140.531 52.1168 140.267 52.4041 139.946 52.6038C139.624 52.8036 139.256 52.9083 138.882 52.9069C138.561 52.8659 138.259 52.7267 138.014 52.5067C137.769 52.2868 137.591 51.9959 137.504 51.6708C137.465 51.5825 137.582 51.5282 137.64 51.5757Z" fill="#263238"/>
<path d="M143.535 44.1928C143.535 44.1928 144.289 46.4953 144.497 47.5888C143.541 48.0427 142.485 48.2192 141.44 48.0997C140.396 47.9802 139.402 47.5691 138.562 46.9096C138.458 46.8281 138.562 46.6786 138.692 46.7262C140.232 47.4224 141.946 47.5843 143.581 47.188C143.581 46.862 142.157 43.2827 142.326 43.2351C143.171 43.1456 144.023 43.173 144.861 43.3166C143.425 38.4672 141.253 33.903 139.895 29.0536C139.886 29.0183 139.89 28.9811 139.905 28.9483C139.92 28.9155 139.945 28.8891 139.977 28.8739C140.008 28.8586 140.044 28.8553 140.078 28.8645C140.111 28.8738 140.141 28.895 140.161 28.9246C142.761 33.5431 144.53 39.1124 146.135 44.0502C146.356 44.6886 143.997 44.2947 143.535 44.1928Z" fill="#263238"/>
<path d="M143.017 47.7931C142.571 48.6873 141.91 49.4454 141.1 49.9936C140.651 50.2788 140.128 50.4117 139.604 50.374C138.454 50.2721 138.252 49.2262 138.304 48.2889C138.335 47.7931 138.423 47.3029 138.564 46.8286C139.912 47.6391 141.472 47.9771 143.017 47.7931Z" fill="#263238"/>
<path d="M141.1 49.9934C140.651 50.2785 140.128 50.4114 139.604 50.3737C138.454 50.2718 138.252 49.2259 138.304 48.2886C139.5 48.2003 140.801 48.8184 141.1 49.9934Z" fill="#FF9ABB"/>
<path d="M136.81 15.0762C136.81 15.0762 137.753 18.5808 136.622 21.1413C134.314 26.4051 128.262 25.135 126.22 27.2541C124.322 29.2237 125.057 33.2242 123.334 35.1938C120.948 37.9106 117.639 36.9326 117.269 38.746C116.898 40.5594 115.832 46.3326 113.635 47.1001C111.438 47.8676 99.3334 16.2512 129.594 10.4984C129.594 10.4984 133.527 8.73929 139.71 11.8568C145.892 14.9743 150.156 27.0096 150.156 27.0096C149.554 26.7074 148.997 26.3137 148.505 25.8414C147.094 24.5848 146.555 23.4098 145.508 22.5948C143.889 21.3179 143.018 21.8273 141.335 20.5572C138.773 18.6623 136.81 15.0762 136.81 15.0762Z" fill="#263238"/>
<path d="M136.346 13.4189C136.815 14.9059 137.12 16.4441 137.256 18.0035C137.467 19.5246 137.276 21.0772 136.703 22.493C135.965 23.7756 134.812 24.7394 133.453 25.2097C132.088 25.7531 130.579 25.9297 129.117 26.5681C128.342 26.9 127.675 27.4561 127.192 28.171C126.777 28.884 126.501 29.6757 126.38 30.5006C126.094 32.0492 125.808 33.5774 124.846 34.698C124.365 35.2636 123.773 35.7133 123.109 36.0159C122.446 36.3185 121.727 36.4667 121.004 36.4504C119.554 36.4504 117.942 36.0768 116.531 36.7696C117.987 36.1991 119.483 36.722 120.997 36.8171C121.783 36.8662 122.569 36.7368 123.302 36.4378C124.035 36.1388 124.697 35.6773 125.242 35.0852C126.406 33.8762 126.705 32.1307 127.01 30.6433C127.127 29.9197 127.379 29.2273 127.752 28.6057C128.175 28.0328 128.742 27.5933 129.39 27.3356C130.69 26.7311 132.224 26.5206 133.674 25.9161C134.406 25.6244 135.092 25.2191 135.708 24.7139C136.354 24.2153 136.868 23.554 137.204 22.7918C137.751 21.2751 137.888 19.6302 137.6 18.0375C137.356 16.4519 136.935 14.9018 136.346 13.4189Z" fill="#263238"/>
<path d="M136.918 14.7769C137.222 16.2169 137.714 17.6064 138.381 18.9063C139.03 20.2747 140.052 21.4115 141.319 22.1733C141.962 22.5021 142.635 22.7637 143.328 22.9543C143.929 23.1508 144.467 23.5176 144.881 24.0139C145.258 24.6436 145.694 25.2328 146.182 25.773C146.711 26.276 147.342 26.6475 148.028 26.8597C147.415 26.5234 146.873 26.0614 146.435 25.5013C146.018 24.9279 145.654 24.3138 145.349 23.6675C144.909 23.031 144.292 22.5519 143.581 22.2955C142.91 22.1021 142.257 21.8452 141.631 21.528C140.477 20.8174 139.517 19.8095 138.842 18.6007C138.119 17.3727 137.476 16.0952 136.918 14.7769Z" fill="#263238"/>
<path d="M117.787 47.188C117.787 47.188 111.793 40.7357 108.913 43.1128C106.034 45.49 111.325 55.3858 115.258 56.2009C115.756 56.3415 116.275 56.3758 116.786 56.3017C117.296 56.2275 117.787 56.0464 118.229 55.7693C118.671 55.4921 119.055 55.1246 119.358 54.6888C119.66 54.2529 119.876 53.7577 119.991 53.2328L117.787 47.188Z" fill="#F7A9A0"/>
<path d="M110.501 45.898C110.487 45.898 110.474 45.9037 110.464 45.9139C110.455 45.9241 110.449 45.9379 110.449 45.9523C110.449 45.9667 110.455 45.9805 110.464 45.9907C110.474 46.0009 110.487 46.0066 110.501 46.0066C113.277 46.6858 115.052 48.9543 116.397 51.4062C115.468 50.53 114.33 50.1565 113.186 51.3383C113.128 51.3994 113.186 51.5013 113.284 51.4673C113.718 51.2392 114.209 51.1572 114.69 51.2326C115.171 51.308 115.617 51.5371 115.968 51.8884C116.552 52.4779 117.073 53.1314 117.522 53.8377C117.685 54.0618 118.081 53.8377 117.951 53.5932L117.919 53.5321C117.444 50.0614 114.116 45.6467 110.501 45.898Z" fill="#263238"/>
<path d="M117.272 54.7818C117.288 54.9721 117.25 55.1631 117.162 55.3306C117.074 55.4981 116.941 55.6345 116.779 55.7226C116.616 55.8107 116.433 55.8465 116.251 55.8254C116.069 55.8043 115.898 55.7273 115.758 55.6042C115.618 55.4811 115.516 55.3173 115.466 55.1338C115.415 54.9502 115.418 54.755 115.474 54.5731C115.529 54.3911 115.635 54.2306 115.779 54.1117C115.922 53.9929 116.095 53.9211 116.278 53.9056C116.398 53.8944 116.52 53.9083 116.635 53.9463C116.75 53.9844 116.857 54.0459 116.95 54.1274C117.042 54.2088 117.118 54.3086 117.174 54.4209C117.229 54.5332 117.262 54.6558 117.272 54.7818Z" fill="white"/>
<path d="M114.893 53.4164C114.901 53.5494 114.871 53.682 114.808 53.7977C114.745 53.9133 114.65 54.007 114.536 54.0669C114.423 54.1269 114.294 54.1506 114.168 54.135C114.041 54.1193 113.922 54.0651 113.824 53.9791C113.727 53.8931 113.656 53.779 113.62 53.6511C113.584 53.5232 113.585 53.3872 113.623 53.2599C113.66 53.1326 113.733 53.0196 113.832 52.9352C113.93 52.8507 114.051 52.7984 114.177 52.7848C114.264 52.7755 114.352 52.7846 114.436 52.8115C114.519 52.8385 114.597 52.8828 114.664 52.9418C114.73 53.0007 114.785 53.0732 114.824 53.1547C114.864 53.2363 114.887 53.3253 114.893 53.4164Z" fill="white"/>
<path d="M109.069 45.7683H107.704C107.64 45.7684 107.577 45.7551 107.518 45.7294C107.459 45.7038 107.406 45.6661 107.361 45.6187C107.317 45.5714 107.281 45.5151 107.257 45.4534C107.234 45.3916 107.222 45.3255 107.223 45.259C107.224 45.125 107.277 44.9972 107.368 44.9031C107.459 44.8091 107.582 44.7563 107.71 44.7563H109.069C109.198 44.7581 109.321 44.8123 109.412 44.9075C109.503 45.0026 109.555 45.1312 109.556 45.2657C109.555 45.3997 109.503 45.5275 109.411 45.6216C109.32 45.7156 109.197 45.7684 109.069 45.7683Z" fill="#F1592A"/>
<path d="M109.246 47.236L107.907 47.5348C107.845 47.5488 107.781 47.5498 107.719 47.5379C107.657 47.526 107.597 47.5013 107.544 47.4653C107.491 47.4294 107.445 47.3828 107.409 47.3283C107.374 47.2738 107.348 47.2124 107.335 47.1477C107.308 47.0162 107.332 46.8789 107.401 46.7656C107.471 46.6524 107.58 46.5724 107.706 46.5432L109.038 46.2443C109.164 46.216 109.296 46.2408 109.404 46.3133C109.512 46.3859 109.589 46.5002 109.617 46.6315C109.642 46.7628 109.618 46.8992 109.549 47.012C109.48 47.1248 109.371 47.2051 109.246 47.236Z" fill="#F1592A"/>
<path d="M110.961 76.1222C111.611 75.443 117.637 69.894 126.114 70.4305C134.994 71.001 143.146 77.6096 143.146 77.6096C143.146 77.6096 145.792 87.1183 137.855 87.9605C126.784 89.1219 110.961 76.1222 110.961 76.1222Z" fill="#F7A9A0"/>
</svg>
