<svg width="328" height="222" viewBox="0 0 328 222" fill="none" xmlns="http://www.w3.org/2000/svg">
<path d="M0.25 4C0.25 1.92893 1.92893 0.25 4 0.25H324C326.071 0.25 327.75 1.92893 327.75 4V221.75H0.25V4Z" fill="white" stroke="#F15A29" stroke-width="0.5"/>
<path d="M85.0172 126.639V107.647C85.0172 107.106 85.2988 106.815 85.8618 106.774H87.3403C87.619 106.77 87.8972 106.8 88.1684 106.864C88.3996 106.926 88.5655 107.146 88.6662 107.526L88.8471 108.496C89.305 107.893 89.8731 107.383 90.5213 106.991C91.1342 106.63 91.8931 106.449 92.798 106.449C93.7607 106.438 94.7137 106.642 95.5874 107.046C96.4265 107.437 97.1799 107.99 97.8043 108.672C98.4419 109.377 98.9432 110.193 99.2827 111.08C99.65 112.032 99.8341 113.044 99.8253 114.064C99.834 115.082 99.6552 116.094 99.2976 117.048C98.9633 117.942 98.4616 118.764 97.8192 119.471C97.1773 120.177 96.3923 120.74 95.5161 121.122C94.6399 121.503 93.6925 121.694 92.7367 121.683C92.0321 121.697 91.3342 121.544 90.7007 121.236C90.144 120.962 89.6384 120.595 89.2058 120.151V126.653C89.2133 126.776 89.1939 126.899 89.1492 127.014C89.1044 127.129 89.0353 127.233 88.9466 127.318C88.8578 127.404 88.7516 127.47 88.6351 127.511C88.5185 127.551 88.3945 127.567 88.2716 127.555H85.9829C85.7349 127.561 85.4934 127.475 85.3043 127.315C85.2071 127.232 85.1306 127.128 85.0808 127.011C85.031 126.894 85.0092 126.766 85.0172 126.639ZM88.7873 113.968C88.7817 114.482 88.874 114.993 89.0593 115.472C89.2282 115.916 89.4786 116.324 89.7978 116.676C90.1083 117.017 90.4832 117.293 90.901 117.489C91.3152 117.688 91.7691 117.79 92.2284 117.788C92.678 117.792 93.1221 117.689 93.5245 117.489C93.9264 117.289 94.2854 117.013 94.5814 116.676C94.8897 116.323 95.1345 115.919 95.3049 115.483C95.6657 114.543 95.6657 113.503 95.3049 112.563C95.1343 112.127 94.8896 111.723 94.5814 111.369C94.2873 111.034 93.9276 110.763 93.5245 110.571C93.1196 110.38 92.6766 110.282 92.2284 110.285C91.7731 110.287 91.3239 110.389 90.913 110.585C90.5039 110.773 90.1353 111.038 89.8277 111.367C89.5101 111.71 89.2569 112.108 89.0803 112.541C88.8872 112.992 88.7875 113.478 88.7873 113.968Z" fill="#231F20"/>
<path d="M106.25 107.618C106.269 107.718 106.32 107.917 106.399 108.205C106.479 108.493 106.529 108.691 106.549 108.791C106.75 108.529 106.966 108.28 107.198 108.045C107.456 107.777 107.745 107.54 108.057 107.338C108.386 107.124 108.736 106.948 109.104 106.811C109.495 106.667 109.908 106.596 110.325 106.601H110.61C110.707 106.602 110.803 106.612 110.897 106.631C111.227 106.662 111.551 106.738 111.86 106.856C112.212 106.982 112.554 107.131 112.886 107.303C113.176 107.453 113.449 107.635 113.699 107.845C113.92 108.036 114.031 108.212 114.031 108.372C114.02 108.523 113.969 108.669 113.881 108.792L112.675 110.75C112.494 111.03 112.284 111.171 112.043 111.171C111.916 111.159 111.794 111.123 111.681 111.066C111.506 110.989 111.334 110.904 111.168 110.809C110.939 110.64 110.691 110.498 110.428 110.389C110.191 110.304 109.941 110.263 109.69 110.268C109.276 110.26 108.867 110.348 108.494 110.525C108.154 110.686 107.851 110.916 107.604 111.2C107.363 111.481 107.174 111.802 107.047 112.149C106.919 112.483 106.852 112.836 106.851 113.194V120.802C106.851 121.305 106.579 121.553 106.036 121.548H103.535C103.012 121.548 102.752 121.298 102.752 120.802V107.618C102.744 107.508 102.761 107.398 102.803 107.296C102.845 107.194 102.91 107.103 102.993 107.03C103.145 106.904 103.337 106.835 103.535 106.835H105.465C105.567 106.827 105.668 106.845 105.761 106.887C105.854 106.929 105.934 106.994 105.994 107.075C106.107 107.242 106.193 107.425 106.25 107.618Z" fill="#231F20"/>
<path d="M145.45 126.641V107.649C145.45 107.108 145.732 106.817 146.295 106.776H147.772C148.051 106.772 148.329 106.802 148.601 106.866C148.833 106.928 148.999 107.148 149.099 107.528L149.28 108.492C149.737 107.889 150.305 107.378 150.954 106.987C151.567 106.626 152.326 106.445 153.231 106.445C154.193 106.435 155.146 106.638 156.02 107.042C156.859 107.433 157.613 107.986 158.237 108.668C158.875 109.373 159.376 110.189 159.715 111.076C160.083 112.028 160.267 113.04 160.258 114.06C160.267 115.078 160.088 116.09 159.73 117.044C159.396 117.938 158.894 118.76 158.252 119.467C157.61 120.174 156.825 120.736 155.949 121.118C155.073 121.499 154.125 121.691 153.169 121.679C152.465 121.694 151.767 121.54 151.133 121.232C150.578 120.954 150.074 120.583 149.645 120.135V126.637C149.652 126.76 149.633 126.883 149.588 126.998C149.543 127.113 149.474 127.217 149.385 127.302C149.297 127.388 149.19 127.454 149.074 127.495C148.957 127.536 148.833 127.551 148.71 127.539H146.414C146.166 127.545 145.925 127.459 145.736 127.299C145.641 127.218 145.566 127.117 145.517 127.003C145.467 126.889 145.445 126.765 145.45 126.641ZM149.22 113.97C149.216 114.485 149.309 114.995 149.495 115.474C149.664 115.918 149.915 116.326 150.235 116.678C150.545 117.019 150.919 117.295 151.335 117.491C151.749 117.69 152.203 117.792 152.663 117.79C153.112 117.794 153.556 117.691 153.959 117.491C154.36 117.292 154.719 117.016 155.014 116.678C155.323 116.325 155.568 115.921 155.739 115.485C156.1 114.545 156.1 113.505 155.739 112.565C155.568 112.129 155.323 111.725 155.014 111.372C154.721 111.036 154.362 110.764 153.959 110.573C153.554 110.382 153.111 110.284 152.663 110.287C152.209 110.285 151.761 110.383 151.35 110.573C150.941 110.761 150.573 111.027 150.265 111.355C149.945 111.698 149.69 112.096 149.51 112.529C149.316 112.985 149.218 113.475 149.22 113.97Z" fill="#231F20"/>
<path d="M165.815 107.467L168.805 115.774L171.76 107.438C171.84 107.234 171.982 107.06 172.166 106.942C172.35 106.823 172.567 106.765 172.786 106.775H175.477C176.019 106.775 176.291 107.005 176.291 107.467C176.291 107.55 176.276 107.631 176.245 107.708C176.224 107.755 176.209 107.806 176.2 107.857L170.983 120.619C170.885 120.856 170.747 121.074 170.576 121.266C170.496 121.359 170.396 121.432 170.284 121.482C170.172 121.531 170.05 121.555 169.928 121.553H167.685C167.531 121.564 167.377 121.534 167.238 121.465C167.1 121.396 166.983 121.291 166.901 121.16C166.735 120.892 166.594 120.61 166.479 120.317L164.004 114.239C163.582 113.216 163.155 112.163 162.722 111.079C162.29 109.996 161.863 108.963 161.441 107.979C161.42 107.918 161.395 107.83 161.365 107.723C161.338 107.63 161.323 107.534 161.32 107.438C161.32 106.99 161.58 106.775 162.104 106.775H164.848C165.065 106.762 165.279 106.823 165.455 106.95C165.631 107.076 165.759 107.259 165.815 107.467Z" fill="#F15A29"/>
<path d="M178.504 102.381C178.507 101.922 178.646 101.473 178.903 101.092C179.16 100.712 179.524 100.415 179.949 100.24C180.374 100.064 180.842 100.018 181.294 100.107C181.745 100.196 182.16 100.416 182.487 100.74C182.702 100.955 182.871 101.211 182.985 101.493C183.099 101.775 183.155 102.077 183.149 102.381C183.155 102.683 183.1 102.983 182.986 103.262C182.872 103.542 182.702 103.795 182.487 104.007C182.042 104.431 181.45 104.668 180.835 104.668C180.22 104.668 179.628 104.431 179.183 104.007C178.963 103.798 178.789 103.545 178.672 103.265C178.556 102.985 178.498 102.684 178.504 102.381ZM182.968 107.498V120.863C182.968 121.324 182.719 121.555 182.221 121.555H179.591C179.128 121.555 178.897 121.324 178.897 120.863V107.498C178.887 107.306 178.952 107.117 179.078 106.972C179.145 106.904 179.225 106.852 179.314 106.819C179.402 106.785 179.497 106.77 179.591 106.776H182.215C182.403 106.779 182.585 106.848 182.727 106.972C182.806 107.034 182.868 107.115 182.91 107.206C182.952 107.298 182.972 107.398 182.968 107.498Z" fill="#F15A29"/>
<path d="M194.346 118.334C194.786 118.354 195.226 118.293 195.643 118.153C196.071 118.011 196.485 117.829 196.88 117.612C197.036 117.533 197.186 117.442 197.328 117.34C197.44 117.251 197.577 117.199 197.72 117.191C197.812 117.194 197.901 117.22 197.98 117.268C198.059 117.315 198.123 117.383 198.168 117.463L199.285 119.238C199.368 119.353 199.42 119.488 199.434 119.629C199.439 119.779 199.385 119.925 199.285 120.036C199.182 120.149 199.071 120.255 198.953 120.353C198.314 120.831 197.609 121.216 196.86 121.495C196.083 121.781 195.261 121.924 194.433 121.918C193.411 121.924 192.4 121.721 191.461 121.321C190.549 120.935 189.72 120.378 189.018 119.68C188.315 118.974 187.752 118.141 187.36 117.225C186.955 116.283 186.745 115.269 186.742 114.243C186.74 113.218 186.945 112.202 187.345 111.258C187.734 110.343 188.286 109.507 188.973 108.789C189.651 108.076 190.46 107.5 191.356 107.092C192.265 106.68 193.253 106.469 194.252 106.475C195.194 106.47 196.127 106.654 196.996 107.016C197.842 107.365 198.616 107.867 199.279 108.498C199.93 109.117 200.453 109.858 200.817 110.679C201.188 111.516 201.377 112.422 201.372 113.338C201.372 114.119 201.306 114.688 201.176 115.038C201.046 115.389 200.759 115.565 200.316 115.565H190.933C190.966 115.983 191.101 116.386 191.326 116.739C191.543 117.076 191.819 117.371 192.139 117.612C192.463 117.853 192.825 118.036 193.211 118.153C193.578 118.27 193.961 118.331 194.346 118.334ZM190.938 112.645H197.422C197.403 112.272 197.306 111.906 197.137 111.572C196.968 111.238 196.731 110.943 196.442 110.706C195.81 110.163 194.998 109.876 194.165 109.902C193.793 109.904 193.425 109.975 193.08 110.111C192.718 110.249 192.382 110.445 192.084 110.691C191.786 110.938 191.533 111.234 191.337 111.568C191.134 111.898 190.997 112.264 190.933 112.645H190.938Z" fill="#F15A29"/>
<path d="M228.481 107.707C228.474 107.585 228.494 107.462 228.538 107.348C228.582 107.234 228.651 107.13 228.738 107.044C228.924 106.879 229.168 106.792 229.417 106.804H240.123C240.358 106.802 240.587 106.882 240.77 107.03C240.868 107.112 240.945 107.216 240.995 107.334C241.045 107.452 241.066 107.579 241.057 107.707V109.724C241.056 109.799 241.051 109.875 241.042 109.949C241.025 110.056 240.978 110.155 240.906 110.236L233.94 117.821H240.238C240.862 117.821 241.174 118.131 241.174 118.753V120.56C241.17 120.809 241.079 121.048 240.917 121.237C240.836 121.339 240.733 121.421 240.615 121.476C240.497 121.531 240.368 121.557 240.238 121.553H229.08C228.955 121.555 228.83 121.53 228.715 121.478C228.6 121.426 228.498 121.35 228.417 121.255C228.24 121.068 228.143 120.82 228.145 120.563V118.965C228.145 118.863 228.145 118.759 228.16 118.649C228.176 118.527 228.234 118.415 228.325 118.332C228.849 117.75 229.427 117.128 230.059 116.466C230.692 115.804 231.331 115.131 231.974 114.449L233.889 112.418C234.523 111.746 235.102 111.119 235.625 110.537H229.412C228.787 110.537 228.475 110.216 228.476 109.573L228.481 107.707Z" fill="#F15A29"/>
<path style="mix-blend-mode:multiply" d="M128.804 129.533C148.584 129.533 164.619 126.996 164.619 123.867C164.619 120.738 148.584 118.201 128.804 118.201C109.023 118.201 92.9883 120.738 92.9883 123.867C92.9883 126.996 109.023 129.533 128.804 129.533Z" fill="url(#paint0_radial_2129_27584)"/>
<path d="M128.802 102.01C126.637 102.011 124.52 102.652 122.72 103.854C120.92 105.055 119.517 106.762 118.688 108.759C117.86 110.756 117.643 112.953 118.066 115.073C118.489 117.193 119.532 119.14 121.063 120.668C122.594 122.196 124.545 123.237 126.669 123.659C128.793 124.081 130.995 123.865 132.996 123.038C134.997 122.212 136.707 120.811 137.911 119.015C139.114 117.218 139.757 115.105 139.758 112.944C139.759 111.508 139.477 110.085 138.927 108.758C138.376 107.431 137.569 106.225 136.552 105.21C135.534 104.194 134.326 103.389 132.996 102.84C131.667 102.291 130.241 102.009 128.802 102.01ZM128.802 117.778C127.843 117.778 126.905 117.494 126.108 116.962C125.31 116.43 124.688 115.673 124.322 114.789C123.955 113.904 123.859 112.931 124.047 111.992C124.234 111.053 124.697 110.19 125.375 109.514C126.054 108.837 126.919 108.377 127.86 108.191C128.801 108.004 129.776 108.101 130.662 108.468C131.548 108.836 132.305 109.457 132.837 110.254C133.369 111.05 133.653 111.987 133.652 112.944C133.652 113.579 133.527 114.209 133.283 114.796C133.04 115.383 132.682 115.916 132.232 116.365C131.781 116.814 131.247 117.17 130.658 117.412C130.07 117.655 129.439 117.779 128.802 117.778Z" fill="#F15A29"/>
<path d="M130.452 115.793C132.572 115.793 134.291 114.078 134.291 111.962C134.291 109.846 132.572 108.131 130.452 108.131C128.332 108.131 126.613 109.846 126.613 111.962C126.613 114.078 128.332 115.793 130.452 115.793Z" fill="#231F20"/>
<path d="M152.909 102.747L152.9 102.738L153.032 102.84L152.932 102.734L153.032 102.808C153.032 102.808 152.565 102.346 151.791 101.588L151.779 101.575L151.224 100.978L138.443 88.0071C138.274 87.8579 138.109 87.7087 137.938 87.5595C137.324 87.0284 136.499 86.3943 135.666 86.2168C135.081 86.0944 134.498 86.3555 133.981 86.5882L118.125 93.6913L108.219 97.5702C107.492 97.9537 106.917 99.0129 106.708 100.066L105.855 102.84L108.069 102.808H114.167C114.966 102.804 115.752 102.606 116.457 102.231L133.386 95.4383L135.954 94.5148L139.367 97.9208L142.778 101.322C143.477 102.021 144.088 102.625 145.06 102.814L153.005 102.846H153.036C152.991 102.808 152.951 102.777 152.909 102.747Z" fill="#231F20"/>
<path d="M225.074 106.776H222.329C222.116 106.775 221.908 106.838 221.731 106.957C221.53 107.105 221.382 107.314 221.31 107.554C220.967 108.517 220.635 109.471 220.314 110.414C219.993 111.356 219.661 112.301 219.318 113.248L218.474 115.567C218.324 115.203 218.025 113.863 217.708 112.387C217.683 112.261 217.656 112.134 217.629 112.007L216.562 107.382C216.517 106.979 216.241 106.776 215.726 106.776H213.308C213.063 106.758 212.82 106.833 212.629 106.987C212.46 107.155 212.331 107.359 212.252 107.583L210.355 115.535C210.074 114.792 209.803 114.046 209.541 113.297C209.278 112.548 208.997 111.753 208.696 110.91L207.521 107.509C207.433 107.305 207.298 107.125 207.128 106.982C206.958 106.849 206.746 106.78 206.53 106.787H203.781C203.258 106.787 202.996 107.007 202.996 107.449C202.997 107.572 203.018 107.694 203.057 107.81C203.088 107.855 203.109 107.906 203.117 107.959C203.137 108.038 203.202 108.219 203.313 108.501C203.424 108.783 203.579 109.189 203.781 109.72C203.983 110.251 204.268 110.983 204.64 111.917L206.028 115.394C206.581 116.778 207.259 118.453 208.064 120.42C208.166 120.686 208.292 120.943 208.44 121.187C208.591 121.438 208.857 121.564 209.24 121.564H211.472C211.591 121.573 211.711 121.553 211.821 121.505C211.931 121.458 212.028 121.385 212.104 121.293C212.231 121.133 212.342 120.962 212.436 120.781L212.466 120.691C212.466 120.651 212.476 120.63 212.497 120.63L213.16 118.976C213.259 118.693 213.37 118.412 213.491 118.133C213.613 117.853 213.724 117.572 213.823 117.29L214.421 115.844C214.521 116.106 214.606 116.326 214.677 116.507C214.747 116.687 214.826 116.888 214.934 117.103L216.23 120.323C216.25 120.384 216.281 120.484 216.321 120.621C216.364 120.769 216.425 120.91 216.502 121.043C216.584 121.187 216.698 121.31 216.834 121.404C217.005 121.513 217.205 121.565 217.407 121.554H219.579C219.721 121.565 219.864 121.54 219.994 121.479C220.124 121.418 220.235 121.325 220.317 121.208C220.467 120.976 220.573 120.8 220.634 120.681L225.791 107.828C225.853 107.696 225.884 107.552 225.881 107.406C225.885 106.986 225.616 106.776 225.074 106.776Z" fill="#F15A29"/>
<defs>
<radialGradient id="paint0_radial_2129_27584" cx="0" cy="0" r="1" gradientUnits="userSpaceOnUse" gradientTransform="translate(128.772 123.227) scale(36.016 5.69861)">
<stop stop-color="#2E649B"/>
<stop offset="0.06" stop-color="#5985B0"/>
<stop offset="0.12" stop-color="#80A1C2"/>
<stop offset="0.18" stop-color="#A3BBD3"/>
<stop offset="0.26" stop-color="#BFD0E1"/>
<stop offset="0.33" stop-color="#D7E1EC"/>
<stop offset="0.43" stop-color="#E9EFF4"/>
<stop offset="0.53" stop-color="#F6F8FA"/>
<stop offset="0.68" stop-color="#FDFDFE"/>
<stop offset="1" stop-color="white"/>
</radialGradient>
</defs>
</svg>
