<svg width="40" height="33" viewBox="0 0 40 33" fill="none" xmlns="http://www.w3.org/2000/svg">
<path d="M19.4605 13.4414C17.6245 13.4422 15.8299 13.9872 14.3037 15.0077C12.7774 16.0282 11.588 17.4783 10.8857 19.1747C10.1835 20.8711 9.99991 22.7376 10.3583 24.5383C10.7166 26.3389 11.6008 27.9929 12.8991 29.2912C14.1973 30.5894 15.8513 31.4736 17.652 31.832C19.4527 32.1904 21.3192 32.0068 23.0156 31.3046C24.712 30.6023 26.162 29.4129 27.1825 27.8866C28.203 26.3603 28.7481 24.5658 28.7489 22.7298C28.7499 21.5097 28.5103 20.3015 28.0439 19.1741C27.5774 18.0467 26.8933 17.0224 26.0306 16.1597C25.1679 15.297 24.1435 14.6128 23.0162 14.1464C21.8888 13.68 20.6805 13.4404 19.4605 13.4414ZM19.4605 26.836C18.6471 26.836 17.852 26.5947 17.1758 26.1428C16.4996 25.6908 15.9727 25.0484 15.6617 24.2969C15.3506 23.5453 15.2695 22.7184 15.4286 21.9208C15.5876 21.1231 15.9797 20.3906 16.5552 19.8158C17.1306 19.2411 17.8637 18.8499 18.6615 18.6918C19.4594 18.5338 20.2862 18.6159 21.0373 18.9279C21.7885 19.2398 22.4302 19.7676 22.8813 20.4443C23.3325 21.1211 23.5727 21.9164 23.5717 22.7298C23.5721 23.2696 23.4659 23.8041 23.2594 24.3027C23.0528 24.8014 22.7499 25.2544 22.368 25.6359C21.9861 26.0173 21.5327 26.3196 21.0338 26.5256C20.5349 26.7315 20.0002 26.837 19.4605 26.836Z" fill="#F15A29"/>
<path d="M20.862 25.1505C22.6594 25.1505 24.1165 23.6933 24.1165 21.8959C24.1165 20.0985 22.6594 18.6414 20.862 18.6414C19.0645 18.6414 17.6074 20.0985 17.6074 21.8959C17.6074 23.6933 19.0645 25.1505 20.862 25.1505Z" fill="#231F20"/>
<path d="M39.8923 14.0687L39.8847 14.0611L39.9962 14.1473L39.9113 14.0573L39.9962 14.1207C39.9962 14.1207 39.6008 13.7278 38.9443 13.084L38.9342 13.0726L38.464 12.5656L27.6282 1.54733C27.485 1.42059 27.3443 1.29386 27.1998 1.16712C26.6789 0.715947 25.9793 0.177325 25.2734 0.0265106C24.7779 -0.0774118 24.2836 0.144374 23.8451 0.34208L10.4024 6.37592L2.00368 9.67102C1.38774 9.99673 0.899816 10.8965 0.722387 11.7913L0 14.1473L1.87694 14.1207H7.04645C7.72381 14.1168 8.3901 13.9485 8.98803 13.6302L23.3407 7.85998L25.518 7.07549L28.4114 9.96885L31.3035 12.8584C31.8953 13.4515 32.4137 13.9648 33.2374 14.1257L39.9734 14.1524H40C39.962 14.1207 39.9278 14.0941 39.8923 14.0687Z" fill="#231F20"/>
</svg>
