<svg width="158" height="56" viewBox="0 0 158 56" fill="none" xmlns="http://www.w3.org/2000/svg">
<path d="M7.32179 42.679V25.2994C7.32179 24.8043 7.57892 24.538 8.09316 24.5007H9.44339C9.69793 24.4964 9.95202 24.5239 10.1997 24.5826C10.4109 24.6391 10.5624 24.8411 10.6544 25.1888L10.8196 26.0762C11.2378 25.5247 11.7566 25.0573 12.3486 24.6987C12.9084 24.3683 13.6015 24.2031 14.4279 24.2031C15.3072 24.1931 16.1776 24.3797 16.9755 24.7492C17.7418 25.107 18.4299 25.6127 19.0001 26.2373C19.5825 26.8821 20.0403 27.6292 20.3503 28.4408C20.6858 29.3117 20.854 30.2381 20.8459 31.1713C20.8539 32.1033 20.6905 33.0288 20.364 33.9018C20.0586 34.7198 19.6004 35.4723 19.0138 36.119C18.4275 36.7658 17.7105 37.2808 16.9103 37.6299C16.1101 37.9789 15.2449 38.154 14.3719 38.1436C13.7284 38.1564 13.0911 38.016 12.5125 37.7341C12.0041 37.4836 11.5423 37.1479 11.1472 36.7415V42.6913C11.154 42.8039 11.1364 42.9166 11.0955 43.0217C11.0546 43.1269 10.9915 43.2219 10.9104 43.3004C10.8294 43.3788 10.7323 43.4389 10.6259 43.4763C10.5195 43.5137 10.4063 43.5277 10.2939 43.5172H8.20374C7.9772 43.5223 7.75666 43.4441 7.58392 43.2974C7.49521 43.2218 7.42534 43.1265 7.37985 43.0192C7.33435 42.9118 7.31447 42.7953 7.32179 42.679ZM10.7649 31.0839C10.7599 31.5543 10.8442 32.0213 11.0134 32.4601C11.1676 32.8662 11.3964 33.2398 11.6879 33.5619C11.9714 33.8738 12.3138 34.1267 12.6954 34.3059C13.0737 34.4874 13.4882 34.5807 13.9077 34.579C14.3183 34.5826 14.7239 34.489 15.0914 34.3059C15.4585 34.123 15.7864 33.8703 16.0566 33.5619C16.3383 33.2387 16.5619 32.8691 16.7174 32.4697C17.047 31.6096 17.047 30.658 16.7174 29.7979C16.5617 29.3985 16.3381 29.029 16.0566 28.7057C15.7881 28.3989 15.4596 28.1504 15.0914 27.9753C14.7216 27.7999 14.317 27.7103 13.9077 27.7131C13.4919 27.7147 13.0816 27.8084 12.7063 27.9876C12.3327 28.1596 11.9961 28.4025 11.7152 28.7029C11.4251 29.0173 11.1939 29.3812 11.0325 29.7774C10.8562 30.1904 10.7652 30.6348 10.7649 31.0839Z" fill="#231F20"/>
<path d="M26.7121 25.2721C26.7299 25.3636 26.7763 25.5451 26.8486 25.8086C26.921 26.0721 26.9674 26.2537 26.9852 26.3452C27.1685 26.1057 27.3664 25.8778 27.5777 25.6625C27.8138 25.4176 28.0772 25.2005 28.3627 25.0154C28.6625 24.82 28.983 24.6584 29.3184 24.5335C29.6754 24.402 30.0534 24.3368 30.4338 24.341H30.6945C30.7826 24.3417 30.8704 24.3508 30.9567 24.3683C31.2577 24.3971 31.5534 24.4665 31.8359 24.5744C32.1571 24.6894 32.47 24.8263 32.7724 24.984C33.0378 25.1209 33.2869 25.2871 33.5151 25.4796C33.7172 25.6544 33.8182 25.8155 33.8182 25.9615C33.8089 26.1 33.7617 26.2331 33.6817 26.3465L32.5799 28.1377C32.4152 28.3944 32.2227 28.5227 32.0024 28.5227C31.8873 28.5119 31.7752 28.4794 31.6721 28.4272C31.5121 28.3569 31.3558 28.2785 31.2038 28.1923C30.995 28.037 30.768 27.9077 30.528 27.8073C30.3118 27.7296 30.0832 27.6922 29.8535 27.6968C29.4762 27.6897 29.1024 27.77 28.7613 27.9316C28.4506 28.0792 28.174 28.2898 27.949 28.55C27.7288 28.8068 27.5564 29.1008 27.4398 29.4183C27.3227 29.7234 27.2621 30.0472 27.2609 30.374V37.3368C27.2609 37.7964 27.0129 38.0239 26.5169 38.0194H24.2328C23.755 38.0194 23.5174 37.79 23.5174 37.3368V25.2721C23.5099 25.1715 23.5259 25.0706 23.564 24.9773C23.6022 24.8839 23.6615 24.8007 23.7372 24.7342C23.8763 24.6182 24.0518 24.5549 24.2328 24.5553H25.9954C26.088 24.5478 26.1809 24.5641 26.2655 24.6025C26.3501 24.641 26.4234 24.7004 26.4787 24.7751C26.5816 24.9278 26.6603 25.0954 26.7121 25.2721Z" fill="#231F20"/>
<path d="M62.5203 42.679V25.2994C62.5203 24.8043 62.7774 24.538 63.2916 24.5007H64.6405C64.8955 24.4964 65.15 24.5239 65.3982 24.5826C65.6103 24.6391 65.7618 24.8411 65.8528 25.1888L66.018 26.0707C66.4358 25.5188 66.9547 25.0513 67.5471 24.6932C68.1069 24.3628 68.7999 24.1976 69.6264 24.1976C70.5056 24.1879 71.3759 24.3745 72.1739 24.7437C72.9403 25.1015 73.6284 25.6072 74.1986 26.2318C74.781 26.8766 75.2388 27.6237 75.5488 28.4354C75.8843 29.3062 76.0525 30.2326 76.0444 31.1658C76.0524 32.0978 75.889 33.0234 75.5625 33.8963C75.2571 34.7144 74.7989 35.4668 74.2122 36.1135C73.626 36.7604 72.909 37.2754 72.1088 37.6244C71.3086 37.9734 70.4434 38.1486 69.5704 38.1382C68.9268 38.1513 68.2894 38.0109 67.7109 37.7286C67.2036 37.4743 66.7437 37.1349 66.3511 36.7251V42.6749C66.3579 42.7875 66.3403 42.9002 66.2994 43.0053C66.2585 43.1105 66.1954 43.2055 66.1144 43.284C66.0333 43.3625 65.9363 43.4225 65.8298 43.4599C65.7234 43.4973 65.6102 43.5113 65.4979 43.5009H63.4009C63.1743 43.5057 62.9539 43.4275 62.781 43.281C62.6948 43.207 62.6264 43.1144 62.5813 43.0101C62.5361 42.9057 62.5152 42.7925 62.5203 42.679ZM65.9634 31.0839C65.9599 31.5544 66.0451 32.0213 66.2146 32.4601C66.3693 32.8662 66.5985 33.2399 66.8904 33.5619C67.1732 33.8735 67.5147 34.1263 67.8952 34.3059C68.2735 34.4875 68.688 34.5808 69.1076 34.579C69.5182 34.5826 69.9238 34.489 70.2912 34.3059C70.6581 34.1234 70.9856 33.8706 71.2551 33.5619C71.5372 33.2387 71.7612 32.8692 71.9173 32.4697C72.2468 31.6095 72.2468 30.658 71.9173 29.7979C71.761 29.3984 71.537 29.0289 71.2551 28.7057C70.9874 28.3986 70.6593 28.15 70.2912 27.9753C69.9214 27.7999 69.5168 27.7103 69.1076 27.7131C68.6936 27.7112 68.2843 27.8007 67.9089 27.9753C67.5353 28.1473 67.1986 28.3902 66.9177 28.6907C66.6257 29.0049 66.3923 29.3687 66.2283 29.7651C66.0512 30.1821 65.9611 30.6309 65.9634 31.0839Z" fill="#231F20"/>
<path d="M81.1092 25.1342L83.8397 32.7359L86.5388 25.1069C86.6118 24.9205 86.7414 24.7617 86.9094 24.653C87.0775 24.5442 87.2754 24.4909 87.4753 24.5007H89.9328C90.4284 24.5007 90.6769 24.711 90.6769 25.1342C90.6768 25.2095 90.6625 25.2841 90.6345 25.354C90.6156 25.3977 90.6018 25.4436 90.5936 25.4905L85.8289 37.1688C85.7389 37.3856 85.6134 37.5859 85.4575 37.7614C85.384 37.8458 85.2929 37.9131 85.1905 37.9584C85.0881 38.0037 84.9769 38.0259 84.865 38.0235H82.8171C82.6763 38.0343 82.5352 38.0066 82.409 37.9433C82.2827 37.8801 82.176 37.7837 82.1004 37.6644C81.9494 37.4193 81.8205 37.1611 81.7154 36.8931L79.4545 31.331C79.0695 30.3945 78.6795 29.4306 78.2845 28.4394C77.8895 27.4483 77.4995 26.5026 77.1145 25.6025C77.0954 25.5465 77.0722 25.4659 77.0449 25.3676C77.02 25.2828 77.0063 25.1952 77.0039 25.1069C77.0039 24.6973 77.2415 24.5007 77.7193 24.5007H80.2259C80.4235 24.4885 80.6194 24.5448 80.7803 24.6602C80.9412 24.7756 81.0574 24.943 81.1092 25.1342Z" fill="#F15A29"/>
<path d="M92.7074 20.4787C92.7099 20.0584 92.8365 19.6483 93.0712 19.2997C93.306 18.9511 93.6384 18.6795 94.0268 18.5191C94.4153 18.3587 94.8425 18.3166 95.2548 18.3981C95.6671 18.4795 96.0461 18.6809 96.3444 18.9769C96.541 19.1738 96.6958 19.4082 96.7998 19.6662C96.9037 19.9242 96.9545 20.2006 96.9492 20.4787C96.9552 20.7549 96.9046 21.0293 96.8006 21.2853C96.6966 21.5412 96.5414 21.7731 96.3444 21.9668C95.938 22.3549 95.3977 22.5714 94.8358 22.5714C94.2739 22.5714 93.7336 22.3549 93.3272 21.9668C93.1265 21.7752 92.9677 21.544 92.861 21.2879C92.7543 21.0317 92.702 20.7561 92.7074 20.4787ZM96.784 25.1615V37.3914C96.784 37.8137 96.5565 38.0248 96.1014 38.0248H93.6999C93.2767 38.0248 93.0665 37.8132 93.0665 37.3914V25.1615C93.0573 24.9855 93.1165 24.8129 93.2317 24.6796C93.2925 24.6181 93.3658 24.5704 93.4465 24.5396C93.5273 24.5087 93.6137 24.4955 93.6999 24.5007H96.096C96.2682 24.5036 96.4339 24.5669 96.5642 24.6796C96.6359 24.7372 96.6931 24.8108 96.7313 24.8945C96.7694 24.9781 96.7875 25.0696 96.784 25.1615Z" fill="#F15A29"/>
<path d="M107.171 35.0773C107.573 35.0954 107.974 35.0394 108.356 34.9121C108.747 34.7814 109.124 34.6155 109.485 34.4165C109.628 34.3442 109.765 34.2612 109.895 34.168C109.997 34.0863 110.122 34.0386 110.252 34.0315C110.336 34.0339 110.418 34.058 110.49 34.1016C110.562 34.1452 110.621 34.2066 110.662 34.28L111.682 35.9046C111.758 36.0099 111.805 36.1332 111.818 36.2623C111.822 36.3995 111.773 36.5329 111.682 36.635C111.587 36.7383 111.486 36.835 111.379 36.9245C110.795 37.3625 110.151 37.7147 109.467 37.9702C108.758 38.2316 108.006 38.3625 107.25 38.3566C106.318 38.3626 105.394 38.1768 104.536 37.8105C103.703 37.4571 102.946 36.9473 102.305 36.3087C101.663 35.6627 101.149 34.9006 100.791 34.0629C100.421 33.2005 100.229 32.2722 100.227 31.3338C100.224 30.3953 100.412 29.4661 100.777 28.6019C101.133 27.7652 101.636 26.9996 102.264 26.3424C102.883 25.69 103.622 25.1629 104.44 24.7901C105.271 24.4125 106.173 24.2196 107.085 24.2249C107.945 24.2209 108.798 24.3894 109.592 24.7205C110.364 25.0398 111.071 25.4994 111.676 26.0762C112.271 26.6428 112.748 27.321 113.081 28.0722C113.419 28.8384 113.592 29.6675 113.588 30.5051C113.588 31.2205 113.528 31.7406 113.409 32.0614C113.29 32.3823 113.028 32.5434 112.624 32.5434H104.054C104.084 32.9256 104.207 33.2945 104.413 33.6178C104.611 33.926 104.863 34.1964 105.156 34.4165C105.451 34.6371 105.782 34.8048 106.135 34.9121C106.47 35.0191 106.819 35.0748 107.171 35.0773ZM104.058 29.8716H109.981C109.963 29.5297 109.875 29.1952 109.72 28.8896C109.566 28.5839 109.35 28.3139 109.085 28.0968C108.508 27.6002 107.766 27.3377 107.006 27.3609C106.666 27.3628 106.33 27.4276 106.015 27.552C105.685 27.6783 105.377 27.8577 105.105 28.0831C104.833 28.3088 104.602 28.5805 104.423 28.8859C104.238 29.1879 104.113 29.5225 104.054 29.8716H104.058Z" fill="#F15A29"/>
<path d="M138.346 25.354C138.34 25.2421 138.358 25.1302 138.398 25.0257C138.439 24.9211 138.501 24.8264 138.581 24.7478C138.751 24.5961 138.973 24.5172 139.201 24.528H148.979C149.194 24.5262 149.403 24.5991 149.57 24.7342C149.659 24.8095 149.73 24.9049 149.775 25.0126C149.821 25.1204 149.84 25.2373 149.832 25.354V27.1998C149.831 27.2687 149.827 27.3376 149.818 27.406C149.803 27.5033 149.76 27.5942 149.694 27.6681L143.332 34.609H149.084C149.654 34.609 149.939 34.8934 149.939 35.4623V37.1156C149.935 37.3433 149.852 37.5627 149.704 37.7354C149.63 37.8288 149.536 37.9036 149.428 37.9539C149.321 38.0042 149.203 38.0285 149.084 38.0248H138.894C138.779 38.0266 138.665 38.0031 138.56 37.9559C138.455 37.9087 138.362 37.839 138.288 37.7518C138.127 37.5802 138.038 37.3535 138.039 37.1183V35.6561C138.039 35.5633 138.039 35.4677 138.053 35.3667C138.067 35.2554 138.121 35.1528 138.204 35.0773C138.682 34.5448 139.21 33.9755 139.788 33.3694C140.366 32.7632 140.949 32.1479 141.537 31.5235L143.286 29.6654C143.865 29.0502 144.393 28.4763 144.871 27.9439H139.197C138.626 27.9439 138.341 27.6499 138.342 27.0619L138.346 25.354Z" fill="#F15A29"/>
<path style="mix-blend-mode:multiply" d="M47.3115 45.3262C65.3767 45.3262 80.0215 43.0047 80.0215 40.141C80.0215 37.2773 65.3767 34.9558 47.3115 34.9558C29.2463 34.9558 14.6016 37.2773 14.6016 40.141C14.6016 43.0047 29.2463 45.3262 47.3115 45.3262Z" fill="url(#paint0_radial_109_6257)"/>
<path d="M47.3141 20.1388C45.3363 20.1396 43.4031 20.7267 41.759 21.8261C40.1148 22.9254 38.8335 24.4875 38.077 26.3149C37.3205 28.1423 37.1227 30.153 37.5088 32.0928C37.8948 34.0326 38.8473 35.8144 40.2459 37.2129C41.6444 38.6114 43.4262 39.5639 45.366 39.95C47.3057 40.336 49.3164 40.1383 51.1438 39.3818C52.9713 38.6253 54.5334 37.344 55.6327 35.6998C56.732 34.0556 57.3192 32.1225 57.32 30.1446C57.3211 28.8303 57.063 27.5287 56.5605 26.3143C56.0581 25.0998 55.3211 23.9964 54.3917 23.067C53.4624 22.1377 52.3589 21.4007 51.1445 20.8982C49.93 20.3958 48.6284 20.1377 47.3141 20.1388ZM47.3141 34.568C46.4379 34.568 45.5814 34.3082 44.853 33.8213C44.1246 33.3344 43.5569 32.6424 43.2219 31.8328C42.8868 31.0232 42.7994 30.1324 42.9708 29.2731C43.1421 28.4139 43.5644 27.6247 44.1844 27.0056C44.8043 26.3864 45.594 25.965 46.4534 25.7948C47.3129 25.6245 48.2036 25.713 49.0127 26.049C49.8219 26.3851 50.5132 26.9536 50.9992 27.6826C51.4852 28.4117 51.7441 29.2685 51.743 30.1446C51.7433 30.7261 51.629 31.3019 51.4065 31.8391C51.184 32.3763 50.8577 32.8643 50.4463 33.2752C50.0349 33.6861 49.5464 34.0118 49.009 34.2336C48.4715 34.4555 47.8956 34.5691 47.3141 34.568Z" fill="#F15A29"/>
<path d="M48.8224 32.7523C50.7586 32.7523 52.3283 31.1826 52.3283 29.2463C52.3283 27.31 50.7586 25.7404 48.8224 25.7404C46.8861 25.7404 45.3164 27.31 45.3164 29.2463C45.3164 31.1826 46.8861 32.7523 48.8224 32.7523Z" fill="#231F20"/>
<path d="M69.3215 20.8145L69.3133 20.8064L69.4335 20.8992L69.342 20.8023L69.4335 20.8705C69.4335 20.8705 69.0075 20.4473 68.3003 19.7538L68.2894 19.7415L67.7829 19.1954L56.11 7.32591C55.9558 7.18939 55.8042 7.05286 55.6486 6.91634C55.0875 6.43031 54.3338 5.85008 53.5734 5.68762C53.0396 5.57567 52.5071 5.81458 52.0348 6.02756L37.5536 12.5275L28.5061 16.0771C27.8426 16.428 27.317 17.3973 27.1258 18.3612L26.3477 20.8992L28.3696 20.8705H33.9384C34.6681 20.8664 35.3859 20.6851 36.03 20.3422L51.4914 14.1262L53.8369 13.2811L56.9538 16.398L60.0692 19.5107C60.7068 20.1497 61.2652 20.7026 62.1526 20.876L69.4089 20.9047H69.4376C69.3966 20.8705 69.3597 20.8419 69.3215 20.8145Z" fill="#231F20"/>
<path d="M135.234 24.5007H132.727C132.533 24.4996 132.342 24.5572 132.181 24.6659C131.997 24.8015 131.862 24.9931 131.796 25.212C131.483 26.094 131.18 26.9664 130.887 27.8292C130.594 28.692 130.291 29.5567 129.977 30.4232L129.206 32.5447C129.07 32.2116 128.796 30.9856 128.507 29.6354C128.484 29.5194 128.459 29.4033 128.435 29.2873L127.46 25.055C127.419 24.6864 127.166 24.5007 126.697 24.5007H124.488C124.264 24.4836 124.043 24.5525 123.868 24.6932C123.714 24.8471 123.596 25.0338 123.524 25.2393L121.791 32.5161C121.535 31.8362 121.287 31.1536 121.047 30.4682C120.808 29.7829 120.551 29.0547 120.276 28.2838L119.203 25.1711C119.122 24.9846 118.999 24.8196 118.844 24.6891C118.688 24.5676 118.495 24.5044 118.298 24.5103H115.787C115.309 24.5103 115.07 24.7123 115.07 25.1164C115.071 25.2289 115.09 25.3404 115.126 25.4468C115.154 25.4877 115.173 25.5344 115.181 25.5834C115.199 25.6557 115.259 25.8209 115.36 26.0789C115.461 26.337 115.603 26.7083 115.787 27.1943C115.971 27.6804 116.232 28.3507 116.572 29.2054L117.839 32.3864C118.344 33.6533 118.964 35.1865 119.699 36.9859C119.792 37.2295 119.907 37.4643 120.043 37.6876C120.18 37.9179 120.423 38.033 120.773 38.033H122.811C122.92 38.0409 123.03 38.0225 123.13 37.9792C123.231 37.936 123.319 37.8692 123.389 37.7846C123.505 37.6387 123.606 37.4819 123.692 37.3163L123.719 37.2344C123.719 37.1975 123.729 37.1784 123.748 37.1784L124.353 35.6643C124.444 35.4059 124.545 35.1487 124.656 34.893C124.767 34.6372 124.868 34.3801 124.959 34.1216L125.505 32.7987C125.596 33.0381 125.674 33.2401 125.738 33.4049C125.803 33.57 125.875 33.7544 125.973 33.951L127.157 36.8972C127.175 36.9531 127.203 37.0446 127.24 37.1702C127.279 37.3052 127.335 37.4349 127.405 37.5566C127.48 37.688 127.584 37.8009 127.708 37.887C127.864 37.9858 128.047 38.0335 128.231 38.0235H130.215C130.345 38.0342 130.476 38.0106 130.594 37.955C130.713 37.8995 130.814 37.8139 130.889 37.7067C131.026 37.4951 131.123 37.334 131.179 37.2248L135.889 25.4632C135.946 25.3425 135.974 25.2102 135.971 25.0768C135.975 24.6928 135.729 24.5007 135.234 24.5007Z" fill="#F15A29"/>
<defs>
<radialGradient id="paint0_radial_109_6257" cx="0" cy="0" r="1" gradientUnits="userSpaceOnUse" gradientTransform="translate(47.2826 39.5556) scale(32.8932 5.21478)">
<stop stop-color="#2E649B"/>
<stop offset="0.06" stop-color="#5985B0"/>
<stop offset="0.12" stop-color="#80A1C2"/>
<stop offset="0.18" stop-color="#A3BBD3"/>
<stop offset="0.26" stop-color="#BFD0E1"/>
<stop offset="0.33" stop-color="#D7E1EC"/>
<stop offset="0.43" stop-color="#E9EFF4"/>
<stop offset="0.53" stop-color="#F6F8FA"/>
<stop offset="0.68" stop-color="#FDFDFE"/>
<stop offset="1" stop-color="white"/>
</radialGradient>
</defs>
</svg>
