<svg width="117" height="87" viewBox="0 0 117 87" fill="none" xmlns="http://www.w3.org/2000/svg">
<path d="M116.76 76.4545H0V76.5129H116.76V76.4545Z" fill="#716868"/>
<path d="M105.06 80.2117H97.3262V80.2701H105.06V80.2117Z" fill="#716868"/>
<path d="M77.3467 80.8466H75.3174V80.905H77.3467V80.8466Z" fill="#716868"/>
<path d="M97.0926 78.0446H92.6113V78.103H97.0926V78.0446Z" fill="#716868"/>
<path d="M22.3362 78.4367H12.2505V78.4951H22.3362V78.4367Z" fill="#716868"/>
<path d="M25.8952 78.4367H24.417V78.4951H25.8952V78.4367Z" fill="#716868"/>
<path d="M52.5768 79.4224H30.7007V79.4808H52.5768V79.4224Z" fill="#716868"/>
<path d="M55.3447 66.0393H10.2544C9.90117 66.0387 9.56261 65.8979 9.31306 65.6479C9.0635 65.3979 8.92334 65.0591 8.92334 64.7059V1.32172C8.92641 0.970512 9.06793 0.634701 9.31716 0.387226C9.56638 0.139752 9.90318 0.000601636 10.2544 0H55.3447C55.6983 0 56.0375 0.140482 56.2875 0.390543C56.5376 0.640603 56.6781 0.979757 56.6781 1.3334V64.7059C56.6781 65.0595 56.5376 65.3987 56.2875 65.6487C56.0375 65.8988 55.6983 66.0393 55.3447 66.0393ZM10.2544 0.046704C9.91665 0.0473226 9.59294 0.181927 9.35434 0.420972C9.11573 0.660016 8.98172 0.983968 8.98172 1.32172V64.7059C8.98172 65.0436 9.11573 65.3676 9.35434 65.6066C9.59294 65.8457 9.91665 65.9803 10.2544 65.9809H55.3447C55.6826 65.9803 56.0066 65.8457 56.2455 65.6068C56.4845 65.3678 56.6191 65.0438 56.6197 64.7059V1.32172C56.6191 0.983754 56.4845 0.659807 56.2455 0.420829C56.0066 0.181851 55.6826 0.0473213 55.3447 0.046704H10.2544Z" fill="#716868"/>
<path d="M105.857 66.0393H60.7641C60.4106 66.0387 60.0718 65.898 59.8219 65.648C59.572 65.3981 59.4313 65.0593 59.4307 64.7059V1.32172C59.4343 0.970299 59.5764 0.63449 59.826 0.38708C60.0756 0.13967 60.4126 0.000595075 60.7641 0H105.857C106.207 0.00121535 106.544 0.140637 106.792 0.388046C107.041 0.635454 107.182 0.970916 107.185 1.32172V64.7059C107.185 65.0587 107.046 65.3972 106.796 65.6471C106.547 65.897 106.209 66.038 105.857 66.0393ZM60.7641 0.046704C60.4261 0.0473213 60.1021 0.181851 59.8632 0.420829C59.6242 0.659807 59.4897 0.983754 59.489 1.32172V64.7059C59.4897 65.0438 59.6242 65.3678 59.8632 65.6068C60.1021 65.8457 60.4261 65.9803 60.7641 65.9809H105.857C106.195 65.9803 106.519 65.8457 106.758 65.6068C106.997 65.3678 107.131 65.0438 107.132 64.7059V1.32172C107.131 0.983754 106.997 0.659807 106.758 0.420829C106.519 0.181851 106.195 0.0473213 105.857 0.046704H60.7641Z" fill="#716868"/>
<path d="M62.5315 76.4545H70.728V45.9265H62.5315V76.4545Z" fill="#605757"/>
<path d="M63.8955 76.4544H62.5317V73.7059H65.327L63.8955 76.4544Z" fill="#726A6A"/>
<path d="M95.8923 76.4545H104.089V45.9265H95.8923V76.4545Z" fill="#605757"/>
<path d="M62.532 75.3988H97.0835V45.9263H62.532L62.532 75.3988Z" fill="#726A6A"/>
<path d="M63.5919 55.3136L96.0254 55.3136V47.2315H63.5919V55.3136Z" fill="#605757"/>
<path d="M78.2755 49.739H81.3393C82.6703 49.739 83.943 48.7418 84.8584 46.9811H74.7563C75.6717 48.7465 76.9444 49.739 78.2755 49.739Z" fill="#726A6A"/>
<path d="M95.7196 76.4544H97.0833V73.7059H94.2881L95.7196 76.4544Z" fill="#726A6A"/>
<path d="M63.5919 64.7035H96.0254V56.6214H63.5919V64.7035Z" fill="#605757"/>
<path d="M78.2755 59.1317H81.3393C82.6703 59.1317 83.943 58.1346 84.8584 56.3739H74.7563C75.6717 58.1463 76.9444 59.1317 78.2755 59.1317Z" fill="#726A6A"/>
<path d="M63.5919 74.0928H96.0254V66.0107H63.5919V74.0928Z" fill="#605757"/>
<path d="M78.2755 68.5217H81.3393C82.6703 68.5217 83.943 67.5245 84.8584 65.7638H74.7563C75.6717 67.5245 76.9444 68.5217 78.2755 68.5217Z" fill="#726A6A"/>
<path d="M18.2122 39.0022L49.5132 39.0022L49.5132 7.33L18.2122 7.33L18.2122 39.0022Z" fill="#605757"/>
<path d="M16.0388 39.0022L48.937 39.0022L48.937 7.33L16.0388 7.33L16.0388 39.0022Z" fill="#726A6A"/>
<path d="M46.1831 36.2468V10.0857L18.7983 10.0857V36.2468H46.1831Z" fill="#948B8B"/>
<path d="M32.3001 13.5442L27.2748 18.5789C26.0604 19.7963 25.3784 21.4457 25.3784 23.1652C25.3784 24.8848 26.0604 26.5341 27.2748 27.7516L32.3001 32.7792C32.3246 32.8038 32.3537 32.8233 32.3858 32.8366C32.4179 32.8499 32.4522 32.8567 32.4869 32.8567C32.5216 32.8567 32.556 32.8499 32.5881 32.8366C32.6201 32.8233 32.6492 32.8038 32.6737 32.7792L37.7014 27.7516C38.9158 26.5341 39.5978 24.8848 39.5978 23.1652C39.5978 21.4457 38.9158 19.7963 37.7014 18.5789L32.6761 13.5442C32.6259 13.495 32.5584 13.4675 32.4881 13.4675C32.4178 13.4675 32.3503 13.495 32.3001 13.5442ZM27.6484 27.3686C26.5334 26.2506 25.9073 24.736 25.9073 23.1571C25.9073 21.5781 26.5334 20.0636 27.6484 18.9455V27.3686ZM37.3278 27.3686V18.9549C38.4428 20.0729 39.0689 21.5874 39.0689 23.1664C39.0689 24.7454 38.4428 26.2599 37.3278 27.3779V27.3686Z" fill="#726A6A"/>
<path d="M95.0069 35.028H77.5186L76.5215 45.3542H94.0097L95.0069 35.028Z" fill="#605757"/>
<path d="M94.0104 45.3542L93.9403 45.9263H76.4497L76.5221 45.3542H94.0104Z" fill="#605757"/>
<path d="M94.4701 35.028H76.9819L75.9824 45.3542H93.4707L94.4701 35.028Z" fill="#726A6A"/>
<path d="M93.1175 44.6814L93.8485 35.7282C93.8504 35.6985 93.8462 35.6686 93.8361 35.6405C93.8261 35.6124 93.8105 35.5866 93.7901 35.5647C93.7698 35.5429 93.7452 35.5254 93.7179 35.5134C93.6906 35.5013 93.6611 35.495 93.6313 35.4947H77.5535C77.4984 35.4945 77.4452 35.5151 77.4045 35.5523C77.3638 35.5895 77.3387 35.6406 77.334 35.6955L76.5937 44.6463C76.5918 44.6763 76.596 44.7064 76.6062 44.7347C76.6164 44.7629 76.6323 44.7888 76.6528 44.8107C76.6734 44.8326 76.6983 44.85 76.7258 44.8619C76.7534 44.8738 76.7832 44.8799 76.8132 44.8799H92.891C92.9471 44.8825 93.002 44.8633 93.0443 44.8263C93.0865 44.7893 93.1128 44.7373 93.1175 44.6814Z" fill="#948B8B"/>
<path d="M88.9148 45.3542L88.8448 45.9263H69.5864L69.6565 45.3542H88.9148Z" fill="#726A6A"/>
<path d="M65.4058 29.5076L98.2456 29.5076V7.67585L65.4058 7.67585V29.5076Z" fill="#605757"/>
<path d="M64.6782 29.5076L97.5181 29.5076V7.67585L64.6782 7.67585V29.5076Z" fill="#5F5656"/>
<path d="M96.208 28.0361V9.14908L65.9883 9.14908V28.0361L96.208 28.0361Z" fill="#948B8B"/>
<path d="M66.5366 28.0341V9.14706H65.9855V28.0341H66.5366Z" fill="#605757"/>
<path d="M65.2198 25.5308L96.9761 25.5308V23.5552L65.2198 23.5552V25.5308Z" fill="#5F5656"/>
<path d="M63.2486 5.24261H99.6776C99.7307 5.24322 99.7814 5.26457 99.8189 5.30211C99.8565 5.33964 99.8778 5.39037 99.8784 5.44344C99.8784 5.4967 99.8573 5.54779 99.8196 5.58545C99.7819 5.62311 99.7309 5.64427 99.6776 5.64427H63.2486C63.222 5.64458 63.1956 5.63961 63.171 5.62966C63.1464 5.6197 63.1239 5.60496 63.1051 5.58628C63.0862 5.5676 63.0712 5.54536 63.0609 5.52084C63.0507 5.49632 63.0454 5.47001 63.0454 5.44344C63.046 5.38997 63.0677 5.33889 63.1057 5.30129C63.1438 5.2637 63.1951 5.24261 63.2486 5.24261Z" fill="#605757"/>
<path d="M62.5435 5.44334C62.5435 5.543 62.573 5.64043 62.6283 5.72333C62.6836 5.80623 62.7623 5.87088 62.8543 5.90912C62.9463 5.94736 63.0476 5.95749 63.1454 5.93822C63.2432 5.91894 63.3331 5.87113 63.4037 5.80082C63.4743 5.73052 63.5226 5.64086 63.5423 5.54317C63.562 5.44548 63.5524 5.34413 63.5145 5.25193C63.4767 5.15972 63.4124 5.08078 63.3298 5.02508C63.2471 4.96937 63.1499 4.9394 63.0502 4.93894C62.9838 4.93863 62.9179 4.95145 62.8565 4.97666C62.795 5.00187 62.7391 5.03898 62.692 5.08585C62.6449 5.13272 62.6076 5.18842 62.5821 5.24977C62.5566 5.31112 62.5435 5.3769 62.5435 5.44334Z" fill="#605757"/>
<path d="M97.973 6.57368C98.0447 6.57369 98.1135 6.54555 98.1646 6.49532C98.2157 6.44508 98.245 6.37679 98.2463 6.30514V5.72134C98.2463 5.64888 98.2175 5.57938 98.1662 5.52814C98.115 5.4769 98.0455 5.44812 97.973 5.44812C97.9373 5.44812 97.9018 5.4552 97.8688 5.46896C97.8358 5.48272 97.8058 5.50288 97.7807 5.52828C97.7555 5.55369 97.7356 5.58382 97.7221 5.61696C97.7086 5.65009 97.7019 5.68557 97.7022 5.72134V6.30514C97.7034 6.37638 97.7324 6.44434 97.783 6.4945C97.8336 6.54467 97.9018 6.57308 97.973 6.57368Z" fill="#605757"/>
<path d="M66.289 6.57368C66.3589 6.57074 66.425 6.54137 66.474 6.4915C66.523 6.44164 66.5512 6.37502 66.5529 6.30514V5.72134C66.5529 5.64888 66.5241 5.57938 66.4729 5.52814C66.4216 5.4769 66.3521 5.44812 66.2797 5.44812C66.2439 5.44812 66.2085 5.4552 66.1755 5.46896C66.1425 5.48272 66.1125 5.50288 66.0873 5.52828C66.0621 5.55369 66.0422 5.58382 66.0287 5.61696C66.0153 5.65009 66.0085 5.68557 66.0088 5.72134V6.30514C66.0094 6.34122 66.0171 6.37682 66.0316 6.40989C66.046 6.44296 66.0669 6.47285 66.0929 6.49782C66.119 6.52278 66.1497 6.54234 66.1834 6.55537C66.217 6.56839 66.2529 6.57461 66.289 6.57368Z" fill="#605757"/>
<path opacity="0.4" d="M63.3143 26.6539L96.9761 26.6539V5.44333L63.3143 5.44333V26.6539Z" fill="#E0E0E0"/>
<path d="M94.2275 5.44334C94.2275 5.5431 94.2571 5.64062 94.3125 5.72357C94.368 5.80652 94.4467 5.87117 94.5389 5.90934C94.6311 5.94752 94.7325 5.95751 94.8303 5.93805C94.9282 5.91858 95.0181 5.87054 95.0886 5.8C95.1591 5.72946 95.2072 5.63958 95.2266 5.54174C95.2461 5.44389 95.2361 5.34248 95.1979 5.25031C95.1598 5.15814 95.0951 5.07936 95.0122 5.02394C94.9292 4.96852 94.8317 4.93893 94.7319 4.93893C94.5982 4.93893 94.4699 4.99208 94.3753 5.08667C94.2807 5.18126 94.2275 5.30956 94.2275 5.44334Z" fill="#605757"/>
<path d="M46.5871 74.9407H49.2866V51.5257H46.5871V74.9407Z" fill="#726A6A"/>
<path d="M17.304 76.4235H48.25V74.9407H17.304V76.4235Z" fill="#726A6A"/>
<path d="M46.5872 51.5259H16.2671V74.9409H46.5872V51.5259Z" fill="#5F5656"/>
<path d="M42.8018 54.4077H20.0523C19.134 54.4077 18.3896 55.1521 18.3896 56.0704V60.4232C18.3896 61.3414 19.134 62.0858 20.0523 62.0858H42.8018C43.72 62.0858 44.4644 61.3414 44.4644 60.4232V56.0704C44.4644 55.1521 43.72 54.4077 42.8018 54.4077Z" fill="#726A6A"/>
<path d="M42.8018 64.3789H20.0523C19.134 64.3789 18.3896 65.1233 18.3896 66.0416V70.3944C18.3896 71.3126 19.134 72.057 20.0523 72.057H42.8018C43.72 72.057 44.4644 71.3126 44.4644 70.3944V66.0416C44.4644 65.1233 43.72 64.3789 42.8018 64.3789Z" fill="#726A6A"/>
<path d="M25.7782 58.7744H37.0759C37.2155 58.7744 37.3494 58.7191 37.4483 58.6206C37.5472 58.5221 37.603 58.3885 37.6037 58.2489C37.603 58.1092 37.5472 57.9753 37.4484 57.8764C37.3496 57.7776 37.2157 57.7218 37.0759 57.7212H25.7782C25.6385 57.7218 25.5046 57.7776 25.4057 57.8764C25.3069 57.9753 25.2511 58.1092 25.2505 58.2489C25.2511 58.3885 25.307 58.5221 25.4059 58.6206C25.5048 58.7191 25.6387 58.7744 25.7782 58.7744Z" fill="#5F5656"/>
<path d="M25.7782 68.7456H37.0759C37.2155 68.7456 37.3494 68.6903 37.4483 68.5918C37.5472 68.4933 37.603 68.3597 37.6037 68.2201C37.603 68.0804 37.5472 67.9465 37.4484 67.8476C37.3496 67.7488 37.2157 67.693 37.0759 67.6924H25.7782C25.6385 67.693 25.5046 67.7488 25.4057 67.8476C25.3069 67.9465 25.2511 68.0804 25.2505 68.2201C25.2511 68.3597 25.307 68.4933 25.4059 68.5918C25.5048 68.6903 25.6387 68.7456 25.7782 68.7456Z" fill="#5F5656"/>
<path d="M58.3801 87.0003C83.3859 87.0003 103.657 85.8168 103.657 84.3569C103.657 82.897 83.3859 81.7135 58.3801 81.7135C33.3743 81.7135 13.103 82.897 13.103 84.3569C13.103 85.8168 33.3743 87.0003 58.3801 87.0003Z" fill="#605757"/>
<path d="M68.3868 10.8472H25.2324L28.5858 69.617H71.7378L68.3868 10.8472Z" fill="#263238"/>
<path d="M69.2247 10.8472H26.0703L29.4237 69.617H72.578L69.2247 10.8472Z" fill="#F1592A"/>
<path opacity="0.5" d="M66.2519 12.8228H28.0435L30.7826 66.0209H69.9835L66.2519 12.8228Z" fill="black"/>
<path d="M28.0435 12.8228C30.8831 30.5563 28.9355 48.2897 31.7798 66.0209H70.976C68.1364 48.2897 70.084 30.5563 67.2397 12.8228H28.0435Z" fill="white"/>
<g opacity="0.3">
<path d="M36.0584 28.763C36.924 28.77 37.7539 29.1089 38.377 29.7098C39.0001 30.3107 39.3688 31.1278 39.407 31.9926C39.4245 32.4086 39.3571 32.8238 39.2089 33.2129C39.0608 33.6021 38.835 33.957 38.5453 34.256C38.2556 34.5551 37.9081 34.7921 37.5239 34.9526C37.1397 35.1131 36.7269 35.1937 36.3106 35.1895C35.4503 35.1824 34.6257 34.8444 34.0079 34.2458C33.3901 33.6471 33.0264 32.8336 32.9922 31.9739C32.9742 31.5592 33.04 31.145 33.1857 30.7562C33.3313 30.3674 33.5538 30.012 33.8399 29.7111C34.1269 29.413 34.4716 29.1764 34.853 29.0158C35.2344 28.8552 35.6445 28.774 36.0584 28.7771M36.035 28.1022C35.5317 28.099 35.033 28.1986 34.5694 28.3947C34.1058 28.5909 33.6872 28.8796 33.339 29.243C32.9908 29.6065 32.7204 30.0372 32.5443 30.5088C32.3683 30.9804 32.2903 31.4829 32.315 31.9856C32.3558 33.0235 32.7945 34.0058 33.5402 34.7289C34.2859 35.452 35.2813 35.8602 36.3199 35.869C36.8255 35.8732 37.3268 35.7747 37.7932 35.5795C38.2597 35.3843 38.6817 35.0964 39.0336 34.7334C39.3855 34.3703 39.6601 33.9396 39.8407 33.4672C40.0213 32.9949 40.1042 32.4909 40.0842 31.9856C40.0341 30.9432 39.5863 29.9597 38.8331 29.2373C38.08 28.515 37.0786 28.1087 36.035 28.1022Z" fill="#F1592A"/>
</g>
<path d="M57.731 57.8941H45.3545C45.2619 57.8926 45.17 57.9107 45.085 57.9475C45 57.9842 44.9238 58.0386 44.8615 58.1071C44.7992 58.1756 44.7522 58.2566 44.7236 58.3447C44.6951 58.4328 44.6856 58.526 44.6959 58.618C44.7185 58.8149 44.8115 58.9969 44.9579 59.1304C45.1043 59.264 45.2941 59.3399 45.4922 59.3443H57.8688C57.9614 59.346 58.0533 59.3278 58.1383 59.2909C58.2233 59.254 58.2994 59.1992 58.3614 59.1304C58.4234 59.0615 58.4699 58.9801 58.4977 58.8917C58.5255 58.8033 58.534 58.71 58.5226 58.618C58.5006 58.422 58.4083 58.2406 58.2627 58.1075C58.1171 57.9744 57.9282 57.8986 57.731 57.8941Z" fill="#E0E0E0"/>
<path d="M64.351 54.8469H45.1044C45.0112 54.8451 44.9188 54.8631 44.8331 54.8996C44.7474 54.9361 44.6704 54.9903 44.6071 55.0586C44.5438 55.127 44.4957 55.208 44.4659 55.2962C44.4361 55.3845 44.4253 55.478 44.4342 55.5708C44.451 55.767 44.5401 55.95 44.6842 56.0842C44.8283 56.2184 45.0172 56.2943 45.2141 56.297H64.4515C64.5447 56.2997 64.6375 56.2826 64.7237 56.2468C64.8099 56.211 64.8876 56.1574 64.9516 56.0895C65.0155 56.0215 65.0644 55.9408 65.0949 55.8526C65.1254 55.7644 65.1369 55.6707 65.1287 55.5778C65.1135 55.3809 65.0254 55.1968 64.8815 55.0616C64.7377 54.9264 64.5485 54.8498 64.351 54.8469Z" fill="#E0E0E0"/>
<g opacity="0.3">
<path d="M36.4523 41.3329C37.3116 41.339 38.1352 41.677 38.751 42.2763C39.3668 42.8755 39.7271 43.6897 39.7566 44.5484C39.7724 44.9641 39.7042 45.3788 39.5561 45.7675C39.4081 46.1563 39.1832 46.5113 38.895 46.8112C38.6065 47.11 38.2602 47.3469 37.8772 47.5075C37.4942 47.6681 37.0825 47.749 36.6672 47.7453C35.8059 47.7394 34.9799 47.4021 34.3607 46.8033C33.7415 46.2046 33.3767 45.3904 33.3419 44.5297C33.3277 44.1134 33.3978 43.6985 33.548 43.3099C33.6982 42.9213 33.9254 42.5671 34.2159 42.2685C34.5064 41.9699 34.8543 41.7331 35.2386 41.5723C35.6229 41.4116 36.0358 41.3301 36.4523 41.3329ZM36.4523 40.6556C35.9464 40.6525 35.445 40.7516 34.9782 40.947C34.5115 41.1424 34.089 41.4301 33.7362 41.7928C33.3833 42.1554 33.1074 42.5856 32.9249 43.0575C32.7423 43.5294 32.657 44.0334 32.674 44.5391C32.7154 45.5798 33.1565 46.5644 33.9055 47.2882C34.6545 48.0119 35.6537 48.4191 36.6952 48.4248C37.1997 48.4268 37.6993 48.3266 38.164 48.1303C38.6287 47.9339 39.0489 47.6455 39.3991 47.2824C39.7493 46.9193 40.0224 46.4891 40.2018 46.0176C40.3813 45.5461 40.4634 45.0431 40.4432 44.5391C40.4082 43.5017 39.9732 42.5181 39.2293 41.7942C38.4854 41.0703 37.4903 40.6623 36.4523 40.6556Z" fill="#F1592A"/>
</g>
<path d="M50.8604 31.1729H44.2401C44.0456 31.1713 43.8591 31.095 43.7192 30.9599C43.5792 30.8247 43.4966 30.641 43.4882 30.4466C43.485 30.3527 43.5009 30.2591 43.5347 30.1714C43.5685 30.0836 43.6196 30.0036 43.6849 29.9361C43.7503 29.8685 43.8286 29.8148 43.9151 29.7782C44.0017 29.7415 44.0947 29.7227 44.1887 29.7227H50.8067C51.0013 29.7242 51.188 29.8 51.3286 29.9346C51.4692 30.0691 51.5532 30.2523 51.5633 30.4466C51.5667 30.541 51.5511 30.635 51.5173 30.7232C51.4835 30.8113 51.4322 30.8917 51.3666 30.9595C51.3009 31.0274 51.2223 31.0812 51.1353 31.1179C51.0483 31.1545 50.9548 31.1733 50.8604 31.1729Z" fill="#E0E0E0"/>
<path d="M58.5019 31.1729H54.0183C53.8236 31.1713 53.6368 31.0951 53.4965 30.96C53.3562 30.8249 53.273 30.6412 53.2641 30.4466C53.2609 30.3527 53.2767 30.2591 53.3105 30.1714C53.3443 30.0836 53.3954 30.0036 53.4608 29.9361C53.5262 29.8685 53.6045 29.8148 53.691 29.7782C53.7776 29.7415 53.8706 29.7227 53.9646 29.7227H58.4505C58.6449 29.7243 58.8313 29.8001 58.9716 29.9347C59.1118 30.0693 59.1953 30.2525 59.2048 30.4466C59.2083 30.541 59.1926 30.635 59.1588 30.7232C59.125 30.8113 59.0738 30.8917 59.0081 30.9595C58.9425 31.0274 58.8638 31.0812 58.7768 31.1179C58.6898 31.1545 58.5963 31.1733 58.5019 31.1729Z" fill="#E0E0E0"/>
<path d="M62.116 34.2196H44.3452C44.1507 34.2185 43.9642 34.1424 43.8245 34.0071C43.6848 33.8717 43.6028 33.6877 43.5956 33.4933C43.5925 33.3994 43.6083 33.3058 43.6421 33.2181C43.6759 33.1304 43.727 33.0504 43.7924 32.9828C43.8577 32.9153 43.936 32.8616 44.0226 32.8249C44.1091 32.7883 44.2022 32.7694 44.2962 32.7694H62.0646C62.2585 32.7705 62.4445 32.8464 62.5837 32.9813C62.7229 33.1162 62.8047 33.2996 62.8119 33.4933C62.8154 33.5871 62.7999 33.6806 62.7666 33.7683C62.7332 33.8559 62.6826 33.936 62.6177 34.0037C62.5528 34.0715 62.4749 34.1255 62.3887 34.1626C62.3026 34.1996 62.2098 34.219 62.116 34.2196Z" fill="#E0E0E0"/>
<g opacity="0.3">
<path d="M36.9593 53.887C37.8304 53.9041 38.6646 54.2418 39.3023 54.8355C39.9399 55.4292 40.3363 56.2372 40.4154 57.1049C40.4573 57.5114 40.4144 57.9222 40.2894 58.3113C40.1644 58.7004 39.96 59.0593 39.6892 59.3653C39.4161 59.6661 39.0819 59.905 38.7089 60.0661C38.336 60.2272 37.9329 60.3068 37.5268 60.2994C36.6481 60.2852 35.8049 59.9506 35.1556 59.3585C34.5063 58.7664 34.0956 57.9575 34.0006 57.0839C33.9606 56.6743 34.0077 56.2609 34.1389 55.8709C34.2701 55.4809 34.4825 55.1231 34.7619 54.8211C35.0431 54.5211 35.3838 54.2831 35.7621 54.1223C36.1405 53.9615 36.5482 53.8813 36.9593 53.887ZM36.9266 53.2121C36.4265 53.2023 35.93 53.2983 35.4696 53.4939C35.0092 53.6894 34.5953 53.98 34.2551 54.3467C33.9149 54.7134 33.656 55.1478 33.4955 55.6215C33.3349 56.0953 33.2763 56.5976 33.3234 57.0955C33.5032 59.2392 35.4485 60.979 37.5922 60.979C39.7359 60.979 41.2724 59.2392 41.0949 57.0955C41.0023 56.0482 40.5256 55.0721 39.7565 54.3552C38.9873 53.6382 37.9802 53.2311 36.929 53.2121H36.9266Z" fill="#F1592A"/>
</g>
<path d="M65.1516 45.3331H44.6463C44.5523 45.333 44.4592 45.3519 44.3727 45.3885C44.2861 45.4252 44.2078 45.4789 44.1424 45.5464C44.0771 45.614 44.026 45.694 43.9922 45.7817C43.9584 45.8694 43.9426 45.963 43.9457 46.057C43.9541 46.2507 44.0365 46.4338 44.176 46.5686C44.3155 46.7033 44.5014 46.7793 44.6953 46.7809H65.21C65.304 46.7809 65.397 46.7621 65.4836 46.7254C65.5701 46.6888 65.6484 46.6351 65.7138 46.5675C65.7792 46.5 65.8303 46.42 65.8641 46.3323C65.8979 46.2445 65.9137 46.1509 65.9105 46.057C65.9032 45.8612 65.8199 45.6761 65.6781 45.5409C65.5364 45.4057 65.3475 45.3311 65.1516 45.3331Z" fill="#E0E0E0"/>
<path d="M60.2925 42.2831H44.558C44.4638 42.283 44.3705 42.3019 44.2838 42.3387C44.1971 42.3755 44.1187 42.4294 44.0533 42.4972C43.9879 42.565 43.9368 42.6453 43.9032 42.7333C43.8695 42.8213 43.854 42.9152 43.8574 43.0093C43.864 43.2028 43.9453 43.3862 44.0842 43.5212C44.223 43.6561 44.4087 43.7321 44.6023 43.7332H60.3392C60.4332 43.7333 60.5262 43.7144 60.6128 43.6777C60.6993 43.6411 60.7776 43.5874 60.843 43.5198C60.9084 43.4523 60.9595 43.3723 60.9933 43.2846C61.0271 43.1969 61.0429 43.1032 61.0398 43.0093C61.0343 42.8148 60.9531 42.6301 60.8136 42.4944C60.674 42.3588 60.4871 42.283 60.2925 42.2831Z" fill="#E0E0E0"/>
<path d="M36.413 34.2621L36.1375 33.8091C35.5326 32.8213 34.2693 31.9409 33.835 31.6817L34.1619 31.1026C35.0196 31.6218 35.7838 32.2818 36.4224 33.0548C37.4148 31.7214 38.865 30.3506 40.8289 28.8701L41.2515 29.4166C39.1499 30.9975 37.66 32.4523 36.7049 33.8371C36.6092 33.9795 36.5111 34.122 36.413 34.2621Z" fill="#F1592A"/>
<path d="M36.7632 46.8255C36.6721 46.6737 36.5787 46.5219 36.4853 46.3724C35.8782 45.3846 34.6172 44.5043 34.1875 44.2427L34.5191 43.6636C35.3724 44.1842 36.1325 44.8441 36.7679 45.6158C37.7627 44.2848 39.2245 42.9117 41.2188 41.4312L41.6321 41.9776C39.5024 43.5585 38.0032 45.0133 37.0528 46.3981L36.7632 46.8255Z" fill="#F1592A"/>
<path d="M37.5637 59.4168L37.2555 58.9638C36.5829 57.976 35.2799 57.0957 34.8315 56.8364L35.1351 56.2573C36.0175 56.7802 36.8126 57.4382 37.4913 58.2072C38.4067 56.8761 39.7985 55.503 41.732 54.0249L42.1687 54.5713C40.1044 56.1522 38.6869 57.6071 37.8253 58.9918L37.5637 59.4168Z" fill="#F1592A"/>
<path d="M52.3317 17.2808C51.9207 18.1775 51.4996 19.0735 51.0684 19.9686C51.9573 20.4108 52.7174 21.0745 53.2753 21.8958C53.8332 22.7172 54.1701 23.6683 54.2536 24.6577H57.357C57.1515 21.4842 55.1106 18.7216 52.3317 17.2808Z" fill="#F1592A"/>
<path d="M40.5085 24.6621H43.6119C43.5358 23.7842 43.6958 22.902 44.0751 22.1067C44.4545 21.3115 45.0395 20.632 45.7696 20.1388C45.1656 19.2421 44.5522 18.3454 43.9295 17.4486C41.6644 18.9151 40.31 21.6029 40.5085 24.6621Z" fill="#263238"/>
<path d="M48.1335 16.2392C46.6445 16.2244 45.1836 16.6449 43.9302 17.4488C44.5529 18.3455 45.1663 19.2422 45.7703 20.1389C46.5794 19.6102 47.5267 19.3324 48.4931 19.3403C49.3873 19.3455 50.2676 19.5624 51.0619 19.9731C51.4915 19.0764 51.9126 18.1805 52.3252 17.2853C51.0315 16.6072 49.5942 16.2485 48.1335 16.2392Z" fill="#F1592A"/>
<path opacity="0.5" d="M48.1335 16.2392C46.6445 16.2244 45.1836 16.6449 43.9302 17.4488C44.5529 18.3455 45.1663 19.2422 45.7703 20.1389C46.5794 19.6102 47.5267 19.3324 48.4931 19.3403C49.3873 19.3455 50.2676 19.5624 51.0619 19.9731C51.4915 19.0764 51.9126 18.1805 52.3252 17.2853C51.0315 16.6072 49.5942 16.2485 48.1335 16.2392Z" fill="#263238"/>
<path d="M51.9257 22.5372C51.9257 22.5372 48.7919 23.8192 48.4603 24.0527C48.3811 24.1127 48.3147 24.1879 48.265 24.2739C48.2153 24.3599 48.1833 24.455 48.1709 24.5536C48.1585 24.6522 48.1659 24.7522 48.1927 24.8479C48.2196 24.9435 48.2653 25.0328 48.3272 25.1106C48.4442 25.2767 48.6212 25.3908 48.8208 25.4287C49.0204 25.4666 49.2269 25.4254 49.3967 25.3137C49.74 25.0662 51.9304 22.5372 51.9257 22.5372ZM48.6331 24.8724C48.6026 24.8341 48.5801 24.7902 48.5669 24.7431C48.5536 24.696 48.5499 24.6467 48.556 24.5982C48.5621 24.5497 48.5779 24.5029 48.6023 24.4605C48.6268 24.4182 48.6595 24.3811 48.6985 24.3516C48.7825 24.2975 48.8842 24.2778 48.9824 24.2965C49.0806 24.3151 49.1679 24.3708 49.2262 24.452C49.2567 24.4903 49.2792 24.5342 49.2924 24.5813C49.3057 24.6284 49.3094 24.6777 49.3033 24.7262C49.2972 24.7747 49.2814 24.8215 49.257 24.8639C49.2325 24.9062 49.1998 24.9433 49.1608 24.9728C49.0779 25.0278 48.977 25.0491 48.8789 25.0322C48.7807 25.0152 48.6928 24.9614 48.6331 24.8817V24.8724Z" fill="#263238"/>
<path d="M55.6405 21.0541C55.6558 21.1947 55.641 21.3369 55.597 21.4713C55.553 21.6057 55.4808 21.7291 55.3854 21.8334C55.2899 21.9377 55.1733 22.0205 55.0434 22.0761C54.9134 22.1318 54.7731 22.1592 54.6317 22.1564C54.3322 22.1505 54.0451 22.0351 53.8249 21.832C53.6046 21.6289 53.4663 21.3522 53.4361 21.0541C53.4201 20.9143 53.4342 20.7727 53.4773 20.6388C53.5205 20.5049 53.5918 20.3817 53.6864 20.2776C53.7811 20.1734 53.8969 20.0907 54.026 20.035C54.1552 19.9792 54.2949 19.9517 54.4355 19.9543C54.7359 19.9593 55.0241 20.0739 55.246 20.2764C55.4678 20.4789 55.6081 20.7555 55.6405 21.0541Z" fill="white"/>
<path d="M54.2747 20.8021C54.277 20.8243 54.2746 20.8467 54.2677 20.8679C54.2607 20.8891 54.2494 20.9086 54.2344 20.9251C54.2195 20.9416 54.2012 20.9548 54.1807 20.9638C54.1603 20.9728 54.1383 20.9774 54.116 20.9772C54.068 20.9769 54.0219 20.9588 53.9866 20.9264C53.9512 20.8941 53.9291 20.8498 53.9245 20.8021C53.9218 20.7798 53.9239 20.7573 53.9307 20.7359C53.9375 20.7145 53.9488 20.6949 53.9639 20.6783C53.9789 20.6617 53.9974 20.6485 54.018 20.6396C54.0386 20.6308 54.0608 20.6265 54.0833 20.627C54.1312 20.6273 54.1773 20.6454 54.2126 20.6778C54.248 20.7101 54.2701 20.7544 54.2747 20.8021Z" fill="#263238"/>
<path d="M55.1106 20.8022C55.1129 20.8246 55.1104 20.8472 55.1034 20.8685C55.0963 20.8899 55.0847 20.9095 55.0695 20.9261C55.0543 20.9426 55.0357 20.9558 55.015 20.9646C54.9943 20.9734 54.972 20.9778 54.9495 20.9773C54.9018 20.976 54.8563 20.9575 54.8211 20.9254C54.786 20.8932 54.7636 20.8495 54.758 20.8022C54.7553 20.7797 54.7574 20.7569 54.7644 20.7354C54.7713 20.7139 54.7828 20.6941 54.7982 20.6774C54.8135 20.6608 54.8322 20.6477 54.8531 20.639C54.874 20.6303 54.8965 20.6262 54.9191 20.627C54.967 20.6274 55.0131 20.6455 55.0485 20.6778C55.0838 20.7102 55.106 20.7545 55.1106 20.8022Z" fill="#263238"/>
<path d="M54.5898 21.7178C54.3588 21.716 54.1367 21.6286 53.9663 21.4726C53.9504 21.4564 53.9414 21.4346 53.9414 21.4119C53.9414 21.3892 53.9504 21.3673 53.9663 21.3512C53.9742 21.343 53.9836 21.3365 53.994 21.332C54.0045 21.3276 54.0157 21.3253 54.027 21.3253C54.0384 21.3253 54.0496 21.3276 54.0601 21.332C54.0705 21.3365 54.0799 21.343 54.0878 21.3512C54.226 21.4786 54.4065 21.5501 54.5945 21.552C54.6818 21.554 54.7685 21.5375 54.8489 21.5037C54.9294 21.4699 55.0018 21.4195 55.0615 21.3558C55.0773 21.3391 55.0991 21.3294 55.1221 21.3287C55.1335 21.3284 55.1448 21.3303 55.1555 21.3344C55.1661 21.3384 55.1759 21.3445 55.1841 21.3523C55.1924 21.3602 55.1991 21.3695 55.2037 21.3799C55.2084 21.3903 55.211 21.4015 55.2113 21.4129C55.2116 21.4243 55.2097 21.4356 55.2056 21.4463C55.2016 21.4569 55.1955 21.4667 55.1876 21.4749C55.1107 21.5553 55.0177 21.6184 54.9147 21.6603C54.8117 21.7021 54.701 21.7217 54.5898 21.7178Z" fill="#263238"/>
<path d="M49.4178 17.771C49.4371 17.9099 49.426 18.0514 49.3852 18.1857C49.3445 18.3199 49.2751 18.4437 49.1819 18.5485C49.0886 18.6533 48.9737 18.7366 48.8451 18.7927C48.7165 18.8487 48.5772 18.8762 48.437 18.8732C48.1349 18.8661 47.8454 18.7511 47.6209 18.5489C47.3964 18.3466 47.2518 18.0707 47.2133 17.771C47.1925 17.6327 47.2022 17.4914 47.2418 17.3573C47.2814 17.2231 47.3499 17.0992 47.4425 16.9944C47.5351 16.8896 47.6495 16.8063 47.7778 16.7504C47.906 16.6946 48.0449 16.6675 48.1848 16.6711C48.4874 16.6782 48.7776 16.7928 49.0035 16.9943C49.2294 17.1958 49.3763 17.4711 49.4178 17.771Z" fill="white"/>
<path d="M48.0445 17.5139C48.0475 17.5358 48.0458 17.5581 48.0394 17.5793C48.033 17.6005 48.0221 17.6201 48.0075 17.6367C47.9929 17.6533 47.9748 17.6666 47.9546 17.6756C47.9344 17.6847 47.9125 17.6892 47.8904 17.689C47.8422 17.6878 47.796 17.6695 47.7601 17.6375C47.7242 17.6054 47.7008 17.5616 47.6942 17.5139C47.6908 17.4919 47.6922 17.4694 47.6984 17.448C47.7047 17.4267 47.7155 17.4069 47.7302 17.3902C47.7449 17.3735 47.7631 17.3602 47.7835 17.3513C47.8039 17.3424 47.8261 17.3381 47.8483 17.3387C47.8966 17.3395 47.943 17.3576 47.9791 17.3897C48.0151 17.4219 48.0383 17.466 48.0445 17.5139Z" fill="#263238"/>
<path d="M48.8785 17.5139C48.8815 17.536 48.8797 17.5585 48.8732 17.5799C48.8667 17.6013 48.8556 17.621 48.8407 17.6376C48.8259 17.6543 48.8075 17.6675 48.787 17.6764C48.7665 17.6852 48.7443 17.6896 48.722 17.689C48.674 17.6873 48.6281 17.6689 48.5923 17.6369C48.5564 17.6049 48.5329 17.5614 48.5259 17.5139C48.5228 17.4917 48.5246 17.4692 48.5311 17.4478C48.5376 17.4265 48.5487 17.4068 48.5636 17.3901C48.5785 17.3735 48.5968 17.3602 48.6173 17.3514C48.6378 17.3425 48.66 17.3382 48.6823 17.3387C48.7305 17.3399 48.7766 17.3582 48.8126 17.3903C48.8485 17.4224 48.8718 17.4662 48.8785 17.5139Z" fill="#263238"/>
<path d="M48.9016 18.2148H47.8088C47.788 18.2113 47.7691 18.2007 47.7555 18.1846C47.7419 18.1686 47.7344 18.1482 47.7344 18.1272C47.7344 18.1061 47.7419 18.0858 47.7555 18.0697C47.7691 18.0537 47.788 18.043 47.8088 18.0396H48.9016C48.9224 18.043 48.9413 18.0537 48.9549 18.0697C48.9685 18.0858 48.976 18.1061 48.976 18.1272C48.976 18.1482 48.9685 18.1686 48.9549 18.1846C48.9413 18.2007 48.9224 18.2113 48.9016 18.2148Z" fill="#263238"/>
<path d="M43.8715 21.0541C43.8868 21.1947 43.8719 21.3369 43.8279 21.4713C43.7839 21.6057 43.7118 21.7291 43.6163 21.8334C43.5209 21.9377 43.4043 22.0205 43.2743 22.0761C43.1444 22.1318 43.004 22.1592 42.8627 22.1564C42.5631 22.1505 42.2761 22.0351 42.0558 21.832C41.8355 21.6289 41.6972 21.3522 41.667 21.0541C41.6511 20.9143 41.6651 20.7727 41.7083 20.6388C41.7515 20.5049 41.8228 20.3817 41.9174 20.2776C42.012 20.1734 42.1278 20.0907 42.257 20.035C42.3862 19.9792 42.5258 19.9517 42.6665 19.9543C42.9667 19.9598 43.2546 20.0746 43.4764 20.277C43.6982 20.4794 43.8386 20.7557 43.8715 21.0541Z" fill="white"/>
<path d="M42.5008 20.8021C42.5031 20.8243 42.5007 20.8467 42.4938 20.8679C42.4868 20.8891 42.4755 20.9086 42.4605 20.9251C42.4455 20.9416 42.4272 20.9548 42.4068 20.9638C42.3864 20.9728 42.3643 20.9774 42.342 20.9772C42.2941 20.9769 42.248 20.9588 42.2126 20.9264C42.1773 20.8941 42.1552 20.8498 42.1505 20.8021C42.1479 20.7798 42.15 20.7573 42.1568 20.7359C42.1636 20.7145 42.1749 20.6949 42.19 20.6783C42.205 20.6617 42.2235 20.6485 42.2441 20.6396C42.2647 20.6308 42.2869 20.6265 42.3093 20.627C42.3573 20.6273 42.4033 20.6454 42.4387 20.6778C42.4741 20.7101 42.4962 20.7544 42.5008 20.8021Z" fill="#263238"/>
<path d="M43.3363 20.8021C43.3389 20.8244 43.3368 20.8469 43.33 20.8683C43.3232 20.8897 43.3119 20.9093 43.2968 20.9259C43.2818 20.9425 43.2633 20.9557 43.2427 20.9646C43.2221 20.9734 43.1999 20.9777 43.1775 20.9772C43.1298 20.9759 43.0843 20.9574 43.0491 20.9253C43.014 20.8931 42.9916 20.8494 42.986 20.8021C42.9833 20.7798 42.9854 20.7573 42.9922 20.7359C42.999 20.7145 43.0104 20.6949 43.0254 20.6783C43.0405 20.6617 43.0589 20.6485 43.0795 20.6396C43.1001 20.6308 43.1224 20.6265 43.1448 20.627C43.1929 20.6268 43.2392 20.6447 43.2747 20.6771C43.3102 20.7096 43.3322 20.7542 43.3363 20.8021Z" fill="#263238"/>
<path d="M42.2669 21.7179C42.2561 21.718 42.2454 21.716 42.2354 21.712C42.2254 21.708 42.2162 21.7021 42.2085 21.6945C42.1926 21.6784 42.1836 21.6565 42.1836 21.6338C42.1836 21.6111 42.1926 21.5893 42.2085 21.5731C42.2843 21.4926 42.3759 21.4286 42.4775 21.3852C42.5792 21.3418 42.6888 21.3199 42.7993 21.3209C43.0306 21.3234 43.2528 21.4116 43.4228 21.5684C43.431 21.5763 43.4375 21.5857 43.442 21.5961C43.4464 21.6066 43.4487 21.6178 43.4487 21.6291C43.4487 21.6405 43.4464 21.6517 43.442 21.6621C43.4375 21.6726 43.431 21.682 43.4228 21.6899C43.406 21.7054 43.3839 21.7141 43.3609 21.7141C43.338 21.7141 43.3159 21.7054 43.2991 21.6899C43.1609 21.561 42.979 21.4892 42.79 21.489C42.7029 21.4871 42.6164 21.5033 42.536 21.5367C42.4556 21.57 42.383 21.6198 42.3229 21.6829C42.3093 21.7011 42.2893 21.7136 42.2669 21.7179Z" fill="#263238"/>
<path d="M59.9539 12.9743C59.2253 11.4401 57.5253 10.4243 55.6922 10.4243H51.9558C51.6993 10.4356 51.4443 10.3789 51.2167 10.26C50.9891 10.1411 50.797 9.96414 50.6598 9.74707C50.1391 8.77096 48.8967 8.07507 47.4863 8.07507C46.0758 8.07507 44.9176 8.77563 44.5066 9.74707C44.3361 10.1581 43.848 10.4243 43.2876 10.4243H39.5513C37.7182 10.4243 36.1326 11.4401 35.5815 12.9743C35.561 13.0279 35.5531 13.0854 35.5581 13.1424C35.5641 13.2622 35.6159 13.3751 35.7029 13.4577C35.7898 13.5403 35.9052 13.5863 36.0252 13.5861H59.5826C59.6546 13.5863 59.7254 13.5679 59.7882 13.5326C59.8509 13.4974 59.9035 13.4465 59.9409 13.385C59.9782 13.3235 59.999 13.2533 60.0013 13.1814C60.0036 13.1094 59.9873 13.0381 59.9539 12.9743ZM47.6381 10.8469C47.3594 10.8412 47.0929 10.7314 46.8911 10.5391C46.6893 10.3468 46.5667 10.0859 46.5475 9.80779C46.5382 9.67385 46.5567 9.53942 46.6019 9.41298C46.6471 9.28655 46.718 9.17086 46.8101 9.07321C46.9023 8.97557 47.0137 8.89809 47.1373 8.84566C47.2609 8.79324 47.3941 8.76701 47.5283 8.76863C47.8088 8.77152 48.0779 8.88014 48.2818 9.07279C48.4857 9.26543 48.6094 9.52791 48.6282 9.80779C48.6376 9.94253 48.6189 10.0778 48.5731 10.2048C48.5274 10.3319 48.4556 10.4481 48.3624 10.5459C48.2693 10.6436 48.1567 10.7209 48.032 10.7728C47.9073 10.8246 47.7731 10.8499 47.6381 10.8469Z" fill="#263238"/>
<path d="M84.1654 82.6912C83.9826 82.7137 83.798 82.668 83.647 82.5628C83.6271 82.5381 83.6149 82.5081 83.612 82.4765C83.6091 82.445 83.6156 82.4132 83.6306 82.3853C83.6418 82.3613 83.6583 82.3402 83.679 82.3236C83.6996 82.307 83.7238 82.2953 83.7497 82.2896C84.0253 82.2125 84.6628 82.5535 84.6838 82.5698C84.6917 82.5733 84.6983 82.5793 84.7025 82.5869C84.7068 82.5945 84.7084 82.6032 84.7071 82.6118C84.7068 82.6196 84.7038 82.6271 84.6987 82.633C84.6937 82.6389 84.6868 82.643 84.6791 82.6445C84.5095 82.6747 84.3376 82.6904 84.1654 82.6912ZM83.8571 82.3596C83.8316 82.3558 83.8056 82.3558 83.7801 82.3596C83.7641 82.3626 83.7491 82.3692 83.7361 82.3789C83.7232 82.3886 83.7126 82.4012 83.7053 82.4157C83.682 82.4671 83.7053 82.4927 83.7053 82.5068C83.7987 82.6165 84.2331 82.6188 84.546 82.5745C84.3311 82.4621 84.0978 82.3893 83.8571 82.3596Z" fill="#F1592A"/>
<path d="M84.6783 82.6448H84.662C84.4448 82.5514 83.9918 82.1778 84.0011 81.9863C84.0011 81.9396 84.0291 81.8835 84.1412 81.8719C84.2251 81.8647 84.3086 81.8898 84.3748 81.9419C84.5494 82.125 84.6678 82.3544 84.7157 82.6028C84.7186 82.6086 84.7201 82.615 84.7201 82.6215C84.7201 82.6279 84.7186 82.6343 84.7157 82.6401C84.7103 82.644 84.7041 82.6464 84.6976 82.6472C84.6911 82.648 84.6845 82.6472 84.6783 82.6448ZM84.1809 81.9443H84.1576C84.0852 81.9443 84.0829 81.9793 84.0829 81.9886C84.0829 82.1054 84.3888 82.3973 84.6153 82.5234C84.571 82.324 84.4714 82.1411 84.328 81.9956C84.2857 81.9638 84.2338 81.9474 84.1809 81.9489V81.9443Z" fill="#F1592A"/>
<path d="M86.5605 82.6048H84.8441L84.23 78.6303H85.9463L86.5605 82.6048Z" fill="#FFC3BD"/>
<path d="M84.8329 82.4069H86.701C86.7362 82.4078 86.7703 82.4195 86.7987 82.4404C86.8271 82.4612 86.8484 82.4903 86.8598 82.5236L87.3689 84.0485C87.3797 84.0827 87.3824 84.1188 87.377 84.1543C87.3716 84.1897 87.358 84.2233 87.3375 84.2527C87.317 84.282 87.2899 84.3063 87.2585 84.3235C87.2271 84.3407 87.1922 84.3505 87.1564 84.3521C86.4792 84.3521 85.4984 84.303 84.6484 84.303C83.6559 84.303 83.7447 84.3567 82.5794 84.3567C81.8788 84.3567 81.601 83.6445 81.8788 83.5791C83.1889 83.2872 83.3407 83.2545 84.4195 82.54C84.5404 82.4542 84.6847 82.4077 84.8329 82.4069Z" fill="#263238"/>
<path opacity="0.2" d="M84.23 78.6327L84.5476 80.6807H86.2639L85.9463 78.6327H84.23Z" fill="black"/>
<path d="M86.3644 39.8031L85.1968 40.9824L86.9855 41.6152C86.9855 41.6152 87.6861 40.6531 87.1934 39.9946L86.3644 39.8031Z" fill="#FFC3BD"/>
<path d="M84.8052 42.6307L86.5916 42.8923L86.9909 41.6149L85.2022 40.9821L84.8052 42.6307Z" fill="#FFC3BD"/>
<path d="M87.1449 25.2826C87.2967 25.6096 87.4181 25.8874 87.5396 26.191C87.661 26.4946 87.7731 26.7865 87.8898 27.0854C88.1117 27.6855 88.3102 28.2974 88.4947 28.9162C88.6824 29.5423 88.8383 30.1775 88.9617 30.8194L89.0504 31.3098L89.1228 31.8095C89.1485 31.9753 89.1649 32.1481 89.1789 32.3186C89.1929 32.489 89.2162 32.6432 89.2162 32.858V33.1616V33.4301L89.2022 33.694L89.1765 33.9439C89.1462 34.2801 89.1018 34.5954 89.0598 34.9153C88.9664 35.5458 88.859 36.1623 88.7399 36.7835C88.4923 38.0048 88.2214 39.198 87.8945 40.4007L85.7672 39.9803C85.9026 38.7941 86.0427 37.5891 86.1548 36.4028C86.2085 35.8097 86.2669 35.2189 86.2996 34.6397C86.3136 34.3548 86.3299 34.0653 86.3299 33.7921V33.5866V33.3974V33.2083L86.3136 33.0541C86.3029 32.9311 86.2858 32.8087 86.2622 32.6875C86.2412 32.5567 86.2225 32.426 86.1922 32.2929L86.1058 31.8936L86.0053 31.4919C85.8606 30.9548 85.6971 30.4154 85.5103 29.8759C85.3235 29.3365 85.1156 28.7994 84.8961 28.267C84.7887 27.9985 84.6766 27.7322 84.5599 27.4707C84.4431 27.2092 84.3263 26.9359 84.2119 26.7094L87.1449 25.2826Z" fill="#263238"/>
<path d="M79.0815 38.9667C79.0815 38.9667 79.3664 52.0998 80.1371 57.3307C80.9404 62.7717 83.8734 80.2833 83.8734 80.2833H86.7783C86.7783 80.2833 85.7368 63.617 85.4053 58.2624C85.0433 52.4244 85.1227 38.9667 85.1227 38.9667H79.0815Z" fill="#F1592A"/>
<path d="M83.1748 79.1255C83.1608 79.1255 83.4737 80.3328 83.4737 80.3328H87.0092L86.9835 79.2563L83.1748 79.1255Z" fill="#263238"/>
<path d="M78.4271 17.6767C78.436 17.5312 78.3661 17.4086 78.2708 17.4027C78.1755 17.3969 78.0911 17.51 78.0821 17.6555C78.0732 17.8009 78.1431 17.9236 78.2384 17.9295C78.3337 17.9353 78.4181 17.8222 78.4271 17.6767Z" fill="#263238"/>
<path d="M78.3551 17.9291C78.1657 18.3743 77.9175 18.7921 77.6172 19.1714C77.7153 19.2427 77.8279 19.2913 77.947 19.314C78.0661 19.3366 78.1887 19.3326 78.3061 19.3022L78.3551 17.9291Z" fill="#ED847E"/>
<path d="M78.972 16.8601C78.9539 16.8602 78.9362 16.8553 78.9206 16.8461C78.8371 16.7804 78.7388 16.7358 78.6343 16.7163C78.5298 16.6968 78.4221 16.7029 78.3205 16.734C78.3101 16.7382 78.2989 16.7401 78.2877 16.7399C78.2765 16.7397 78.2655 16.7372 78.2553 16.7326C78.2451 16.728 78.2359 16.7215 78.2282 16.7133C78.2205 16.7051 78.2146 16.6955 78.2107 16.685C78.207 16.6743 78.2055 16.6629 78.2062 16.6516C78.2069 16.6403 78.2099 16.6292 78.2148 16.619C78.2198 16.6088 78.2268 16.5997 78.2353 16.5922C78.2438 16.5847 78.2537 16.5789 78.2644 16.5752C78.3924 16.5336 78.5286 16.5238 78.6612 16.5465C78.7939 16.5693 78.919 16.6241 79.0257 16.706C79.0434 16.7199 79.0549 16.74 79.058 16.7622C79.061 16.7845 79.0553 16.807 79.0421 16.8251C79.0338 16.8359 79.0232 16.8447 79.0111 16.8508C78.999 16.8568 78.9856 16.86 78.972 16.8601Z" fill="#263238"/>
<path d="M82.9697 19.2697C82.6801 20.526 82.3532 22.8262 83.2032 23.6622C83.2032 23.6622 82.8156 24.9349 80.4827 24.9349C77.914 24.9349 79.3034 23.6622 79.3034 23.6622C80.7045 23.3282 80.7162 22.2914 80.506 21.3153L82.9697 19.2697Z" fill="#FFC3BD"/>
<path d="M84.1068 24.2502C84.359 23.7388 84.6369 23.1503 84.1068 22.9681C83.5277 22.765 80.3261 22.5595 79.2029 22.9378C78.9029 23.0143 78.6455 23.2068 78.4874 23.4731C78.3293 23.7393 78.2834 24.0575 78.3599 24.3576L84.1068 24.2502Z" fill="#F1592A"/>
<path d="M86.5632 24.1549C88.0414 24.8368 88.7934 30.0069 88.7934 30.0069L85.816 30.941C85.2841 29.573 84.8525 28.1682 84.5246 26.7376C84.0669 24.5799 85.05 23.459 86.5632 24.1549Z" fill="#263238"/>
<path d="M68.2647 32.1997L66.8916 31.0181L65.6562 32.8162C65.6562 32.8162 66.7655 33.7059 67.9914 33.3416L68.2647 32.1997Z" fill="#FFC3BD"/>
<path d="M65.0822 30.4464L64.8931 32.2234L65.6567 32.8166L66.892 31.0185L65.0822 30.4464Z" fill="#FFC3BD"/>
<path d="M83.2842 17.3575C83.1114 19.1416 83.0997 20.1925 82.1656 21.1079C81.8648 21.4059 81.4886 21.6165 81.0772 21.7171C80.6659 21.8177 80.2349 21.8046 79.8304 21.6791C79.426 21.5537 79.0633 21.3206 78.7811 21.0048C78.4989 20.6891 78.3079 20.3025 78.2285 19.8866C77.9016 18.2846 78.2285 15.6365 80.0103 14.9266C80.3896 14.7631 80.8052 14.7021 81.2154 14.7498C81.6257 14.7975 82.0162 14.9523 82.3478 15.1985C82.6795 15.4447 82.9405 15.7738 83.1049 16.1528C83.2692 16.5317 83.3311 16.9472 83.2842 17.3575Z" fill="#FFC3BD"/>
<path d="M79.6298 17.9297C79.4734 16.6967 79.4991 16.2297 80.1576 15.9565C79.4734 15.821 78.8802 15.8023 78.5977 15.403C78.3151 15.0037 78.2474 13.9832 79.6205 13.5162C79.4944 13.7497 79.8937 14.2354 81.1571 13.7964C82.4204 13.3574 84.2605 13.3107 84.4263 14.595C85.0942 14.3615 86.2128 16.4235 84.8934 17.9297C83.7935 19.1907 83.0602 20.0617 82.8431 20.7319C82.8329 20.7633 82.8162 20.7922 82.794 20.8167C82.7719 20.8411 82.7448 20.8606 82.7146 20.8739C82.6844 20.8871 82.6517 20.8938 82.6187 20.8935C82.5857 20.8932 82.5531 20.8859 82.5231 20.872C82.0678 20.6595 81.2528 20.8417 80.8885 20.9398C80.8372 20.9531 80.7829 20.9485 80.7345 20.9269C80.6861 20.9052 80.6466 20.8678 80.6223 20.8207C80.3864 20.3349 79.7489 18.9478 79.6298 17.9297Z" fill="#263238"/>
<path d="M84.1792 14.751C84.1792 14.751 84.721 13.9874 85.7601 14.5549C85.2258 14.53 84.6912 14.5963 84.1792 14.751Z" fill="#263238"/>
<path d="M84.2681 14.9147C84.2681 14.9147 85.0223 14.4477 84.4339 13.5673C84.4699 14.023 84.4135 14.4813 84.2681 14.9147Z" fill="#263238"/>
<path d="M80.5037 17.9811C80.4217 18.4226 80.2027 18.8271 79.8778 19.137C79.4458 19.5457 79.0722 19.2561 79.0605 18.7307C79.0488 18.2637 79.259 17.4744 79.7611 17.2642C80.2631 17.054 80.5924 17.4534 80.5037 17.9811Z" fill="#FFC3BD"/>
<path opacity="0.3" d="M79.3218 46.2652C79.4899 50.1836 79.7538 54.7326 80.1368 57.3317C80.2839 58.3218 80.4987 59.7089 80.7556 61.3178C81.7877 55.6853 82.4042 48.4276 79.3218 46.2652Z" fill="black"/>
<path d="M78.0351 82.6912C77.8156 82.6912 77.6031 82.6609 77.5354 82.5628C77.5177 82.5366 77.5083 82.5057 77.5083 82.4741C77.5083 82.4424 77.5177 82.4115 77.5354 82.3853C77.5667 82.3384 77.614 82.3044 77.6685 82.2896C77.9557 82.2125 78.5442 82.5535 78.5699 82.5698C78.5771 82.5738 78.5828 82.5801 78.5857 82.5878C78.5887 82.5955 78.5889 82.604 78.5862 82.6118C78.5846 82.6199 78.5806 82.6273 78.5748 82.6331C78.569 82.6389 78.5616 82.6429 78.5536 82.6445C78.3823 82.6744 78.2089 82.6901 78.0351 82.6912ZM77.7759 82.3596C77.7496 82.3558 77.7229 82.3558 77.6965 82.3596C77.6798 82.3628 77.6639 82.3695 77.6498 82.3791C77.6358 82.3888 77.6238 82.4012 77.6148 82.4157C77.5844 82.4671 77.5938 82.4927 77.6031 82.5068C77.6802 82.6165 78.1122 82.6188 78.4345 82.5745C78.2312 82.4604 78.0074 82.3874 77.7759 82.3596Z" fill="#F1592A"/>
<path d="M78.556 82.6444H78.5397C78.3365 82.5509 77.9372 82.1773 77.9769 81.9858C77.9769 81.9391 78.0189 81.8831 78.131 81.8714C78.1726 81.8662 78.2149 81.8697 78.2552 81.8818C78.2954 81.8938 78.3326 81.9142 78.3645 81.9415C78.577 82.1213 78.598 82.5836 78.598 82.6023C78.5979 82.6095 78.5961 82.6166 78.5929 82.6231C78.5896 82.6295 78.585 82.6352 78.5794 82.6397C78.5721 82.6433 78.5641 82.645 78.556 82.6444ZM78.1614 81.9438H78.138C78.0633 81.9438 78.0586 81.9788 78.0563 81.9882C78.0329 82.1049 78.3015 82.3968 78.5093 82.5229C78.4964 82.3297 78.4238 82.1453 78.3015 81.9952C78.2617 81.9635 78.2121 81.947 78.1614 81.9485V81.9438Z" fill="#F1592A"/>
<path d="M80.443 82.6048H78.729L78.6963 78.6303H80.4127L80.443 82.6048Z" fill="#FFC3BD"/>
<path d="M78.7452 82.4069H80.6133C80.6468 82.4064 80.6793 82.4179 80.705 82.4393C80.7307 82.4607 80.7479 82.4907 80.7534 82.5236L81.0407 84.0485C81.0472 84.0861 81.0454 84.1246 81.0353 84.1614C81.0252 84.1981 81.0072 84.2322 80.9824 84.2612C80.9577 84.2902 80.9268 84.3134 80.8921 84.3291C80.8573 84.3448 80.8196 84.3527 80.7815 84.3521C80.1066 84.3521 79.1305 84.303 78.2828 84.303C77.288 84.303 76.4287 84.3568 75.2634 84.3568C74.5628 84.3568 74.39 83.6445 74.6866 83.5791C76.0387 83.2872 77.1362 83.2545 78.3202 82.54C78.4471 82.4579 78.5941 82.4119 78.7452 82.4069Z" fill="#263238"/>
<path opacity="0.2" d="M78.6992 78.6327L78.7132 80.6807H80.4296L80.4156 78.6327H78.6992Z" fill="black"/>
<path d="M76.0198 38.9667C76.0198 38.9667 75.3192 51.7939 75.3332 57.0248C75.3332 62.4658 78.0887 80.2833 78.0887 80.2833H80.9937C80.9937 80.2833 80.2371 62.7833 80.564 57.4451C80.912 51.6071 82.598 38.9714 82.598 38.9714L76.0198 38.9667Z" fill="#F1592A"/>
<path d="M77.5709 79.1255C77.5568 79.1255 77.69 80.3328 77.69 80.3328H81.2254L81.3609 79.2563L77.5709 79.1255Z" fill="#263238"/>
<path d="M76.6457 24.1389C76.6457 24.1389 73.722 31.5251 74.9947 44.2916H85.6712C85.7833 42.8905 84.6671 30.6868 86.2597 24.0501C85.2495 23.8546 84.2276 23.7251 83.2006 23.6625C81.9018 23.5877 80.5997 23.5877 79.3008 23.6625C78.4048 23.7526 77.5172 23.9119 76.6457 24.1389Z" fill="#263238"/>
<path opacity="0.2" d="M75.1349 30.8243C74.9761 31.9919 74.8453 33.3253 74.7612 34.7942C76.8349 32.8887 77.5448 28.1412 77.5448 28.1412L75.1349 30.8243Z" fill="black"/>
<path d="M77.7453 27.6558C77.325 28.7486 76.9 29.8018 76.4329 30.8597C75.9659 31.9175 75.4825 32.9613 74.9384 34.0075L74.7259 34.3975L74.6185 34.5936C74.5741 34.673 74.5788 34.6777 74.4574 34.8809C74.248 35.2101 73.9578 35.4802 73.6144 35.6655C73.3304 35.8148 73.0204 35.9083 72.7013 35.941C72.2626 35.9812 71.8202 35.9457 71.3936 35.836C71.0562 35.7524 70.7253 35.6447 70.4035 35.5137C69.8257 35.2745 69.2661 34.9935 68.7291 34.673C68.4653 34.5212 68.2131 34.3578 67.9632 34.206C67.7133 34.0542 67.4868 33.8604 67.2183 33.6736L68.4793 31.74C69.3842 32.2387 70.3341 32.6507 71.3165 32.9707C71.525 33.0351 71.7382 33.0835 71.954 33.1155C72.0772 33.1417 72.2045 33.1417 72.3277 33.1155C72.3417 33.1155 72.2973 33.1014 72.2202 33.1411C72.1264 33.189 72.0461 33.2596 71.9867 33.3466C71.9377 33.4284 72.0007 33.3069 72.0218 33.2602L72.1058 33.0758L72.274 32.7091C72.7176 31.719 73.1286 30.6939 73.528 29.6734C73.9273 28.6529 74.3149 27.588 74.6722 26.5582L77.7453 27.6558Z" fill="#263238"/>
<path d="M78.9063 24.9143C79.4527 26.4415 75.5856 32.59 75.5856 32.59L73.2925 30.3179C73.2925 30.3179 73.8786 28.3867 74.6516 26.0608C75.4128 23.7747 78.3855 23.4548 78.9063 24.9143Z" fill="#263238"/>
</svg>
