<svg width="118" height="106" viewBox="0 0 118 106" fill="none" xmlns="http://www.w3.org/2000/svg">
<path d="M73.4936 76.8889C71.1701 77.7113 68.729 77.6069 66.6012 76.7714C64.356 80.6745 59.6566 82.6718 55.1531 81.3272C52.7773 80.6223 50.8714 79.1081 49.6444 77.1761C45.5324 79.0167 40.5459 77.868 37.7001 74.1215C36.199 72.1635 35.5463 69.8138 35.6768 67.5294C31.2777 66.6025 27.9229 62.7386 27.8054 58.0523C27.7532 55.5721 28.6017 53.3007 30.0506 51.5254C27.0352 48.1837 26.5914 43.0927 29.2674 39.2288C30.6642 37.1924 32.7005 35.8478 34.9197 35.2604C34.4367 30.783 37.0736 26.4099 41.4988 24.8565C43.8354 24.0341 46.2634 24.1386 48.4042 24.974C50.6495 21.0709 55.3489 19.0737 59.8524 20.4182C62.2152 21.1232 64.121 22.6374 65.3611 24.5694C69.4731 22.7288 74.4465 23.8775 77.3053 27.6109C78.8065 29.582 79.4592 31.9317 79.3156 34.2161C83.7278 35.1429 87.0826 38.9938 87.187 43.6931C87.2523 46.1603 86.3908 48.4447 84.9418 50.22C87.9572 53.5618 88.4141 58.6528 85.7381 62.5167C84.3283 64.5531 82.3049 65.8976 80.0858 66.472C80.5688 70.9495 77.9319 75.3355 73.4936 76.8889Z" fill="#36D860"/>
<path d="M53.8749 63.0519L43.0664 52.2564L46.4865 48.8363L53.7705 56.1073L69.2523 39.6465L72.7768 42.9621L53.8749 63.0519Z" fill="white"/>
<circle cx="114" cy="59.5" r="3.5" fill="#D96C86"/>
<circle cx="29" cy="94.5" r="3" stroke="#D96C86"/>
<circle cx="57.5" cy="104" r="2" fill="#C0DF42"/>
<circle cx="49.5" cy="2" r="2" fill="#4278DF"/>
<circle cx="5" cy="44.5" r="4" stroke="#D817B9"/>
<circle cx="80" cy="4.5" r="4.5" fill="#DF76C2"/>
<circle cx="105" cy="25.5" r="3.18182" stroke="#FFC327" stroke-width="0.636364"/>
<circle cx="93" cy="89.5" r="5.5" fill="#24B9B0"/>
<circle cx="11" cy="76.5" r="5" stroke="#27B1FF"/>
<circle cx="20" cy="14.5" r="5" stroke="#FFC327"/>
</svg>
