<svg width="23" height="22" viewBox="0 0 23 22" fill="none" xmlns="http://www.w3.org/2000/svg">
<path d="M6.91732 20.1666H4.16732C3.68109 20.1666 3.21477 19.9735 2.87096 19.6297C2.52714 19.2859 2.33398 18.8195 2.33398 18.3333V11.9166C2.33398 11.4304 2.52714 10.9641 2.87096 10.6203C3.21477 10.2765 3.68109 10.0833 4.16732 10.0833H6.91732M13.334 8.24998V4.58331C13.334 3.85397 13.0443 3.15449 12.5285 2.63877C12.0128 2.12304 11.3133 1.83331 10.584 1.83331L6.91732 10.0833V20.1666H17.2573C17.6995 20.1716 18.1285 20.0167 18.4654 19.7303C18.8023 19.444 19.0244 19.0455 19.0907 18.6083L20.3557 10.3583C20.3955 10.0956 20.3778 9.82727 20.3037 9.57204C20.2296 9.31682 20.1009 9.08075 19.9265 8.8802C19.7521 8.67965 19.5362 8.51942 19.2938 8.4106C19.0513 8.30177 18.7881 8.24697 18.5223 8.24998H13.334Z" stroke="#918C8C" stroke-width="1.5" stroke-linecap="round" stroke-linejoin="round"/>
</svg>
